<svg xmlns="http://www.w3.org/2000/svg" viewBox="0 0 593 439"><defs><style>.cls-1{fill:#fff;}.cls-2{fill:#6b6b6b;}.cls-3{fill:#0d0d0d;}.cls-11,.cls-4,.cls-6,.cls-7,.cls-9{fill:none;}.cls-4{stroke:#000;}.cls-5{opacity:0.75;isolation:isolate;}.cls-6{stroke:#d9d9d9;}.cls-7{stroke:#aaa;}.cls-10,.cls-8{fill:#286ef1;}.cls-9{stroke:#286ef1;}.cls-11,.cls-9{stroke-width:2px;}.cls-10{opacity:0.5;}.cls-11{stroke:#fff;}</style></defs><title>Asset 3mdpii</title><g id="Layer_2" data-name="Layer 2"><g id="Layer_1-2" data-name="Layer 1"><rect class="cls-1" width="489" height="285"/><path class="cls-2" d="M266.26,75.86l1-3.21h1.48l-2.08,6-.11.27a1.58,1.58,0,0,1-1.53,1,2.2,2.2,0,0,1-.61-.09v-1h.21a1.12,1.12,0,0,0,.58-.12.83.83,0,0,0,.31-.39l.16-.43-1.81-5.18h1.48Zm-5,1a1.19,1.19,0,0,0,.56-.14.85.85,0,0,0,.38-.37v-.88h-.51c-.7,0-1.06.24-1.11.71v.08a.55.55,0,0,0,.18.43A.72.72,0,0,0,261.23,76.86Zm1.14,1a1.45,1.45,0,0,1-.14-.47,1.65,1.65,0,0,1-1.3.56,1.84,1.84,0,0,1-1.27-.44,1.41,1.41,0,0,1-.49-1.11,1.48,1.48,0,0,1,.6-1.26,3,3,0,0,1,1.77-.44h.63v-.3a.88.88,0,0,0-.18-.57.75.75,0,0,0-.58-.21.82.82,0,0,0-.55.16.6.6,0,0,0-.2.46h-1.38a1.36,1.36,0,0,1,.28-.83,1.92,1.92,0,0,1,.78-.6,3,3,0,0,1,1.14-.21A2.22,2.22,0,0,1,263,73a1.65,1.65,0,0,1,.57,1.34v2.24a2.47,2.47,0,0,0,.2,1.11v.09Zm-7.14-2.52a2,2,0,0,0,.26,1.11.8.8,0,0,0,.73.38.91.91,0,0,0,.9-.54v-2a.91.91,0,0,0-.89-.54C255.57,73.68,255.23,74.22,255.23,75.3Zm-1.38-.1a3.14,3.14,0,0,1,.54-1.93,1.77,1.77,0,0,1,1.49-.71,1.55,1.55,0,0,1,1.24.56V70.48h1.39v7.34h-1.25l-.06-.55a1.63,1.63,0,0,1-1.33.64,1.78,1.78,0,0,1-1.47-.71A3.3,3.3,0,0,1,253.85,75.2Zm-.15-1.26-.5,0a1,1,0,0,0-1,.53v3.38H250.8V72.65h1.3l0,.62a1.26,1.26,0,0,1,1.15-.71,1.54,1.54,0,0,1,.43.06Zm-5.77-.27a.86.86,0,0,0-.67.28,1.43,1.43,0,0,0-.32.79h1.92v-.11a1,1,0,0,0-.25-.7A.9.9,0,0,0,247.93,73.67Zm.16,4.24a2.5,2.5,0,0,1-1.85-.7,2.45,2.45,0,0,1-.72-1.85v-.14a3,3,0,0,1,.31-1.39,2.16,2.16,0,0,1,.85-.94,2.37,2.37,0,0,1,1.26-.33,2.14,2.14,0,0,1,1.66.66,2.71,2.71,0,0,1,.61,1.9v.56h-3.29a1.31,1.31,0,0,0,.4.81,1.21,1.21,0,0,0,.86.31,1.49,1.49,0,0,0,1.25-.58l.67.76a2.06,2.06,0,0,1-.84.69A2.78,2.78,0,0,1,248.09,77.91Zm-3.83-6.53v1.27h.89v1h-.89v2.58a.63.63,0,0,0,.11.41.58.58,0,0,0,.42.13,2.37,2.37,0,0,0,.41,0v1.05a2.94,2.94,0,0,1-.84.12,1.32,1.32,0,0,1-1.48-1.46V73.66h-.75v-1h.75V71.38Zm-3.68,5a.44.44,0,0,0-.25-.4,3,3,0,0,0-.8-.26c-1.23-.26-1.85-.78-1.85-1.57a1.41,1.41,0,0,1,.57-1.14,2.3,2.3,0,0,1,1.5-.46,2.48,2.48,0,0,1,1.57.46,1.47,1.47,0,0,1,.59,1.2h-1.38a.7.7,0,0,0-.19-.49,1,1,0,0,0-1.14,0,.48.48,0,0,0-.19.4.44.44,0,0,0,.21.37,2.54,2.54,0,0,0,.74.24,7.62,7.62,0,0,1,.87.23,1.43,1.43,0,0,1,1.09,1.39,1.38,1.38,0,0,1-.6,1.15,2.65,2.65,0,0,1-1.57.43,2.78,2.78,0,0,1-1.15-.23,1.93,1.93,0,0,1-.79-.63,1.5,1.5,0,0,1-.29-.88h1.31a.71.71,0,0,0,.27.57,1.1,1.1,0,0,0,.68.19,1,1,0,0,0,.6-.15A.47.47,0,0,0,240.58,76.39Zm-5.66-2.72a.85.85,0,0,0-.67.28,1.44,1.44,0,0,0-.33.79h1.92v-.11a1,1,0,0,0-.24-.7A.9.9,0,0,0,234.92,73.67Zm.15,4.24a2.54,2.54,0,0,1-1.85-.7,2.48,2.48,0,0,1-.71-1.85v-.14a3.15,3.15,0,0,1,.3-1.39,2.22,2.22,0,0,1,.85-.94,2.42,2.42,0,0,1,1.26-.33,2.16,2.16,0,0,1,1.67.66,2.71,2.71,0,0,1,.61,1.9v.56h-3.29a1.26,1.26,0,0,0,.4.81,1.21,1.21,0,0,0,.86.31,1.47,1.47,0,0,0,1.24-.58l.68.76a2.2,2.2,0,0,1-.84.69A2.83,2.83,0,0,1,235.07,77.91ZM229.66,74l1.45-3.13h1.56l-2.28,4.43v2.52h-1.46V75.3l-2.28-4.43h1.57Z"/><path class="cls-2" d="M324.24,75.3a2,2,0,0,0,.25,1.11.83.83,0,0,0,.74.38.93.93,0,0,0,.9-.54v-2a.91.91,0,0,0-.89-.54C324.57,73.68,324.24,74.22,324.24,75.3Zm-1.38-.1a3.14,3.14,0,0,1,.54-1.93,1.75,1.75,0,0,1,1.48-.71,1.57,1.57,0,0,1,1.25.56V70.48h1.38v7.34h-1.24l-.07-.55a1.62,1.62,0,0,1-1.33.64,1.78,1.78,0,0,1-1.46-.71A3.23,3.23,0,0,1,322.86,75.2Zm-.53-3.56-2.68,6.18h-1.46L320.88,72h-3.46V70.87h4.91ZM314,71.38v1.27h.88v1H314v2.58a.63.63,0,0,0,.1.41.58.58,0,0,0,.42.13,2.37,2.37,0,0,0,.41,0v1.05a2.92,2.92,0,0,1-.83.12,1.32,1.32,0,0,1-1.49-1.46V73.66h-.75v-1h.75V71.38Zm-3.69,5a.44.44,0,0,0-.25-.4,2.86,2.86,0,0,0-.8-.26c-1.23-.26-1.84-.78-1.84-1.57A1.4,1.4,0,0,1,308,73a2.32,2.32,0,0,1,1.5-.46A2.46,2.46,0,0,1,311,73a1.47,1.47,0,0,1,.59,1.2h-1.38a.66.66,0,0,0-.19-.49,1,1,0,0,0-1.14,0,.51.51,0,0,0-.19.4.43.43,0,0,0,.22.37,2.35,2.35,0,0,0,.73.24,6.64,6.64,0,0,1,.87.23,1.43,1.43,0,0,1,1.09,1.39,1.38,1.38,0,0,1-.6,1.15,2.65,2.65,0,0,1-1.57.43,2.78,2.78,0,0,1-1.15-.23,1.93,1.93,0,0,1-.79-.63,1.5,1.5,0,0,1-.29-.88h1.31a.71.71,0,0,0,.27.57,1.1,1.1,0,0,0,.68.19,1,1,0,0,0,.6-.15A.47.47,0,0,0,310.3,76.39Zm-6,.47a1.19,1.19,0,0,0,.56-.14.93.93,0,0,0,.39-.37v-.88h-.52c-.69,0-1.06.24-1.1.71v.08a.55.55,0,0,0,.18.43A.72.72,0,0,0,304.32,76.86Zm1.14,1a1.75,1.75,0,0,1-.14-.47,1.64,1.64,0,0,1-1.3.56,1.79,1.79,0,0,1-1.26-.44,1.42,1.42,0,0,1-.5-1.11,1.47,1.47,0,0,1,.61-1.26,3,3,0,0,1,1.76-.44h.64v-.3a.89.89,0,0,0-.19-.57.73.73,0,0,0-.58-.21.86.86,0,0,0-.55.16.59.59,0,0,0-.19.46h-1.38a1.42,1.42,0,0,1,.27-.83,2,2,0,0,1,.79-.6,2.88,2.88,0,0,1,1.13-.21,2.27,2.27,0,0,1,1.52.48,1.67,1.67,0,0,1,.56,1.34v2.24a2.47,2.47,0,0,0,.2,1.11v.09Zm-6.57-1.15h3.05v1.15h-4.48V70.87h1.43Z"/><path class="cls-3" d="M410,74a9.77,9.77,0,0,1,.19-2,10.44,10.44,0,0,1,.57-1.88,10,10,0,0,1,.93-1.73,10,10,0,0,1,2.75-2.75,10,10,0,0,1,1.73-.93,10.44,10.44,0,0,1,1.88-.57A9.77,9.77,0,0,1,420,64h46a9.77,9.77,0,0,1,1.95.19,10.44,10.44,0,0,1,1.88.57,10,10,0,0,1,1.73.93,10,10,0,0,1,2.75,2.75,10,10,0,0,1,.93,1.73,10.44,10.44,0,0,1,.57,1.88,10.1,10.1,0,0,1,0,3.9,10.44,10.44,0,0,1-.57,1.88,10,10,0,0,1-.93,1.73,10,10,0,0,1-2.75,2.75,10,10,0,0,1-1.73.93,10.44,10.44,0,0,1-1.88.57A9.77,9.77,0,0,1,466,84H420a9.77,9.77,0,0,1-1.95-.19,10.44,10.44,0,0,1-1.88-.57,10,10,0,0,1-1.73-.93,10,10,0,0,1-2.75-2.75,10,10,0,0,1-.93-1.73,10.44,10.44,0,0,1-.57-1.88A9.77,9.77,0,0,1,410,74Z"/><path class="cls-4" d="M213.05,76.87V71.43a9.51,9.51,0,0,1,.18-1.85,10,10,0,0,1,.54-1.79,10.35,10.35,0,0,1,.88-1.64,9.43,9.43,0,0,1,2.62-2.62,9.33,9.33,0,0,1,1.65-.88,9.14,9.14,0,0,1,1.78-.54,9.59,9.59,0,0,1,1.85-.18H468.34a9.59,9.59,0,0,1,1.85.18,9.14,9.14,0,0,1,1.78.54,8.9,8.9,0,0,1,1.64.88,9.62,9.62,0,0,1,1.44,1.18,9.11,9.11,0,0,1,1.19,1.44,9.55,9.55,0,0,1,.87,1.64,9.24,9.24,0,0,1,.54,1.79,8.8,8.8,0,0,1,.19,1.85v5.44a8.87,8.87,0,0,1-.19,1.85,9.24,9.24,0,0,1-.54,1.79,9.55,9.55,0,0,1-.87,1.64,9.11,9.11,0,0,1-1.19,1.44,9.62,9.62,0,0,1-1.44,1.18,8.9,8.9,0,0,1-1.64.88,9.14,9.14,0,0,1-1.78.54,9.59,9.59,0,0,1-1.85.18H222.55a9.59,9.59,0,0,1-1.85-.18,9.14,9.14,0,0,1-1.78-.54,9.33,9.33,0,0,1-1.65-.88,9.43,9.43,0,0,1-2.62-2.62,10.35,10.35,0,0,1-.88-1.64,10,10,0,0,1-.54-1.79A9.59,9.59,0,0,1,213.05,76.87Z"/><g class="cls-5"><line class="cls-6" x1="128.32" y1="226.91" x2="128.32" y2="129.14"/><line class="cls-6" x1="69.66" y1="226.91" x2="69.66" y2="129.14"/><line class="cls-6" x1="186.98" y1="226.91" x2="186.98" y2="129.14"/><line class="cls-6" x1="245.64" y1="226.91" x2="245.64" y2="129.14"/><line class="cls-6" x1="304.3" y1="226.91" x2="304.3" y2="129.14"/><line class="cls-6" x1="362.96" y1="226.91" x2="362.96" y2="129.14"/><line class="cls-6" x1="421.62" y1="226.91" x2="421.62" y2="129.14"/><g class="cls-5"><line class="cls-7" x1="9.78" y1="202.47" x2="479.06" y2="202.47"/></g><g class="cls-5"><line class="cls-7" x1="9.78" y1="178.03" x2="479.06" y2="178.03"/></g><g class="cls-5"><line class="cls-7" x1="9.78" y1="153.59" x2="479.06" y2="153.59"/></g><g class="cls-5"><line class="cls-7" x1="9.78" y1="129.14" x2="479.06" y2="129.14"/></g><g class="cls-5"><line class="cls-7" x1="9.78" y1="251.35" x2="479.06" y2="251.35"/></g><g class="cls-5"><line class="cls-7" x1="9.78" y1="226.91" x2="479.06" y2="226.91"/></g><g class="cls-5"><rect class="cls-6" x="10.19" y="105.11" width="468.47" height="170.28"/></g></g><path class="cls-8" d="M381,35V27a9.77,9.77,0,0,1,.19-1.95,10.44,10.44,0,0,1,.57-1.88,10,10,0,0,1,.93-1.73,10,10,0,0,1,2.75-2.75,10,10,0,0,1,1.73-.93,10.44,10.44,0,0,1,1.88-.57A9.77,9.77,0,0,1,391,17h78a9.77,9.77,0,0,1,1.95.19,10.44,10.44,0,0,1,1.88.57,10,10,0,0,1,1.73.93,10,10,0,0,1,2.75,2.75,10,10,0,0,1,.93,1.73,10.44,10.44,0,0,1,.57,1.88A9.77,9.77,0,0,1,479,27v8a9.77,9.77,0,0,1-.19,2,10.44,10.44,0,0,1-.57,1.88,10,10,0,0,1-.93,1.73,10,10,0,0,1-2.75,2.75,10,10,0,0,1-1.73.93,10.44,10.44,0,0,1-1.88.57A9.77,9.77,0,0,1,469,45H391a9.77,9.77,0,0,1-1.95-.19,10.44,10.44,0,0,1-1.88-.57,10,10,0,0,1-1.73-.93,10,10,0,0,1-2.75-2.75,10,10,0,0,1-.93-1.73,10.44,10.44,0,0,1-.57-1.88A9.77,9.77,0,0,1,381,35Z"/><path class="cls-1" d="M460.19,34.25a1.4,1.4,0,0,0,.7-.17,1.12,1.12,0,0,0,.48-.46V32.51h-.65c-.86,0-1.32.3-1.37.9v.1a.66.66,0,0,0,.23.53A.86.86,0,0,0,460.19,34.25Zm1.42,1.2a2,2,0,0,1-.17-.58,2.08,2.08,0,0,1-1.63.7,2.31,2.31,0,0,1-1.58-.55,1.79,1.79,0,0,1-.62-1.38,1.85,1.85,0,0,1,.76-1.58,3.8,3.8,0,0,1,2.2-.55h.8v-.37a1.09,1.09,0,0,0-.23-.72.92.92,0,0,0-.73-.27,1,1,0,0,0-.68.21.7.7,0,0,0-.25.57h-1.72a1.7,1.7,0,0,1,.34-1,2.28,2.28,0,0,1,1-.75,3.59,3.59,0,0,1,1.42-.27,2.78,2.78,0,0,1,1.89.6,2.09,2.09,0,0,1,.71,1.68V34a3,3,0,0,0,.26,1.39v.1Zm-5.6-8V29h1.1v1.27H456v3.22a.76.76,0,0,0,.14.51.65.65,0,0,0,.52.16,2.64,2.64,0,0,0,.51,0v1.31a3.68,3.68,0,0,1-1,.15,1.64,1.64,0,0,1-1.85-1.83V30.26h-1V29h1V27.41Zm-6.1,6.84a1.43,1.43,0,0,0,.71-.17,1,1,0,0,0,.47-.46V32.51h-.64q-1.29,0-1.38.9v.1a.69.69,0,0,0,.23.53A.88.88,0,0,0,449.91,34.25Zm1.43,1.2a1.73,1.73,0,0,1-.17-.58,2.09,2.09,0,0,1-1.63.7A2.29,2.29,0,0,1,448,35a1.79,1.79,0,0,1-.62-1.38,1.82,1.82,0,0,1,.76-1.58,3.78,3.78,0,0,1,2.2-.55h.79v-.37a1,1,0,0,0-.23-.72.89.89,0,0,0-.72-.27,1.05,1.05,0,0,0-.69.21.72.72,0,0,0-.24.57h-1.73a1.71,1.71,0,0,1,.35-1,2.28,2.28,0,0,1,1-.75,3.56,3.56,0,0,1,1.42-.27,2.82,2.82,0,0,1,1.89.6,2.08,2.08,0,0,1,.7,1.68V34a3.12,3.12,0,0,0,.26,1.39v.1Zm-9-3.15a2.55,2.55,0,0,0,.32,1.39,1,1,0,0,0,.92.48,1.14,1.14,0,0,0,1.12-.67V31a1.12,1.12,0,0,0-1.11-.67C442.79,30.28,442.37,31,442.37,32.3Zm-1.72-.13a3.9,3.9,0,0,1,.67-2.4,2.19,2.19,0,0,1,1.86-.89,2,2,0,0,1,1.55.7V26.29h1.73v9.16h-1.55l-.09-.69a2,2,0,0,1-1.66.81,2.19,2.19,0,0,1-1.83-.9A4,4,0,0,1,440.65,32.17Zm-7.53-2.47a2.16,2.16,0,0,1,1.73-.82c1.4,0,2.11.81,2.13,2.44v4.13h-1.73V31.36a1.15,1.15,0,0,0-.24-.81,1,1,0,0,0-.79-.27,1.18,1.18,0,0,0-1.1.58v4.59H431.4V26.29h1.72Zm-4.27,4a.55.55,0,0,0-.32-.5,3.59,3.59,0,0,0-1-.33c-1.53-.32-2.3-1-2.3-2a1.79,1.79,0,0,1,.71-1.44,2.92,2.92,0,0,1,1.87-.57,3.11,3.11,0,0,1,2,.57,1.84,1.84,0,0,1,.74,1.51h-1.72a.82.82,0,0,0-.24-.61,1.24,1.24,0,0,0-1.42-.05.62.62,0,0,0-.24.5.55.55,0,0,0,.27.47,3.17,3.17,0,0,0,.91.3,7.27,7.27,0,0,1,1.09.29,1.78,1.78,0,0,1,1.37,1.73,1.7,1.7,0,0,1-.76,1.44,3.31,3.31,0,0,1-2,.54,3.46,3.46,0,0,1-1.44-.29,2.45,2.45,0,0,1-1-.79A1.91,1.91,0,0,1,425,33.4h1.63a.91.91,0,0,0,.34.7,1.3,1.3,0,0,0,.85.25,1.17,1.17,0,0,0,.74-.19A.57.57,0,0,0,428.85,33.67Zm-7.13-3.4a1.08,1.08,0,0,0-.83.35,1.74,1.74,0,0,0-.41,1h2.4v-.14a1.25,1.25,0,0,0-.31-.88A1.12,1.12,0,0,0,421.72,30.27Zm.2,5.3a3.19,3.19,0,0,1-2.32-.87,3.12,3.12,0,0,1-.89-2.32v-.17a3.9,3.9,0,0,1,.38-1.74,2.76,2.76,0,0,1,1.06-1.18,3,3,0,0,1,1.58-.41,2.66,2.66,0,0,1,2.08.83,3.39,3.39,0,0,1,.76,2.37v.7h-4.11a1.63,1.63,0,0,0,.5,1,1.57,1.57,0,0,0,1.07.38,1.86,1.86,0,0,0,1.56-.72l.85.95a2.71,2.71,0,0,1-1.05.86A3.58,3.58,0,0,1,421.92,35.57Zm-3.49-5a5,5,0,0,0-.62-.05,1.25,1.25,0,0,0-1.28.67v4.22h-1.72V29h1.62l.05.77a1.6,1.6,0,0,1,1.44-.88,1.9,1.9,0,0,1,.54.07Zm-7.33,4.84V30.26h-1V29h1v-.54a2.25,2.25,0,0,1,.62-1.69,2.43,2.43,0,0,1,1.75-.6,4.05,4.05,0,0,1,.88.12l0,1.34a2,2,0,0,0-.53-.06c-.64,0-1,.31-1,.92V29h1.28v1.27h-1.28v5.19ZM407,30.27a1.1,1.1,0,0,0-.84.35,1.81,1.81,0,0,0-.41,1h2.4v-.14a1.21,1.21,0,0,0-.31-.88A1.11,1.11,0,0,0,407,30.27Zm.19,5.3a3.17,3.17,0,0,1-2.31-.87,3.08,3.08,0,0,1-.89-2.32v-.17a3.9,3.9,0,0,1,.37-1.74,2.79,2.79,0,0,1,1.07-1.18,2.94,2.94,0,0,1,1.57-.41,2.63,2.63,0,0,1,2.08.83,3.4,3.4,0,0,1,.77,2.37v.7h-4.11a1.58,1.58,0,0,0,.5,1,1.56,1.56,0,0,0,1.07.38,1.85,1.85,0,0,0,1.55-.72l.85.95a2.71,2.71,0,0,1-1,.86A3.51,3.51,0,0,1,407.19,35.57Zm-8.67-4.75H400a1.45,1.45,0,0,0,1-.34,1.23,1.23,0,0,0,.37-.95,1.34,1.34,0,0,0-.35-1,1.47,1.47,0,0,0-1.07-.35h-1.44ZM400,32.27h-1.43v3.18h-1.79V26.76H400a3.65,3.65,0,0,1,2.38.69,2.38,2.38,0,0,1,.83,1.94,2.63,2.63,0,0,1-.39,1.48,2.59,2.59,0,0,1-1.16.95l1.88,3.55v.08h-1.92Z"/><path d="M154,75.66a.92.92,0,0,0-.52-.83,6,6,0,0,0-1.67-.55Q148,73.49,148,71a2.93,2.93,0,0,1,1.18-2.38,4.76,4.76,0,0,1,3.11-1,5.12,5.12,0,0,1,3.28,1,3,3,0,0,1,1.23,2.5h-2.88a1.37,1.37,0,0,0-.39-1,2.09,2.09,0,0,0-2.37-.08,1,1,0,0,0-.4.83.9.9,0,0,0,.45.78,5,5,0,0,0,1.53.51,12,12,0,0,1,1.81.47,3,3,0,0,1,2.28,2.9,2.81,2.81,0,0,1-1.26,2.38,5.45,5.45,0,0,1-3.27.91,5.71,5.71,0,0,1-2.4-.48A3.94,3.94,0,0,1,148.27,77a3.08,3.08,0,0,1-.6-1.82h2.72a1.51,1.51,0,0,0,.57,1.17,2.25,2.25,0,0,0,1.41.41,2.08,2.08,0,0,0,1.25-.31A1,1,0,0,0,154,75.66Zm-7-5.1a8.23,8.23,0,0,0-1-.07,2.11,2.11,0,0,0-2.14,1.1v7H141V67.87h2.72l.08,1.28a2.64,2.64,0,0,1,2.39-1.48,2.92,2.92,0,0,1,.9.13Zm-14.94,2.8a4.1,4.1,0,0,0,.58,2.35,1.93,1.93,0,0,0,1.65.8,1.9,1.9,0,0,0,1.63-.79,4.45,4.45,0,0,0,.59-2.57,4,4,0,0,0-.59-2.33A1.9,1.9,0,0,0,134.3,70a1.88,1.88,0,0,0-1.63.82A4.49,4.49,0,0,0,132.09,73.36Zm-2.87-.21a6.35,6.35,0,0,1,.62-2.85,4.45,4.45,0,0,1,1.77-1.94,5.15,5.15,0,0,1,2.69-.69A4.87,4.87,0,0,1,137.85,69a5.33,5.33,0,0,1,1.54,3.62l0,.74a5.65,5.65,0,0,1-1.38,4,5.38,5.38,0,0,1-7.43,0,5.76,5.76,0,0,1-1.38-4.06Zm-2.49-7.93v2.65h1.84V70h-1.84v5.37a1.22,1.22,0,0,0,.23.85,1.1,1.1,0,0,0,.87.26,4.36,4.36,0,0,0,.85-.07v2.18a6.06,6.06,0,0,1-1.74.26,2.75,2.75,0,0,1-3.09-3V70h-1.57V67.87h1.57V65.22Zm-8.67-.14a1.4,1.4,0,0,1,.43-1.06,1.62,1.62,0,0,1,1.18-.42,1.65,1.65,0,0,1,1.18.42,1.4,1.4,0,0,1,.43,1.06,1.44,1.44,0,0,1-.44,1.08,1.63,1.63,0,0,1-1.17.42,1.65,1.65,0,0,1-1.17-.42A1.44,1.44,0,0,1,118.06,65.08Zm3,13.55h-2.88V67.87h2.88Zm-7.48-3a.93.93,0,0,0-.53-.83,5.84,5.84,0,0,0-1.67-.55q-3.84-.8-3.84-3.26a2.94,2.94,0,0,1,1.19-2.38,4.74,4.74,0,0,1,3.11-1,5.09,5.09,0,0,1,3.27,1,3,3,0,0,1,1.23,2.5h-2.87a1.34,1.34,0,0,0-.4-1,1.67,1.67,0,0,0-1.24-.41,1.7,1.7,0,0,0-1.12.33,1,1,0,0,0-.4.83.9.9,0,0,0,.45.78,5,5,0,0,0,1.53.51,12.34,12.34,0,0,1,1.81.47,3,3,0,0,1,2.27,2.9,2.81,2.81,0,0,1-1.26,2.38,5.42,5.42,0,0,1-3.26.91,5.79,5.79,0,0,1-2.41-.48A4.07,4.07,0,0,1,107.85,77a3.06,3.06,0,0,1-.59-1.82H110a1.51,1.51,0,0,0,.57,1.17,2.25,2.25,0,0,0,1.41.41,2,2,0,0,0,1.24-.31A1,1,0,0,0,113.63,75.66Zm-11-10.58A1.43,1.43,0,0,1,103,64a1.65,1.65,0,0,1,1.19-.42,1.61,1.61,0,0,1,1.17.42,1.51,1.51,0,0,1,0,2.14,1.6,1.6,0,0,1-1.16.42,1.65,1.65,0,0,1-1.18-.42A1.43,1.43,0,0,1,102.58,65.08Zm3,13.55h-2.89V67.87h2.89ZM95,75l3.28-10.89h3.33L96.57,78.63H93.46l-5-14.48h3.31ZM79.86,69.72a5.28,5.28,0,0,0-.49-2.62,1.84,1.84,0,0,0-3,0,5.09,5.09,0,0,0-.5,2.44V73a5.79,5.79,0,0,0,.47,2.64,1.67,1.67,0,0,0,1.56.85,1.61,1.61,0,0,0,1.52-.82,5.44,5.44,0,0,0,.48-2.53Zm2.88,2.92a7.39,7.39,0,0,1-1.24,4.6,5,5,0,0,1-7.26,0A7.09,7.09,0,0,1,73,72.79V70.13a7.24,7.24,0,0,1,1.26-4.61,5,5,0,0,1,7.25,0A7.14,7.14,0,0,1,82.74,70ZM66.49,71.25a2.24,2.24,0,0,0-1.26.37,2.2,2.2,0,0,0-.84.95v.88A3.92,3.92,0,0,0,65,75.71a1.85,1.85,0,0,0,1.59.8A1.79,1.79,0,0,0,68,75.79,3.42,3.42,0,0,0,68,72,1.86,1.86,0,0,0,66.49,71.25ZM69.3,64v2.37H69a4.92,4.92,0,0,0-3.14,1,4.15,4.15,0,0,0-1.43,2.74,3.9,3.9,0,0,1,2.92-1.18,3.66,3.66,0,0,1,3,1.36,5.42,5.42,0,0,1,1.12,3.56,5.29,5.29,0,0,1-.62,2.55,4.3,4.3,0,0,1-1.73,1.78,5,5,0,0,1-2.53.64,4.72,4.72,0,0,1-3.7-1.59A6.22,6.22,0,0,1,61.51,73V72a9.33,9.33,0,0,1,.89-4.16A6.39,6.39,0,0,1,65,65a7.46,7.46,0,0,1,3.87-1ZM55,71.25a2.24,2.24,0,0,0-1.26.37,2.2,2.2,0,0,0-.84.95v.88a3.92,3.92,0,0,0,.57,2.26,1.85,1.85,0,0,0,1.59.8,1.8,1.8,0,0,0,1.49-.72,3.42,3.42,0,0,0,0-3.81A1.86,1.86,0,0,0,55,71.25ZM57.81,64v2.37h-.28a5,5,0,0,0-3.15,1A4.14,4.14,0,0,0,53,70.12a3.9,3.9,0,0,1,2.92-1.18,3.66,3.66,0,0,1,3,1.36A5.42,5.42,0,0,1,60,73.86a5.28,5.28,0,0,1-.61,2.55,4.3,4.3,0,0,1-1.73,1.78,5,5,0,0,1-2.53.64,4.7,4.7,0,0,1-3.7-1.59A6.22,6.22,0,0,1,50,73V72a9.32,9.32,0,0,1,.88-4.16A6.48,6.48,0,0,1,53.46,65a7.44,7.44,0,0,1,3.87-1ZM46.1,82.26l-1.5-.78.36-.65a5.33,5.33,0,0,0,.69-2.42V76.18h2.42v2a5.13,5.13,0,0,1-.55,2.23A5.79,5.79,0,0,1,46.1,82.26ZM40.62,69.72a5.27,5.27,0,0,0-.5-2.62,1.83,1.83,0,0,0-3,0,5,5,0,0,0-.51,2.44V73a5.64,5.64,0,0,0,.48,2.64,1.64,1.64,0,0,0,1.55.85,1.61,1.61,0,0,0,1.52-.82,5.43,5.43,0,0,0,.49-2.53Zm2.87,2.92a7.33,7.33,0,0,1-1.24,4.6,4.34,4.34,0,0,1-3.64,1.59A4.37,4.37,0,0,1,35,77.27a7.09,7.09,0,0,1-1.28-4.48V70.13A7.24,7.24,0,0,1,35,65.52,4.4,4.4,0,0,1,38.59,64a4.36,4.36,0,0,1,3.62,1.56A7.08,7.08,0,0,1,43.49,70Zm-16.43-.89a2,2,0,0,0,1.19-.36,2.36,2.36,0,0,0,.77-.87V69.34a4,4,0,0,0-.56-2.27,1.74,1.74,0,0,0-1.49-.8,1.66,1.66,0,0,0-1.42.79A3.38,3.38,0,0,0,25,69,3.3,3.3,0,0,0,25.53,71,1.76,1.76,0,0,0,27.06,71.75ZM29,72.84A3.63,3.63,0,0,1,26.35,74a3.87,3.87,0,0,1-3.07-1.32,5.22,5.22,0,0,1-1.15-3.56,5.57,5.57,0,0,1,.61-2.6,4.57,4.57,0,0,1,1.74-1.85A4.76,4.76,0,0,1,27,64a4.57,4.57,0,0,1,2.54.72,4.67,4.67,0,0,1,1.74,2.06,7.29,7.29,0,0,1,.62,3.07v1.06a8.37,8.37,0,0,1-1.8,5.69A6.79,6.79,0,0,1,25,78.76h-.71v-2.4h.64Q28.67,76.19,29,72.84ZM17.74,78.63H14.87V67.55l-3.43,1.07V66.28l6-2.15h.3Z"/><path class="cls-9" d="M478.65,191.06c-31.77,0-29.25-27.7-45.21-27.7-20,0-21.59,37.48-43.59,37.48s-18.74-68-53.37-68-19.14,44.81-61.1,44.81c-30.15,0-39.52-20-61.92-20-37.07,0-34.22,35.85-57.44,35.85s-28.11-18.74-56.22-18.74c-63.95,0-63.14,40.33-90,40.33"/><path class="cls-10" d="M440.5,42a.51.51,0,1,1-.35.15A.45.45,0,0,1,440.5,42Z"/><polygon class="cls-3" points="436.69 52.81 436.69 32.19 451.36 46.86 444.88 46.86 449.98 56.85 446.79 58.55 441.37 48.34 436.69 52.81"/><polygon class="cls-11" points="437.27 31.61 435.88 30.23 435.88 32.19 435.88 52.81 435.88 54.71 437.26 53.4 441.15 49.68 446.07 58.93 446.45 59.65 447.17 59.27 450.36 57.56 451.07 57.19 450.7 56.48 446.21 47.67 451.36 47.67 453.32 47.67 451.94 46.28 437.27 31.61"/><path class="cls-2" d="M392.92,75.3a2,2,0,0,0,.25,1.11.81.81,0,0,0,.73.38.94.94,0,0,0,.91-.54v-2a.91.91,0,0,0-.9-.54Q392.92,73.68,392.92,75.3Zm-1.38-.1a3.14,3.14,0,0,1,.54-1.93,1.74,1.74,0,0,1,1.48-.71,1.58,1.58,0,0,1,1.25.56V70.48h1.38v7.34H395l-.07-.55a1.62,1.62,0,0,1-1.33.64,1.76,1.76,0,0,1-1.46-.71A3.23,3.23,0,0,1,391.54,75.2Zm-2-1.66a2.5,2.5,0,0,0-.24-1.26.79.79,0,0,0-.73-.39.77.77,0,0,0-.72.37,2.44,2.44,0,0,0-.24,1.17v1.69a2.78,2.78,0,0,0,.22,1.27.81.81,0,0,0,.75.41.76.76,0,0,0,.73-.4,2.51,2.51,0,0,0,.23-1.21Zm1.38,1.4a3.59,3.59,0,0,1-.59,2.21,2.39,2.39,0,0,1-3.49,0,3.36,3.36,0,0,1-.61-2.15V73.73a3.51,3.51,0,0,1,.6-2.21,2.39,2.39,0,0,1,3.48,0,3.41,3.41,0,0,1,.61,2.14Zm-8.68-1.21H383a1.06,1.06,0,0,0,.78-.26,1,1,0,0,0,.25-.7.82.82,0,0,0-.25-.65.93.93,0,0,0-.69-.24,1,1,0,0,0-.66.22.7.7,0,0,0-.27.57h-1.38a1.74,1.74,0,0,1,.29-1,2.08,2.08,0,0,1,.83-.68,2.77,2.77,0,0,1,1.16-.24,2.61,2.61,0,0,1,1.73.53,1.8,1.8,0,0,1,.62,1.45,1.43,1.43,0,0,1-.29.88,1.93,1.93,0,0,1-.76.62,1.71,1.71,0,0,1,.87.63,1.65,1.65,0,0,1,.29,1,1.81,1.81,0,0,1-.67,1.48,2.68,2.68,0,0,1-1.79.56,2.55,2.55,0,0,1-1.7-.55,1.79,1.79,0,0,1-.66-1.45h1.38a.78.78,0,0,0,.29.64,1.07,1.07,0,0,0,.72.25,1.09,1.09,0,0,0,.77-.26.88.88,0,0,0,.28-.69c0-.69-.38-1-1.14-1h-.73Zm-5-2.35v1.27h.89v1h-.89v2.58a.63.63,0,0,0,.11.41.58.58,0,0,0,.42.13,2.37,2.37,0,0,0,.41,0v1.05a2.94,2.94,0,0,1-.84.12,1.32,1.32,0,0,1-1.48-1.46V73.66h-.75v-1h.75V71.38Zm-3.68,5a.44.44,0,0,0-.25-.4,3,3,0,0,0-.8-.26c-1.23-.26-1.85-.78-1.85-1.57a1.41,1.41,0,0,1,.57-1.14,2.29,2.29,0,0,1,1.49-.46,2.49,2.49,0,0,1,1.58.46,1.47,1.47,0,0,1,.59,1.2h-1.38a.7.7,0,0,0-.19-.49,1,1,0,0,0-1.14,0,.48.48,0,0,0-.19.4.44.44,0,0,0,.21.37,2.54,2.54,0,0,0,.74.24,7.62,7.62,0,0,1,.87.23,1.43,1.43,0,0,1,1.09,1.39,1.38,1.38,0,0,1-.6,1.15,2.65,2.65,0,0,1-1.57.43,2.86,2.86,0,0,1-1.16-.23,2,2,0,0,1-.78-.63,1.5,1.5,0,0,1-.29-.88h1.31a.71.71,0,0,0,.27.57,1.08,1.08,0,0,0,.68.19,1,1,0,0,0,.6-.15A.47.47,0,0,0,373.57,76.39Zm-6,.47a1.19,1.19,0,0,0,.56-.14.85.85,0,0,0,.38-.37v-.88H368c-.69,0-1.06.24-1.11.71v.08a.55.55,0,0,0,.18.43A.72.72,0,0,0,367.59,76.86Zm1.14,1a1.45,1.45,0,0,1-.14-.47,1.64,1.64,0,0,1-1.3.56,1.79,1.79,0,0,1-1.26-.44,1.39,1.39,0,0,1-.5-1.11,1.47,1.47,0,0,1,.61-1.26,3,3,0,0,1,1.76-.44h.63v-.3a.88.88,0,0,0-.18-.57.73.73,0,0,0-.58-.21.84.84,0,0,0-.55.16.6.6,0,0,0-.2.46h-1.38a1.43,1.43,0,0,1,.28-.83,2,2,0,0,1,.78-.6,3,3,0,0,1,1.14-.21,2.22,2.22,0,0,1,1.51.48,1.65,1.65,0,0,1,.57,1.34v2.24a2.47,2.47,0,0,0,.2,1.11v.09Zm-6.57-1.15h3v1.15h-4.47V70.87h1.43Z"/><path class="cls-2" d="M392.92,75.3a2,2,0,0,0,.25,1.11.81.81,0,0,0,.73.38.94.94,0,0,0,.91-.54v-2a.91.91,0,0,0-.9-.54Q392.92,73.68,392.92,75.3Zm-1.38-.1a3.14,3.14,0,0,1,.54-1.93,1.74,1.74,0,0,1,1.48-.71,1.58,1.58,0,0,1,1.25.56V70.48h1.38v7.34H395l-.07-.55a1.62,1.62,0,0,1-1.33.64,1.76,1.76,0,0,1-1.46-.71A3.23,3.23,0,0,1,391.54,75.2Zm-2-1.66a2.5,2.5,0,0,0-.24-1.26.79.79,0,0,0-.73-.39.77.77,0,0,0-.72.37,2.44,2.44,0,0,0-.24,1.17v1.69a2.78,2.78,0,0,0,.22,1.27.81.81,0,0,0,.75.41.76.76,0,0,0,.73-.4,2.51,2.51,0,0,0,.23-1.21Zm1.38,1.4a3.59,3.59,0,0,1-.59,2.21,2.39,2.39,0,0,1-3.49,0,3.36,3.36,0,0,1-.61-2.15V73.73a3.51,3.51,0,0,1,.6-2.21,2.39,2.39,0,0,1,3.48,0,3.41,3.41,0,0,1,.61,2.14Zm-8.68-1.21H383a1.06,1.06,0,0,0,.78-.26,1,1,0,0,0,.25-.7.82.82,0,0,0-.25-.65.93.93,0,0,0-.69-.24,1,1,0,0,0-.66.22.7.7,0,0,0-.27.57h-1.38a1.74,1.74,0,0,1,.29-1,2.08,2.08,0,0,1,.83-.68,2.77,2.77,0,0,1,1.16-.24,2.61,2.61,0,0,1,1.73.53,1.8,1.8,0,0,1,.62,1.45,1.43,1.43,0,0,1-.29.88,1.93,1.93,0,0,1-.76.62,1.71,1.71,0,0,1,.87.63,1.65,1.65,0,0,1,.29,1,1.81,1.81,0,0,1-.67,1.48,2.68,2.68,0,0,1-1.79.56,2.55,2.55,0,0,1-1.7-.55,1.79,1.79,0,0,1-.66-1.45h1.38a.78.78,0,0,0,.29.64,1.07,1.07,0,0,0,.72.25,1.09,1.09,0,0,0,.77-.26.88.88,0,0,0,.28-.69c0-.69-.38-1-1.14-1h-.73Zm-5-2.35v1.27h.89v1h-.89v2.58a.63.63,0,0,0,.11.41.58.58,0,0,0,.42.13,2.37,2.37,0,0,0,.41,0v1.05a2.94,2.94,0,0,1-.84.12,1.32,1.32,0,0,1-1.48-1.46V73.66h-.75v-1h.75V71.38Zm-3.68,5a.44.44,0,0,0-.25-.4,3,3,0,0,0-.8-.26c-1.23-.26-1.85-.78-1.85-1.57a1.41,1.41,0,0,1,.57-1.14,2.29,2.29,0,0,1,1.49-.46,2.49,2.49,0,0,1,1.58.46,1.47,1.47,0,0,1,.59,1.2h-1.38a.7.7,0,0,0-.19-.49,1,1,0,0,0-1.14,0,.48.48,0,0,0-.19.4.44.44,0,0,0,.21.37,2.54,2.54,0,0,0,.74.24,7.62,7.62,0,0,1,.87.23,1.43,1.43,0,0,1,1.09,1.39,1.38,1.38,0,0,1-.6,1.15,2.65,2.65,0,0,1-1.57.43,2.86,2.86,0,0,1-1.16-.23,2,2,0,0,1-.78-.63,1.5,1.5,0,0,1-.29-.88h1.31a.71.71,0,0,0,.27.57,1.08,1.08,0,0,0,.68.19,1,1,0,0,0,.6-.15A.47.47,0,0,0,373.57,76.39Zm-6,.47a1.19,1.19,0,0,0,.56-.14.85.85,0,0,0,.38-.37v-.88H368c-.69,0-1.06.24-1.11.71v.08a.55.55,0,0,0,.18.43A.72.72,0,0,0,367.59,76.86Zm1.14,1a1.45,1.45,0,0,1-.14-.47,1.64,1.64,0,0,1-1.3.56,1.79,1.79,0,0,1-1.26-.44,1.39,1.39,0,0,1-.5-1.11,1.47,1.47,0,0,1,.61-1.26,3,3,0,0,1,1.76-.44h.63v-.3a.88.88,0,0,0-.18-.57.73.73,0,0,0-.58-.21.84.84,0,0,0-.55.16.6.6,0,0,0-.2.46h-1.38a1.43,1.43,0,0,1,.28-.83,2,2,0,0,1,.78-.6,3,3,0,0,1,1.14-.21,2.22,2.22,0,0,1,1.51.48,1.65,1.65,0,0,1,.57,1.34v2.24a2.47,2.47,0,0,0,.2,1.11v.09Zm-6.57-1.15h3v1.15h-4.47V70.87h1.43Z"/><path class="cls-1" d="M458.1,75.3a2,2,0,0,0,.25,1.11.81.81,0,0,0,.73.38.94.94,0,0,0,.91-.54v-2a.92.92,0,0,0-.9-.54Q458.1,73.68,458.1,75.3Zm-1.39-.1a3.2,3.2,0,0,1,.54-1.93,1.77,1.77,0,0,1,1.49-.71,1.58,1.58,0,0,1,1.25.56V70.48h1.38v7.34h-1.25l-.06-.55a1.63,1.63,0,0,1-1.33.64,1.78,1.78,0,0,1-1.47-.71A3.3,3.3,0,0,1,456.71,75.2Zm-1.95-1.66a2.5,2.5,0,0,0-.24-1.26.79.79,0,0,0-.73-.39.77.77,0,0,0-.72.37,2.31,2.31,0,0,0-.25,1.17v1.69a2.76,2.76,0,0,0,.23,1.27.81.81,0,0,0,.75.41.77.77,0,0,0,.73-.4,2.64,2.64,0,0,0,.23-1.21Zm1.38,1.4a3.53,3.53,0,0,1-.6,2.21,2.06,2.06,0,0,1-1.74.76,2.1,2.1,0,0,1-1.74-.75,3.42,3.42,0,0,1-.62-2.15V73.73a3.51,3.51,0,0,1,.6-2.21,2.13,2.13,0,0,1,1.75-.75,2.09,2.09,0,0,1,1.73.75,3.35,3.35,0,0,1,.62,2.14Zm-7.78-.43a.92.92,0,0,0,.57-.17,1.11,1.11,0,0,0,.37-.41v-.57a1.89,1.89,0,0,0-.27-1.09.83.83,0,0,0-1.4,0,1.61,1.61,0,0,0-.26.95,1.63,1.63,0,0,0,.25.94A.87.87,0,0,0,448.36,74.51Zm.92.53a1.76,1.76,0,0,1-1.26.53,1.87,1.87,0,0,1-1.48-.63,2.53,2.53,0,0,1-.55-1.71,2.62,2.62,0,0,1,.3-1.25,2.16,2.16,0,0,1,.83-.89,2.34,2.34,0,0,1,1.2-.32,2.23,2.23,0,0,1,1.23.34,2.33,2.33,0,0,1,.83,1,3.79,3.79,0,0,1,.3,1.48v.51a4,4,0,0,1-.87,2.73,3.27,3.27,0,0,1-2.44,1.06H447V76.73h.3C448.53,76.67,449.18,76.11,449.28,75Zm-6.85-3.66v1.27h.88v1h-.88v2.58a.63.63,0,0,0,.11.41.55.55,0,0,0,.42.13,2.48,2.48,0,0,0,.41,0v1.05a2.94,2.94,0,0,1-.84.12,1.32,1.32,0,0,1-1.48-1.46V73.66h-.75v-1h.75V71.38Zm-3.68,5a.46.46,0,0,0-.25-.4,3,3,0,0,0-.81-.26c-1.23-.26-1.84-.78-1.84-1.57a1.41,1.41,0,0,1,.57-1.14,2.29,2.29,0,0,1,1.49-.46,2.45,2.45,0,0,1,1.57.46,1.44,1.44,0,0,1,.59,1.2H438.7a.66.66,0,0,0-.2-.49.78.78,0,0,0-.59-.19.81.81,0,0,0-.54.16.48.48,0,0,0-.19.4.44.44,0,0,0,.21.37,2.44,2.44,0,0,0,.74.24,7.62,7.62,0,0,1,.87.23,1.43,1.43,0,0,1,1.09,1.39,1.36,1.36,0,0,1-.61,1.15,2.59,2.59,0,0,1-1.56.43,2.82,2.82,0,0,1-1.16-.23,2.07,2.07,0,0,1-.79-.63,1.49,1.49,0,0,1-.28-.88H437a.71.71,0,0,0,.27.57,1.08,1.08,0,0,0,.68.19,1,1,0,0,0,.59-.15A.46.46,0,0,0,438.75,76.39Zm-6,.47a1.19,1.19,0,0,0,.56-.14.85.85,0,0,0,.38-.37v-.88h-.52c-.69,0-1.05.24-1.1.71v.08a.55.55,0,0,0,.18.43A.7.7,0,0,0,432.77,76.86Zm1.14,1a1.45,1.45,0,0,1-.14-.47,1.66,1.66,0,0,1-1.31.56,1.83,1.83,0,0,1-1.26-.44,1.41,1.41,0,0,1-.49-1.11,1.48,1.48,0,0,1,.6-1.26,3,3,0,0,1,1.77-.44h.63v-.3a.84.84,0,0,0-.19-.57.71.71,0,0,0-.57-.21.82.82,0,0,0-.55.16.6.6,0,0,0-.2.46h-1.38a1.36,1.36,0,0,1,.28-.83,1.85,1.85,0,0,1,.78-.6,3,3,0,0,1,1.14-.21,2.24,2.24,0,0,1,1.51.48,1.64,1.64,0,0,1,.56,1.34v2.24a2.6,2.6,0,0,0,.21,1.11v.09Zm-6.57-1.15h3v1.15h-4.47V70.87h1.43Z"/><rect class="cls-1" x="104" y="154" width="489" height="285"/><path class="cls-2" d="M370.43,229.37l.95-3.22h1.48l-2.07,6-.12.27a1.58,1.58,0,0,1-1.53,1,2.2,2.2,0,0,1-.61-.09v-1h.21a1.21,1.21,0,0,0,.58-.11.75.75,0,0,0,.31-.4l.16-.43L368,226.15h1.49Zm-5,1a1.18,1.18,0,0,0,.56-.13,1,1,0,0,0,.38-.37V229h-.51c-.69,0-1.06.24-1.1.72v.08a.54.54,0,0,0,.18.42A.72.72,0,0,0,365.39,230.36Zm1.14,1a.73.73,0,1,0-1.44.1,1.84,1.84,0,0,1-1.26-.44,1.55,1.55,0,0,1,.11-2.37,3.08,3.08,0,0,1,1.76-.45h.63v-.29a.85.85,0,0,0-.18-.57.69.69,0,0,0-.58-.22.86.86,0,0,0-.55.17.56.56,0,0,0-.19.46h-1.38a1.4,1.4,0,0,1,.27-.83,1.79,1.79,0,0,1,.79-.6,2.71,2.71,0,0,1,1.13-.22,2.27,2.27,0,0,1,1.52.48,1.69,1.69,0,0,1,.56,1.35v2.24a2.47,2.47,0,0,0,.2,1.11v.08Zm-7.13-2.52a2,2,0,0,0,.25,1.11.82.82,0,0,0,.73.39.94.94,0,0,0,.91-.54v-2a.91.91,0,0,0-.9-.54Q359.4,227.18,359.4,228.8Zm-1.38-.1a3.08,3.08,0,0,1,.54-1.92,1.75,1.75,0,0,1,1.48-.72,1.61,1.61,0,0,1,1.25.56V224h1.38v7.33h-1.24l-.07-.55a1.63,1.63,0,0,1-1.33.65,1.75,1.75,0,0,1-1.46-.72A3.21,3.21,0,0,1,358,228.7Zm-.16-1.25a3,3,0,0,0-.49,0,1,1,0,0,0-1,.53v3.38H355v-5.17h1.3l0,.62a1.29,1.29,0,0,1,1.15-.71,1.44,1.44,0,0,1,.43.06Zm-5.76-.27a.87.87,0,0,0-.67.27,1.47,1.47,0,0,0-.33.8H353v-.11a1,1,0,0,0-.25-.71A.87.87,0,0,0,352.1,227.18Zm.15,4.24a2.56,2.56,0,0,1-1.85-.7,2.52,2.52,0,0,1-.71-1.86v-.13a3.12,3.12,0,0,1,.3-1.39,2.18,2.18,0,0,1,.85-1,2.42,2.42,0,0,1,1.26-.33,2.13,2.13,0,0,1,1.67.67,2.72,2.72,0,0,1,.61,1.89v.57h-3.29a1.31,1.31,0,0,0,.4.81,1.23,1.23,0,0,0,.85.3,1.51,1.51,0,0,0,1.25-.57l.68.75a2,2,0,0,1-.84.69A2.87,2.87,0,0,1,352.25,231.42Zm-3.82-6.54v1.27h.88v1h-.88v2.57a.6.6,0,0,0,.11.42.55.55,0,0,0,.42.12,2.41,2.41,0,0,0,.4,0v1a2.93,2.93,0,0,1-.83.13,1.32,1.32,0,0,1-1.48-1.47v-2.78h-.76v-1h.76v-1.27Zm-3.69,5a.42.42,0,0,0-.25-.39,2.7,2.7,0,0,0-.8-.27c-1.23-.25-1.84-.78-1.84-1.56a1.42,1.42,0,0,1,.57-1.15,2.29,2.29,0,0,1,1.49-.46,2.46,2.46,0,0,1,1.57.46,1.47,1.47,0,0,1,.59,1.21h-1.38a.66.66,0,0,0-.19-.49.8.8,0,0,0-.6-.2.82.82,0,0,0-.53.16.51.51,0,0,0-.2.4.44.44,0,0,0,.22.37,2.16,2.16,0,0,0,.73.25,4.5,4.5,0,0,1,.87.23,1.42,1.42,0,0,1,1.1,1.38,1.36,1.36,0,0,1-.61,1.15,2.63,2.63,0,0,1-1.57.44,2.81,2.81,0,0,1-1.15-.23,2,2,0,0,1-.79-.64,1.49,1.49,0,0,1-.29-.87H343a.75.75,0,0,0,.28.56,1,1,0,0,0,.67.2,1,1,0,0,0,.6-.15A.47.47,0,0,0,344.74,229.89Zm-5.66-2.71a.9.9,0,0,0-.67.27,1.47,1.47,0,0,0-.32.8H340v-.11a1,1,0,0,0-.25-.71A.89.89,0,0,0,339.08,227.18Zm.16,4.24a2.54,2.54,0,0,1-1.85-.7,2.48,2.48,0,0,1-.71-1.86v-.13a3.12,3.12,0,0,1,.3-1.39,2.18,2.18,0,0,1,.85-1,2.39,2.39,0,0,1,1.26-.33,2.11,2.11,0,0,1,1.66.67,2.67,2.67,0,0,1,.61,1.89v.57h-3.29a1.32,1.32,0,0,0,.41.81,1.23,1.23,0,0,0,.85.3,1.51,1.51,0,0,0,1.25-.57l.67.75a1.92,1.92,0,0,1-.84.69A2.79,2.79,0,0,1,339.24,231.42Zm-5.42-3.92,1.45-3.13h1.57l-2.29,4.43v2.52H333.1V228.8l-2.28-4.43h1.57Z"/><path class="cls-2" d="M428.4,228.8a2,2,0,0,0,.26,1.11.81.81,0,0,0,.73.39.91.91,0,0,0,.9-.54v-2a.91.91,0,0,0-.89-.54C428.74,227.18,428.4,227.72,428.4,228.8Zm-1.38-.1a3.08,3.08,0,0,1,.54-1.92,1.78,1.78,0,0,1,1.49-.72,1.58,1.58,0,0,1,1.24.56V224h1.39v7.33h-1.25l-.06-.55a1.64,1.64,0,0,1-1.33.65,1.76,1.76,0,0,1-1.47-.72A3.28,3.28,0,0,1,427,228.7Zm-.52-3.56-2.69,6.18h-1.46l2.7-5.83h-3.46v-1.12h4.91Zm-8.35-.26v1.27H419v1h-.88v2.57a.66.66,0,0,0,.11.42.55.55,0,0,0,.42.12,2.33,2.33,0,0,0,.4,0v1a2.88,2.88,0,0,1-.83.13,1.32,1.32,0,0,1-1.48-1.47v-2.78H416v-1h.75v-1.27Zm-3.68,5a.43.43,0,0,0-.26-.39,2.7,2.7,0,0,0-.8-.27c-1.23-.25-1.84-.78-1.84-1.56a1.42,1.42,0,0,1,.57-1.15,2.29,2.29,0,0,1,1.49-.46,2.45,2.45,0,0,1,1.57.46,1.45,1.45,0,0,1,.59,1.21h-1.38a.66.66,0,0,0-.19-.49.78.78,0,0,0-.59-.2.83.83,0,0,0-.54.16.5.5,0,0,0-.19.4.43.43,0,0,0,.21.37,2.15,2.15,0,0,0,.74.25,4.93,4.93,0,0,1,.87.23,1.43,1.43,0,0,1,1.09,1.38,1.34,1.34,0,0,1-.61,1.15,2.6,2.6,0,0,1-1.56.44,2.82,2.82,0,0,1-1.16-.23,2,2,0,0,1-.79-.64,1.48,1.48,0,0,1-.28-.87h1.3a.75.75,0,0,0,.28.56,1.07,1.07,0,0,0,.67.2,1,1,0,0,0,.6-.15A.48.48,0,0,0,414.47,229.89Zm-6,.47a1.2,1.2,0,0,0,.57-.13,1,1,0,0,0,.38-.37V229h-.52c-.69,0-1.05.24-1.1.72v.08a.54.54,0,0,0,.18.42A.69.69,0,0,0,408.48,230.36Zm1.14,1a1.39,1.39,0,0,1-.13-.46,1.69,1.69,0,0,1-1.31.56,1.88,1.88,0,0,1-1.26-.44,1.44,1.44,0,0,1-.49-1.11,1.46,1.46,0,0,1,.6-1.26,3.1,3.1,0,0,1,1.76-.45h.64v-.29a.8.8,0,0,0-.19-.57.69.69,0,0,0-.58-.22.81.81,0,0,0-.54.17.57.57,0,0,0-.2.46h-1.38a1.34,1.34,0,0,1,.28-.83,1.71,1.71,0,0,1,.78-.6,2.79,2.79,0,0,1,1.14-.22,2.24,2.24,0,0,1,1.51.48,1.66,1.66,0,0,1,.56,1.35v2.24a2.6,2.6,0,0,0,.21,1.11v.08Zm-6.56-1.15h3v1.15h-4.47v-6.95h1.43Z"/><path class="cls-3" d="M514,228a10.56,10.56,0,0,1,.19-1.95,10.44,10.44,0,0,1,.57-1.88,10.1,10.1,0,0,1,2.17-3.24,9.47,9.47,0,0,1,1.52-1.24,9.29,9.29,0,0,1,1.73-.93,10.1,10.1,0,0,1,1.87-.57,9.84,9.84,0,0,1,2-.19h46a9.77,9.77,0,0,1,2,.19,10.2,10.2,0,0,1,1.88.57,9.61,9.61,0,0,1,1.73.93,9.4,9.4,0,0,1,1.51,1.24,10,10,0,0,1,1.25,1.51,10.63,10.63,0,0,1,.92,1.73,10.44,10.44,0,0,1,.57,1.88,10.1,10.1,0,0,1,0,3.9,10.44,10.44,0,0,1-.57,1.88,10.63,10.63,0,0,1-.92,1.73,10,10,0,0,1-1.25,1.51,9.4,9.4,0,0,1-1.51,1.24,9.61,9.61,0,0,1-1.73.93,10.2,10.2,0,0,1-1.88.57,9.77,9.77,0,0,1-2,.19H524a9.84,9.84,0,0,1-2-.19,10.1,10.1,0,0,1-1.87-.57,9.29,9.29,0,0,1-1.73-.93,9.47,9.47,0,0,1-1.52-1.24,10.1,10.1,0,0,1-2.17-3.24,10.44,10.44,0,0,1-.57-1.88A10.56,10.56,0,0,1,514,228Z"/><path class="cls-4" d="M317.21,230.37v-5.44a9.6,9.6,0,0,1,.19-1.85,9.14,9.14,0,0,1,.54-1.78,9.33,9.33,0,0,1,.88-1.65,10,10,0,0,1,1.18-1.44,9.62,9.62,0,0,1,1.44-1.18,9.19,9.19,0,0,1,1.64-.87,9.36,9.36,0,0,1,1.78-.54,8.87,8.87,0,0,1,1.85-.19H572.5a8.8,8.8,0,0,1,1.85.19,9.24,9.24,0,0,1,1.79.54,9.37,9.37,0,0,1,3.08,2.05,10.75,10.75,0,0,1,1.18,1.44,9.33,9.33,0,0,1,.88,1.65,9.14,9.14,0,0,1,.54,1.78,9.59,9.59,0,0,1,.18,1.85v5.44a9.61,9.61,0,0,1-.18,1.86,9.36,9.36,0,0,1-.54,1.78,9.24,9.24,0,0,1-.88,1.64,9.62,9.62,0,0,1-1.18,1.44,9,9,0,0,1-1.44,1.18,9.6,9.6,0,0,1-1.64.88,9.24,9.24,0,0,1-1.79.54,9.51,9.51,0,0,1-1.85.18H326.71a9.59,9.59,0,0,1-1.85-.18,9.36,9.36,0,0,1-1.78-.54,9.24,9.24,0,0,1-1.64-.88,9.43,9.43,0,0,1-2.62-2.62,9.24,9.24,0,0,1-.88-1.64,9.36,9.36,0,0,1-.54-1.78A9.62,9.62,0,0,1,317.21,230.37Z"/><g class="cls-5"><g class="cls-5"><line class="cls-6" x1="232.48" y1="429.3" x2="232.48" y2="258.21"/></g><g class="cls-5"><line class="cls-6" x1="173.82" y1="429.3" x2="173.82" y2="258.21"/></g><g class="cls-5"><line class="cls-6" x1="291.14" y1="429.3" x2="291.14" y2="258.21"/></g><g class="cls-5"><line class="cls-6" x1="349.8" y1="429.3" x2="349.8" y2="258.21"/></g><g class="cls-5"><line class="cls-6" x1="408.46" y1="429.3" x2="408.46" y2="258.21"/></g><g class="cls-5"><line class="cls-6" x1="467.13" y1="429.3" x2="467.13" y2="258.21"/></g><g class="cls-5"><line class="cls-6" x1="525.79" y1="429.3" x2="525.79" y2="258.21"/></g><line class="cls-6" x1="232.48" y1="380.41" x2="232.48" y2="282.65"/><line class="cls-6" x1="173.82" y1="380.41" x2="173.82" y2="282.65"/><line class="cls-6" x1="291.14" y1="380.41" x2="291.14" y2="282.65"/><line class="cls-6" x1="349.8" y1="380.41" x2="349.8" y2="282.65"/><line class="cls-6" x1="408.46" y1="380.41" x2="408.46" y2="282.65"/><line class="cls-6" x1="467.13" y1="380.41" x2="467.13" y2="282.65"/><line class="cls-6" x1="525.79" y1="380.41" x2="525.79" y2="282.65"/><g class="cls-5"><line class="cls-7" x1="113.94" y1="355.97" x2="583.22" y2="355.97"/></g><g class="cls-5"><line class="cls-7" x1="113.94" y1="331.53" x2="583.22" y2="331.53"/></g><g class="cls-5"><line class="cls-7" x1="113.94" y1="307.09" x2="583.22" y2="307.09"/></g><g class="cls-5"><line class="cls-7" x1="113.94" y1="282.65" x2="583.22" y2="282.65"/></g><g class="cls-5"><line class="cls-7" x1="113.94" y1="404.86" x2="583.22" y2="404.86"/></g><g class="cls-5"><line class="cls-7" x1="113.94" y1="380.42" x2="583.22" y2="380.42"/></g><g class="cls-5"><rect class="cls-6" x="114.35" y="258.61" width="468.47" height="170.28"/></g></g><path class="cls-8" d="M485,189v-9a10.56,10.56,0,0,1,.19-1.95,10.44,10.44,0,0,1,.57-1.88,10.1,10.1,0,0,1,2.17-3.24,9.47,9.47,0,0,1,1.52-1.24,9.29,9.29,0,0,1,1.73-.93,10.1,10.1,0,0,1,1.87-.57A9.84,9.84,0,0,1,495,170h78a9.77,9.77,0,0,1,2,.19,10.2,10.2,0,0,1,1.88.57,9.61,9.61,0,0,1,1.73.93,9.4,9.4,0,0,1,1.51,1.24,10,10,0,0,1,1.25,1.51,10.63,10.63,0,0,1,.92,1.73,10.44,10.44,0,0,1,.57,1.88A9.77,9.77,0,0,1,583,180v9a9.77,9.77,0,0,1-.19,1.95,10.44,10.44,0,0,1-.57,1.88,10.63,10.63,0,0,1-.92,1.73,10,10,0,0,1-1.25,1.51,9.4,9.4,0,0,1-1.51,1.24,9.61,9.61,0,0,1-1.73.93,10.2,10.2,0,0,1-1.88.57,9.77,9.77,0,0,1-2,.19H495a9.84,9.84,0,0,1-1.95-.19,10.1,10.1,0,0,1-1.87-.57,9.29,9.29,0,0,1-1.73-.93,9.47,9.47,0,0,1-1.52-1.24,10.1,10.1,0,0,1-2.17-3.24,10.44,10.44,0,0,1-.57-1.88A10.56,10.56,0,0,1,485,189Z"/><path class="cls-1" d="M564.35,187.75a1.5,1.5,0,0,0,.7-.16,1.13,1.13,0,0,0,.48-.46V186h-.64c-.87,0-1.33.3-1.38.89V187a.7.7,0,0,0,.23.53A.87.87,0,0,0,564.35,187.75Zm1.43,1.2a1.91,1.91,0,0,1-.18-.57,2.09,2.09,0,0,1-1.63.69,2.28,2.28,0,0,1-1.57-.55,1.76,1.76,0,0,1-.62-1.38,1.84,1.84,0,0,1,.76-1.58,3.78,3.78,0,0,1,2.2-.55h.79v-.37a1.09,1.09,0,0,0-.23-.72.92.92,0,0,0-.72-.26,1.11,1.11,0,0,0-.69.2.73.73,0,0,0-.24.58h-1.73a1.74,1.74,0,0,1,.35-1,2.22,2.22,0,0,1,1-.75,3.56,3.56,0,0,1,1.42-.27,2.82,2.82,0,0,1,1.89.6,2.08,2.08,0,0,1,.7,1.68v2.8a3.09,3.09,0,0,0,.26,1.39v.1Zm-5.61-8v1.59h1.11v1.26h-1.11V187a.78.78,0,0,0,.14.51.71.71,0,0,0,.53.15,2.47,2.47,0,0,0,.5,0v1.31a3.58,3.58,0,0,1-1,.15,1.64,1.64,0,0,1-1.85-1.83v-3.48h-.94V182.5h.94v-1.59Zm-6.09,6.84a1.5,1.5,0,0,0,.7-.16,1.19,1.19,0,0,0,.48-.46V186h-.65c-.86,0-1.32.3-1.38.89V187a.67.67,0,0,0,.23.53A.86.86,0,0,0,554.08,187.75Zm1.42,1.2a1.93,1.93,0,0,1-.17-.57,2.1,2.1,0,0,1-1.63.69,2.31,2.31,0,0,1-1.58-.55,1.76,1.76,0,0,1-.62-1.38,1.86,1.86,0,0,1,.76-1.58,3.8,3.8,0,0,1,2.2-.55h.8v-.37a1.09,1.09,0,0,0-.23-.72,1,1,0,0,0-.73-.26,1.06,1.06,0,0,0-.68.2.7.7,0,0,0-.25.58h-1.72a1.73,1.73,0,0,1,.34-1,2.28,2.28,0,0,1,1-.75,3.59,3.59,0,0,1,1.42-.27,2.78,2.78,0,0,1,1.89.6,2.09,2.09,0,0,1,.71,1.68v2.8a3.1,3.1,0,0,0,.25,1.39v.1Zm-9-3.15a2.53,2.53,0,0,0,.32,1.39,1,1,0,0,0,.92.49,1.16,1.16,0,0,0,1.13-.68v-2.54a1.15,1.15,0,0,0-1.12-.68C547,183.78,546.53,184.46,546.53,185.8Zm-1.72-.12a3.92,3.92,0,0,1,.67-2.41,2.24,2.24,0,0,1,1.86-.89,2,2,0,0,1,1.56.7v-3.29h1.73V189h-1.56l-.08-.68a2,2,0,0,1-1.66.8,2.18,2.18,0,0,1-1.83-.89A4,4,0,0,1,544.81,185.68Zm-7.52-2.48a2.13,2.13,0,0,1,1.72-.82c1.4,0,2.11.81,2.13,2.44V189h-1.72v-4.08a1.18,1.18,0,0,0-.24-.82,1,1,0,0,0-.8-.27,1.16,1.16,0,0,0-1.09.59V189h-1.73v-9.16h1.73Zm-4.27,4a.56.56,0,0,0-.32-.5,3.43,3.43,0,0,0-1-.32c-1.54-.33-2.31-1-2.31-2a1.78,1.78,0,0,1,.71-1.43,2.86,2.86,0,0,1,1.87-.58,3,3,0,0,1,2,.58,1.79,1.79,0,0,1,.74,1.5H533a.82.82,0,0,0-.24-.61,1.28,1.28,0,0,0-1.42,0,.64.64,0,0,0-.24.51.53.53,0,0,0,.27.46,2.83,2.83,0,0,0,.92.31,6.84,6.84,0,0,1,1.09.28,1.79,1.79,0,0,1,1.36,1.74,1.67,1.67,0,0,1-.76,1.43,3.26,3.26,0,0,1-1.95.54,3.51,3.51,0,0,1-1.45-.28,2.51,2.51,0,0,1-1-.8,1.83,1.83,0,0,1-.36-1.09h1.64a.87.87,0,0,0,.34.71,1.35,1.35,0,0,0,.84.24,1.3,1.3,0,0,0,.75-.18A.61.61,0,0,0,533,187.17Zm-7.13-3.4a1.09,1.09,0,0,0-.84.35,1.81,1.81,0,0,0-.41,1H527V185a1.27,1.27,0,0,0-.31-.88A1.11,1.11,0,0,0,525.89,183.77Zm.19,5.3a3.17,3.17,0,0,1-2.31-.87,3.07,3.07,0,0,1-.89-2.32v-.17a3.89,3.89,0,0,1,.37-1.73,2.67,2.67,0,0,1,1.07-1.18,3,3,0,0,1,1.57-.42,2.68,2.68,0,0,1,2.08.83,3.4,3.4,0,0,1,.77,2.37v.71h-4.11a1.55,1.55,0,0,0,.5,1,1.51,1.51,0,0,0,1.07.38,1.85,1.85,0,0,0,1.55-.72l.85.95a2.63,2.63,0,0,1-1.05.86A3.51,3.51,0,0,1,526.08,189.07Zm-3.48-4.95a3.67,3.67,0,0,0-.62-.05,1.27,1.27,0,0,0-1.29.66V189H519V182.5h1.63l0,.77a1.57,1.57,0,0,1,1.44-.89,1.55,1.55,0,0,1,.53.08ZM515.27,189v-5.19h-1V182.5h1V182a2.19,2.19,0,0,1,.62-1.68,2.37,2.37,0,0,1,1.74-.61,4.05,4.05,0,0,1,.88.12l0,1.34a2,2,0,0,0-.52-.05c-.65,0-1,.3-1,.91v.52h1.28v1.26H517V189Zm-4.11-5.18a1.12,1.12,0,0,0-.84.35,1.8,1.8,0,0,0-.4,1h2.4V185a1.27,1.27,0,0,0-.31-.88A1.12,1.12,0,0,0,511.16,183.77Zm.2,5.3a3.19,3.19,0,0,1-2.32-.87,3.1,3.1,0,0,1-.89-2.32v-.17a3.89,3.89,0,0,1,.38-1.73,2.65,2.65,0,0,1,1.06-1.18,3,3,0,0,1,1.58-.42,2.7,2.7,0,0,1,2.08.83,3.39,3.39,0,0,1,.76,2.37v.71H509.9a1.6,1.6,0,0,0,.5,1,1.51,1.51,0,0,0,1.07.38A1.88,1.88,0,0,0,513,187l.85.95a2.59,2.59,0,0,1-1.06.86A3.5,3.5,0,0,1,511.36,189.07Zm-8.67-4.75h1.44a1.49,1.49,0,0,0,1.05-.34,1.24,1.24,0,0,0,.37-.94,1.29,1.29,0,0,0-.36-1,1.4,1.4,0,0,0-1.06-.35h-1.44Zm1.42,1.45h-1.42V189H500.9v-8.68h3.23a3.7,3.7,0,0,1,2.37.68,2.37,2.37,0,0,1,.84,1.94,2.69,2.69,0,0,1-.39,1.49,2.6,2.6,0,0,1-1.17.94l1.88,3.55V189h-1.92Z"/><path d="M258.21,229.16a.9.9,0,0,0-.53-.82,5.54,5.54,0,0,0-1.67-.55q-3.84-.81-3.84-3.26a3,3,0,0,1,1.18-2.39,4.85,4.85,0,0,1,3.12-1,5.17,5.17,0,0,1,3.27,1,3,3,0,0,1,1.23,2.51H258.1a1.36,1.36,0,0,0-.4-1,1.67,1.67,0,0,0-1.24-.41,1.73,1.73,0,0,0-1.13.33,1.05,1.05,0,0,0-.39.84.9.9,0,0,0,.44.77,5.13,5.13,0,0,0,1.54.51,12.58,12.58,0,0,1,1.81.48A3,3,0,0,1,261,229a2.83,2.83,0,0,1-1.26,2.39,5.49,5.49,0,0,1-3.26.9,5.92,5.92,0,0,1-2.41-.47,4.11,4.11,0,0,1-1.64-1.33,3.08,3.08,0,0,1-.6-1.82h2.73a1.48,1.48,0,0,0,.57,1.18,2.25,2.25,0,0,0,1.41.4,2.12,2.12,0,0,0,1.24-.3A1,1,0,0,0,258.21,229.16Zm-7-5.09a8.27,8.27,0,0,0-1-.08,2.11,2.11,0,0,0-2.14,1.1v7h-2.87V221.37h2.71l.08,1.29a2.67,2.67,0,0,1,2.4-1.49,3.24,3.24,0,0,1,.89.13Zm-14.93,2.79a4.08,4.08,0,0,0,.57,2.35,2.08,2.08,0,0,0,3.29,0,4.44,4.44,0,0,0,.58-2.57,4,4,0,0,0-.58-2.32,2,2,0,0,0-3.29,0A4.47,4.47,0,0,0,236.26,226.86Zm-2.88-.21a6.42,6.42,0,0,1,.62-2.85,4.5,4.5,0,0,1,1.77-1.94,5.21,5.21,0,0,1,2.7-.69,4.89,4.89,0,0,1,3.55,1.34,5.35,5.35,0,0,1,1.54,3.62l0,.73a5.65,5.65,0,0,1-1.38,4,5.38,5.38,0,0,1-7.43,0,5.7,5.7,0,0,1-1.39-4.06Zm-2.49-7.92v2.64h1.84v2.11h-1.84v5.37a1.3,1.3,0,0,0,.23.86,1.17,1.17,0,0,0,.88.26,5.18,5.18,0,0,0,.84-.07v2.17a5.64,5.64,0,0,1-1.74.26c-2,0-3-1-3.08-3.05v-5.8h-1.57v-2.11H228v-2.64Zm-8.66-.14a1.45,1.45,0,0,1,.42-1.07,1.69,1.69,0,0,1,1.19-.41,1.65,1.65,0,0,1,1.17.41,1.43,1.43,0,0,1,.44,1.07,1.39,1.39,0,0,1-.45,1.07,1.6,1.6,0,0,1-1.16.42,1.65,1.65,0,0,1-1.18-.42A1.41,1.41,0,0,1,222.23,218.59Zm3.05,13.54h-2.89V221.37h2.89Zm-7.49-3a.89.89,0,0,0-.52-.82,5.64,5.64,0,0,0-1.67-.55q-3.84-.81-3.84-3.26a2.94,2.94,0,0,1,1.18-2.39,4.82,4.82,0,0,1,3.11-1,5.18,5.18,0,0,1,3.28,1,3,3,0,0,1,1.23,2.51h-2.88a1.4,1.4,0,0,0-.39-1,1.69,1.69,0,0,0-1.25-.41,1.72,1.72,0,0,0-1.12.33,1,1,0,0,0-.4.84.89.89,0,0,0,.45.77,5,5,0,0,0,1.53.51,11.91,11.91,0,0,1,1.81.48,3,3,0,0,1,2.28,2.89,2.83,2.83,0,0,1-1.26,2.39,5.52,5.52,0,0,1-3.27.9,5.87,5.87,0,0,1-2.4-.47,4,4,0,0,1-1.64-1.33,3.08,3.08,0,0,1-.6-1.82h2.72a1.55,1.55,0,0,0,.57,1.18,2.25,2.25,0,0,0,1.41.4,2.16,2.16,0,0,0,1.25-.3A1,1,0,0,0,217.79,229.16Zm-11-10.57a1.42,1.42,0,0,1,.43-1.07,1.89,1.89,0,0,1,2.35,0,1.51,1.51,0,0,1,0,2.14,1.59,1.59,0,0,1-1.16.42,1.65,1.65,0,0,1-1.17-.42A1.42,1.42,0,0,1,206.74,218.59Zm3,13.54h-2.88V221.37h2.88Zm-10.61-3.59,3.28-10.89h3.32l-5,14.48h-3.12l-5-14.48h3.31ZM184,223.22a5.2,5.2,0,0,0-.5-2.61,1.64,1.64,0,0,0-1.53-.83,1.62,1.62,0,0,0-1.5.79A4.92,4.92,0,0,0,180,223v3.53a5.6,5.6,0,0,0,.48,2.63A1.65,1.65,0,0,0,182,230a1.62,1.62,0,0,0,1.52-.83,5.4,5.4,0,0,0,.49-2.53Zm2.87,2.93a7.32,7.32,0,0,1-1.24,4.59,5,5,0,0,1-7.26,0,7.08,7.08,0,0,1-1.28-4.47v-2.67a7.21,7.21,0,0,1,1.25-4.6,5,5,0,0,1,7.25,0,7,7,0,0,1,1.28,4.46Zm-16.24-1.4a2.33,2.33,0,0,0-1.27.37,2.21,2.21,0,0,0-.83,1V227a3.89,3.89,0,0,0,.57,2.26,1.93,1.93,0,0,0,3.08.08,3.42,3.42,0,0,0,0-3.81A1.9,1.9,0,0,0,170.66,224.75Zm2.8-7.25v2.37h-.28a4.89,4.89,0,0,0-3.14,1,4.09,4.09,0,0,0-1.42,2.73,3.92,3.92,0,0,1,2.91-1.17,3.71,3.71,0,0,1,3,1.35,5.43,5.43,0,0,1,1.11,3.56,5.35,5.35,0,0,1-.62,2.56,4.36,4.36,0,0,1-1.73,1.78,5,5,0,0,1-2.52.63,4.7,4.7,0,0,1-3.7-1.59,6.15,6.15,0,0,1-1.41-4.24v-1a9.33,9.33,0,0,1,.89-4.16,6.59,6.59,0,0,1,2.56-2.79,7.52,7.52,0,0,1,3.86-1Zm-14.3,7.25a2.32,2.32,0,0,0-1.26.37,2.15,2.15,0,0,0-.83,1V227a4,4,0,0,0,.56,2.26,1.94,1.94,0,0,0,3.09.08,3.47,3.47,0,0,0,0-3.81A1.92,1.92,0,0,0,159.16,224.75ZM162,217.5v2.37h-.28a4.87,4.87,0,0,0-3.14,1,4.05,4.05,0,0,0-1.42,2.73,3.9,3.9,0,0,1,2.91-1.17,3.68,3.68,0,0,1,3,1.35,5.95,5.95,0,0,1,.5,6.12,4.36,4.36,0,0,1-1.73,1.78,5,5,0,0,1-2.53.63,4.73,4.73,0,0,1-3.7-1.59,6.19,6.19,0,0,1-1.4-4.24v-1a9.33,9.33,0,0,1,.89-4.16,6.57,6.57,0,0,1,2.55-2.79,7.59,7.59,0,0,1,3.87-1Zm-11.7,18.26-1.5-.78.35-.65a5.06,5.06,0,0,0,.69-2.41v-2.23h2.43v2a5.1,5.1,0,0,1-.56,2.22A5.63,5.63,0,0,1,150.27,235.76Zm-5.49-12.54a5.21,5.21,0,0,0-.49-2.61,1.67,1.67,0,0,0-1.54-.83,1.64,1.64,0,0,0-1.5.79,4.93,4.93,0,0,0-.5,2.43v3.53a5.61,5.61,0,0,0,.47,2.63,1.66,1.66,0,0,0,1.55.86,1.63,1.63,0,0,0,1.53-.83,5.41,5.41,0,0,0,.48-2.53Zm2.88,2.93a7.32,7.32,0,0,1-1.25,4.59,4.33,4.33,0,0,1-3.64,1.59,4.39,4.39,0,0,1-3.62-1.56,7.14,7.14,0,0,1-1.28-4.47v-2.67a7.27,7.27,0,0,1,1.25-4.6,5,5,0,0,1,7.25,0,7,7,0,0,1,1.29,4.46Zm-16.44-.9a2,2,0,0,0,1.2-.36,2.31,2.31,0,0,0,.76-.86v-1.18a3.87,3.87,0,0,0-.56-2.27,1.71,1.71,0,0,0-1.49-.81,1.68,1.68,0,0,0-1.42.8,3.79,3.79,0,0,0,0,3.93A1.8,1.8,0,0,0,131.22,225.25Zm1.92,1.1a3.64,3.64,0,0,1-2.62,1.1,3.92,3.92,0,0,1-3.08-1.31,5.22,5.22,0,0,1-1.15-3.56,5.58,5.58,0,0,1,.62-2.61,4.5,4.5,0,0,1,1.74-1.85,4.79,4.79,0,0,1,2.5-.66,4.57,4.57,0,0,1,2.55.71,4.71,4.71,0,0,1,1.73,2.06,7.48,7.48,0,0,1,.63,3.07v1.07a8.39,8.39,0,0,1-1.8,5.69,6.79,6.79,0,0,1-5.11,2.2h-.7v-2.39h.63C131.58,229.75,132.94,228.58,133.14,226.35Zm-11.23,5.78H119V221.06l-3.43,1.06v-2.34l6-2.15h.31Z"/><path class="cls-9" d="M582.82,344.57c-31.78,0-29.25-27.7-45.22-27.7-20,0-21.59,37.47-43.59,37.47s-18.74-68-53.36-68-19.15,44.81-61.11,44.81c-30.14,0-39.51-20-61.92-20-37.07,0-34.22,35.85-57.44,35.85s-28.1-18.74-56.21-18.74c-64,0-63.14,40.33-90,40.33"/><polygon class="cls-3" points="540.86 206.31 540.86 185.69 555.52 200.36 549.04 200.36 554.14 210.35 550.95 212.05 545.53 201.85 540.86 206.31"/><polygon class="cls-11" points="541.43 185.12 540.04 183.73 540.04 185.69 540.04 206.31 540.04 208.22 541.42 206.9 545.32 203.18 550.23 212.43 550.62 213.15 551.34 212.77 554.52 211.07 555.23 210.69 554.87 209.98 550.37 201.18 555.52 201.18 557.49 201.18 556.1 199.78 541.43 185.12"/><path class="cls-2" d="M497.08,228.8a2.12,2.12,0,0,0,.25,1.11.83.83,0,0,0,.74.39.91.91,0,0,0,.9-.54v-2a.91.91,0,0,0-.89-.54C497.41,227.18,497.08,227.72,497.08,228.8Zm-1.38-.1a3.08,3.08,0,0,1,.54-1.92,1.76,1.76,0,0,1,1.49-.72,1.59,1.59,0,0,1,1.24.56V224h1.39v7.33h-1.25l-.07-.55a1.61,1.61,0,0,1-1.32.65,1.76,1.76,0,0,1-1.47-.72A3.21,3.21,0,0,1,495.7,228.7ZM493.75,227a2.48,2.48,0,0,0-.24-1.25.79.79,0,0,0-.74-.4.8.8,0,0,0-.72.38,2.44,2.44,0,0,0-.24,1.17v1.69a2.72,2.72,0,0,0,.23,1.26.88.88,0,0,0,1.47,0,2.67,2.67,0,0,0,.24-1.22Zm1.38,1.41a3.49,3.49,0,0,1-.6,2.2,2.37,2.37,0,0,1-3.48,0,3.38,3.38,0,0,1-.62-2.15v-1.28A3.49,3.49,0,0,1,491,225a2.13,2.13,0,0,1,1.74-.76,2.1,2.1,0,0,1,1.74.75,3.42,3.42,0,0,1,.62,2.15Zm-8.69-1.22h.74A1,1,0,0,0,488,227a1,1,0,0,0,.26-.7.84.84,0,0,0-.26-.65.92.92,0,0,0-.68-.23,1,1,0,0,0-.67.22.7.7,0,0,0-.26.56H485a1.68,1.68,0,0,1,.29-1,2,2,0,0,1,.82-.67,2.63,2.63,0,0,1,1.16-.25,2.59,2.59,0,0,1,1.73.53,1.79,1.79,0,0,1,.63,1.45,1.47,1.47,0,0,1-.29.88,1.88,1.88,0,0,1-.77.62,1.62,1.62,0,0,1,1.17,1.62,1.85,1.85,0,0,1-.68,1.49,2.72,2.72,0,0,1-1.79.56,2.61,2.61,0,0,1-1.7-.55,1.8,1.8,0,0,1-.66-1.45h1.38a.79.79,0,0,0,.29.63,1.08,1.08,0,0,0,.73.25,1.1,1.1,0,0,0,.77-.25,1,1,0,0,0,.28-.7c0-.69-.38-1-1.15-1h-.73Zm-5-2.35v1.27h.88v1h-.88v2.57a.6.6,0,0,0,.11.42.55.55,0,0,0,.42.12,2.41,2.41,0,0,0,.4,0v1a2.93,2.93,0,0,1-.83.13A1.32,1.32,0,0,1,480,230v-2.78h-.76v-1H480v-1.27Zm-3.69,5a.42.42,0,0,0-.25-.39,2.7,2.7,0,0,0-.8-.27c-1.23-.25-1.84-.78-1.84-1.56a1.44,1.44,0,0,1,.56-1.15,2.32,2.32,0,0,1,1.5-.46,2.46,2.46,0,0,1,1.57.46,1.47,1.47,0,0,1,.59,1.21h-1.38a.66.66,0,0,0-.19-.49.82.82,0,0,0-.6-.2.87.87,0,0,0-.54.16.53.53,0,0,0-.19.4.44.44,0,0,0,.22.37,2.16,2.16,0,0,0,.73.25,4.5,4.5,0,0,1,.87.23,1.42,1.42,0,0,1,1.1,1.38,1.36,1.36,0,0,1-.61,1.15,2.63,2.63,0,0,1-1.57.44,2.81,2.81,0,0,1-1.15-.23,2,2,0,0,1-.79-.64,1.49,1.49,0,0,1-.29-.87H476a.77.77,0,0,0,.27.56,1.1,1.1,0,0,0,.68.2,1,1,0,0,0,.6-.15A.47.47,0,0,0,477.73,229.89Zm-6,.47a1.16,1.16,0,0,0,.56-.13,1,1,0,0,0,.39-.37V229h-.52c-.69,0-1.06.24-1.1.72v.08a.54.54,0,0,0,.18.42A.74.74,0,0,0,471.75,230.36Zm1.14,1a.73.73,0,1,0-1.44.1,1.84,1.84,0,0,1-1.26-.44,1.45,1.45,0,0,1-.5-1.11,1.47,1.47,0,0,1,.61-1.26,3.08,3.08,0,0,1,1.76-.45h.64v-.29a.85.85,0,0,0-.19-.57.69.69,0,0,0-.58-.22.86.86,0,0,0-.55.17.56.56,0,0,0-.19.46h-1.38a1.34,1.34,0,0,1,.28-.83,1.71,1.71,0,0,1,.78-.6,2.75,2.75,0,0,1,1.13-.22,2.25,2.25,0,0,1,1.52.48,1.69,1.69,0,0,1,.56,1.35v2.24a2.33,2.33,0,0,0,.21,1.11v.08Zm-6.56-1.15h3v1.15h-4.48v-6.95h1.44Z"/><path class="cls-2" d="M497.08,228.8a2.12,2.12,0,0,0,.25,1.11.83.83,0,0,0,.74.39.91.91,0,0,0,.9-.54v-2a.91.91,0,0,0-.89-.54C497.41,227.18,497.08,227.72,497.08,228.8Zm-1.38-.1a3.08,3.08,0,0,1,.54-1.92,1.76,1.76,0,0,1,1.49-.72,1.59,1.59,0,0,1,1.24.56V224h1.39v7.33h-1.25l-.07-.55a1.61,1.61,0,0,1-1.32.65,1.76,1.76,0,0,1-1.47-.72A3.21,3.21,0,0,1,495.7,228.7ZM493.75,227a2.48,2.48,0,0,0-.24-1.25.79.79,0,0,0-.74-.4.8.8,0,0,0-.72.38,2.44,2.44,0,0,0-.24,1.17v1.69a2.72,2.72,0,0,0,.23,1.26.88.88,0,0,0,1.47,0,2.67,2.67,0,0,0,.24-1.22Zm1.38,1.41a3.49,3.49,0,0,1-.6,2.2,2.37,2.37,0,0,1-3.48,0,3.38,3.38,0,0,1-.62-2.15v-1.28A3.49,3.49,0,0,1,491,225a2.13,2.13,0,0,1,1.74-.76,2.1,2.1,0,0,1,1.74.75,3.42,3.42,0,0,1,.62,2.15Zm-8.69-1.22h.74A1,1,0,0,0,488,227a1,1,0,0,0,.26-.7.84.84,0,0,0-.26-.65.92.92,0,0,0-.68-.23,1,1,0,0,0-.67.22.7.7,0,0,0-.26.56H485a1.68,1.68,0,0,1,.29-1,2,2,0,0,1,.82-.67,2.63,2.63,0,0,1,1.16-.25,2.59,2.59,0,0,1,1.73.53,1.79,1.79,0,0,1,.63,1.45,1.47,1.47,0,0,1-.29.88,1.88,1.88,0,0,1-.77.62,1.62,1.62,0,0,1,1.17,1.62,1.85,1.85,0,0,1-.68,1.49,2.72,2.72,0,0,1-1.79.56,2.61,2.61,0,0,1-1.7-.55,1.8,1.8,0,0,1-.66-1.45h1.38a.79.79,0,0,0,.29.63,1.08,1.08,0,0,0,.73.25,1.1,1.1,0,0,0,.77-.25,1,1,0,0,0,.28-.7c0-.69-.38-1-1.15-1h-.73Zm-5-2.35v1.27h.88v1h-.88v2.57a.6.6,0,0,0,.11.42.55.55,0,0,0,.42.12,2.41,2.41,0,0,0,.4,0v1a2.93,2.93,0,0,1-.83.13A1.32,1.32,0,0,1,480,230v-2.78h-.76v-1H480v-1.27Zm-3.69,5a.42.42,0,0,0-.25-.39,2.7,2.7,0,0,0-.8-.27c-1.23-.25-1.84-.78-1.84-1.56a1.44,1.44,0,0,1,.56-1.15,2.32,2.32,0,0,1,1.5-.46,2.46,2.46,0,0,1,1.57.46,1.47,1.47,0,0,1,.59,1.21h-1.38a.66.66,0,0,0-.19-.49.82.82,0,0,0-.6-.2.87.87,0,0,0-.54.16.53.53,0,0,0-.19.4.44.44,0,0,0,.22.37,2.16,2.16,0,0,0,.73.25,4.5,4.5,0,0,1,.87.23,1.42,1.42,0,0,1,1.1,1.38,1.36,1.36,0,0,1-.61,1.15,2.63,2.63,0,0,1-1.57.44,2.81,2.81,0,0,1-1.15-.23,2,2,0,0,1-.79-.64,1.49,1.49,0,0,1-.29-.87H476a.77.77,0,0,0,.27.56,1.1,1.1,0,0,0,.68.2,1,1,0,0,0,.6-.15A.47.47,0,0,0,477.73,229.89Zm-6,.47a1.16,1.16,0,0,0,.56-.13,1,1,0,0,0,.39-.37V229h-.52c-.69,0-1.06.24-1.1.72v.08a.54.54,0,0,0,.18.42A.74.74,0,0,0,471.75,230.36Zm1.14,1a.73.73,0,1,0-1.44.1,1.84,1.84,0,0,1-1.26-.44,1.45,1.45,0,0,1-.5-1.11,1.47,1.47,0,0,1,.61-1.26,3.08,3.08,0,0,1,1.76-.45h.64v-.29a.85.85,0,0,0-.19-.57.69.69,0,0,0-.58-.22.86.86,0,0,0-.55.17.56.56,0,0,0-.19.46h-1.38a1.34,1.34,0,0,1,.28-.83,1.71,1.71,0,0,1,.78-.6,2.75,2.75,0,0,1,1.13-.22,2.25,2.25,0,0,1,1.52.48,1.69,1.69,0,0,1,.56,1.35v2.24a2.33,2.33,0,0,0,.21,1.11v.08Zm-6.56-1.15h3v1.15h-4.48v-6.95h1.44Z"/><path class="cls-1" d="M562.26,228.8a2,2,0,0,0,.25,1.11.83.83,0,0,0,.74.39.93.93,0,0,0,.9-.54v-2a.91.91,0,0,0-.89-.54C562.59,227.18,562.26,227.72,562.26,228.8Zm-1.38-.1a3.08,3.08,0,0,1,.54-1.92,1.76,1.76,0,0,1,1.48-.72,1.6,1.6,0,0,1,1.25.56V224h1.38v7.33h-1.24l-.07-.55a1.63,1.63,0,0,1-1.33.65,1.76,1.76,0,0,1-1.46-.72A3.21,3.21,0,0,1,560.88,228.7Zm-2-1.66a2.48,2.48,0,0,0-.24-1.25.79.79,0,0,0-.74-.4.8.8,0,0,0-.72.38,2.44,2.44,0,0,0-.24,1.17v1.69a2.59,2.59,0,0,0,.23,1.26.88.88,0,0,0,1.47,0,2.67,2.67,0,0,0,.24-1.22Zm1.37,1.41a3.49,3.49,0,0,1-.59,2.2,2.38,2.38,0,0,1-3.49,0,3.44,3.44,0,0,1-.61-2.15v-1.28a3.49,3.49,0,0,1,.6-2.21,2.38,2.38,0,0,1,3.48,0,3.42,3.42,0,0,1,.61,2.15Zm-7.78-.43a1,1,0,0,0,.58-.18,1.08,1.08,0,0,0,.36-.41v-.57a2,2,0,0,0-.26-1.09.83.83,0,0,0-.72-.38.77.77,0,0,0-.68.38,1.59,1.59,0,0,0-.27.95,1.51,1.51,0,0,0,.26.93A.83.83,0,0,0,552.52,228Zm.92.52a1.76,1.76,0,0,1-1.26.53,1.86,1.86,0,0,1-1.47-.63,2.5,2.5,0,0,1-.56-1.71,2.65,2.65,0,0,1,.3-1.25,2.19,2.19,0,0,1,.84-.89,2.29,2.29,0,0,1,1.2-.32,2.21,2.21,0,0,1,1.22.35,2.26,2.26,0,0,1,.83,1,3.45,3.45,0,0,1,.3,1.47v.51a4,4,0,0,1-.86,2.73,3.26,3.26,0,0,1-2.45,1.06h-.34v-1.15h.31A1.76,1.76,0,0,0,553.44,228.54Zm-6.85-3.66v1.27h.89v1h-.89v2.57a.66.66,0,0,0,.11.42.59.59,0,0,0,.42.12,2.46,2.46,0,0,0,.41,0v1a3,3,0,0,1-.84.13,1.31,1.31,0,0,1-1.47-1.47v-2.78h-.76v-1h.76v-1.27Zm-3.68,5a.42.42,0,0,0-.25-.39,2.81,2.81,0,0,0-.8-.27c-1.23-.25-1.85-.78-1.85-1.56a1.42,1.42,0,0,1,.57-1.15,2.3,2.3,0,0,1,1.5-.46,2.46,2.46,0,0,1,1.57.46,1.47,1.47,0,0,1,.59,1.21h-1.38a.66.66,0,0,0-.19-.49.82.82,0,0,0-.6-.2.87.87,0,0,0-.54.16.53.53,0,0,0-.19.4.42.42,0,0,0,.22.37,2.08,2.08,0,0,0,.73.25,4.7,4.7,0,0,1,.87.23,1.41,1.41,0,0,1,1.09,1.38,1.35,1.35,0,0,1-.6,1.15,2.65,2.65,0,0,1-1.57.44,2.78,2.78,0,0,1-1.15-.23,2,2,0,0,1-.79-.64,1.49,1.49,0,0,1-.29-.87h1.31a.71.71,0,0,0,.27.56,1.1,1.1,0,0,0,.68.2,1,1,0,0,0,.6-.15A.49.49,0,0,0,542.91,229.89Zm-6,.47a1.18,1.18,0,0,0,.56-.13,1,1,0,0,0,.38-.37V229h-.51c-.69,0-1.06.24-1.1.72v.08a.54.54,0,0,0,.18.42A.72.72,0,0,0,536.93,230.36Zm1.14,1a.73.73,0,1,0-1.44.1,1.84,1.84,0,0,1-1.26-.44,1.55,1.55,0,0,1,.11-2.37,3.06,3.06,0,0,1,1.76-.45h.63v-.29a.85.85,0,0,0-.18-.57.71.71,0,0,0-.58-.22.86.86,0,0,0-.55.17.56.56,0,0,0-.19.46H535a1.4,1.4,0,0,1,.27-.83,1.79,1.79,0,0,1,.79-.6,2.71,2.71,0,0,1,1.13-.22,2.27,2.27,0,0,1,1.52.48,1.69,1.69,0,0,1,.56,1.35v2.24a2.47,2.47,0,0,0,.2,1.11v.08Zm-6.57-1.15h3v1.15h-4.48v-6.95h1.43Z"/></g></g></svg>