<svg xmlns="http://www.w3.org/2000/svg" viewBox="0 0 83.38 113.13"><defs><style>.cls-1{fill:#152c5a;}</style></defs><title>Asset 9mdpi</title><g id="Layer_2" data-name="Layer 2"><g id="Layer_1-2" data-name="Layer 1"><path class="cls-1" d="M3.17,113.05a149.86,149.86,0,0,1,54.4-3.1,2.68,2.68,0,0,0,3.81,2.44,5.85,5.85,0,0,0,3.12-3.67,2.51,2.51,0,0,0-1.75-3.09,156.85,156.85,0,0,0-49.69.27Q18,102.54,22.84,99C29.74,94,36.46,88.64,42.84,83c12.5-11.12,23.8-23.77,32.45-38.14C82.36,33.07,88.92,15,76,4.47,69.64-.73,60.64-.36,53,.53A83.38,83.38,0,0,0,27.42,7.92C24.49,9.28,27,13.62,30,12.26A76.3,76.3,0,0,1,53.85,5.47c7.75-.85,17.33-1.2,22,6.33,8,12.94-3.34,29-10.78,39.45A175.09,175.09,0,0,1,36.79,81.59C31.48,86.18,26,90.52,20.3,94.67q-4,3-8.16,5.8c-1.73,1.19-7.17,6.17-9.3,6.12a2.33,2.33,0,0,0-2.42,2.58,2.58,2.58,0,0,0,2.75,3.88Z"/></g></g></svg>