<svg xmlns="http://www.w3.org/2000/svg" viewBox="0 0 83.22 114.34"><defs><style>.cls-1{fill:#152c5a;}</style></defs><title>Asset 9mdpii</title><g id="Layer_2" data-name="Layer 2"><g id="Layer_1-2" data-name="Layer 1"><path class="cls-1" d="M3.3,103.51c-4,1.14-4.36,6-1.06,8.29,5.05,3.5,14.47,2.62,20.13,1.81,13-1.85,28.75-8,37.42-18.26,8.15-9.67,5.6-21.83-4.14-29.26C48.33,60.5,39,58.24,29.8,58.63l2.14-1.39c7.09-4.66,14.18-9.33,21-14.38A144,144,0,0,0,69,29.32c4.89-4.88,11-11.09,13.47-17.67C87.62-2,65.27-.2,58.23.48A100.28,100.28,0,0,0,15.27,15c-2.76,1.69-.23,6,2.54,4.34A95.81,95.81,0,0,1,51.28,6.47a91.66,91.66,0,0,1,18-1.38c3.35.07,9.71-.3,8.15,5.45-.71,2.59-3.69,5.69-5.29,7.72C64.92,27.39,55.72,34.8,46.25,41.51c-5.26,3.73-10.64,7.3-16,10.84Q26.11,55.07,22,57.74l-4.14,2.68c-.2.13-.63.36-1.11.62s-1.08.35-1.61.55a3,3,0,0,0-.31.15,2.46,2.46,0,0,0-2,.7,3.18,3.18,0,0,0-.9,3.2,2.43,2.43,0,0,0,1.76,1.76c2.3.37,3.89-.7,5.66-1.91a40.06,40.06,0,0,1,27,1c8.66,3.57,17.31,12.61,11.91,22.41-4.29,7.79-13.73,12.35-21.63,15.55a63.21,63.21,0,0,1-15.2,4.22,43.81,43.81,0,0,1-7.59.41c-2.86-.1-6.38-1.51-9.14-.73,3.11-.88,1.79-5.74-1.33-4.85Z"/></g></g></svg>