<svg xmlns="http://www.w3.org/2000/svg" viewBox="0 0 51.38 117.3"><defs><style>.cls-1{fill:#152c5a;}</style></defs><title>Asset 8mdpi</title><g id="Layer_2" data-name="Layer 2"><g id="Layer_1-2" data-name="Layer 1"><path class="cls-1" d="M51.08,3.74A2.53,2.53,0,0,0,47.64.3L27,10.43c-2.9,1.43-.36,5.77,2.54,4.34L43.44,8C35,25.22,26.6,42.5,18.52,59.93S1,95.27,0,114.79c-.12,2.4,3.64,3.55,4.69,1.27.34-.73.67-1.46,1-2.2a2.56,2.56,0,0,0-.37-2.77c2-18.4,11.5-35.69,19.2-52.2C33.15,40.4,42.12,22.07,51.08,3.74Z"/></g></g></svg>