<svg xmlns="http://www.w3.org/2000/svg" viewBox="0 0 119.59 25.81"><defs><style>.cls-1{fill:#fff;}</style></defs><title>Asset 1mdpii</title><g id="Layer_2" data-name="Layer 2"><g id="Layer_1-2" data-name="Layer 1"><path class="cls-1" d="M.49,8.42v2H6.34l1.47-1.9c.81-1,1.52-2,1.57-2S9.31,6.37,5,6.37H.49Z"/><path class="cls-1" d="M101.63,6.47c.59,1,5,7.42,5,7.37.28-.3,2.46-3.61,2.44-3.71s-.57-.94-1.25-1.94L106.6,6.37h-2.51C102.09,6.37,101.58,6.4,101.63,6.47Z"/><polygon class="cls-1" points="53.51 3.16 53.49 6.33 51.75 6.36 50.01 6.37 50.01 8.54 50.01 10.71 51.77 10.71 53.53 10.71 53.53 18.06 53.53 25.41 55.82 25.41 58.1 25.41 58.1 18.06 58.1 10.71 62.19 10.71 66.28 10.71 66.28 8.54 66.28 6.37 62.19 6.37 58.1 6.37 58.1 3.19 58.1 0 55.82 0 53.53 0 53.51 3.16"/><path class="cls-1" d="M27.25,10.3a5.09,5.09,0,0,1,2.51,1.47,4.69,4.69,0,0,1,1.07,1.44,5.18,5.18,0,0,1,.61,3,5.21,5.21,0,0,1-1.09,3.16,5.53,5.53,0,0,1-2.77,2.05,3.85,3.85,0,0,1-1.59.23,3.68,3.68,0,0,1-1.64-.25,5.75,5.75,0,0,1-3.57-3.67,4.52,4.52,0,0,1-.23-1.84A3.94,3.94,0,0,1,20.81,14a5.94,5.94,0,0,1,4-3.71A5.68,5.68,0,0,1,27.25,10.3ZM25.05,6a10.05,10.05,0,0,0-9,8.25,12.77,12.77,0,0,0,0,3.55,10.06,10.06,0,0,0,7.83,7.86,13.23,13.23,0,0,0,3.62.09,10.1,10.1,0,0,0,8.28-7.29A10,10,0,0,0,25.05,6Z"/><path class="cls-1" d="M90,10.26a5.42,5.42,0,0,1,3.66,2.9,6,6,0,0,1,.63,2.9,5.47,5.47,0,0,1-2.06,4.48,6.05,6.05,0,0,1-6.44.32,5.4,5.4,0,0,1-2.39-3.13,7.45,7.45,0,0,1,0-3.45,5.49,5.49,0,0,1,4.06-4A7.22,7.22,0,0,1,90,10.26ZM87.36,6a9.22,9.22,0,0,0-8.21,6.37,9.91,9.91,0,0,0-.51,3.16,10,10,0,0,0,1,5.13,9.07,9.07,0,0,0,9,5.17,7.19,7.19,0,0,0,5.24-2.16l.65-.61v2.38h4.17v-19H94.47V8.84l-.4-.48C92.55,6.55,90.33,5.75,87.36,6Z"/><polygon class="cls-1" points="5.73 13.79 0.01 21.21 0 23.31 0 25.42 1.19 25.4 2.36 25.37 8.08 17.94 13.81 10.5 13.81 8.43 13.81 6.37 12.63 6.37 11.46 6.37 5.73 13.79"/><path class="cls-1" d="M38.9,15.89v9.52h4.57l0-5.54c0-6.12,0-5.83.58-6.9a5,5,0,0,1,4-2.26h.34V6.37h-.77a5.44,5.44,0,0,0-2.6.55,3.62,3.62,0,0,0-1.85,2.15c-.06.16-.09-.14-.09-1.25V6.37H38.9Z"/><path class="cls-1" d="M68,15.89v9.52h4.5V21.22c0-5.15.08-6.85.32-7.52a3.74,3.74,0,0,1,1-1.65,5.45,5.45,0,0,1,3.28-1.34h.33V6.37H76.7c-2.24,0-3.88.94-4.38,2.52l-.15.47v-3H68Z"/><path class="cls-1" d="M107.18,15.85c-3.57,5.22-6.5,9.5-6.5,9.52s1.18,0,2.61,0h2.6l5.18-7.66,6.42-9.52,1.26-1.86h-5.06Z"/><path class="cls-1" d="M112.34,18.59l-1.29,1.93L112.71,23l1.66,2.45H117c2.09,0,2.63,0,2.58-.1-.15-.24-5.79-8.44-5.88-8.54S113.35,17.08,112.34,18.59Z"/><path class="cls-1" d="M5.88,23.31c-.83,1.07-1.52,2-1.53,2s2.24.07,5,.07h5.07V21.33H7.4Z"/></g></g></svg>