<?xml version="1.0" encoding="UTF-8"?>
<!-- Generator: Adobe Illustrator 16.0.2, SVG Export Plug-In . SVG Version: 6.00 Build 0)  -->
<!DOCTYPE svg PUBLIC "-//W3C//DTD SVG 1.1//EN" "http://www.w3.org/Graphics/SVG/1.1/DTD/svg11.dtd">
<svg version="1.1" id="Layer_1" xmlns="http://www.w3.org/2000/svg" xmlns:xlink="http://www.w3.org/1999/xlink" x="0px" y="0px" width="850.394px" height="370.394px" viewBox="0 0 850.394 370.394" enable-background="new 0 0 850.394 370.394" xml:space="preserve">
<path fill="#1A396E" d="M148.118,65.681c-76.309,0.072,13.678,0.126-72.371,0.126l-0.25,37.563v75.777  c0,14.617,2.752,26.822,7.908,36.459c5.182,9.682,12.49,16.909,21.887,21.528c9.447,4.647,20.583,6.681,33.367,6.244  c4.333-0.146,8.505-0.473,12.433-1.01c3.926-0.535,7.801-1.305,11.657-2.375c3.805-1.061,7.792-2.44,11.954-4.104l-12.13-37.117  c-3.272,1.605-6.73,2.914-10.41,3.869c-3.624,0.934-7.2,1.487-10.646,1.487c-4.581,0-8.566-0.895-11.956-2.74  c-3.391-1.843-6.073-4.643-7.968-8.325c-1.897-3.68-2.917-8.326-2.917-13.916v-76.011h43.607L148.118,65.681z"/>
<path fill="#1A396E" d="M297.534,64.95l-38.187,132.396L218.841,65.635l-53.613,0.034c22.215,58.739,44.713,117.359,67,176.288  h50.674l33.9-110.988l33.903,110.988h50.675L462.76,64.95h-48.177l-40.324,132.396L335.716,64.95H297.534z"/>
<rect x="781.561" y="69.318" transform="matrix(0.7071 -0.7071 0.7071 0.7071 170.9834 594.4745)" fill-rule="evenodd" clip-rule="evenodd" fill="#1A396E" width="43.049" height="43.049"/>
<path fill="#1A396E" d="M737.116,99.208c6.302,0,12.193,1.192,17.664,3.451c5.529,2.319,10.348,5.65,14.571,9.993  c4.164,4.281,7.434,9.516,9.813,15.583c2.378,6.126,3.568,12.965,3.626,20.579c-0.058,7.614-1.248,14.394-3.626,20.459  c-2.38,6.008-5.649,11.121-9.813,15.347c-4.224,4.22-9.042,7.494-14.571,9.695c-5.471,2.259-11.362,3.388-17.664,3.388  c-6.366,0-12.315-1.129-17.905-3.331c-5.531-2.201-10.405-5.409-14.631-9.574c-4.223-4.224-7.494-9.341-9.872-15.405  c-2.379-6.008-3.568-12.907-3.63-20.581c0.062-7.673,1.251-14.569,3.63-20.697c2.378-6.127,5.649-11.3,9.872-15.644  c4.226-4.282,9.1-7.552,14.631-9.814C724.801,100.34,730.75,99.208,737.116,99.208 M737.116,59.598  c-12.371,0-23.972,2.079-34.738,6.184c-10.705,4.105-20.16,10.053-28.312,17.782c-8.206,7.793-14.569,17.131-19.15,28.135  c-4.578,10.943-6.958,23.315-7.02,37.113c0.062,18.381,3.749,34.199,10.948,47.346c7.196,13.204,17.425,23.31,30.688,30.451  c13.32,7.078,29.202,10.647,47.584,10.705c5.53,0,10.883,0.715,16.174,2.082c5.237,1.427,9.994,3.567,14.274,6.483  c4.284,2.915,7.734,6.541,10.232,11.005c2.557,4.459,3.864,9.693,3.926,15.761c-0.062,8.084-2.083,14.985-6.009,20.577  c-3.923,5.652-9.218,9.932-15.938,12.849c-6.663,2.912-14.215,4.398-22.659,4.398c-6.305,0-12.196-0.891-17.725-2.675  c-5.532-1.786-10.413-4.341-14.692-7.672c-4.223-3.331-7.552-7.315-9.933-11.957c-2.438-4.578-3.627-9.813-3.688-15.521h-43.182  c0.062,11.892,2.32,22.659,6.781,32.292c4.404,9.637,10.648,17.904,18.678,24.744c8.03,6.9,17.484,12.192,28.312,15.881  c10.824,3.688,22.601,5.53,35.449,5.59c12.846-0.061,24.563-1.844,35.328-5.472c10.704-3.565,19.983-8.742,27.896-15.581  c7.849-6.784,13.975-15.05,18.316-24.683c4.343-9.699,6.542-20.583,6.604-32.772c0.119-7.497-0.892-14.813-2.914-21.829  c-2.08-7.019-5.772-13.621-11.064-19.746c-5.295-6.187-12.729-11.662-22.423-16.595c7.194-3.389,13.206-7.612,18.021-12.788  c4.761-5.114,8.567-10.763,11.361-16.833c2.792-6.067,4.815-12.251,6.009-18.438c1.188-6.243,1.725-12.073,1.725-17.605  C825.975,122.383,807.948,59.598,737.116,59.598z"/>
<polygon fill-rule="evenodd" clip-rule="evenodd" fill="#1A396E" points="118.929,20.685 75.878,32.925 75.878,112.799   118.929,112.799 "/>
<rect x="18.536" y="65.809" fill-rule="evenodd" clip-rule="evenodd" fill="#F36E21" width="44.556" height="37.562"/>
<path fill="#1A396E" d="M524.813,241.951l38.186-132.396l40.505,131.711l53.611-0.031c-22.212-58.742-44.709-117.362-66.999-176.286  h-50.671l-18.201,52.099l-15.7,58.883L472.582,67.65l-18.724,61.73l32.769,112.571H524.813z"/>
</svg>