<?xml version="1.0" encoding="UTF-8"?>
<!-- Generator: Adobe Illustrator 16.0.2, SVG Export Plug-In . SVG Version: 6.00 Build 0)  -->
<!DOCTYPE svg PUBLIC "-//W3C//DTD SVG 1.1//EN" "http://www.w3.org/Graphics/SVG/1.1/DTD/svg11.dtd">
<svg version="1.1" id="Layer_1" xmlns="http://www.w3.org/2000/svg" xmlns:xlink="http://www.w3.org/1999/xlink" x="0px" y="0px" width="850.394px" height="361.394px" viewBox="0 0 850.394 361.394" enable-background="new 0 0 850.394 361.394" xml:space="preserve">
<path fill="#FEFFFF" d="M150.711,62.552c-76.09,0.072,13.639,0.125-72.164,0.125l-0.25,37.456v75.56  c0,14.575,2.743,26.745,7.885,36.355c5.167,9.654,12.455,16.86,21.824,21.467c9.42,4.634,20.524,6.662,33.271,6.227  c4.322-0.146,8.481-0.472,12.397-1.007c3.915-0.533,7.779-1.301,11.624-2.369c3.794-1.057,7.77-2.433,11.92-4.092l-12.096-37.011  c-3.263,1.601-6.711,2.905-10.38,3.857c-3.614,0.932-7.179,1.483-10.616,1.483c-4.567,0-8.542-0.893-11.922-2.732  c-3.381-1.838-6.055-4.63-7.945-8.302c-1.892-3.669-2.909-8.301-2.909-13.876V99.9h43.482L150.711,62.552z"/>
<path fill="#FEFFFF" d="M299.7,61.823l-38.077,132.019L221.232,62.506l-53.46,0.035c22.152,58.57,44.585,117.024,66.809,175.783  h50.529l33.803-110.67l33.806,110.67h50.531l61.203-176.501h-48.039l-40.208,132.019L337.773,61.823H299.7z"/>
<rect x="782.344" y="66.178" transform="matrix(0.7071 -0.7071 0.7071 0.7071 173.4417 594.0271)" fill-rule="evenodd" clip-rule="evenodd" fill="#FEFFFF" width="42.928" height="42.927"/>
<path fill="#FEFFFF" d="M738.025,95.983c6.283,0,12.159,1.188,17.612,3.441c5.514,2.313,10.32,5.634,14.529,9.964  c4.153,4.269,7.414,9.488,9.787,15.538c2.37,6.109,3.558,12.929,3.614,20.521c-0.057,7.592-1.244,14.353-3.614,20.401  c-2.373,5.991-5.634,11.088-9.787,15.303c-4.209,4.208-9.016,7.473-14.529,9.668c-5.453,2.253-11.329,3.379-17.612,3.379  c-6.348,0-12.28-1.126-17.855-3.322c-5.515-2.195-10.374-5.394-14.588-9.546c-4.21-4.212-7.474-9.315-9.844-15.361  c-2.372-5.991-3.558-12.87-3.619-20.521c0.062-7.651,1.247-14.528,3.619-20.638c2.37-6.11,5.634-11.268,9.844-15.599  c4.214-4.27,9.073-7.531,14.588-9.786C725.745,97.112,731.678,95.983,738.025,95.983 M738.025,56.487  c-12.337,0-23.904,2.074-34.639,6.167c-10.675,4.093-20.104,10.023-28.231,17.731c-8.182,7.771-14.526,17.082-19.097,28.055  c-4.564,10.912-6.938,23.249-6.999,37.007c0.062,18.328,3.74,34.102,10.917,47.211c7.177,13.165,17.376,23.242,30.602,30.363  c13.283,7.059,29.118,10.617,47.447,10.674c5.515,0,10.851,0.713,16.127,2.076c5.224,1.423,9.966,3.557,14.235,6.465  c4.271,2.907,7.71,6.521,10.201,10.974c2.55,4.446,3.854,9.666,3.915,15.715c-0.062,8.061-2.076,14.942-5.991,20.518  c-3.911,5.637-9.192,9.904-15.893,12.812c-6.644,2.904-14.174,4.386-22.595,4.386c-6.286,0-12.162-0.889-17.675-2.667  c-5.516-1.78-10.382-4.328-14.65-7.65c-4.209-3.322-7.53-7.294-9.902-11.922c-2.432-4.565-3.617-9.785-3.679-15.476h-43.06  c0.062,11.858,2.315,22.594,6.763,32.201c4.392,9.608,10.618,17.852,18.625,24.672c8.006,6.881,17.435,12.157,28.231,15.835  c10.791,3.677,22.535,5.514,35.347,5.575c12.809-0.061,24.491-1.839,35.226-5.457c10.675-3.555,19.929-8.717,27.816-15.537  c7.826-6.764,13.935-15.007,18.265-24.612c4.331-9.67,6.523-20.523,6.585-32.678c0.118-7.476-0.889-14.77-2.906-21.767  c-2.074-6.999-5.755-13.583-11.031-19.689c-5.28-6.169-12.694-11.628-22.36-16.548c7.175-3.38,13.169-7.59,17.971-12.751  c4.746-5.1,8.543-10.732,11.328-16.785c2.784-6.05,4.802-12.217,5.991-18.385c1.186-6.225,1.721-12.038,1.721-17.554  C826.63,119.092,808.654,56.487,738.025,56.487z"/>
<polygon fill-rule="evenodd" clip-rule="evenodd" fill="#FEFFFF" points="121.606,17.685 78.679,29.89 78.679,109.536   121.606,109.536 "/>
<rect x="21.5" y="62.68" fill-rule="evenodd" clip-rule="evenodd" fill="#F36E21" width="44.429" height="37.454"/>
<path fill="#FEFFFF" d="M526.328,238.318L564.405,106.3l40.389,131.335l53.457-0.031c-22.146-58.574-44.581-117.026-66.806-175.782  h-50.526l-18.15,51.951l-15.654,58.715L474.247,64.516l-18.67,61.553l32.676,112.249H526.328z"/>
</svg>