<svg xmlns="http://www.w3.org/2000/svg" viewBox="0 0 185.24 106.64"><defs><style>.cls-1{fill:#152c5a;}</style></defs><title>Asset 1mdpi</title><g id="Layer_2" data-name="Layer 2"><g id="Layer_1-2" data-name="Layer 1"><path class="cls-1" d="M17.31,13.44A36.4,36.4,0,0,1,27.85,4.7c4-2.22,8.7-4,13.35-3.36S50,4.87,50.71,9.71s-1.91,9.37-4.93,13A52.05,52.05,0,0,1,36.09,32a29.72,29.72,0,0,1-5.91,3.29,10.84,10.84,0,0,1-6.23,1c-2.8-.62-3-3-2.58-5.34A40.69,40.69,0,0,0,25.43,32c.79.16,1.1-1.06.31-1.23a40,40,0,0,1-4.11-1.05,27.08,27.08,0,0,1,2.52-6.62A29.11,29.11,0,0,1,34.47,12.23a.63.63,0,0,0-.65-1.08A30.46,30.46,0,0,0,23.35,22a28.31,28.31,0,0,0-2.76,6.72c-.05.2-.11.41-.16.62a11.21,11.21,0,0,1-5.37-3.87c-2.71-3.92-.41-8.72,2.25-12Zm2.83,17.07a6.86,6.86,0,0,0,.41,4.94c2.4,4,8.45,1.84,11.63.33A41,41,0,0,0,44.39,26.2C47.92,22.37,51.54,18,52,12.57a11,11,0,0,0-6.3-11.22c-4.68-2.17-10-1.49-14.62.4a37.54,37.54,0,0,0-12.93,8.82c-3.41,3.56-7.14,8.89-5,14,1.24,3,4,4.77,7,5.91Z"/><path class="cls-1" d="M62.28,30.25a26.29,26.29,0,0,1-3.74,2.09,20.4,20.4,0,0,1-2.24.88,5.54,5.54,0,0,1-2.32.59c-1.14-.26-.64-1.26-.27-2,.3-.57.63-1.12,1-1.65a34,34,0,0,1,2.54-3.3.63.63,0,0,0-.78-1c-2.11,1.2-4.2,2.44-6.35,3.58a8.1,8.1,0,0,1-1.52.78c-.4.1-.21.24-.25-.1s.34-.73.45-.93A16.88,16.88,0,0,1,51.23,26c.54-.6-.36-1.48-.9-.88a16,16,0,0,0-3.09,4.39c-.36.82-.62,2.41.79,2.28A6.15,6.15,0,0,0,49.89,31l2.46-1.32,1.9-1.08a22.38,22.38,0,0,0-1.37,2.11c-.61,1.09-1.65,2.94-.39,4s3.32.06,4.57-.38a26.54,26.54,0,0,0,5.87-3c.67-.44,0-1.52-.65-1.07Z"/><path class="cls-1" d="M66.2,32.47a8.49,8.49,0,0,1-2.28.8c-.42.08-.93.4-1-.34a5.11,5.11,0,0,1,.52-1.31c.33-.85.88-2.64-.39-2.56-.55,0-1.12.69-1.58,1.08-.63.53-1.24,1.1-1.84,1.71s-1,1.07-1.51,1.65a34.71,34.71,0,0,1,3.52-5.69c.37-.49-.12-1.36-.55-1l-.27.23a.63.63,0,0,0-.19.38,38,38,0,0,0-4.43,7.94.78.78,0,0,0,0,.6c-.17.55.37,1.18.74.68a33.13,33.13,0,0,1,3.54-4.12c.52-.5,1-1,1.58-1.44.18-.15.36-.3.55-.44.26-.3.33-.33.22-.1a7,7,0,0,1-.51,1.31c-.36.92-.75,2.34.28,2.72s2.81-.39,3.85-.92c.54-.27.29-1.48-.25-1.2Z"/><path class="cls-1" d="M90.12,35.12a11.82,11.82,0,0,1-.65,1.28,11.48,11.48,0,0,1-1.41,2,34.18,34.18,0,0,0-5,1.31,23,23,0,0,1,6.53-5.19c1-.45.82-.16.49.62Zm-7.31,6a33.92,33.92,0,0,1,3.52-1.07c-1.08.84-2.38,1.5-3.52,1.07Zm12.13-3.34a35.48,35.48,0,0,0-5,.31,11.48,11.48,0,0,0,1.76-3.47c.39-1.4-.76-1.94-2-1.5-2.91,1.07-5.35,3.51-7.48,5.69S78,43.37,76,45.76L77.35,44a93.45,93.45,0,0,1,9.46-10.9.61.61,0,0,0,.42-.09,1,1,0,0,0,.48-1.27.63.63,0,0,0-1-.26A95.91,95.91,0,0,0,76.25,43.36c-2.39,3.26-5,6.74-6.47,10.55l-.27.38c-.46.67.64,1.28,1.09.62l.13-.18a.83.83,0,0,0,.13-.18A121.8,121.8,0,0,1,81.27,41.63c2.4,2.14,5.56-.07,7.43-2.08A34.53,34.53,0,0,1,95,39C95.78,39.05,95.75,37.79,94.94,37.78Z"/><path class="cls-1" d="M105.13,40.53a15,15,0,0,1-3.22.8c-.59.08-1.31.4-1.4-.34,0-.29.56-1,.72-1.31.47-.85,1.24-2.64-.54-2.56a5.39,5.39,0,0,0-2.23,1.08c-.88.53-1.75,1.1-2.59,1.71S94.43,41,93.74,41.56a35.33,35.33,0,0,1,5-5.69.63.63,0,0,0-.77-1l-.38.24a.56.56,0,0,0-.28.37A36.59,36.59,0,0,0,91,43.44a.56.56,0,0,0,0,.6.64.64,0,0,0,1,.68,40.14,40.14,0,0,1,5-4.12c.73-.5,1.48-1,2.24-1.44.25-.15.5-.3.76-.44.37-.3.48-.33.32-.1.07.15-.66,1.19-.73,1.31-.49.92-1,2.35.41,2.72s4-.39,5.42-.91c.76-.28.41-1.49-.35-1.21Z"/><path class="cls-1" d="M114.39,43.34A4.24,4.24,0,0,0,108.9,39l-.13.06h-.19c-.81,0-.78,1.25,0,1.26s-.51,2.49-.65,2.72a4,4,0,0,1-2.36,1.79c-.72.18-1.24-.21-1.1-1a3.8,3.8,0,0,1,.6-1.23,5.67,5.67,0,0,1,2-1.82c.7-.4,0-1.48-.65-1.08a6.66,6.66,0,0,0-3.29,4.19c-.4,1.79,1,2.49,2.6,2.17a5.66,5.66,0,0,0,3.89-3.63A4.29,4.29,0,0,0,110,40.1a3,3,0,0,1,3.13,3.27c0,.81,1.21.78,1.26,0Z"/><path class="cls-1" d="M123.46,45.34a20.39,20.39,0,0,1-7.18,1.49,2.57,2.57,0,0,1-2-.44,1.79,1.79,0,0,1-.31-1.94,2.77,2.77,0,0,1,1.45-1.37c.38-.17,2.38-.78,1.32.42-.53.61.37,1.49.9.88,1.2-1.36.68-3.08-1.29-2.87-1.82.18-3.71,1.62-3.79,3.55-.23,5.29,8.67,2.51,11.25,1.49.75-.3.4-1.51-.35-1.21Z"/><path class="cls-1" d="M126.1,45.34c.59-.1,2.16.14,1,.81a1.71,1.71,0,0,1-2.06-.4,3.19,3.19,0,0,1,1.09-.41Zm6,2a22.31,22.31,0,0,1-3.67,1.06,19.68,19.68,0,0,1-2.16.3c-.53,0-2.16.31-2.49-.11a1.68,1.68,0,0,1-.11-1.57,2,2,0,0,1,.4-.49l.07.1c1.22,1.29,4.21,1.38,4.7-.74.24-1-.67-1.61-1.57-1.79a4.21,4.21,0,0,0-3.36.89c-1.55,1.2-3,3.94-.34,4.87a9.43,9.43,0,0,0,4.29-.09,23.64,23.64,0,0,0,4.6-1.22c.75-.28.41-1.49-.36-1.21Z"/><path class="cls-1" d="M134.51,64.79c-.79.21-1.67.21-2.09-.63-.33-.66.35-1.58.74-2a14.46,14.46,0,0,1,1.69-1.63,32.29,32.29,0,0,1,4.45-3.16l.29-.18c-.63,3.18-1.76,6.75-5.08,7.64Zm-5-7.38a19,19,0,0,1-2.77,5.33A5.72,5.72,0,0,1,124,64.51c-1,.28-2.32,0-2.1-1.31a4,4,0,0,1,1.29-1.93,27,27,0,0,1,3-2.52q1.81-1.35,3.71-2.59c-.16.42-.33.84-.5,1.25ZM149,51.21a67,67,0,0,0-7.71,3.53c.05-.28.1-.56.16-.84.27-1.42.78-4.38,2.19-5.55.4-.17.8-.34,1.2-.49a.64.64,0,0,0,.42-.55.57.57,0,0,0-.77-.66h0a3.35,3.35,0,0,0-1.36.56,74.41,74.41,0,0,0-7.89,4.2q-1.56.91-3.09,1.86c.15-.59.29-1.19.41-1.81a31.24,31.24,0,0,1,1-3.94c.4-1.19,1.07-3.15,2.53-3.34.79-.1.77-1.36,0-1.26-3.62.47-4.39,6.24-4.91,9.06a20.32,20.32,0,0,1-.54,2.24c-1.86,1.19-3.68,2.43-5.44,3.76a20.11,20.11,0,0,0-3.51,3.13c-1.11,1.34-1.63,3.77.39,4.6s4.28-.7,5.54-2.1a19.12,19.12,0,0,0,2.9-5.42c.43-1,.8-2.07,1.13-3.11q1.81-1.16,3.66-2.25c2-1.19,4-2.39,6.12-3.44A22.41,22.41,0,0,0,140,55l-.09.56a29.8,29.8,0,0,0-7.49,5.58,3.72,3.72,0,0,0-1.17,3.41,2.46,2.46,0,0,0,2.87,1.65c3-.39,5-3.09,5.95-5.72a24.44,24.44,0,0,0,1-4.12,62.49,62.49,0,0,1,8.33-3.9c.75-.29.4-1.5-.36-1.21Z"/><path class="cls-1" d="M157.65,60.79a17.36,17.36,0,0,1-2.29,3.63A31.65,31.65,0,0,1,152.15,68a22.41,22.41,0,0,1-1.74,1.49c-.3.23-1.22,1.09-1.63,1-.73-.08.2-1.47.38-1.79.37-.67.77-1.32,1.19-2,1-1.45,2-2.84,3.06-4.2.87-1.12,1.77-2.2,2.69-3.28a3.32,3.32,0,0,1,1.15.09c.69.22.67.81.4,1.43ZM169,44.3a121.16,121.16,0,0,0-11.34,11.32l-1.48,1.68c-1,.32-1.95.68-2.9,1.09-.29.08-.57.16-.8.24a.59.59,0,0,0-.4.4.67.67,0,0,0,.9.86l.62-.28.75-.17c-1.57,1.88-3.07,3.81-4.45,5.81-.93,1.36-2.28,3-2.62,4.68s.84,2.33,2.2,1.64c3.22-1.61,5.93-4.85,7.93-7.77.81-1.18,2.62-3.6,1.43-5a2.27,2.27,0,0,0-1-.67,30.43,30.43,0,0,1,8.08-1.06c.8,0,.77-1.26,0-1.26a31.16,31.16,0,0,0-7.41.87l1.25-1.38A119.62,119.62,0,0,1,168.9,46a.66.66,0,0,0,.87-.4l.24-.71c.22-.65-.63-1-1.06-.59Z"/><path class="cls-1" d="M175,58.45a4.24,4.24,0,0,0-5.49-4.32l-.14,0h-.19a.63.63,0,0,0,0,1.26c.73,0-.51,2.5-.66,2.72a4,4,0,0,1-2.36,1.8c-.72.17-1.24-.21-1.09-1a3.73,3.73,0,0,1,.59-1.22,5.7,5.7,0,0,1,2-1.83c.71-.39.06-1.47-.65-1.07A6.65,6.65,0,0,0,163.76,59c-.4,1.78,1,2.49,2.59,2.16a5.62,5.62,0,0,0,3.89-3.63,4.26,4.26,0,0,0,.35-2.35,3,3,0,0,1,3.13,3.27c-.05.8,1.21.77,1.26,0Z"/><path class="cls-1" d="M184.46,60.31a15,15,0,0,1-3.22.8c-.59.08-1.31.4-1.4-.34,0-.29.56-1,.72-1.31.47-.85,1.25-2.64-.53-2.56A5.42,5.42,0,0,0,177.79,58q-1.32.8-2.58,1.71c-.74.52-1.45,1.08-2.14,1.65a35.33,35.33,0,0,1,5-5.69.63.63,0,0,0-.77-1l-.38.24a.59.59,0,0,0-.28.37,36.9,36.9,0,0,0-6.23,7.94.54.54,0,0,0,0,.6.64.64,0,0,0,1,.68,39.43,39.43,0,0,1,5-4.12c.72-.5,1.47-1,2.23-1.44l.76-.44c.38-.3.48-.33.32-.1.07.15-.66,1.19-.72,1.31-.5.92-1.05,2.35.4,2.72s4-.39,5.42-.91c.76-.28.41-1.49-.35-1.21Z"/><path class="cls-1" d="M4,58c-.57.29-1.93,1.23-2.47.91-.75-.45.87-1.87,1.32-2.26s2.52-2.2,2.44-.36a.59.59,0,0,0,.83.55c-.69.41-1.39.8-2.12,1.16Zm10.83,1.26a28.77,28.77,0,0,1-6,1.53c-.86.11-3.4.51-3.55-.76s1.38-2.08,2.17-2.47.07-1.44-.65-1.08c-.17.08-.34.18-.51.28l-.07,0a.61.61,0,0,0,.3-.52c.06-1.47-.84-2.65-2.39-2A8.06,8.06,0,0,0,.25,57.91c-.46,1.06-.41,2.9,1.2,2.62a9.85,9.85,0,0,0,2.49-1.1l.24-.12-.06.29c-.24,1.57,1,2.35,2.41,2.5,2.85.32,6-.68,8.68-1.64.76-.27.41-1.48-.35-1.21Z"/><path class="cls-1" d="M24.83,62a20.41,20.41,0,0,1-7.19,1.5,2.55,2.55,0,0,1-2-.45,1.76,1.76,0,0,1-.31-1.93,2.7,2.7,0,0,1,1.45-1.37c.38-.18,2.38-.79,1.32.42-.53.6.36,1.48.9.87,1.2-1.36.68-3.08-1.3-2.87a4.12,4.12,0,0,0-3.79,3.55c-.23,5.29,8.68,2.52,11.26,1.49.74-.3.4-1.51-.35-1.21Z"/><path class="cls-1" d="M37.73,65l-4.89.91c-.82.15-1.63.32-2.45.46-.65.11-.62.24-.36-.26A8.77,8.77,0,0,1,31,64.93c.55-.69,1.76-1.71,1.7-2.69A1.39,1.39,0,0,0,31.22,61a7.36,7.36,0,0,0-2.94,1,21.21,21.21,0,0,0-3.37,2h0l.81-1c1.78-2.12,3.59-4.23,5.42-6.31q5.23-5.94,10.8-11.57a.63.63,0,0,0,.33-.24c.12-.16.24-.33.37-.49.43-.59-.51-1.24-1-.75q-6.23,6.24-12,12.88Q26.77,59.82,24,63.11c-1.62,2-4.08,4.12-4.56,6.72-.15.79,1.07,1.1,1.22.3l0-.15a.52.52,0,0,0,.1-.11A21.12,21.12,0,0,1,29.11,63c.2-.09,1.63-.85,1.8-.71.51.38-.81,1.68-1,1.91-.49.63-1.63,1.6-1.52,2.49a1.25,1.25,0,0,0,1.38,1,21.24,21.24,0,0,0,3.67-.65l4.64-.87c.8-.15.44-1.35-.35-1.21Z"/><path class="cls-1" d="M42.15,62.46a.64.64,0,0,0,.76-.46,2.62,2.62,0,0,1,1.4-1.43c.73-.35.08-1.42-.65-1.08a3.93,3.93,0,0,0-2,2.21.63.63,0,0,0,.46.76Zm4.41,4.86A33.11,33.11,0,0,1,39,70.25c-.58.12-1.65.4-2.12-.12s.18-1.76.47-2.28A7.93,7.93,0,0,1,40.19,65a.63.63,0,0,0-.65-1.08c-1.73,1-6.24,5.54-3.21,7.44,1.43.9,3.67,0,5.09-.43a48.47,48.47,0,0,0,5.79-2.48c.73-.35.08-1.42-.65-1.08Z"/><path class="cls-1" d="M49.09,67.37c.58-.1,2.15.13,1,.81A1.72,1.72,0,0,1,48,67.77a3.23,3.23,0,0,1,1.1-.4Zm6,2a23.42,23.42,0,0,1-3.68,1.05c-.71.14-1.43.24-2.15.31-.53,0-2.16.3-2.5-.12a1.69,1.69,0,0,1-.11-1.56,2.1,2.1,0,0,1,.4-.5l.08.1c1.22,1.3,4.21,1.38,4.69-.74.24-1-.67-1.61-1.56-1.79a4.21,4.21,0,0,0-3.36.89c-1.56,1.2-3,4-.34,4.87a9.3,9.3,0,0,0,4.29-.09,22.86,22.86,0,0,0,4.59-1.22c.76-.28.41-1.49-.35-1.2Z"/><path class="cls-1" d="M65.74,67.58c-.58-.8-1.37-.5-2.12-.09a30.64,30.64,0,0,0-4.18,2.78,72.47,72.47,0,0,0-6.06,5.43c.17-.49.39-1,.45-1.11a16.09,16.09,0,0,1,1-2c.34-.59.7-1.16,1.08-1.73A20.45,20.45,0,0,1,57,69.12a.71.71,0,0,0,.53-.32.6.6,0,0,0,.08-.63.65.65,0,0,0-.78-.43c-.68.13-1,1.07-1.39,1.58a37.56,37.56,0,0,0-2,3.25c-.68,1.26-2.12,3.71-1.07,5a.64.64,0,0,0,.89,0c1.73-1.69,3.46-3.39,5.29-5,1-.82,1.95-1.6,3-2.33.27-.19,3.18-2.08,3.18-2.08.47.65,1.55,0,1.07-.65Z"/><path class="cls-1" d="M69.35,69.24a.64.64,0,0,0,.77-.46,2.68,2.68,0,0,1,1.4-1.43c.73-.34.08-1.42-.65-1.08a3.9,3.9,0,0,0-2,2.21.62.62,0,0,0,.45.76Zm4.42,4.87A33.08,33.08,0,0,1,66.17,77c-.58.12-1.65.41-2.12-.12s.18-1.75.47-2.28a8,8,0,0,1,2.87-2.9.63.63,0,0,0-.64-1.08c-1.73,1-6.24,5.54-3.21,7.44,1.43.91,3.67,0,5.09-.42a50.92,50.92,0,0,0,5.79-2.48c.73-.35.08-1.43-.65-1.08Z"/><path class="cls-1" d="M85.21,76.89l-3.43.74-1.48.31a11.61,11.61,0,0,1-1.75.41,8.08,8.08,0,0,1,1.3-2.23,4.86,4.86,0,0,0,.65-2c.06-.53-.58-.69-1-.52a35.63,35.63,0,0,0-7.16,4.26c.24-.28.48-.55.67-.79q1-1.3,2.07-2.58c1.19-1.45,2.42-2.87,3.67-4.26a.66.66,0,0,0,.39-.28l.36-.58a.63.63,0,0,0-1-.74q-2.7,3-5.22,6.08c-.79,1-1.56,2-2.32,3a4.34,4.34,0,0,0-1.19,2.6.63.63,0,0,0,1.08.42,35.53,35.53,0,0,1,7.79-5.31c-.83,1.4-2.17,3.25-1,4,.74.52,2.22-.14,3-.3l4.9-1.05c.79-.17.44-1.38-.35-1.21Z"/><path class="cls-1" d="M89.5,83.67a64.4,64.4,0,0,1-7.87,9.71,14.57,14.57,0,0,1-4,3.11,2,2,0,0,1-3-1.8c-.1-2.48,2.24-4.38,4.11-5.63A48,48,0,0,1,84.27,86c1.71-.84,3.46-1.62,5.24-2.3Zm-2.18-4.42a51.78,51.78,0,0,0-5.7,3.26l-.08,0a19,19,0,0,0,1.21-1.78,9.1,9.1,0,0,1,1.61-1.49c.48-.36,1-.69,1.5-1,.28-.17.57-.34.86-.49s2-.93,1.7.12a.58.58,0,0,0,.41.72c-.56.23-1.08.49-1.51.7Zm11.17,1a19,19,0,0,0-5.95,1.07c.56-1.14.77-2.3-.25-2.94a3.28,3.28,0,0,0-2.7-.06.58.58,0,0,0,0-.14A1.69,1.69,0,0,0,88.13,76c-1.42-.15-3,1.08-4.1,1.85s-5.36,4.61-2.94,5.74a.55.55,0,0,0,.82.19c1.38-.91,2.79-1.77,4.25-2.55.66-.36,1.33-.71,2-1s2.14-1.15,2.92-.92c1.19.36,0,1.8-.31,2.39l-.13.2a64.54,64.54,0,0,0-7.17,3c-3.7,1.83-10.94,5.18-10,10.36A3.11,3.11,0,0,0,77,98c1.73-.31,3.25-1.62,4.5-2.76A60.46,60.46,0,0,0,90.86,83.9c.17-.26.41-.6.68-1l.41-.14a20.56,20.56,0,0,1,6.57-1.33c.81,0,.78-1.24,0-1.25Z"/><path class="cls-1" d="M112.71,89.46a64.9,64.9,0,0,1-7.87,9.71,14.76,14.76,0,0,1-4,3.11,2,2,0,0,1-3-1.8c-.1-2.48,2.24-4.38,4.11-5.63a46.55,46.55,0,0,1,5.51-3.1c1.71-.84,3.46-1.62,5.24-2.3ZM110.53,85a53.37,53.37,0,0,0-5.7,3.25l-.08,0A19,19,0,0,0,106,86.48a9.55,9.55,0,0,1,1.61-1.5,16.9,16.9,0,0,1,1.5-1c.28-.17.57-.35.86-.5s2-.92,1.7.12a.6.6,0,0,0,.41.73c-.56.23-1.08.49-1.51.7ZM121.7,86a19,19,0,0,0-6,1.08c.56-1.14.77-2.3-.25-2.94a3.28,3.28,0,0,0-2.7-.06.58.58,0,0,0,0-.14,1.69,1.69,0,0,0-1.51-2.1c-1.42-.15-3,1.08-4.1,1.85s-5.36,4.6-2.94,5.74a.56.56,0,0,0,.82.19c1.38-.91,2.79-1.77,4.25-2.56.66-.35,1.33-.7,2-1s2.14-1.15,2.92-.92c1.19.36,0,1.8-.31,2.38a1.37,1.37,0,0,1-.13.2,65.71,65.71,0,0,0-7.17,3.06c-3.7,1.83-10.94,5.17-10,10.36a3.1,3.1,0,0,0,3.52,2.69c1.73-.3,3.25-1.62,4.5-2.75a60.21,60.21,0,0,0,9.38-11.36l.68-1,.41-.14a20,20,0,0,1,6.57-1.33c.81,0,.78-1.24,0-1.26Z"/><path class="cls-1" d="M131.93,88.44a15.33,15.33,0,0,1-3.22.8c-.59.08-1.31.4-1.4-.34,0-.29.56-1,.73-1.31.47-.85,1.24-2.64-.54-2.56a5.33,5.33,0,0,0-2.23,1.08c-.89.53-1.75,1.1-2.59,1.71s-1.44,1.07-2.13,1.65a34.85,34.85,0,0,1,5-5.69.63.63,0,0,0-.78-1l-.38.23a.62.62,0,0,0-.27.38,36.64,36.64,0,0,0-6.24,7.94.56.56,0,0,0,0,.6.64.64,0,0,0,1,.68,40.14,40.14,0,0,1,5-4.12c.73-.5,1.47-1,2.23-1.44l.77-.44c.37-.3.48-.33.31-.1.08.15-.65,1.19-.72,1.31-.5.92-1,2.34.4,2.72s4-.39,5.43-.92c.75-.27.41-1.48-.36-1.2Z"/><path class="cls-1" d="M141.2,91.25a4.24,4.24,0,0,0-5.49-4.32.59.59,0,0,0-.14.06h-.18c-.81,0-.78,1.25,0,1.25s-.51,2.5-.66,2.73a4,4,0,0,1-2.36,1.79c-.72.18-1.24-.21-1.09-1a4,4,0,0,1,.59-1.23,5.66,5.66,0,0,1,2-1.82c.71-.4.06-1.48-.64-1.08A6.66,6.66,0,0,0,130,91.83c-.4,1.78,1,2.49,2.59,2.17a5.67,5.67,0,0,0,3.9-3.64,4.34,4.34,0,0,0,.34-2.35,3,3,0,0,1,3.13,3.27c-.05.81,1.21.77,1.26,0Z"/><path class="cls-1" d="M156.63,89.35c-1.47-.35-2.7.55-3.91,1.28q-2.26,1.35-4.44,2.83c-2.33,1.58-4.58,3.28-6.75,5.07.66-.92,1.66-2,1.91-2.3,1-1.22,1.91-2.45,2.87-3.68a.63.63,0,0,0-.77-1l-6,3.14q-.51.27-1,.51l.12-.12c-.06-.23,1-1.4,1.18-1.62l.89-1.22c.08-.12.61-1,.84-1.32a.57.57,0,0,0,.5-.18l.08-.07a.66.66,0,0,0,.15-.62l0-.08a.62.62,0,0,0-.61-.45c-.52.06-.68.28-1,.68-.62.79-1.19,1.63-1.78,2.44s-2.31,2.38-1.44,3.47,2.4-.16,3.18-.57l3-1.55-2.41,3.09c-.74,1-2.1,2.22-1.3,3.5a.64.64,0,0,0,1,.12,90.64,90.64,0,0,1,7.3-5.66q1.79-1.25,3.63-2.4c1.13-.7,3.13-2.42,4.52-2.09a.63.63,0,0,0,.31-1.22Z"/><path class="cls-1" d="M176.9,86.73c-.25-.61-1-.73-1.51-.89-2.4-.66-4.86-1.17-7.3-1.61-.91-.17-1.81-.32-2.72-.46l1.69-1.88c1.61-1.79,3.25-3.57,5-5.24.59-.57-.32-1.44-.9-.88-2.55,2.46-5,5.08-7.3,7.78-3.33-.46-6.69-.75-10.05-.89-.7,0-.85,1.15-.14,1.24l.64.09a.73.73,0,0,0,.3,0c2.77.13,5.53.36,8.28.72q-2.16,2.56-4.23,5.19a65.21,65.21,0,0,0-6.53,9.46c-.86,1.61-2.12,3.92-1.87,5.82.2,1.44,1.49,1.79,2.7,1.25a39.94,39.94,0,0,0,6.25-4,71,71,0,0,0,5.92-4.74c.61-.53-.3-1.41-.9-.87a69.08,69.08,0,0,1-9.6,7.14c-.58.36-1.74,1.37-2.42,1.39-1.4,0-.32-2.39-.1-3a27.8,27.8,0,0,1,3-5.57,111,111,0,0,1,9.27-11.92c.27,0,.53.07.79.12,1.75.27,3.49.58,5.22.95.94.19,1.88.41,2.82.63l1.4.35.47.12a.57.57,0,0,0,.4.14.67.67,0,0,0,.93.77,1,1,0,0,0,.49-1.24Z"/><path class="cls-1" d="M177.26,99.79l-4.89.91c-.82.15-1.63.32-2.45.46-.65.11-.62.24-.36-.27a8.68,8.68,0,0,1,.93-1.17C171,99,172.25,98,172.19,97a1.38,1.38,0,0,0-1.44-1.21,7.21,7.21,0,0,0-2.94,1,21.21,21.21,0,0,0-3.37,2h0l.81-1c1.78-2.12,3.59-4.23,5.42-6.31q5.23-5.94,10.8-11.57a.69.69,0,0,0,.33-.24c.12-.16.24-.33.37-.49.43-.59-.51-1.24-1-.75q-6.22,6.24-12,12.88-2.82,3.23-5.56,6.52c-1.62,1.95-4.08,4.12-4.56,6.72-.15.79,1.07,1.1,1.22.3l0-.15a.52.52,0,0,0,.1-.11,21.12,21.12,0,0,1,8.29-6.83c.2-.09,1.63-.85,1.8-.72.51.39-.81,1.69-1,1.92-.49.63-1.63,1.6-1.52,2.49a1.25,1.25,0,0,0,1.38,1,20.1,20.1,0,0,0,3.66-.66l4.65-.86c.79-.15.44-1.36-.35-1.21Z"/></g></g></svg>