<svg xmlns="http://www.w3.org/2000/svg" viewBox="0 0 178.5 97.4"><defs><style>.cls-1{fill:#152c5a;}</style></defs><title>Asset 7mdpi</title><g id="Layer_2" data-name="Layer 2"><g id="Layer_1-2" data-name="Layer 1"><path class="cls-1" d="M33.85,25.58c1-3,1.95-6.1,4.18-8.39.57-.58-.32-1.47-.89-.88-3.27,3.36-4.45,8.53-5.73,12.9A158.25,158.25,0,0,0,27.77,44.7c-.95,5.13-1.7,10.29-2.37,15.46-.07.55-.11,1.82-.88,1.91-.52.07-1-.59-1.3-.94a12.1,12.1,0,0,1-1.45-3.61,81.9,81.9,0,0,1-2.08-8,79,79,0,0,1-1.5-18.66.63.63,0,0,0-1.1-.41.58.58,0,0,0-.45.43Q14.59,38.45,12.46,46c-1.36,4.84-2.59,9.75-4.2,14.51a30.56,30.56,0,0,1-1.19,3.05c-.49,1-1.23,2.92-2.39,3.33C2.3,67.73,2.15,62,2,60.6a102.69,102.69,0,0,1-.7-14.77c.06-2.75.21-5.5.43-8.23.11-1.41.24-2.82.38-4.23L2.3,31.5c0-.31.07-.63.11-.94,0-.15,0-.31,0-.46a1.36,1.36,0,0,0,.08-.32.63.63,0,0,0,.81-.23c.81-1.22-1.36-2.16-1.95-.63a16.43,16.43,0,0,0-.51,4C.72,34.46.57,36,.45,37.59A120.4,120.4,0,0,0,.3,56.39a66.36,66.36,0,0,0,1.14,8.88C1.82,67,3.17,69.06,5.24,68s3.19-4.27,3.95-6.39c1-2.89,1.81-5.89,2.65-8.84q2.57-9,5.05-18.06A78.66,78.66,0,0,0,20.42,57.4c.58,1.88,1.09,4.48,2.95,5.59,1.68,1,2.93-.42,3.19-2,.46-2.94.78-5.91,1.23-8.86.89-5.78,2-11.54,3.39-17.22.78-3.13,1.66-6.24,2.67-9.3Z"/><path class="cls-1" d="M47.84,40.63,44,43.8c-.64.53-1.27,1.07-1.92,1.58s-.42.52-.44-.05a9.63,9.63,0,0,1,.24-1.49c.15-.86.71-2.35.18-3.17a1.38,1.38,0,0,0-1.84-.36,7.33,7.33,0,0,0-2.08,2.31,21.64,21.64,0,0,0-2,3.38v0c.07-.41.15-.83.23-1.25.53-2.72,1.09-5.44,1.68-8.14q1.69-7.74,3.84-15.36a.61.61,0,0,0,.17-.36c0-.21.06-.41.08-.62.1-.72-1-.83-1.23-.17q-2.41,8.47-4.27,17.1c-.61,2.79-1.17,5.59-1.71,8.4-.47,2.49-1.57,5.58-.73,8.08.25.77,1.47.45,1.21-.32,0-.05,0-.1-.05-.15a.83.83,0,0,0,0-.15,21,21,0,0,1,2.09-7,21.33,21.33,0,0,1,1.84-3c.14-.19,1-1.54,1.24-1.51.63.09.1,1.87.05,2.17-.13.78-.65,2.18-.12,2.91a1.25,1.25,0,0,0,1.69.2,20.77,20.77,0,0,0,2.89-2.35l3.64-3c.62-.52-.27-1.4-.89-.89Z"/><path class="cls-1" d="M64.65,22.58l-.32.12.57-1.53c-.08.47-.16.94-.25,1.41ZM51,40.35c-.36.54-1.09,2-1.72,2-.88,0-.15-2.06.06-2.62s1.14-3.15,2-1.5a.58.58,0,0,0,1,.08Q51.69,39.36,51,40.35ZM77.11,19.22c-.51-.42-1.18-.18-1.75,0-2.42.58-4.81,1.33-7.16,2.12-.72.24-1.42.49-2.13.75.24-1.22.48-2.43.73-3.65.39-1.85.76-3.74,1.31-5.55a.56.56,0,0,0-.24-.66.66.66,0,0,0-1.1.23c-1.29,3.66-2.65,7.29-4,10.91-2.64,1.07-5.25,2.25-7.8,3.54-.62.31-.18,1.41.48,1.15l.6-.24a.65.65,0,0,0,.25-.17c1.93-.95,3.88-1.85,5.86-2.68a101.8,101.8,0,0,1-6.58,14.91,5.83,5.83,0,0,1-1.42,1.94c-.69.47-1-.15-1.15-.83a3.76,3.76,0,0,1,.86-2.67c.46-.67-.63-1.29-1.09-.63-.11.16-.21.32-.31.49l-.06,0a.59.59,0,0,0,0-.59c-.66-1.32-2-1.92-3.07-.62a8.08,8.08,0,0,0-1.67,5.14c.12,1.15,1.05,2.73,2.33,1.71a10.32,10.32,0,0,0,1.64-2.17l.16-.23a2.67,2.67,0,0,0,.25.7,1.84,1.84,0,0,0,2.93.58c1.57-1.21,2.48-3.68,3.3-5.41,2-4.24,3.79-8.62,5.47-13l.68-.27-.48,2.81A136.27,136.27,0,0,0,61.6,48a38.7,38.7,0,0,0,.2,4.81c.16,1.37.32,3.4,2,3.64.8.12,1.13-1.1.34-1.21-1.25-.18-1.18-3-1.23-4-.09-1.35-.09-2.7-.06-4.06.08-3.27.38-6.53.77-9.78.55-4.68,1.28-9.34,2.15-14L66,23.4q2.49-.91,5-1.7c.92-.28,1.84-.55,2.77-.81l1.4-.38.47-.12a.55.55,0,0,0,.41-.07.67.67,0,0,0,1.19.22.94.94,0,0,0-.18-1.32Z"/><path class="cls-1" d="M95.31,27.86C94.45,28.92,93.6,30,92.7,31c-.51.59-1,1.18-1.6,1.73-.2.2-1,.84-.94.85-.76-.44.24-6-1.82-4.68-1.36.85-2.23,2.86-3.15,4.12h0c0-.4,0-.84,0-1.19.11-1.32.32-2.62.44-3.94,0-.56.26-1.65-.43-1.93s-1.22.85-1.54,1.34c-.74,1.15-1.42,2.33-2.06,3.54A46.7,46.7,0,0,0,79,36.74a19.46,19.46,0,0,1,.66-4.88c.21-1,.45-2,.73-2.92a14.59,14.59,0,0,1,.81-2.7.57.57,0,0,0,.46-.58v-.09a.65.65,0,0,0-.47-.61l-.09,0a.62.62,0,0,0-.62.17,8.66,8.66,0,0,0-1.1,2.85c-.39,1.26-.71,2.53-1,3.81-.47,2.23-1,4.7-.35,6.94a.62.62,0,0,0,.8.41.63.63,0,0,0,.8-.41,46.83,46.83,0,0,1,4.61-10c0,.07,0,.14,0,.21-.13,1.11-.29,2.22-.36,3.34a3.73,3.73,0,0,0,.23,2.2c.45.63,1.12.39,1.58-.08A41.57,41.57,0,0,0,88.2,30.9a2.61,2.61,0,0,1,.23-.22c0,.26.09.52.1.7.08,1.24.32,4.41,2.34,3.19a12.66,12.66,0,0,0,2.73-2.69c.89-1,1.75-2.08,2.6-3.13.51-.63-.38-1.52-.89-.89Z"/><path class="cls-1" d="M98.46,28.46c-.36.53-1.09,2-1.72,2-.88,0-.15-2.05.06-2.61s1.14-3.15,2-1.5a.58.58,0,0,0,1,.08c-.4.7-.83,1.37-1.29,2Zm10.08-4.14a29.42,29.42,0,0,1-4.48,4.23c-.7.51-2.72,2.09-3.47,1.05s.2-2.48.7-3.21-.64-1.29-1.09-.63c-.11.16-.21.32-.31.49l-.06.05a.61.61,0,0,0,0-.6c-.66-1.31-2-1.91-3.07-.61a8.08,8.08,0,0,0-1.67,5.14c.12,1.14,1,2.72,2.33,1.71a10.32,10.32,0,0,0,1.64-2.17l.15-.22.09.28c.55,1.49,2,1.56,3.32,1,2.65-1.1,4.93-3.52,6.8-5.65.53-.61-.36-1.5-.9-.88Z"/><path class="cls-1" d="M122.26,20.74c-1.94,5.05-6.74,10.26-12.19,8.56a13.78,13.78,0,0,0,3.82-3.6,23.21,23.21,0,0,0,4.44-8.91.63.63,0,0,0-1.21-.33,22.06,22.06,0,0,1-3.05,6.89c-.66,1-3,4.31-4.85,5,.2-1.08.4-2.17.61-3.26.53-2.72,1.08-5.44,1.68-8.15q1.69-7.73,3.84-15.35a.67.67,0,0,0,.17-.37l.08-.61c.1-.72-1-.83-1.23-.17-1.62,5.65-3,11.36-4.28,17.1q-.9,4.18-1.7,8.39c-.14.74-.33,1.52-.51,2.32l-.2-.13c-.58-.4-1.32.55-.76,1l.13.1h0l.08.05.09,0,.38.25a9.07,9.07,0,0,0,.05,4.46c.26.77,1.48.45,1.22-.32a6.89,6.89,0,0,1,0-3.52,9.17,9.17,0,0,0,7.91-.51c3.28-1.85,5.37-5.16,6.69-8.59.3-.76-.92-1.09-1.21-.34Z"/><path class="cls-1" d="M124.64,19.58c.46-.37,2-.92,1.24.24a1.72,1.72,0,0,1-2,.65,3.08,3.08,0,0,1,.76-.89Zm6.2-1.13a23,23,0,0,1-2.71,2.7,17.2,17.2,0,0,1-1.74,1.31c-.43.3-1.74,1.31-2.23,1.11a1.68,1.68,0,0,1-.86-1.31,2.39,2.39,0,0,1,.11-.63l.12.05c1.69.54,4.35-.83,3.74-2.92-.29-1-1.36-1.08-2.24-.81a4.19,4.19,0,0,0-2.5,2.41c-.78,1.8-.69,4.89,2.06,4.42a9.35,9.35,0,0,0,3.71-2.16,23.22,23.22,0,0,0,3.43-3.29c.52-.61-.37-1.5-.89-.88Z"/><path class="cls-1" d="M132.25,35.27a1.63,1.63,0,0,1-2.13.46c-.61-.42-.46-1.55-.34-2.14a14.93,14.93,0,0,1,.68-2.25,33.18,33.18,0,0,1,2.36-4.92l.17-.29c1,3.08,1.74,6.75-.74,9.14Zm6.09-18.9a63.53,63.53,0,0,0-5,6.83c-.1-.27-.19-.54-.28-.81-.54-1.67-1.89-5.5-.08-6.84.64-.47,0-1.56-.64-1.08-2.83,2.08-1,7,0,9.55l.19.54a29.69,29.69,0,0,0-3.85,8.51,3.71,3.71,0,0,0,.63,3.55,2.46,2.46,0,0,0,3.31,0c2.42-1.78,2.88-5.11,2.43-7.88a23.87,23.87,0,0,0-1.14-4.07,62.84,62.84,0,0,1,5.39-7.46c.52-.61-.37-1.5-.89-.88Z"/><path class="cls-1" d="M161.92,10.41a27.31,27.31,0,0,1-2.25,3.65c-.48.64-1,1.26-1.54,1.86s-1.13,1.46-1.74,1.63c-1.13.33-1.17-.79-1.2-1.6a17.59,17.59,0,0,1,.06-1.92,36.23,36.23,0,0,1,.61-4.12.63.63,0,0,0-1.15-.48c-1.26,2.08-2.49,4.18-3.82,6.22a8.18,8.18,0,0,1-.95,1.42c-.3.28-.07.31-.26,0s-.06-.81-.06-1a16.79,16.79,0,0,1,.58-4c.19-.79-1-1.12-1.21-.33a16.35,16.35,0,0,0-.57,5.34c.08.89.63,2.41,1.8,1.61a6,6,0,0,0,1.22-1.61c.53-.78,1-1.56,1.52-2.35l1.14-1.87a21.33,21.33,0,0,0-.17,2.52c0,1.24,0,3.36,1.57,3.63s2.93-1.55,3.81-2.54A26.51,26.51,0,0,0,163,11c.37-.72-.72-1.35-1.09-.63Z"/><path class="cls-1" d="M163.2,27c-.59.56-1.35,1-2.13.45-.61-.41-.46-1.55-.35-2.13a15.82,15.82,0,0,1,.69-2.25,33.18,33.18,0,0,1,2.36-4.92c0-.1.11-.2.17-.3,1,3.09,1.74,6.76-.74,9.15Zm6.09-18.9a65.93,65.93,0,0,0-5,6.82l-.27-.81c-.54-1.67-1.9-5.5-.09-6.83.65-.47,0-1.56-.63-1.08-2.83,2.08-1,7,0,9.55l.18.53a30.06,30.06,0,0,0-3.84,8.51,3.75,3.75,0,0,0,.62,3.56,2.47,2.47,0,0,0,3.32,0c2.42-1.78,2.87-5.12,2.43-7.89a24.13,24.13,0,0,0-1.14-4.07A63.55,63.55,0,0,1,170.18,9c.52-.62-.37-1.51-.89-.88Z"/><path class="cls-1" d="M9.9,93.6c-.36.54-1.09,2-1.72,2-.88,0-.14-2.06.06-2.62s1.14-3.15,2-1.5a.58.58,0,0,0,1,.08c-.4.7-.83,1.37-1.29,2ZM20,89.46a29,29,0,0,1-4.48,4.23c-.7.51-2.72,2.09-3.47,1s.2-2.48.7-3.21-.63-1.29-1.09-.63c-.11.16-.21.32-.31.49l-.05,0a.63.63,0,0,0,0-.6c-.66-1.31-2-1.91-3.07-.61a8.08,8.08,0,0,0-1.67,5.14c.12,1.14,1,2.73,2.33,1.71a10.32,10.32,0,0,0,1.64-2.17l.15-.22.09.28c.55,1.49,2,1.56,3.32,1,2.65-1.1,4.93-3.52,6.8-5.65.53-.61-.36-1.5-.9-.88Z"/><path class="cls-1" d="M30,87a20.4,20.4,0,0,1-5.56,4.79,2.52,2.52,0,0,1-2,.58,1.77,1.77,0,0,1-1.21-1.54,2.77,2.77,0,0,1,.6-1.9c.25-.34,1.71-1.85,1.36-.28-.17.79,1,1.13,1.22.34.39-1.78-.9-3-2.53-1.89S19.49,90.31,20.35,92c2.36,4.74,8.8-2,10.56-4.15.51-.62-.38-1.52-.89-.89Z"/><path class="cls-1" d="M42.77,83.4l-3.83,3.17c-.64.52-1.27,1.06-1.92,1.58s-.42.52-.44-.06a8.45,8.45,0,0,1,.24-1.48c.14-.86.71-2.35.18-3.17a1.38,1.38,0,0,0-1.84-.36,7,7,0,0,0-2.08,2.31,21.25,21.25,0,0,0-2,3.38v0l.24-1.25q.78-4.08,1.68-8.15Q34.7,71.66,36.84,64a.75.75,0,0,0,.17-.37c0-.2.05-.41.08-.61.1-.72-1.05-.84-1.24-.17-1.61,5.65-3,11.35-4.27,17.1q-.9,4.19-1.7,8.39c-.48,2.5-1.57,5.59-.74,8.09.26.77,1.47.45,1.22-.32,0-.05,0-.1-.05-.15a.83.83,0,0,0,0-.15,21.06,21.06,0,0,1,3.93-10c.14-.18,1-1.53,1.24-1.5.63.09.1,1.87,0,2.17-.13.78-.66,2.18-.13,2.91a1.25,1.25,0,0,0,1.69.2A20.2,20.2,0,0,0,40,87.29l3.65-3c.62-.51-.28-1.39-.9-.88Z"/><path class="cls-1" d="M45.4,79a.63.63,0,0,0,.45-.77,2.62,2.62,0,0,1,.53-1.93c.47-.66-.62-1.28-1.09-.63a3.94,3.94,0,0,0-.66,2.89.63.63,0,0,0,.77.44Zm6.23,2.12a33.63,33.63,0,0,1-5.23,6.24c-.45.38-1.25,1.16-1.92.92s-.69-1.62-.69-2.22a8,8,0,0,1,1.1-3.93.63.63,0,0,0-1.08-.63c-1,1.75-2.78,7.87.8,8.06,1.69.1,3.23-1.74,4.24-2.84a47.53,47.53,0,0,0,3.86-5c.47-.66-.62-1.29-1.08-.63Z"/><path class="cls-1" d="M53.85,80c.47-.37,2-.93,1.25.24a1.73,1.73,0,0,1-2,.65,3.24,3.24,0,0,1,.76-.89Zm6.2-1.14a23,23,0,0,1-2.7,2.71c-.56.47-1.14.9-1.74,1.31-.44.3-1.74,1.31-2.23,1.11a1.66,1.66,0,0,1-.86-1.32,2.09,2.09,0,0,1,.11-.63l.11,0c1.69.55,4.35-.82,3.75-2.91-.3-1-1.37-1.09-2.24-.82a4.22,4.22,0,0,0-2.5,2.41c-.78,1.8-.69,4.9,2.06,4.43A9.49,9.49,0,0,0,57.52,83,24.24,24.24,0,0,0,61,79.71c.52-.61-.37-1.5-.9-.89Z"/><path class="cls-1" d="M68.53,72.07c-.9-.41-1.45.23-1.91,1a30.81,30.81,0,0,0-2.3,4.46,75.07,75.07,0,0,0-2.68,7.68c-.08-.5-.12-1-.14-1.18a16.64,16.64,0,0,1-.09-2.23c0-.68.06-1.35.11-2,0-.24,0-1.51.1-2.06a.73.73,0,0,0,.32-.54.63.63,0,0,0-.24-.59.66.66,0,0,0-.89,0c-.53.44-.4,1.44-.45,2a35.11,35.11,0,0,0-.21,3.83c0,1.43,0,4.28,1.52,4.93a.64.64,0,0,0,.77-.44c.69-2.32,1.38-4.64,2.22-6.9.44-1.18.92-2.35,1.47-3.48.14-.29,1.77-3.36,1.77-3.36.73.34,1.36-.74.63-1.09Z"/><path class="cls-1" d="M72.17,75.05c.46-.37,2-.92,1.24.24a1.72,1.72,0,0,1-2,.65,2.93,2.93,0,0,1,.76-.89Zm6.2-1.13a23.83,23.83,0,0,1-2.71,2.7,17.2,17.2,0,0,1-1.74,1.31c-.44.3-1.74,1.31-2.23,1.11a1.68,1.68,0,0,1-.86-1.31,2.39,2.39,0,0,1,.11-.63l.11.05c1.7.54,4.36-.83,3.75-2.92-.29-1-1.36-1.08-2.24-.81a4.19,4.19,0,0,0-2.5,2.41c-.78,1.8-.69,4.89,2.06,4.42a9.35,9.35,0,0,0,3.71-2.16,23.72,23.72,0,0,0,3.43-3.29c.52-.61-.37-1.5-.89-.88Z"/><path class="cls-1" d="M95.56,75a64.82,64.82,0,0,1-2.17,12.3,14.65,14.65,0,0,1-2,4.68,2,2,0,0,1-3.46-.14c-1.3-2.12-.17-4.92.86-6.92a47.93,47.93,0,0,1,3.31-5.38C93.18,78,94.33,76.49,95.56,75Zm-4-2.81a52.75,52.75,0,0,0-3.41,5.61H88a19.35,19.35,0,0,0,.19-2.14,9.64,9.64,0,0,1,.68-2.09c.25-.55.53-1.08.83-1.6.17-.28.33-.57.52-.85s1.26-1.76,1.54-.72a.59.59,0,0,0,.71.44c-.38.47-.71,1-1,1.34Zm10.23-4.58a18.9,18.9,0,0,0-4.69,3.82C97,70.2,96.62,69.08,95.41,69A3.27,3.27,0,0,0,93,70.27a.78.78,0,0,0,0-.14A1.69,1.69,0,0,0,90.66,69c-1.32.55-2.11,2.4-2.69,3.6s-2.46,6.63.21,6.45a.56.56,0,0,0,.81-.23c.76-1.47,1.58-2.91,2.48-4.3.4-.63.82-1.26,1.26-1.87s1.31-2.05,2.11-2.22c1.21-.27.91,1.55.88,2.23,0,.08,0,.16,0,.24a64.67,64.67,0,0,0-4.8,6.15c-2.35,3.39-7,9.83-3.74,13.92a3.12,3.12,0,0,0,4.39.65c1.36-1.1,2-3,2.6-4.59a60.38,60.38,0,0,0,2.7-14.48c0-.31.07-.72.12-1.18.09-.11.19-.22.29-.32a20.21,20.21,0,0,1,5.1-4.35c.72-.38.08-1.47-.63-1.08Z"/><path class="cls-1" d="M111.88,64.83a15.29,15.29,0,0,1-2.43,2.26c-.48.36-1,1-1.39.38-.17-.24,0-1.16,0-1.5,0-1-.19-2.9-1.71-2a5.4,5.4,0,0,0-1.43,2c-.52.9-1,1.82-1.44,2.75s-.73,1.64-1.06,2.48A35.31,35.31,0,0,1,104,63.87a.63.63,0,0,0-1.15-.48c-.08.13-.15.26-.22.39a.59.59,0,0,0-.06.46,36.57,36.57,0,0,0-1.6,10,.54.54,0,0,0,.29.53.64.64,0,0,0,1.24.09,39.47,39.47,0,0,1,2.36-6q.58-1.18,1.26-2.34c.14-.26.3-.51.45-.76.18-.44.26-.52.23-.24a5.79,5.79,0,0,1,0,1.5c0,1,.22,2.56,1.67,2.19s3.27-2.26,4.3-3.44c.53-.6-.36-1.49-.89-.88Z"/><path class="cls-1" d="M114.24,63.78c.47-.37,2-.93,1.25.24a1.73,1.73,0,0,1-2,.64,3.35,3.35,0,0,1,.76-.88Zm6.2-1.14a23,23,0,0,1-2.7,2.71c-.56.46-1.14.9-1.74,1.31-.44.29-1.74,1.31-2.23,1.11a1.7,1.7,0,0,1-.86-1.32,2.09,2.09,0,0,1,.11-.63l.11.05c1.7.55,4.35-.82,3.75-2.92-.3-1-1.37-1.08-2.24-.81a4.19,4.19,0,0,0-2.5,2.41c-.78,1.8-.69,4.9,2.06,4.43a9.61,9.61,0,0,0,3.71-2.16,24.24,24.24,0,0,0,3.43-3.29c.52-.61-.37-1.51-.9-.89Z"/><path class="cls-1" d="M137.37,44.5l-.33.13c.2-.51.39-1,.58-1.53-.09.47-.17.94-.25,1.4ZM123.72,62.28c-.37.53-1.1,2-1.73,2-.87,0-.14-2,.07-2.61s1.13-3.15,2-1.5a.58.58,0,0,0,1,.07C124.61,60.93,124.17,61.61,123.72,62.28Zm26.11-21.14c-.52-.41-1.19-.17-1.75,0-2.42.58-4.81,1.33-7.17,2.13l-2.13.75c.24-1.22.48-2.44.74-3.65.39-1.86.75-3.74,1.31-5.55a.57.57,0,0,0-.24-.67.68.68,0,0,0-1.11.24q-1.93,5.49-4,10.91-4,1.6-7.8,3.54c-.63.31-.19,1.41.48,1.15l.6-.24a.74.74,0,0,0,.25-.17q2.88-1.44,5.85-2.68a101.21,101.21,0,0,1-6.58,14.91,5.7,5.7,0,0,1-1.42,1.94c-.69.47-1-.15-1.14-.83a3.79,3.79,0,0,1,.85-2.67c.46-.67-.63-1.3-1.09-.63-.11.16-.21.32-.31.49l0,0a.61.61,0,0,0,0-.6c-.66-1.31-2-1.91-3.07-.61a8.13,8.13,0,0,0-1.66,5.14c.11,1.14,1,2.72,2.32,1.71a10.36,10.36,0,0,0,1.65-2.17l.15-.23a3.66,3.66,0,0,0,.25.7,1.84,1.84,0,0,0,2.93.58c1.58-1.21,2.49-3.69,3.3-5.41,2-4.25,3.8-8.62,5.48-13l.67-.27c-.16.94-.31,1.87-.47,2.8A136.54,136.54,0,0,0,134.31,70a38.46,38.46,0,0,0,.21,4.8c.15,1.37.32,3.4,2,3.65.79.11,1.13-1.1.33-1.21-1.24-.18-1.17-3-1.23-4-.08-1.35-.09-2.71,0-4.06.08-3.27.38-6.54.76-9.79.56-4.67,1.29-9.34,2.16-14l.22-.08q2.49-.91,5-1.7c.92-.29,1.85-.56,2.78-.81l1.39-.38.47-.12a.58.58,0,0,0,.42-.07.67.67,0,0,0,1.19.22,1,1,0,0,0-.18-1.33Z"/><path class="cls-1" d="M152.23,54.12l-2.64,2.31-1.14,1a11.57,11.57,0,0,1-1.33,1.2,7.84,7.84,0,0,1,0-2.57,4.9,4.9,0,0,0-.4-2.07c-.21-.49-.84-.32-1.09,0a36.76,36.76,0,0,0-4.19,7.2c.08-.36.15-.71.2-1,.17-1.09.36-2.18.56-3.26.34-1.85.73-3.68,1.15-5.51a.6.6,0,0,0,.2-.43l0-.68a.63.63,0,0,0-1.24-.17c-.61,2.6-1.16,5.22-1.61,7.85-.22,1.24-.41,2.48-.59,3.73a4.34,4.34,0,0,0,.22,2.85.64.64,0,0,0,1.15-.15A35.27,35.27,0,0,1,145.81,56c-.05,1.63-.32,3.9,1.08,4,.9.1,1.87-1.2,2.46-1.71L153.13,55c.61-.53-.29-1.42-.9-.89Z"/><path class="cls-1" d="M154.58,53c.47-.37,1.95-.93,1.24.24a1.72,1.72,0,0,1-2,.65,3.24,3.24,0,0,1,.76-.89Zm6.2-1.14a23,23,0,0,1-2.7,2.71c-.56.47-1.14.9-1.74,1.31-.44.3-1.74,1.31-2.24,1.11a1.68,1.68,0,0,1-.86-1.32,2.49,2.49,0,0,1,.12-.63l.11.05c1.69.55,4.35-.82,3.75-2.91-.3-1-1.37-1.09-2.24-.82a4.26,4.26,0,0,0-2.51,2.41c-.78,1.8-.69,4.9,2.07,4.43a9.38,9.38,0,0,0,3.7-2.16,23.22,23.22,0,0,0,3.43-3.29c.53-.61-.36-1.5-.89-.89Z"/><path class="cls-1" d="M171.36,65.9c-.59.57-1.35,1-2.13.46-.61-.41-.46-1.55-.34-2.14a15.29,15.29,0,0,1,.68-2.25,33.66,33.66,0,0,1,2.36-4.92l.17-.29c1,3.09,1.74,6.76-.74,9.14Zm-8-4a19,19,0,0,1,.15,6,5.74,5.74,0,0,1-1.46,2.84c-.71.7-2,1.1-2.47-.13a4,4,0,0,1,.19-2.32,26.81,26.81,0,0,1,1.43-3.67c.62-1.38,1.29-2.73,2-4.06.06.44.12.88.17,1.33ZM177.45,47a67.15,67.15,0,0,0-5,6.83l-.27-.81c-.45-1.38-1.44-4.21-.77-5.92l.81-1a.62.62,0,0,0,.1-.68.57.57,0,0,0-.64-.41.55.55,0,0,0-.35.2h0a3.43,3.43,0,0,0-.91,1.15,76.44,76.44,0,0,0-4.87,7.51q-.92,1.55-1.8,3.12c-.15-.59-.33-1.18-.51-1.78a31.81,31.81,0,0,1-1-4c-.22-1.23-.59-3.27.59-4.14.65-.48,0-1.57-.63-1.09-2.94,2.16-.81,7.58.1,10.3a19.93,19.93,0,0,1,.61,2.23c-1.05,1.93-2,3.91-2.93,5.92a20,20,0,0,0-1.56,4.44c-.31,1.71.41,4.08,2.57,3.83s3.41-2.69,3.83-4.52a19,19,0,0,0-.09-6.15c-.13-1.12-.3-2.2-.52-3.27.68-1.26,1.39-2.5,2.11-3.74,1.17-2,2.37-4,3.69-6a22.07,22.07,0,0,0,1.44,5.57c.06.17.12.35.19.53a29.69,29.69,0,0,0-3.85,8.51,3.71,3.71,0,0,0,.63,3.55,2.44,2.44,0,0,0,3.31,0c2.42-1.78,2.87-5.12,2.43-7.89A23.87,23.87,0,0,0,173,55.34a62.73,62.73,0,0,1,5.39-7.45c.52-.62-.37-1.51-.89-.89Z"/></g></g></svg>