<svg xmlns="http://www.w3.org/2000/svg" viewBox="0 0 216.52 160.4"><defs><style>.cls-1{fill:#152c5a;}</style></defs><title>Asset 4mdpi</title><g id="Layer_2" data-name="Layer 2"><g id="Layer_1-2" data-name="Layer 1"><path class="cls-1" d="M21.9,83.16c1.28-3.09,3.15-7.27.57-10.26-2.37-2.75-6.75-1.66-9.76-.82A31,31,0,0,0,.22,79c-.59.53.13,1.57.73,1a30.24,30.24,0,0,1,12.62-6.9c2.06-.54,4.78-1.24,6.82-.28,2.59,1.21,2.31,4.48,1.55,6.74a90.58,90.58,0,0,1-5.86,13c-1.46,2.8-3,5.54-4.71,8.23.12-2.21.28-4.41.45-6.62q.72-9.49,2-18.93a.63.63,0,0,0-1.24-.23c-.4,1.52-.8,3-1.21,4.55a.56.56,0,0,0,.56.71q-1.1,9.47-1.68,19c-.08,1.22-.15,2.44-.2,3.66-.49.76-1,1.51-1.5,2.26s.52,1.47,1,.8l.47-.69a44.91,44.91,0,0,0,.22,5.31c.09.89,0,3.1,1.21,3.37a.94.94,0,0,0,1-1.45.53.53,0,0,0-.69-.22c0-.14,0-.28-.07-.42-.06-.38-.11-.77-.15-1.15-.09-.77-.15-1.54-.19-2.31-.08-1.55-.07-3.1,0-4.65,0-.15,0-.31,0-.46A126.76,126.76,0,0,0,21.9,83.16Z"/><path class="cls-1" d="M40.74,72.57h0l0-.08Zm11.95-4.35c-.55-.36-1.2-.07-1.75.12-2.36.78-4.68,1.74-7,2.74-.63.27-1.25.56-1.88.85.13-1.23.27-2.46.42-3.68.22-1.88.42-3.79.81-5.65a.6.6,0,0,0-.73-.71.56.56,0,0,0-.77.31A32.74,32.74,0,0,0,40.64,67q-.69,3.15-1.35,6.3-4.11,2.07-8,4.5c-.6.36-.06,1.42.58,1.1l.57-.29a.55.55,0,0,0,.23-.19C34.71,77.15,36.81,76,39,74.86l-.15.71c-1.18,5.58-2.17,11.35-4,16.77a3.88,3.88,0,0,1-1.09,2C32,95.5,32.16,91.9,32.15,91a34,34,0,0,1,.26-4.16.63.63,0,0,0-1.19-.37C30.14,88.68,29.09,90.88,28,93a8.09,8.09,0,0,1-.83,1.5c-.27.3,0,.31-.25,0s-.13-.8-.15-1a17,17,0,0,1,.24-4c.11-.8-1.13-1-1.24-.22a16.41,16.41,0,0,0-.11,5.37c.17.88.84,2.34,1.94,1.45a5.89,5.89,0,0,0,1.08-1.72c.45-.81.88-1.64,1.3-2.47.32-.63.64-1.27.95-1.9A15.77,15.77,0,0,0,31.16,94c.47,2.14,2.32,2.59,3.79.93,1.17-1.33,1.51-3.61,1.95-5.27,1.35-5.13,2.43-10.33,3.51-15.52l.21-.11c-.08,1-.15,1.91-.23,2.86a135.92,135.92,0,0,0-.47,21.35,36.62,36.62,0,0,0,.62,4.77c.27,1.35.61,3.35,2.33,3.45.8,0,1-1.19.22-1.24-1.25-.07-1.43-2.89-1.57-3.85-.2-1.34-.32-2.69-.41-4-.2-3.27-.19-6.55-.09-9.82.15-4.71.47-9.43.94-14.12l0,0q2.4-1.14,4.86-2.13c.89-.37,1.79-.72,2.69-1.06l1.36-.49.46-.16a.55.55,0,0,0,.4-.11.68.68,0,0,0,1.21.12,1,1,0,0,0-.29-1.31Z"/><path class="cls-1" d="M56.79,89.43a18,18,0,0,1,.13,4.28,33,33,0,0,1-.68,4.74,22,22,0,0,1-.61,2.21c-.12.35-.41,1.58-.76,1.77-.65.35-.66-1.33-.69-1.69-.07-.76-.1-1.53-.11-2.29,0-1.73.06-3.47.19-5.2.1-1.41.23-2.81.39-4.22a3.6,3.6,0,0,1,1-.56c.7-.2,1,.3,1.14,1Zm.14-20a119.9,119.9,0,0,0-3.06,15.72c-.11.74-.2,1.48-.3,2.23-.63.8-1.23,1.64-1.79,2.51l-.53.65a.59.59,0,0,0-.1.56.66.66,0,0,0,1.22.21l.36-.58a6.88,6.88,0,0,1,.53-.55c-.25,2.42-.42,4.86-.44,7.3,0,1.64-.2,3.78.44,5.34s2,1.46,2.74.13c1.77-3.14,2.21-7.33,2.23-10.87,0-1.44.16-4.45-1.62-5a2.28,2.28,0,0,0-1.24,0,29.89,29.89,0,0,1,6.1-5.39c.67-.45,0-1.48-.73-1a31.43,31.43,0,0,0-5.66,4.87c.08-.61.17-1.23.26-1.85a122.73,122.73,0,0,1,2.51-12.89.65.65,0,0,0,.49-.81l-.2-.73c-.18-.65-1-.43-1.21.11Z"/><path class="cls-1" d="M70.66,77a14.79,14.79,0,0,1-2.22,2.46c-.44.4-.86,1.06-1.35.5-.19-.22-.1-1.15-.13-1.49-.09-1-.45-2.88-1.88-1.82a5.55,5.55,0,0,0-1.25,2.14c-.43.94-.83,1.9-1.19,2.87s-.59,1.7-.84,2.56a35.3,35.3,0,0,1,.93-7.5.63.63,0,0,0-1.19-.37l-.18.41a.57.57,0,0,0,0,.46,36.61,36.61,0,0,0-.73,10.07.56.56,0,0,0,.34.5.64.64,0,0,0,1.24,0A39.37,39.37,0,0,1,64,81.55c.32-.83.67-1.64,1-2.45.12-.26.25-.53.38-.79.14-.46.21-.54.21-.26a5.56,5.56,0,0,1,.13,1.49c.1,1,.44,2.53,1.86,2s3.06-2.53,4-3.79c.48-.65-.49-1.46-1-.8Z"/><path class="cls-1" d="M83.82,72.6a25.86,25.86,0,0,1-1.92,3.83c-.43.69-.89,1.35-1.37,2-.38.49-1,1.55-1.59,1.78-1.1.42-1.24-.69-1.34-1.5-.07-.63-.1-1.27-.11-1.91a34,34,0,0,1,.26-4.16.63.63,0,0,0-1.19-.37c-1.08,2.17-2.12,4.37-3.27,6.52a9.06,9.06,0,0,1-.82,1.5c-.28.3,0,.31-.26,0s-.13-.8-.15-1a17,17,0,0,1,.24-4c.11-.8-1.13-1-1.24-.22A16.41,16.41,0,0,0,71,80.43c.17.88.84,2.34,1.94,1.45A5.89,5.89,0,0,0,74,80.16c.45-.81.88-1.64,1.3-2.47.33-.65.65-1.3,1-2a23.5,23.5,0,0,0,0,2.52c.1,1.25.27,3.36,1.89,3.49s2.79-1.8,3.57-2.86A26.58,26.58,0,0,0,85,73.13c.31-.74-.83-1.28-1.14-.53Z"/><path class="cls-1" d="M86,71c.43-.41,1.87-1.1,1.26.13a1.72,1.72,0,0,1-1.94.82A3.18,3.18,0,0,1,86,71Zm6.08-1.68a23.8,23.8,0,0,1-2.46,2.94A18.61,18.61,0,0,1,88,73.69c-.41.34-1.62,1.46-2.13,1.3a1.69,1.69,0,0,1-1-1.23,2.39,2.39,0,0,1,.06-.64l.12,0c1.73.4,4.26-1.2,3.48-3.23-.39-1-1.46-1-2.31-.62a4.21,4.21,0,0,0-2.28,2.62c-.62,1.86-.26,4.94,2.44,4.23a9.55,9.55,0,0,0,3.51-2.47A24.79,24.79,0,0,0,93,70.11c.46-.66-.5-1.47-1-.81Z"/><path class="cls-1" d="M98.27,83.76A18.22,18.22,0,0,1,97.35,88c-.21.59-.4,1.63-.82.71a7.29,7.29,0,0,1-.26-2.64,56.48,56.48,0,0,1,.85-10.63c1.29,1.94,1.27,7.14,1.15,8.31ZM96,67.14A20.85,20.85,0,0,0,92.91,72a19.88,19.88,0,0,1,.56-2.86,13.61,13.61,0,0,1,.59-1.77,3.37,3.37,0,0,1,.43-.82c.39-.46,1.37-.66,1.69,0a.83.83,0,0,0,.21.24C96.26,66.88,96.14,67,96,67.14Zm6.64-1.62a6.21,6.21,0,0,1-1,1.32c-.67.81-1.37,1.59-2.09,2.36-.51.55-1,1.1-1.57,1.65.26-1.18.54-2.35.83-3.52a.56.56,0,0,0-.48-.7.9.9,0,0,0-.45-.43,1,1,0,0,0-.54-.09l0,0c-.42-.85-1-1.66-2.08-1.58-1.28.1-2,1.46-2.43,2.51a15.3,15.3,0,0,0-1,4.11c-.11,1-.34,2.25.7,2.81a.88.88,0,0,0,1-.26,20.92,20.92,0,0,1,1.64-3.28c.32-.51.66-1,1-1.48.16-.22.34-.44.52-.65a3.82,3.82,0,0,1,.27-.32.8.8,0,0,0,.23-.38.79.79,0,0,0,.22.18c-.37,1.53-.72,3.07-1,4.61A13.7,13.7,0,0,1,95,73.44a.56.56,0,0,0-.26.43.63.63,0,0,0,.73.94,1.4,1.4,0,0,1,.51-.1c-.33,1.89-.6,3.79-.76,5.7A47.88,47.88,0,0,0,95,86.86c0,1.06.11,3.87,1.7,3.88s1.88-2.5,2.16-3.53a19.92,19.92,0,0,0,.71-5.85c0-1.74-.4-6-2.21-7.48.06-.28.11-.57.17-.86,1.13-1,2.18-2.15,3.19-3.24.77-.83,1.53-1.67,2.23-2.56a4.47,4.47,0,0,0,.93-1.47c.2-.79-1-1-1.24-.23Z"/><path class="cls-1" d="M105.14,64c.43-.41,1.87-1.09,1.26.13a1.72,1.72,0,0,1-1.94.82,3.31,3.31,0,0,1,.68-1Zm6.08-1.67a23,23,0,0,1-2.46,2.93,20.52,20.52,0,0,1-1.62,1.46c-.41.33-1.62,1.45-2.13,1.3a1.72,1.72,0,0,1-1-1.24,2.39,2.39,0,0,1,.06-.64l.12,0c1.73.4,4.26-1.2,3.48-3.23-.39-1-1.46-1-2.31-.61A4.19,4.19,0,0,0,103.11,65c-.62,1.86-.26,4.93,2.44,4.22a9.44,9.44,0,0,0,3.51-2.47,24.27,24.27,0,0,0,3.13-3.58c.46-.65-.5-1.46-1-.8Z"/><path class="cls-1" d="M122.45,58.24,120,60.77l-1,1.08a10.45,10.45,0,0,1-1.23,1.31,8.09,8.09,0,0,1-.17-2.56,4.94,4.94,0,0,0-.57-2c-.25-.47-.87-.24-1.09.1a36.72,36.72,0,0,0-3.55,7.53c0-.36.09-.71.11-1,.08-1.1.17-2.2.28-3.29q.27-2.8.66-5.6a.57.57,0,0,0,.16-.44l0-.68a.63.63,0,0,0-1.24-.06c-.39,2.64-.7,5.3-.93,8-.1,1.26-.19,2.51-.26,3.77a4.35,4.35,0,0,0,.47,2.82.64.64,0,0,0,1.13-.25,35.38,35.38,0,0,1,3.49-8.77c.09,1.63,0,3.91,1.43,3.93.9,0,1.76-1.36,2.3-1.91L123.42,59c.56-.58-.41-1.38-1-.8Z"/><path class="cls-1" d="M136.34,39.73c-.55-.37-1.2-.07-1.75.11-2.36.79-4.67,1.75-7,2.74-.84.37-1.68.76-2.51,1.15.11-.84.23-1.67.35-2.5.34-2.39.69-4.78,1.2-7.14.17-.8-1.07-1-1.24-.23-.74,3.47-1.28,7-1.7,10.54q-4.53,2.22-8.83,4.88c-.59.37-.06,1.43.58,1.11l.57-.29a.78.78,0,0,0,.24-.19c2.37-1.44,4.79-2.79,7.27-4-.25,2.22-.44,4.45-.61,6.66a65,65,0,0,0-.12,11.5c.18,1.82.43,4.44,1.7,5.87,1,1.08,2.24.65,2.94-.48a37.53,37.53,0,0,0,3-6.78,69.6,69.6,0,0,0,2.26-7.23c.21-.78-1-1-1.23-.22a69.33,69.33,0,0,1-4,11.29c-.29.62-.68,2.1-1.24,2.51-1.13.82-1.6-1.81-1.74-2.41a27.94,27.94,0,0,1-.62-6.32,112,112,0,0,1,1-15.07l.71-.34q2.4-1.12,4.86-2.13c.9-.36,1.79-.71,2.7-1l1.36-.5L135,41a.58.58,0,0,0,.41-.1.67.67,0,0,0,1.2.11,1,1,0,0,0-.29-1.3Z"/><path class="cls-1" d="M132.79,56.87a125.42,125.42,0,0,1,1.57-19c.34-2.38.69-4.78,1.2-7.13.17-.8-1.07-1-1.24-.23a139.88,139.88,0,0,0-2.48,18.68,65,65,0,0,0-.12,11.5c.18,1.82.43,4.44,1.7,5.86,1,1.09,2.24.66,2.94-.47a38.25,38.25,0,0,0,3-6.78A70.36,70.36,0,0,0,141.58,52c.21-.78-1-1-1.23-.22a70.63,70.63,0,0,1-4,11.29c-.29.62-.68,2.1-1.24,2.5-1.13.82-1.6-1.8-1.75-2.41a28.37,28.37,0,0,1-.61-6.31Z"/><path class="cls-1" d="M148.34,66.07a18.33,18.33,0,0,1-2.06,5.07,4.1,4.1,0,0,1-2,1.93c-1.82.55-1.26-2.37-1.08-3.32a44.33,44.33,0,0,1,4-11.42c.65-1.31,1.35-2.63,2.13-3.92a33,33,0,0,1-1,11.66Zm6.29-19.69A23,23,0,0,0,150.1,51c-.35-1.46-1-2.93-2.31-2.83s-2.11,2.08-2.73,3l-3,4.52c-.91-1.39-.47-3.34-.1-4.88.18-.79-1.05-1-1.24-.22-.55,2.27-.88,4.88,1,6.62a.64.64,0,0,0,.89-.08c1.49-2.25,3-4.5,4.46-6.74.41-.62.9-1.1,1.38-.22a5.07,5.07,0,0,1,.33,1c.12.41.21.82.29,1.24a47.85,47.85,0,0,0-3.25,5.83A51.58,51.58,0,0,0,143,65.54c-.63,2-1.59,4.69-1.22,6.85.41,2.37,2.81,2.36,4.31,1a12.7,12.7,0,0,0,3-5.49,32.87,32.87,0,0,0,1.39-14.6c0-.16-.05-.34-.07-.54a22.61,22.61,0,0,1,4.94-5.37c.65-.48-.08-1.51-.73-1Z"/><path class="cls-1" d="M167.38,43.27c-.32.56-.92,2.1-1.55,2.13-.87.05-.32-2-.16-2.61s.86-3.24,1.82-1.66a.59.59,0,0,0,1,0c-.34.74-.71,1.45-1.11,2.16Zm9.68-5a28.83,28.83,0,0,1-4.09,4.6c-.66.58-2.54,2.32-3.37,1.35s0-2.49.41-3.26-.74-1.23-1.14-.53c-.09.17-.18.34-.26.52,0,0,0,0-.05.05a.6.6,0,0,0,0-.59c-.77-1.26-2.18-1.73-3.11-.35a8.13,8.13,0,0,0-1.21,5.27c.21,1.13,1.28,2.62,2.46,1.5a10.21,10.21,0,0,0,1.45-2.31l.13-.23c0,.09.07.18.12.27.67,1.44,2.14,1.38,3.39.73,2.54-1.33,4.61-3.94,6.28-6.22.47-.65-.49-1.46-1-.8Z"/><path class="cls-1" d="M179.87,55c-.53.62-1.26,1.11-2.08.64-.64-.36-.6-1.5-.53-2.09a14.94,14.94,0,0,1,.49-2.3,33.08,33.08,0,0,1,1.92-5.11,2.92,2.92,0,0,1,.14-.31c1.26,3,2.32,6.58.06,9.17Zm4.42-19.36a67,67,0,0,0-4.42,7.24c-.12-.26-.23-.52-.34-.78-.69-1.61-2.37-5.31-.68-6.8.6-.53-.12-1.56-.73-1-2.64,2.32-.35,7,.79,9.52l.23.51a29.7,29.7,0,0,0-3.09,8.82,3.71,3.71,0,0,0,.94,3.48,2.45,2.45,0,0,0,3.3-.24c2.26-2,2.42-5.35,1.73-8.07a22.51,22.51,0,0,0-1.49-4,63.59,63.59,0,0,1,4.73-7.89c.46-.66-.51-1.47-1-.81Z"/><path class="cls-1" d="M197.67,30.86c-1.5,5.2-5.82,10.8-11.4,9.59a13.75,13.75,0,0,0,3.49-3.92,23.19,23.19,0,0,0,3.65-9.26.63.63,0,0,0-1.23-.23,22.17,22.17,0,0,1-2.44,7.13c-.58,1-2.6,4.55-4.4,5.41q.15-1.65.33-3.3.42-4.14,1-8.27,1-7.85,2.49-15.63a.64.64,0,0,0,.13-.38l0-.62c0-.72-1.11-.74-1.24-.06-1.12,5.77-2,11.58-2.77,17.41q-.54,4.24-1,8.51c-.08.74-.2,1.54-.31,2.35l-.21-.11c-.62-.34-1.27.66-.67,1.05l.14.09h0l.08,0,.09.05c.14.07.27.15.41.21a9,9,0,0,0,.44,4.44c.32.74,1.5.32,1.18-.43a6.82,6.82,0,0,1-.3-3.5,9.16,9.16,0,0,0,7.82-1.2c3.12-2.13,4.91-5.61,5.93-9.14.22-.78-1-1-1.24-.23Z"/><path class="cls-1" d="M199.94,29.5c.43-.41,1.86-1.1,1.26.13a1.73,1.73,0,0,1-1.94.82,3.18,3.18,0,0,1,.68-.95ZM206,27.82a23.72,23.72,0,0,1-2.45,2.94c-.52.51-1.06,1-1.62,1.45-.41.34-1.62,1.46-2.13,1.3a1.69,1.69,0,0,1-1-1.23,2.34,2.34,0,0,1,0-.64l.12,0c1.74.4,4.26-1.2,3.48-3.23-.38-1-1.45-1-2.3-.62a4.21,4.21,0,0,0-2.28,2.62c-.62,1.86-.27,4.94,2.44,4.23a9.52,9.52,0,0,0,3.5-2.47A24.19,24.19,0,0,0,207,28.63c.47-.66-.49-1.47-1-.81Z"/><path class="cls-1" d="M209,27.83c-.37.51-.74,1-1.12,1.52-.22.3-.66,1.18-1,1.33-.17.32-.25.24-.23-.25a6.92,6.92,0,0,1,.14-.77,5.76,5.76,0,0,1,.66-1.58c.53-.89,1.56-2.17,2.74-1.91-.4.55-.79,1.11-1.2,1.66ZM215.27.5c-1.24,6.08-2.15,12.24-2.9,18.4-.25,2-.47,4.07-.68,6.1a.53.53,0,0,0-.72.11h0c-3-1.19-5.85,3.08-5.57,5.74a1.29,1.29,0,0,0,2.32.83,53.72,53.72,0,0,0,3.83-5.21c0,.55-.11,1.09-.16,1.63-.28,2.95-.76,6-.29,9,.12.79,1.38.7,1.25-.1-.48-3.05,0-6.23.34-9.28s.61-6,1-9c.71-5.72,1.55-11.42,2.67-17.07a.43.43,0,0,0,.06-.17l.12-.72A.63.63,0,0,0,215.27.5Z"/><path class="cls-1" d="M23.85,153.41a18.73,18.73,0,0,1-.93,4.26c-.2.59-.39,1.63-.82.71a7.54,7.54,0,0,1-.25-2.64,55.83,55.83,0,0,1,.85-10.64C24,147,24,152.24,23.85,153.41ZM21.61,136.8a20.49,20.49,0,0,0-3.12,4.85,18.57,18.57,0,0,1,.55-2.86,12,12,0,0,1,.6-1.78,3.15,3.15,0,0,1,.43-.81c.39-.47,1.37-.66,1.69,0a.68.68,0,0,0,.2.24C21.83,136.54,21.72,136.67,21.61,136.8Zm6.64-1.62a6.12,6.12,0,0,1-1,1.32c-.66.81-1.37,1.59-2.08,2.36-.52.54-1,1.1-1.57,1.64.26-1.17.53-2.34.82-3.51a.54.54,0,0,0-.48-.7.94.94,0,0,0-.44-.44.91.91,0,0,0-.55-.08s0,0,0,0c-.43-.85-1-1.66-2.09-1.58-1.27.1-2,1.46-2.43,2.5a15.45,15.45,0,0,0-1,4.12c-.11,1-.35,2.24.69,2.8a.62.62,0,0,0,.33.08.55.55,0,0,0,.7-.33,21,21,0,0,1,1.65-3.28c.31-.51.66-1,1-1.48.17-.22.34-.44.52-.65l.27-.32a.8.8,0,0,0,.24-.39.64.64,0,0,0,.21.19c-.37,1.53-.72,3.06-1,4.6a16.23,16.23,0,0,1-1.42,1.09.62.62,0,0,0-.27.43c-.28.44.12,1.19.73.95a1.47,1.47,0,0,1,.51-.11c-.33,1.89-.59,3.79-.76,5.7a49.74,49.74,0,0,0-.18,6.46c.05,1,.12,3.86,1.7,3.88s1.88-2.5,2.17-3.53a20,20,0,0,0,.71-5.86c-.05-1.74-.41-6-2.21-7.47.05-.29.11-.58.16-.86,1.14-1,2.19-2.15,3.2-3.24.77-.83,1.53-1.67,2.23-2.56a4.23,4.23,0,0,0,.92-1.48c.2-.78-1-1-1.24-.22Z"/><path class="cls-1" d="M41.61,130.53a25,25,0,0,1-1.93,3.83,22.64,22.64,0,0,1-1.37,2c-.38.49-1,1.55-1.59,1.78-1.09.42-1.23-.69-1.33-1.5a17.33,17.33,0,0,1-.11-1.91,36.14,36.14,0,0,1,.25-4.16.63.63,0,0,0-1.18-.37c-1.09,2.17-2.13,4.37-3.27,6.52a8.09,8.09,0,0,1-.83,1.5c-.27.3,0,.31-.26,0s-.12-.8-.14-1a17,17,0,0,1,.23-4c.12-.8-1.12-1-1.23-.22a16.14,16.14,0,0,0-.11,5.37c.16.88.84,2.34,1.93,1.45a5.91,5.91,0,0,0,1.09-1.72c.45-.81.88-1.64,1.3-2.47.33-.65.65-1.3,1-2a23.69,23.69,0,0,0,0,2.53c.1,1.24.27,3.35,1.88,3.48s2.79-1.8,3.58-2.86a27,27,0,0,0,3.21-5.75c.31-.74-.83-1.28-1.14-.53Z"/><path class="cls-1" d="M43.76,128.91c.43-.41,1.86-1.09,1.26.13a1.73,1.73,0,0,1-1.94.82,3.18,3.18,0,0,1,.68-1Zm6.07-1.67a23.63,23.63,0,0,1-2.45,2.93c-.52.51-1.06,1-1.62,1.45-.41.34-1.62,1.46-2.13,1.3a1.69,1.69,0,0,1-1-1.23,2,2,0,0,1,.06-.64l.11,0c1.74.4,4.27-1.2,3.48-3.23-.38-1-1.45-1-2.3-.62a4.21,4.21,0,0,0-2.28,2.62c-.62,1.86-.26,4.94,2.44,4.23a9.32,9.32,0,0,0,3.5-2.47A23.15,23.15,0,0,0,50.8,128c.47-.65-.49-1.46-1-.8Z"/><path class="cls-1" d="M52.71,143.87c-.53.62-1.26,1.11-2.08.64-.64-.36-.6-1.5-.53-2.09a14.91,14.91,0,0,1,.48-2.3A33.12,33.12,0,0,1,52.51,135a2.92,2.92,0,0,1,.14-.31c1.26,3,2.32,6.58.06,9.17Zm4.42-19.36a67,67,0,0,0-4.42,7.24c-.12-.26-.23-.52-.34-.78-.69-1.62-2.37-5.31-.69-6.8.61-.53-.12-1.56-.72-1-2.64,2.32-.35,7,.79,9.52l.23.51A29.7,29.7,0,0,0,48.89,142a3.73,3.73,0,0,0,.93,3.48,2.47,2.47,0,0,0,3.31-.24c2.26-2,2.42-5.35,1.73-8.07a22.51,22.51,0,0,0-1.49-4,63.59,63.59,0,0,1,4.73-7.89c.46-.66-.51-1.47-1-.81Z"/><path class="cls-1" d="M71.05,106.06c-.55-.37-1.2-.07-1.75.11-2.36.79-4.68,1.75-6.95,2.75-.85.36-1.68.75-2.51,1.14.11-.83.23-1.67.34-2.5.35-2.39.7-4.78,1.2-7.14a.63.63,0,0,0-1.23-.23c-.74,3.47-1.29,7-1.71,10.54-3,1.49-6,3.12-8.82,4.89-.59.36-.06,1.42.58,1.1l.57-.29a.65.65,0,0,0,.24-.19c2.36-1.44,4.79-2.79,7.26-4-.24,2.22-.44,4.45-.6,6.66a65,65,0,0,0-.12,11.5c.18,1.82.43,4.44,1.7,5.87,1,1.08,2.24.65,2.94-.48a38.47,38.47,0,0,0,3-6.77,73.76,73.76,0,0,0,2.26-7.23c.2-.79-1-1-1.23-.23a70.29,70.29,0,0,1-4,11.29c-.29.62-.68,2.1-1.24,2.51-1.13.82-1.6-1.81-1.75-2.41a27.94,27.94,0,0,1-.61-6.32,110.14,110.14,0,0,1,1-15.06l.71-.35q2.4-1.12,4.86-2.13,1.34-.54,2.7-1l1.35-.49.46-.17a.55.55,0,0,0,.41-.1.67.67,0,0,0,1.2.11,1,1,0,0,0-.29-1.3Z"/><path class="cls-1" d="M68.49,116.63a.65.65,0,0,0,.37-.81,2.67,2.67,0,0,1,.36-2c.42-.7-.73-1.22-1.14-.53a3.94,3.94,0,0,0-.4,2.93.65.65,0,0,0,.81.38Zm6.38,1.56a33.37,33.37,0,0,1-4.67,6.68c-.41.42-1.14,1.26-1.82,1.08s-.84-1.55-.88-2.15a7.91,7.91,0,0,1,.75-4,.63.63,0,0,0-1.14-.54c-.84,1.84-2.07,8.08,1.51,8,1.69-.06,3.06-2,4-3.2a49.79,49.79,0,0,0,3.41-5.3c.41-.7-.73-1.22-1.14-.53Z"/><path class="cls-1" d="M94.31,111l-2.43,2.53-1,1.08a11.07,11.07,0,0,1-1.22,1.32,8.17,8.17,0,0,1-.17-2.57,5,5,0,0,0-.58-2c-.25-.46-.87-.24-1.08.1a35,35,0,0,0-2.67,5.2c0-.9,0-1.8,0-2.7-.08-1.62-.33-4.16-1.79-5.21s-3.17.14-4.25,1.15a12.34,12.34,0,0,0-2.67,4.58.59.59,0,0,0,0,.57.64.64,0,0,0,1,.44c.61-.4,1,2.36,1,2.63a4,4,0,0,1-1,2.8.81.81,0,0,1-1.47-.2,4.12,4.12,0,0,1-.19-1.35,5.82,5.82,0,0,1,.65-2.64c.36-.72-.78-1.25-1.14-.53a6.65,6.65,0,0,0-.38,5.31c.67,1.71,2.21,1.52,3.36.35a5.63,5.63,0,0,0,1.2-5.19c-.2-1-.73-2.25-1.62-2.48a11.4,11.4,0,0,1,1.35-2.59,6.24,6.24,0,0,1,1.48-1.42c.45-.3,1.17-.76,1.75-.5.39.18.61.72.76,1.08,1.29,3,.57,6.89.36,10.08a.66.66,0,0,0,0,.21c-.09.31-.17.62-.25.92-.2.79,1,1,1.24.23a35.36,35.36,0,0,1,3.48-8.77c.1,1.63,0,3.92,1.43,3.94.91,0,1.77-1.37,2.3-1.92l3.48-3.61c.56-.59-.41-1.39-1-.81Z"/><path class="cls-1" d="M97.18,127.69c-.54.61-1.27,1.1-2.09.64-.64-.36-.59-1.5-.53-2.1a16.52,16.52,0,0,1,.49-2.3A34.55,34.55,0,0,1,97,118.82l.15-.3c1.26,3,2.32,6.57.06,9.17Zm4.41-19.36a66.64,66.64,0,0,0-4.42,7.24c-.11-.26-.23-.52-.34-.79-.68-1.61-2.37-5.31-.68-6.79.6-.53-.12-1.56-.73-1-2.64,2.32-.35,7,.79,9.52l.24.52a29.64,29.64,0,0,0-3.09,8.81,3.73,3.73,0,0,0,.93,3.49,2.47,2.47,0,0,0,3.31-.25c2.25-2,2.41-5.35,1.73-8.07a24.1,24.1,0,0,0-1.49-4,61.74,61.74,0,0,1,4.72-7.9c.46-.66-.5-1.47-1-.8Z"/><path class="cls-1" d="M123.87,100.23l-3.55,3.49c-.59.58-1.17,1.18-1.77,1.75s-.37.55-.44,0a9.55,9.55,0,0,1,.11-1.5c.07-.87.5-2.4-.1-3.18a1.4,1.4,0,0,0-1.87-.19,7.32,7.32,0,0,0-1.87,2.48,22.94,22.94,0,0,0-1.68,3.54v0c0-.42.09-.84.13-1.26q.44-4.14,1-8.26,1-7.86,2.49-15.64a.64.64,0,0,0,.14-.37l0-.62c0-.73-1.12-.74-1.25-.07q-1.66,8.66-2.76,17.41-.54,4.25-1,8.51c-.26,2.53-1.08,5.71,0,8.12.32.74,1.51.32,1.18-.43l-.06-.14a.8.8,0,0,0,0-.15,21.31,21.31,0,0,1,1.47-7.14,20.61,20.61,0,0,1,1.58-3.15c.11-.19.88-1.62,1.09-1.61.64,0,.27,1.85.24,2.16-.06.79-.46,2.23.14,2.91a1.25,1.25,0,0,0,1.7,0,20.39,20.39,0,0,0,2.67-2.59l3.37-3.31c.57-.57-.4-1.37-1-.81Z"/><path class="cls-1" d="M126.08,99c.43-.41,1.86-1.09,1.26.13a1.73,1.73,0,0,1-1.94.82,3,3,0,0,1,.68-1Zm6.07-1.67a22.86,22.86,0,0,1-2.46,2.93,20.07,20.07,0,0,1-1.61,1.45c-.41.34-1.62,1.46-2.13,1.3a1.67,1.67,0,0,1-1-1.23,2.37,2.37,0,0,1,0-.64l.12,0c1.74.4,4.26-1.2,3.48-3.23-.38-1-1.46-1-2.3-.62A4.23,4.23,0,0,0,124,99.9c-.62,1.86-.26,4.94,2.44,4.23a9.44,9.44,0,0,0,3.51-2.47,24.19,24.19,0,0,0,3.13-3.58c.47-.66-.5-1.47-1-.8Z"/><path class="cls-1" d="M142.27,93.48A14.9,14.9,0,0,1,140.05,96c-.45.39-.87,1.06-1.36.5-.19-.22-.1-1.16-.13-1.5-.08-1-.44-2.87-1.87-1.82a5.35,5.35,0,0,0-1.25,2.15c-.44.94-.83,1.89-1.19,2.86s-.59,1.7-.85,2.56a36.46,36.46,0,0,1,.93-7.49.63.63,0,0,0-1.19-.38l-.18.41a.62.62,0,0,0,0,.46,37.07,37.07,0,0,0-.73,10.08.58.58,0,0,0,.34.5.64.64,0,0,0,1.24,0,40.58,40.58,0,0,1,1.83-6.21c.32-.82.67-1.64,1-2.44.12-.27.25-.53.38-.8.15-.45.22-.53.21-.25.15.08.12,1.35.14,1.49.1,1,.44,2.53,1.85,2s3.06-2.54,4-3.79c.48-.65-.48-1.46-1-.81Z"/><path class="cls-1" d="M144.53,92.23c.43-.41,1.87-1.09,1.26.13a1.72,1.72,0,0,1-1.94.82,3.31,3.31,0,0,1,.68-1Zm6.08-1.67a23,23,0,0,1-2.46,2.93A20.52,20.52,0,0,1,146.53,95c-.41.33-1.62,1.45-2.13,1.3a1.72,1.72,0,0,1-1-1.24,2.43,2.43,0,0,1,.06-.64l.12,0c1.73.4,4.26-1.2,3.48-3.23-.39-1-1.46-1-2.31-.61a4.19,4.19,0,0,0-2.28,2.62c-.62,1.86-.26,4.93,2.44,4.22a9.44,9.44,0,0,0,3.51-2.47,23.77,23.77,0,0,0,3.13-3.58c.46-.65-.5-1.46-1-.8Z"/></g></g></svg>