<svg xmlns="http://www.w3.org/2000/svg" viewBox="0 0 217.64 220.29"><defs><style>.cls-1{fill:#152c5a;}.cls-2{fill:none;stroke:#152c5a;opacity:0.81;}</style></defs><title>Asset 6mdpi</title><g id="Layer_2" data-name="Layer 2"><g id="Layer_1-2" data-name="Layer 1"><path class="cls-1" d="M38.89,31.59A19.08,19.08,0,0,1,32.13,34a25.44,25.44,0,0,1-4.43.48c-.64,0-1.28,0-1.91,0-.85-.05-2.35-.19-1-1.22a9,9,0,0,1,2-.85c.7-.28,1.39-.56,2.1-.82,1.32-.5,2.66-1,4-1.4,1.76-.56,3.54-1.07,5.32-1.54,1.32.92,2.07,2,.68,2.93ZM13.81,17.26c.9,1.59,2.76,2.38,4.37,3C23.43,22.4,28.71,24.44,34,26.54c.5.2,1.63.65,2.74,1.22-.76.21-1.51.42-2.26.65-2.44.72-4.85,1.54-7.21,2.47-1.25.5-4.72,1.29-4.57,3.15s2.6,1.71,3.82,1.74a26.25,26.25,0,0,0,6.84-.71c2.22-.52,10.35-2.77,7-6.36q-.24-.24-.48-.45c3.32-.84,6.66-1.55,10-2.23.8-.16.42-1.36-.37-1.2-3.66.74-7.32,1.52-10.94,2.46a27.91,27.91,0,0,0-4.34-2l-7.92-3.13c-2.59-1-5.2-2-7.77-3.09-2.18-.89-4.89-2.36-3.39-5.13,1-1.91,3.18-3.5,4.89-4.78a36.52,36.52,0,0,1,5.39-3.36,40.59,40.59,0,0,1,12.8-4,41.64,41.64,0,0,1,7.4-.39c2.63.09,6.35.08,8.2,2.27,2.27,2.69-1.64,5-3.7,6.21a24,24,0,0,1-7.67,2.87c-.8.15-.42,1.35.37,1.2A22.87,22.87,0,0,0,54.49,8.07a3.62,3.62,0,0,0,.71-4.6C54.1,1.62,52,.83,49.94.49A41.59,41.59,0,0,0,24.85,4.62a31.36,31.36,0,0,0-10,7.51C13.61,13.58,12.81,15.48,13.81,17.26Z"/><path class="cls-1" d="M63,28.67a25.78,25.78,0,0,1-3.7,2.17c-.72.34-1.47.65-2.23.92a5.65,5.65,0,0,1-2.3.62c-1.15-.24-.67-1.25-.31-2a18.32,18.32,0,0,1,1-1.66,33.6,33.6,0,0,1,2.47-3.35.63.63,0,0,0-.79-1c-2.09,1.24-4.16,2.51-6.29,3.69a8.47,8.47,0,0,1-1.51.81c-.4.1-.21.24-.25-.1s.33-.74.44-.94a16.43,16.43,0,0,1,2.39-3.24c.53-.61-.39-1.48-.92-.87a16.32,16.32,0,0,0-3,4.45c-.34.83-.57,2.42.83,2.27a5.81,5.81,0,0,0,1.84-.85c.82-.44,1.63-.9,2.44-1.36l1.89-1.12a23.06,23.06,0,0,0-1.34,2.14c-.59,1.1-1.6,3-.32,3.95s3.32,0,4.56-.45a27.21,27.21,0,0,0,5.82-3.07c.66-.46,0-1.53-.67-1.07Z"/><path class="cls-1" d="M73.13,30.85A20.29,20.29,0,0,1,66,32.47a2.52,2.52,0,0,1-2-.41,1.76,1.76,0,0,1-.35-1.93,2.81,2.81,0,0,1,1.43-1.39c.37-.18,2.37-.83,1.33.4-.53.61.39,1.48.91.86,1.18-1.38.63-3.09-1.34-2.85-1.82.22-3.68,1.68-3.73,3.61-.14,5.29,8.72,2.37,11.28,1.29.74-.31.37-1.51-.38-1.2Z"/><path class="cls-1" d="M83.23,33.18a20.3,20.3,0,0,1-7.16,1.63,2.58,2.58,0,0,1-2-.42,1.76,1.76,0,0,1-.34-1.92,2.77,2.77,0,0,1,1.42-1.4c.38-.18,2.37-.83,1.33.4-.52.61.39,1.48.92.86,1.17-1.38.62-3.09-1.35-2.85-1.82.22-3.68,1.68-3.73,3.61-.13,5.3,8.72,2.37,11.28,1.3.74-.31.38-1.52-.37-1.21Z"/><path class="cls-1" d="M85.87,33.14c.59-.11,2.16.1,1,.8a1.74,1.74,0,0,1-2.08-.37,3.45,3.45,0,0,1,1.09-.43Zm6,1.91a22.4,22.4,0,0,1-3.66,1.12c-.71.15-1.43.26-2.15.34-.53.06-2.15.34-2.49-.07a1.7,1.7,0,0,1-.15-1.56,2.36,2.36,0,0,1,.4-.51.36.36,0,0,0,.07.1c1.24,1.28,4.24,1.31,4.69-.82.22-1-.7-1.59-1.6-1.76a4.17,4.17,0,0,0-3.34,1c-1.54,1.22-2.91,4-.26,4.87a9.44,9.44,0,0,0,4.29-.16,24.09,24.09,0,0,0,4.57-1.3c.75-.29.38-1.5-.37-1.2Z"/><path class="cls-1" d="M85.23,50.57c-.79.22-1.66.24-2.1-.6-.34-.65.32-1.58.7-2a15.4,15.4,0,0,1,1.66-1.67A34.15,34.15,0,0,1,89.89,43l.28-.18c-.57,3.2-1.64,6.78-4.94,7.73ZM99.48,36.74a66.28,66.28,0,0,0-7.65,3.66c0-.28.09-.56.14-.84.3-1.73.9-5.75,3.13-6.07.79-.12.75-1.38-.06-1.26-3.47.51-4.1,5.69-4.52,8.42,0,.18,0,.37-.08.56a29.6,29.6,0,0,0-7.39,5.71,3.71,3.71,0,0,0-1.12,3.43,2.47,2.47,0,0,0,2.91,1.59c3-.43,4.94-3.17,5.84-5.82A23.44,23.44,0,0,0,91.59,42a62.53,62.53,0,0,1,8.26-4.05c.75-.3.38-1.51-.37-1.2Z"/><path class="cls-1" d="M98.19,43.54A17.11,17.11,0,0,1,96,47.2a30.88,30.88,0,0,1-3.15,3.6,20.54,20.54,0,0,1-1.71,1.53c-.3.23-1.21,1.1-1.61,1.07-.73-.07.17-1.47.34-1.8.36-.67.75-1.33,1.16-2,.93-1.47,1.94-2.88,3-4.26.85-1.13,1.73-2.23,2.63-3.33a3.92,3.92,0,0,1,1.15.07c.69.22.68.81.42,1.43Zm11-16.69A121.07,121.07,0,0,0,98.07,38.37c-.49.56-1,1.13-1.46,1.71-1,.33-1.93.71-2.87,1.13l-.8.26a.59.59,0,0,0-.39.41.66.66,0,0,0,.91.84l.61-.29q.38-.1.75-.18c-1.53,1.9-3,3.86-4.35,5.89-.91,1.37-2.22,3.06-2.53,4.72s.87,2.31,2.23,1.6c3.19-1.67,5.84-5,7.78-7.91.79-1.19,2.56-3.64,1.35-5a2.32,2.32,0,0,0-1.06-.65,30.34,30.34,0,0,1,8.05-1.21.63.63,0,0,0-.05-1.25,30.62,30.62,0,0,0-7.4,1L100.06,38a125.29,125.29,0,0,1,9.13-9.45.65.65,0,0,0,.86-.41c.08-.24.15-.48.22-.71.21-.66-.64-.95-1.07-.58Z"/><path class="cls-1" d="M119.59,41.74a26.86,26.86,0,0,1-3.7,2.16,22.9,22.9,0,0,1-2.24.92,5.62,5.62,0,0,1-2.3.63c-1.15-.24-.66-1.25-.3-2a15.14,15.14,0,0,1,1-1.66,32.48,32.48,0,0,1,2.47-3.35.63.63,0,0,0-.79-1c-2.09,1.24-4.16,2.52-6.29,3.7a8.42,8.42,0,0,1-1.51.8c-.39.11-.2.25-.25-.09s.34-.74.44-.94a16.5,16.5,0,0,1,2.39-3.25c.53-.61-.38-1.47-.92-.86a16.4,16.4,0,0,0-3,4.45c-.34.82-.57,2.42.83,2.26a5.81,5.81,0,0,0,1.84-.85c.83-.43,1.64-.89,2.44-1.36l1.89-1.11a22.54,22.54,0,0,0-1.34,2.14c-.59,1.1-1.6,3-.31,3.95s3.31,0,4.55-.46a26.51,26.51,0,0,0,5.82-3.06c.67-.46,0-1.53-.66-1.07Z"/><path class="cls-1" d="M119.69,43.78a125.39,125.39,0,0,1,11.68-15.12c1.59-1.82,3.19-3.63,4.89-5.33.58-.58-.34-1.44-.91-.87A138.13,138.13,0,0,0,123.1,36.78a64.53,64.53,0,0,0-6.37,9.58c-.83,1.62-2,4-1.76,5.84.22,1.44,1.52,1.77,2.72,1.2a39.19,39.19,0,0,0,6.18-4.06,73,73,0,0,0,5.83-4.84c.6-.55-.32-1.4-.92-.86A69.25,69.25,0,0,1,119.31,51c-.57.37-1.71,1.4-2.4,1.43-1.39.07-.35-2.39-.15-3a27.89,27.89,0,0,1,2.93-5.63Z"/><path class="cls-1" d="M142.07,50.67c-.21.1-1.27.65-.49.23l1-.51c-.16.1-.32.2-.48.28ZM155.3,27.33c-4.36,4.42-8.47,9.09-12.46,13.85q-3,3.54-5.84,7.17c-1.84,2.32-3.91,4.63-5.13,7.36-.32.74.78,1.34,1.11.6a26.5,26.5,0,0,1,3.82-5.73l.08-.06a15.64,15.64,0,0,1,5.34-3.12c.7-.21,2.86-.81,2.5.55a2.23,2.23,0,0,1-.16.4,11.66,11.66,0,0,0-3.47,1.38c-.77.46-1.78,1.38-.79,2.23s2.55-.21,3.35-.81a8.35,8.35,0,0,0,1.6-1.67,11.21,11.21,0,0,1,4.54.08.63.63,0,0,0,.29-1.23A12.92,12.92,0,0,0,146,48.1a1.44,1.44,0,0,0-1.13-2.16,7.5,7.5,0,0,0-5.24,1.12q2.17-2.7,4.39-5.36c3.7-4.41,7.52-8.73,11.54-12.86a.45.45,0,0,0,.13-.11l.5-.54a.63.63,0,0,0-.91-.86Z"/><path class="cls-1" d="M163.24,51.82a26.86,26.86,0,0,1-3.7,2.16c-.73.34-1.48.65-2.23.92a5.71,5.71,0,0,1-2.31.63c-1.15-.25-.66-1.25-.3-2a15.28,15.28,0,0,1,1-1.67,35.11,35.11,0,0,1,2.47-3.34.63.63,0,0,0-.79-1c-2.09,1.24-4.16,2.52-6.29,3.69a7.59,7.59,0,0,1-1.51.81c-.39.11-.2.24-.24-.09s.33-.74.43-.94a16.91,16.91,0,0,1,2.39-3.25c.53-.61-.38-1.47-.91-.86a16.06,16.06,0,0,0-3,4.45c-.34.82-.57,2.42.83,2.26a5.86,5.86,0,0,0,1.85-.85c.82-.43,1.63-.89,2.43-1.36l1.89-1.11a22.54,22.54,0,0,0-1.34,2.14c-.59,1.09-1.6,3-.31,3.95s3.32,0,4.55-.46a26.12,26.12,0,0,0,5.82-3.07c.67-.46,0-1.52-.66-1.06Z"/><path class="cls-1" d="M156.59,67.05c-.78.22-1.66.23-2.1-.6-.34-.65.32-1.59.7-2a15.3,15.3,0,0,1,1.66-1.66,32.37,32.37,0,0,1,4.4-3.24l.29-.18c-.57,3.19-1.64,6.78-4.95,7.73Zm14.25-13.84a66.28,66.28,0,0,0-7.65,3.67c0-.28.09-.56.14-.84.3-1.73.91-5.75,3.13-6.08.79-.11.75-1.37-.05-1.25-3.48.5-4.11,5.68-4.53,8.41,0,.18,0,.37-.08.56a29.83,29.83,0,0,0-7.39,5.71,3.72,3.72,0,0,0-1.12,3.43,2.47,2.47,0,0,0,2.91,1.6c3-.44,4.94-3.17,5.85-5.83a24.13,24.13,0,0,0,.9-4.13,63.79,63.79,0,0,1,8.26-4.05c.75-.3.38-1.5-.37-1.2Z"/><path class="cls-1" d="M175.27,50.62a.63.63,0,0,0,.75-.47,2.67,2.67,0,0,1,1.38-1.46c.72-.36,0-1.42-.67-1.07a3.91,3.91,0,0,0-1.93,2.24.63.63,0,0,0,.47.76Zm4.5,4.79a33.87,33.87,0,0,1-7.55,3.06c-.57.12-1.65.43-2.12-.09s.14-1.76.43-2.29a8,8,0,0,1,2.82-3,.63.63,0,0,0-.66-1.07c-1.71,1.08-6.14,5.65-3.08,7.5,1.45.88,3.67,0,5.08-.52a48.53,48.53,0,0,0,5.75-2.58c.72-.36.05-1.42-.67-1.06Z"/><path class="cls-1" d="M191.25,58l-3.42.8-1.46.34a11.65,11.65,0,0,1-1.74.43,8,8,0,0,1,1.25-2.24,4.81,4.81,0,0,0,.62-2c0-.53-.59-.68-1-.5a35.74,35.74,0,0,0-7.08,4.38c.23-.28.46-.55.65-.8.66-.88,1.34-1.75,2-2.61q1.76-2.21,3.6-4.33a.59.59,0,0,0,.38-.29l.36-.58c.37-.6-.55-1.26-1-.73q-2.66,3-5.12,6.18c-.77,1-1.53,2-2.27,3a4.35,4.35,0,0,0-1.14,2.63.63.63,0,0,0,1.08.4,35.45,35.45,0,0,1,7.7-5.45c-.8,1.41-2.11,3.29-.94,4.08.75.5,2.22-.19,3-.36l4.89-1.14c.79-.18.41-1.38-.38-1.2Z"/><path class="cls-1" d="M193.87,58.08c.58-.11,2.16.1,1,.79a1.72,1.72,0,0,1-2.08-.37,3.21,3.21,0,0,1,1.09-.42Zm6,1.9a22.4,22.4,0,0,1-3.66,1.12,17.48,17.48,0,0,1-2.15.34c-.53.06-2.15.35-2.5-.06a1.72,1.72,0,0,1-.14-1.57,2.31,2.31,0,0,1,.4-.5l.07.09c1.24,1.28,4.23,1.32,4.68-.81.23-1.05-.69-1.6-1.59-1.77a4.2,4.2,0,0,0-3.35,1c-1.53,1.23-2.9,4-.25,4.88a9.45,9.45,0,0,0,4.29-.17,22.7,22.7,0,0,0,4.57-1.3c.75-.29.38-1.49-.37-1.2Z"/><path class="cls-1" d="M202.61,77.37c-.78.23-1.66.24-2.09-.59-.34-.65.32-1.59.7-2a13.7,13.7,0,0,1,1.66-1.66,32.9,32.9,0,0,1,4.39-3.24l.29-.18c-.57,3.19-1.64,6.78-4.95,7.72Zm-5.16-7.28a18.89,18.89,0,0,1-2.68,5.37,5.75,5.75,0,0,1-2.63,1.82c-1,.29-2.32,0-2.12-1.27a4,4,0,0,1,1.26-2,27.07,27.07,0,0,1,3-2.57q1.8-1.38,3.66-2.65c-.15.42-.31.84-.47,1.26Zm19.41-6.55a66.28,66.28,0,0,0-7.65,3.67c0-.28.09-.57.14-.85.25-1.42.71-4.39,2.1-5.58l1.19-.52a.6.6,0,0,0,.4-.55.56.56,0,0,0-.36-.66.53.53,0,0,0-.41,0h0a3.42,3.42,0,0,0-1.35.58A74.54,74.54,0,0,0,203.09,64c-1,.62-2,1.26-3.05,1.91.14-.6.26-1.2.38-1.82a31.69,31.69,0,0,1,1-4c.38-1.19,1-3.17,2.47-3.38.79-.12.75-1.37-.05-1.26-3.61.53-4.27,6.32-4.74,9.14a21.15,21.15,0,0,1-.51,2.26c-1.84,1.22-3.64,2.49-5.37,3.85a20.13,20.13,0,0,0-3.46,3.19c-1.08,1.36-1.56,3.8.47,4.59s4.27-.77,5.5-2.2a18.86,18.86,0,0,0,2.81-5.46,32.31,32.31,0,0,0,1.07-3.14q1.8-1.18,3.63-2.31c2-1.22,4-2.46,6.06-3.55a22.32,22.32,0,0,0-1.34,5.59l-.09.56a29.83,29.83,0,0,0-7.39,5.71,3.73,3.73,0,0,0-1.11,3.43,2.45,2.45,0,0,0,2.9,1.6c3-.44,4.94-3.17,5.85-5.83a24.15,24.15,0,0,0,.91-4.13,63.17,63.17,0,0,1,8.26-4.05c.74-.3.37-1.5-.38-1.2Z"/><path class="cls-1" d="M11.26,57.88A4.24,4.24,0,0,0,5.7,53.66l-.13.06H5.38c-.81,0-.76,1.26,0,1.25S5,57.48,4.83,57.7A4.06,4.06,0,0,1,2.5,59.54c-.72.19-1.25-.19-1.12-1A3.85,3.85,0,0,1,2,57.34a5.61,5.61,0,0,1,2-1.86c.7-.41,0-1.48-.67-1.07A6.64,6.64,0,0,0,.06,58.66c-.37,1.79,1,2.47,2.63,2.12a5.66,5.66,0,0,0,3.83-3.7,4.36,4.36,0,0,0,.3-2.36A3,3,0,0,1,10,57.94c0,.81,1.22.75,1.25-.06Z"/><path class="cls-1" d="M26.66,55.71c-1.48-.31-2.69.61-3.89,1.35-1.49.93-3,1.9-4.39,2.91q-3.45,2.45-6.66,5.19c.65-.93,1.62-2,1.88-2.33.93-1.24,1.86-2.49,2.8-3.73a.63.63,0,0,0-.79-1c-2,1.08-3.95,2.17-5.94,3.24-.33.18-.66.36-1,.53l.11-.12c-.06-.23,1-1.42,1.16-1.64l.86-1.24c.08-.12.59-1,.83-1.33a.57.57,0,0,0,.49-.19l.07-.07a.64.64,0,0,0,.15-.62l0-.08a.63.63,0,0,0-.63-.44c-.51.06-.67.29-1,.69-.61.81-1.16,1.65-1.74,2.47s-2.27,2.43-1.38,3.5,2.4-.2,3.17-.62l3-1.61-2.36,3.13c-.72,1-2.07,2.26-1.24,3.53a.64.64,0,0,0,1,.1,88.94,88.94,0,0,1,7.2-5.79c1.18-.85,2.37-1.67,3.59-2.46s3.09-2.47,4.48-2.17a.63.63,0,0,0,.29-1.23Z"/><path class="cls-1" d="M36.72,63.37l-3.42.79-1.46.34a11.6,11.6,0,0,1-1.74.44,8.1,8.1,0,0,1,1.25-2.25,4.87,4.87,0,0,0,.62-2c0-.53-.59-.68-1-.51a36.21,36.21,0,0,0-7.08,4.38l.65-.79c.66-.88,1.34-1.75,2-2.62q1.75-2.2,3.6-4.32a.63.63,0,0,0,.38-.29l.36-.58a.63.63,0,0,0-1-.73c-1.77,2-3.48,4.06-5.12,6.17-.77,1-1.53,2-2.27,3A4.3,4.3,0,0,0,21.4,67a.63.63,0,0,0,1.08.41A35.11,35.11,0,0,1,30.18,62c-.8,1.41-2.11,3.29-.94,4.07.75.51,2.22-.18,3-.35l4.89-1.14c.79-.18.41-1.38-.38-1.2Z"/><path class="cls-1" d="M39.34,63.45c.58-.11,2.16.1,1,.8a1.72,1.72,0,0,1-2.07-.37,3.36,3.36,0,0,1,1.09-.43Zm6,1.91a22.4,22.4,0,0,1-3.66,1.12c-.71.15-1.43.26-2.15.34-.53.06-2.15.34-2.5-.07a1.7,1.7,0,0,1-.14-1.56,2.36,2.36,0,0,1,.4-.51.36.36,0,0,0,.07.1c1.24,1.28,4.23,1.31,4.68-.82.23-1.05-.7-1.59-1.59-1.76a4.2,4.2,0,0,0-3.35.95c-1.53,1.22-2.9,4-.25,4.87a9.45,9.45,0,0,0,4.29-.16,24.09,24.09,0,0,0,4.57-1.3c.75-.29.38-1.5-.37-1.2Z"/><path class="cls-1" d="M55.89,67.69a15.44,15.44,0,0,1-3.2.86c-.59.08-1.3.42-1.41-.32,0-.29.55-1,.71-1.32.45-.86,1.19-2.66-.59-2.55a5.22,5.22,0,0,0-2.21,1.12c-.88.55-1.73,1.13-2.56,1.75s-1.42,1.1-2.1,1.69a35.71,35.71,0,0,1,4.86-5.78c.52-.5-.2-1.35-.79-1l-.38.25a.6.6,0,0,0-.27.37,36.83,36.83,0,0,0-6.09,8.06.56.56,0,0,0,0,.6.64.64,0,0,0,1.06.66,39.38,39.38,0,0,1,4.91-4.21c.72-.52,1.46-1,2.21-1.48L50.8,66c.36-.31.47-.34.31-.1.08.14-.63,1.19-.7,1.32-.48.92-1,2.36.45,2.71s4-.46,5.41-1c.75-.29.38-1.49-.38-1.2Z"/><path class="cls-1" d="M49.14,83.29c-.78.22-1.66.24-2.09-.6-.35-.65.32-1.58.69-2A14.63,14.63,0,0,1,49.41,79a33.37,33.37,0,0,1,4.39-3.24l.29-.18c-.57,3.2-1.64,6.79-5,7.73ZM63.39,69.46a67.9,67.9,0,0,0-7.65,3.66c0-.28.09-.56.14-.84.3-1.73.91-5.75,3.13-6.07.79-.12.75-1.37,0-1.26-3.48.51-4.11,5.69-4.52,8.42l-.09.56A29.6,29.6,0,0,0,47,79.64a3.7,3.7,0,0,0-1.11,3.43,2.46,2.46,0,0,0,2.9,1.59c3-.43,4.94-3.17,5.85-5.82a23.22,23.22,0,0,0,.9-4.13,63.79,63.79,0,0,1,8.26-4c.75-.3.38-1.5-.37-1.2Z"/><path class="cls-1" d="M83.62,74.33A20.51,20.51,0,0,1,76.47,76a2.56,2.56,0,0,1-2-.41,1.77,1.77,0,0,1-.35-1.93,2.75,2.75,0,0,1,1.43-1.4c.37-.18,2.37-.82,1.33.4-.53.62.39,1.48.91.86,1.18-1.38.63-3.09-1.35-2.85-1.81.22-3.67,1.69-3.72,3.61-.14,5.3,8.72,2.37,11.28,1.3.74-.31.37-1.52-.38-1.2Z"/><path class="cls-1" d="M83.68,76.52A124.6,124.6,0,0,1,95.36,61.4c1.59-1.82,3.19-3.63,4.9-5.33.57-.58-.35-1.44-.92-.87A139.37,139.37,0,0,0,87.09,69.52a65.32,65.32,0,0,0-6.37,9.58c-.83,1.62-2,4-1.76,5.84.22,1.44,1.52,1.77,2.72,1.2a38.74,38.74,0,0,0,6.18-4.06,73,73,0,0,0,5.83-4.84c.6-.55-.32-1.41-.91-.86a70.49,70.49,0,0,1-9.47,7.31c-.58.37-1.72,1.4-2.41,1.43-1.39.07-.35-2.39-.15-3a27.89,27.89,0,0,1,2.93-5.63Z"/><path class="cls-1" d="M97.29,73.67A.66.66,0,0,0,98,73.2a2.65,2.65,0,0,1,1.37-1.46c.73-.36.06-1.42-.66-1.07a4,4,0,0,0-1.94,2.24.65.65,0,0,0,.48.76Zm4.5,4.79a33.37,33.37,0,0,1-7.55,3.05c-.58.13-1.65.44-2.13-.08s.15-1.76.44-2.29a7.9,7.9,0,0,1,2.82-3,.63.63,0,0,0-.67-1.07c-1.71,1.08-6.14,5.65-3.07,7.5,1.44.88,3.66,0,5.08-.52a48.39,48.39,0,0,0,5.74-2.58c.73-.36.06-1.42-.66-1.06Z"/><path class="cls-1" d="M111.76,80.82a20.07,20.07,0,0,1-7.15,1.62,2.52,2.52,0,0,1-2-.41,1.75,1.75,0,0,1-.35-1.92,2.75,2.75,0,0,1,1.43-1.4c.37-.18,2.37-.83,1.33.4-.53.61.39,1.48.91.86,1.18-1.38.63-3.09-1.35-2.85-1.81.22-3.67,1.68-3.72,3.61-.14,5.29,8.72,2.37,11.28,1.3.74-.31.37-1.52-.38-1.21Z"/><path class="cls-1" d="M125.64,83.9c-4.09,3.54-10.77,5.89-14.79,1.83a13.74,13.74,0,0,0,5.06-1.39A23,23,0,0,0,124,78.56c.55-.6-.37-1.46-.91-.86a22.12,22.12,0,0,1-5.93,4.65c-1.05.56-4.66,2.41-6.63,2.14.68-.86,1.37-1.73,2.07-2.59q2.61-3.24,5.31-6.4,5.13-6,10.6-11.76a.66.66,0,0,0,.32-.24l.36-.51c.42-.59-.53-1.22-1-.73q-6.12,6.36-11.8,13.1Q113.63,78.63,111,82c-.46.58-1,1.18-1.54,1.8l-.11-.21c-.33-.62-1.43-.13-1.14.53l.08.14h0l0,.08a.41.41,0,0,0,0,.09c.07.14.15.27.23.4a9,9,0,0,0-2.06,4c-.13.8,1.1,1.09,1.23.29a6.88,6.88,0,0,1,1.66-3.11,9.11,9.11,0,0,0,7.21,3.26c3.77-.09,7.17-2,10-4.44.61-.53-.31-1.39-.91-.86Z"/><path class="cls-1" d="M157.57,78.29c-.26-.6-1-.71-1.53-.85-2.41-.63-4.87-1.09-7.32-1.49-.91-.15-1.82-.28-2.73-.41l1.65-1.91c1.59-1.81,3.19-3.63,4.9-5.33.57-.57-.35-1.43-.92-.86-2.51,2.5-4.88,5.17-7.17,7.91-3.33-.4-6.69-.64-10.06-.71-.69,0-.82,1.16-.11,1.24l.64.07a.59.59,0,0,0,.3,0q4.16.14,8.29.58-2.13,2.61-4.14,5.26A66.4,66.4,0,0,0,133,91.33c-.83,1.63-2.05,4-1.76,5.85.22,1.44,1.52,1.76,2.72,1.2a38.79,38.79,0,0,0,6.18-4.07A72.84,72.84,0,0,0,146,89.48c.6-.55-.32-1.41-.91-.87a68.89,68.89,0,0,1-9.47,7.31c-.58.37-1.72,1.4-2.4,1.44-1.4.07-.36-2.39-.16-3A27.89,27.89,0,0,1,136,88.75,109.3,109.3,0,0,1,145,76.68l.78.1c1.75.24,3.5.52,5.24.86.94.18,1.89.37,2.83.58l1.41.33.47.11a.55.55,0,0,0,.4.13.66.66,0,0,0,.94.75,1,1,0,0,0,.47-1.25Z"/><path class="cls-1" d="M158.16,91.35l-4.88,1c-.81.16-1.62.34-2.43.49-.65.13-.62.26-.37-.25a9.7,9.7,0,0,1,.91-1.2c.53-.69,1.73-1.74,1.65-2.71a1.38,1.38,0,0,0-1.46-1.19,7.18,7.18,0,0,0-2.92,1.07,22,22,0,0,0-3.34,2h0l.8-1q2.61-3.24,5.31-6.4,5.13-6,10.6-11.76a.66.66,0,0,0,.32-.24l.36-.51c.42-.59-.53-1.22-1-.73q-6.12,6.36-11.8,13.1-2.77,3.27-5.45,6.61c-1.59,2-4,4.19-4.45,6.79-.13.8,1.09,1.09,1.23.29l0-.16a.52.52,0,0,0,.1-.11,21.14,21.14,0,0,1,8.16-7c.21-.1,1.62-.88,1.8-.75.51.38-.79,1.7-1,1.94-.48.63-1.61,1.62-1.48,2.52a1.25,1.25,0,0,0,1.4,1,20.12,20.12,0,0,0,3.65-.71l4.63-1c.79-.16.41-1.36-.37-1.2Z"/><path class="cls-1" d="M162.53,88.73a.63.63,0,0,0,.75-.47,2.7,2.7,0,0,1,1.38-1.46c.73-.36.05-1.42-.67-1.06A3.86,3.86,0,0,0,162.06,88a.63.63,0,0,0,.47.76Zm4.5,4.79a33.87,33.87,0,0,1-7.55,3.06c-.57.12-1.64.43-2.12-.09s.15-1.76.43-2.28a8,8,0,0,1,2.82-3,.62.62,0,0,0-.66-1.06c-1.71,1.07-6.14,5.64-3.08,7.49,1.45.88,3.67,0,5.08-.52a48.46,48.46,0,0,0,5.75-2.57c.72-.37.05-1.43-.67-1.07Z"/><path class="cls-1" d="M160.22,108.94c-.78.22-1.66.23-2.1-.6-.34-.65.32-1.59.7-2a15.3,15.3,0,0,1,1.66-1.66,32.37,32.37,0,0,1,4.4-3.24l.29-.18c-.57,3.19-1.64,6.78-4.95,7.73ZM174.47,95.1a66.28,66.28,0,0,0-7.65,3.67c0-.28.09-.56.14-.84.3-1.73.91-5.75,3.13-6.08.79-.11.75-1.37-.05-1.25-3.48.5-4.11,5.68-4.52,8.41l-.09.56a29.83,29.83,0,0,0-7.39,5.71,3.72,3.72,0,0,0-1.12,3.43,2.47,2.47,0,0,0,2.91,1.6c3-.44,4.94-3.17,5.85-5.83a24.13,24.13,0,0,0,.9-4.13,62.47,62.47,0,0,1,8.26-4c.75-.31.38-1.51-.37-1.21Z"/><path class="cls-2" d="M187.27,116.18S240.73,161.92,156.9,203c-22.05,10.8-31.95,15.24-34.68,15.94C115,220.79,160,185.4,160,185.4l-34.75,31.69,48.53-.51-49.86,3.21"/></g></g></svg>