<svg xmlns="http://www.w3.org/2000/svg" viewBox="0 0 189.96 131.6"><defs><style>.cls-1{fill:#152c5a;}</style></defs><title>Asset 2mdpi</title><g id="Layer_2" data-name="Layer 2"><g id="Layer_1-2" data-name="Layer 1"><path class="cls-1" d="M30.64,74.06a18.94,18.94,0,0,1-4.72,5.41A25.55,25.55,0,0,1,22.27,82c-.55.32-1.11.63-1.68.9-.77.38-2.15,1-1.47-.58a9.35,9.35,0,0,1,1.32-1.7c.47-.59.95-1.16,1.44-1.74.92-1.08,1.86-2.13,2.84-3.17,1.26-1.34,2.57-2.65,3.91-3.93,1.59.16,2.77.73,2,2.24ZM1.75,73.68c1.56,1,3.57.75,5.3.53,5.61-.7,11.21-1.47,16.83-2.18.54-.07,1.73-.22,3-.26-.56.55-1.12,1.1-1.67,1.66-1.78,1.82-3.49,3.7-5.1,5.66-.85,1-3.5,3.41-2.47,5s3.1.23,4.18-.33a26.57,26.57,0,0,0,5.64-3.94c1.69-1.52,7.7-7.44,3-8.93-.21-.06-.42-.12-.63-.16,2.49-2.34,5.07-4.59,7.67-6.81.62-.52-.29-1.39-.9-.86-2.85,2.42-5.67,4.88-8.38,7.45a26.94,26.94,0,0,0-4.77.35L15,71.92c-2.76.36-5.52.75-8.29,1.08-2.34.27-5.42.29-5.45-2.85,0-2.18,1.08-4.6,2-6.55A36.75,36.75,0,0,1,6.28,58a40.68,40.68,0,0,1,9.24-9.73,43,43,0,0,1,6.28-3.94c2.35-1.19,5.6-3,8.27-2,3.29,1.26,1,5.17-.22,7.23a23.72,23.72,0,0,1-5.32,6.23c-.62.52.29,1.39.91.87,3.28-2.77,6.28-6.58,7.44-10.79a3.63,3.63,0,0,0-1.61-4.37c-1.86-1.08-4.11-.74-6,0A41.54,41.54,0,0,0,5.28,57.28,31.48,31.48,0,0,0,.13,68.72C-.2,70.56,0,72.61,1.75,73.68Z"/><path class="cls-1" d="M49.62,59.67,45.84,62.9c-.63.54-1.25,1.09-1.89,1.62s-.41.52-.44,0A8.51,8.51,0,0,1,43.73,63c.12-.86.66-2.36.12-3.18A1.39,1.39,0,0,0,42,59.48a7.13,7.13,0,0,0-2,2.35A21.15,21.15,0,0,0,38,65.24v0L38.24,64q.72-4.1,1.54-8.18,1.56-7.76,3.57-15.42a.7.7,0,0,0,.16-.37c0-.2.05-.41.07-.61.09-.72-1.06-.82-1.23-.15-1.52,5.68-2.83,11.41-4,17.17q-.82,4.2-1.55,8.42c-.44,2.51-1.48,5.62-.6,8.1.27.76,1.48.42,1.21-.34,0,0,0-.1,0-.15a.4.4,0,0,0,0-.15,20.93,20.93,0,0,1,2-7,20.49,20.49,0,0,1,1.78-3c.13-.19,1-1.55,1.21-1.53.63.08.13,1.87.09,2.17-.11.78-.61,2.19-.07,2.92a1.26,1.26,0,0,0,1.69.16,20.17,20.17,0,0,0,2.85-2.39l3.59-3.07c.61-.53-.3-1.4-.91-.87Z"/><path class="cls-1" d="M59,57.43a4.23,4.23,0,0,0-6.91-1,.31.31,0,0,0-.09.11l-.17.09c-.7.4,0,1.47.66,1.07s.81,2.42.79,2.68a4,4,0,0,1-1.14,2.74c-.54.51-1.18.43-1.44-.31a3.82,3.82,0,0,1-.1-1.35,5.65,5.65,0,0,1,.83-2.59c.41-.7-.69-1.31-1.1-.61a6.64,6.64,0,0,0-.75,5.27c.54,1.75,2.1,1.66,3.33.58A5.66,5.66,0,0,0,54.45,59a4.26,4.26,0,0,0-.88-2.21,3,3,0,0,1,4.35,1.27c.36.72,1.44.06,1.07-.66Z"/><path class="cls-1" d="M71.4,48.07c-1.44.44-2.05,1.83-2.74,3.06q-1.29,2.29-2.43,4.68c-1.23,2.53-2.32,5.13-3.31,7.76.11-1.13.45-2.53.51-2.94.21-1.55.43-3.09.64-4.63a.63.63,0,0,0-1.16-.46c-1.21,1.91-2.4,3.82-3.62,5.71-.2.32-.41.64-.62,1l0-.16a7.61,7.61,0,0,1,.21-2c.06-.49.11-1,.16-1.49,0-.15,0-1.15.07-1.57a.57.57,0,0,0,.35-.4l0-.1a.65.65,0,0,0-.18-.61l-.06-.06a.65.65,0,0,0-.77-.09A1.32,1.32,0,0,0,58,56.81c-.14,1-.21,2-.32,3s-.81,3.22.49,3.73,2-1.35,2.47-2.09c.6-.94,1.2-1.88,1.79-2.83-.17,1.3-.35,2.59-.53,3.88s-.72,3,.62,3.69a.65.65,0,0,0,.92-.39,88.15,88.15,0,0,1,3.48-8.56c.62-1.31,1.27-2.61,1.95-3.89s1.5-3.66,2.87-4.07a.63.63,0,0,0-.35-1.21Z"/><path class="cls-1" d="M91.94,48A4.24,4.24,0,0,0,85,47l-.09.11-.17.09c-.7.4,0,1.47.66,1.07s.81,2.42.79,2.69a4,4,0,0,1-1.14,2.73c-.54.51-1.18.44-1.44-.31a3.82,3.82,0,0,1-.1-1.35,5.65,5.65,0,0,1,.83-2.59c.41-.7-.69-1.31-1.1-.61a6.64,6.64,0,0,0-.75,5.27c.55,1.75,2.1,1.67,3.33.58a5.63,5.63,0,0,0,1.55-5.09,4.3,4.3,0,0,0-.88-2.21,3,3,0,0,1,4.35,1.27c.36.72,1.44.06,1.07-.66Z"/><path class="cls-1" d="M104.21,44.36A26.3,26.3,0,0,1,102,48.05c-.47.65-1,1.28-1.51,1.88s-1.1,1.48-1.71,1.67c-1.12.34-1.19-.77-1.23-1.58a17.57,17.57,0,0,1,0-1.92A35.89,35.89,0,0,1,98.15,44,.63.63,0,0,0,97,43.51c-1.23,2.1-2.42,4.22-3.71,6.28a8.64,8.64,0,0,1-.93,1.44c-.29.28-.06.31-.26,0s-.07-.8-.08-1a17.41,17.41,0,0,1,.52-4c.17-.79-1-1.1-1.22-.31a16.44,16.44,0,0,0-.48,5.36c.1.88.68,2.39,1.83,1.57a5.69,5.69,0,0,0,1.2-1.63c.5-.78,1-1.58,1.47-2.38L96.44,47a21.16,21.16,0,0,0-.13,2.52c0,1.24,0,3.36,1.64,3.6s2.9-1.6,3.76-2.6a26.4,26.4,0,0,0,3.6-5.51c.36-.72-.74-1.34-1.1-.61Z"/><path class="cls-1" d="M114.43,41A15.37,15.37,0,0,1,112,43.34c-.47.36-.93,1-1.38.39-.18-.23,0-1.15,0-1.49,0-1-.24-2.9-1.74-2a5.32,5.32,0,0,0-1.4,2.05c-.5.91-1,1.83-1.38,2.78s-.71,1.65-1,2.49a36.25,36.25,0,0,1,1.45-7.41c.22-.68-.82-1.08-1.16-.46l-.21.4a.63.63,0,0,0,0,.46,37.06,37.06,0,0,0-1.43,10,.57.57,0,0,0,.3.52.64.64,0,0,0,1.24.07,41,41,0,0,1,2.26-6.07c.38-.8.79-1.59,1.22-2.36.14-.26.29-.51.44-.77.17-.44.25-.52.22-.24.14.09,0,1.36,0,1.5,0,1,.27,2.55,1.71,2.15s3.23-2.31,4.24-3.5c.52-.62-.39-1.49-.91-.87Z"/><path class="cls-1" d="M134.48,35.52A20.44,20.44,0,0,1,129,40.41a2.55,2.55,0,0,1-1.95.6,1.75,1.75,0,0,1-1.24-1.51,2.82,2.82,0,0,1,.57-1.92c.24-.34,1.67-1.87,1.36-.29-.16.79,1.06,1.1,1.22.31.35-1.78-1-3-2.57-1.84a4.12,4.12,0,0,0-1.5,5c2.44,4.69,8.77-2.16,10.49-4.34.5-.63-.41-1.51-.91-.87Z"/><path class="cls-1" d="M135.59,37.41a125.66,125.66,0,0,1,2.89-18.89c.51-2.36,1-4.72,1.69-7,.23-.78-1-1.08-1.21-.31a138.58,138.58,0,0,0-3.78,18.46,64.86,64.86,0,0,0-.92,11.47c.05,1.82.12,4.45,1.29,6,.89,1.16,2.18.82,3-.26a38.24,38.24,0,0,0,3.43-6.56,72,72,0,0,0,2.76-7.05c.26-.77-1-1.08-1.22-.31a68.77,68.77,0,0,1-4.74,11c-.32.6-.82,2-1.4,2.42-1.19.74-1.47-1.92-1.58-2.53a28,28,0,0,1-.17-6.34Z"/><path class="cls-1" d="M146.11,28.32a.65.65,0,0,0,.43-.78,2.64,2.64,0,0,1,.5-1.94c.46-.67-.65-1.27-1.1-.61a3.91,3.91,0,0,0-.61,2.9.65.65,0,0,0,.78.43Zm6.26,2a33.32,33.32,0,0,1-5.12,6.34c-.44.39-1.23,1.18-1.9,1s-.72-1.61-.73-2.2a7.87,7.87,0,0,1,1-4,.63.63,0,0,0-1.1-.61c-1,1.77-2.64,7.92.94,8.05,1.69.07,3.2-1.8,4.19-2.91a49.18,49.18,0,0,0,3.78-5c.45-.66-.65-1.27-1.1-.61Z"/><path class="cls-1" d="M154.57,29.1c.46-.38,1.94-1,1.25.21a1.72,1.72,0,0,1-2,.69,3,3,0,0,1,.74-.9Zm6.18-1.25a23,23,0,0,1-2.65,2.76c-.55.47-1.13.92-1.72,1.34-.43.3-1.72,1.34-2.21,1.15a1.7,1.7,0,0,1-.89-1.3,3,3,0,0,1,.1-.64l.12.05c1.7.52,4.33-.9,3.7-3-.32-1-1.39-1.06-2.26-.77a4.19,4.19,0,0,0-2.46,2.45c-.75,1.81-.6,4.9,2.14,4.39a9.48,9.48,0,0,0,3.67-2.23,23.2,23.2,0,0,0,3.37-3.35c.51-.62-.39-1.49-.91-.87Z"/><path class="cls-1" d="M172.24,24.56l-2.61,2.35-1.11,1a10.63,10.63,0,0,1-1.32,1.22,8.18,8.18,0,0,1,0-2.57,4.88,4.88,0,0,0-.43-2.06c-.22-.48-.85-.31-1.09,0a36.83,36.83,0,0,0-4.07,7.27c.07-.36.14-.71.19-1,.15-1.09.32-2.18.5-3.27q.47-2.77,1.05-5.53a.62.62,0,0,0,.19-.43l0-.68a.63.63,0,0,0-1.24-.15c-.57,2.61-1.07,5.24-1.48,7.88-.19,1.24-.36,2.49-.52,3.73a4.34,4.34,0,0,0,.27,2.85.64.64,0,0,0,1.15-.17,35.07,35.07,0,0,1,4.09-8.5c0,1.63-.25,3.9,1.15,4,.9.08,1.85-1.23,2.43-1.75l3.72-3.36c.6-.54-.31-1.41-.91-.87Z"/><path class="cls-1" d="M187.39,7.06c-.52-.4-1.19-.15-1.75,0-2.41.63-4.79,1.42-7.13,2.25-.87.31-1.73.64-2.58,1,.17-.82.34-1.65.52-2.47.5-2.36,1-4.72,1.69-7,.23-.78-1-1.09-1.22-.31-1,3.41-1.76,6.89-2.43,10.39-3.11,1.27-6.17,2.69-9.14,4.26-.62.32-.16,1.41.5,1.14l.59-.24a.94.94,0,0,0,.25-.18c2.46-1.27,5-2.45,7.53-3.51-.4,2.2-.75,4.4-1.07,6.6a65.79,65.79,0,0,0-.93,11.46c.06,1.83.13,4.46,1.3,6,.89,1.16,2.18.81,3-.26a39,39,0,0,0,3.43-6.56,74.6,74.6,0,0,0,2.76-7c.25-.77-1-1.08-1.22-.31a69.69,69.69,0,0,1-4.74,11c-.32.6-.82,2-1.41,2.42-1.18.74-1.46-1.92-1.57-2.53a28,28,0,0,1-.17-6.34,109.61,109.61,0,0,1,2.07-15l.74-.29c1.65-.64,3.31-1.24,5-1.79.91-.3,1.83-.59,2.76-.86l1.39-.4.46-.13a.58.58,0,0,0,.42-.07.67.67,0,0,0,1.19.19,1,1,0,0,0-.2-1.32Z"/><path class="cls-1" d="M183.15,38.72c-.58.57-1.34,1-2.13.49-.61-.4-.49-1.54-.38-2.13a15.28,15.28,0,0,1,.65-2.26,33.63,33.63,0,0,1,2.27-5c.05-.1.11-.2.17-.3,1.05,3.07,1.85,6.73-.58,9.16Zm5.75-19A65.6,65.6,0,0,0,184,26.63c-.1-.27-.2-.54-.29-.81-.57-1.66-2-5.46-.2-6.83.63-.48,0-1.56-.66-1.07-2.79,2.13-.84,7,.13,9.55.06.18.13.35.19.53a29.91,29.91,0,0,0-3.69,8.58,3.72,3.72,0,0,0,.68,3.54,2.47,2.47,0,0,0,3.32,0c2.39-1.82,2.78-5.17,2.29-7.93a23.87,23.87,0,0,0-1.21-4.05,63.29,63.29,0,0,1,5.26-7.55c.51-.62-.4-1.5-.91-.87Z"/><path class="cls-1" d="M188,2.42c-.77-.26-1.07,1-.31,1.22a1.11,1.11,0,0,1,.06,2.09c-.75.29-.41,1.51.34,1.21A2.38,2.38,0,0,0,188,2.42Z"/><path class="cls-1" d="M11.45,129.56a1.63,1.63,0,0,1-2.12.5c-.61-.41-.49-1.54-.38-2.13a14.61,14.61,0,0,1,.65-2.26,33.74,33.74,0,0,1,2.27-5c.05-.1.11-.19.17-.29,1.05,3.07,1.85,6.72-.59,9.15Zm5.76-19a65.48,65.48,0,0,0-4.91,6.91c-.1-.27-.2-.53-.29-.8-.57-1.66-2-5.47-.2-6.83.63-.49,0-1.57-.66-1.07-2.79,2.12-.84,7,.13,9.55.06.17.13.35.19.53a30.16,30.16,0,0,0-3.7,8.57A3.77,3.77,0,0,0,8.46,131a2.47,2.47,0,0,0,3.32,0c2.39-1.82,2.78-5.17,2.29-7.93a24.14,24.14,0,0,0-1.21-4,62.39,62.39,0,0,1,5.26-7.54c.51-.63-.4-1.5-.91-.87Z"/><path class="cls-1" d="M30.65,107.07a26.25,26.25,0,0,1-2.19,3.68A21.19,21.19,0,0,1,27,112.64c-.41.47-1.09,1.48-1.7,1.67-1.13.34-1.19-.78-1.23-1.59a17.36,17.36,0,0,1,0-1.91,33.58,33.58,0,0,1,.55-4.13.63.63,0,0,0-1.16-.46c-1.23,2.09-2.43,4.22-3.72,6.28a7.63,7.63,0,0,1-.93,1.43c-.29.29-.06.32-.26,0s-.07-.81-.07-1a16.87,16.87,0,0,1,.51-4c.17-.79-1-1.1-1.21-.31a16.35,16.35,0,0,0-.48,5.35c.1.89.67,2.4,1.82,1.58a5.74,5.74,0,0,0,1.2-1.64q.77-1.17,1.47-2.37.57-.94,1.11-1.89c-.08.84-.13,1.68-.13,2.52,0,1.25,0,3.37,1.64,3.61s2.91-1.6,3.77-2.61a27.43,27.43,0,0,0,3.6-5.5c.36-.73-.74-1.34-1.1-.61Z"/><path class="cls-1" d="M40.57,104.06A20.44,20.44,0,0,1,35.1,109a2.54,2.54,0,0,1-2,.6A1.74,1.74,0,0,1,31.92,108a2.72,2.72,0,0,1,.57-1.92c.24-.34,1.67-1.87,1.35-.29-.16.79,1.06,1.1,1.22.31.36-1.78-1-3-2.56-1.84a4.1,4.1,0,0,0-1.51,5c2.45,4.7,8.77-2.15,10.49-4.33.5-.63-.4-1.51-.91-.87Z"/><path class="cls-1" d="M50.53,101.2a20.27,20.27,0,0,1-5.47,4.89,2.59,2.59,0,0,1-2,.61,1.75,1.75,0,0,1-1.23-1.52,2.75,2.75,0,0,1,.56-1.91c.24-.34,1.68-1.87,1.36-.3-.16.79,1.06,1.11,1.22.31.36-1.77-1-3-2.56-1.84a4.11,4.11,0,0,0-1.51,5c2.45,4.7,8.77-2.16,10.49-4.34.5-.63-.4-1.5-.91-.87Z"/><path class="cls-1" d="M52.82,99.89c.46-.38,1.94-1,1.25.21a1.72,1.72,0,0,1-2,.69,3.21,3.21,0,0,1,.74-.9ZM59,98.64a23,23,0,0,1-2.65,2.76c-.55.47-1.13.92-1.72,1.34-.43.3-1.72,1.34-2.21,1.14a1.67,1.67,0,0,1-.89-1.3,2.94,2.94,0,0,1,.1-.63l.12,0c1.7.52,4.34-.9,3.7-3-.32-1-1.39-1.06-2.26-.78a4.23,4.23,0,0,0-2.46,2.46c-.75,1.81-.6,4.9,2.14,4.38a9.34,9.34,0,0,0,3.67-2.22,23.2,23.2,0,0,0,3.37-3.35c.51-.62-.39-1.49-.91-.87Z"/><path class="cls-1" d="M69.83,112.53c-.58.57-1.34,1-2.13.49-.61-.4-.48-1.54-.38-2.13a14.61,14.61,0,0,1,.65-2.26,33.16,33.16,0,0,1,2.27-5c.05-.1.11-.2.17-.3,1,3.07,1.85,6.72-.58,9.16Zm-8.06-3.87a18.86,18.86,0,0,1,.27,6,5.77,5.77,0,0,1-1.42,2.87c-.7.72-2,1.14-2.47-.09a4,4,0,0,1,.15-2.31,26.23,26.23,0,0,1,1.37-3.71c.59-1.38,1.24-2.74,1.91-4.09.07.44.14.89.19,1.34ZM75.58,93.52a66.53,66.53,0,0,0-4.91,6.91c-.1-.26-.2-.53-.29-.8-.47-1.37-1.51-4.19-.87-5.9.26-.35.52-.7.79-1a.64.64,0,0,0,.09-.68.57.57,0,0,0-1-.19h0a3.44,3.44,0,0,0-.9,1.16,74.62,74.62,0,0,0-4.73,7.6c-.59,1-1.18,2.09-1.75,3.15-.16-.59-.34-1.18-.54-1.78A32.6,32.6,0,0,1,60.38,98c-.24-1.22-.65-3.26.52-4.15.64-.48,0-1.56-.65-1.07-2.9,2.21-.68,7.59.28,10.29a22.43,22.43,0,0,1,.65,2.22c-1,2-2,3.94-2.83,6a20.75,20.75,0,0,0-1.48,4.47c-.28,1.71.48,4.07,2.64,3.79s3.36-2.75,3.75-4.59a19.26,19.26,0,0,0-.2-6.15c-.14-1.12-.34-2.19-.58-3.26.66-1.27,1.35-2.53,2.05-3.78,1.14-2,2.29-4.08,3.58-6a21.73,21.73,0,0,0,1.54,5.54c.06.17.13.35.19.53a29.79,29.79,0,0,0-3.69,8.58,3.7,3.7,0,0,0,.69,3.54,2.46,2.46,0,0,0,3.31,0c2.39-1.82,2.79-5.16,2.29-7.92a24,24,0,0,0-1.21-4.06,63.53,63.53,0,0,1,5.26-7.54c.51-.63-.4-1.5-.91-.87Z"/></g></g></svg>