<svg xmlns="http://www.w3.org/2000/svg" viewBox="0 0 237.1 104.65"><defs><style>.cls-1{fill:#152c5a;}.cls-2{fill:none;stroke:#152c5a;}</style></defs><title>Asset 3mdpi</title><g id="Layer_2" data-name="Layer 2"><g id="Layer_1-2" data-name="Layer 1"><path class="cls-1" d="M23.69,27a.63.63,0,0,0-.08,1.26,52.76,52.76,0,0,1,5.6.53,3.93,3.93,0,0,0-.35,2.64c.19.79,1.42.55,1.23-.24A3.06,3.06,0,0,1,30.51,29c1.54.24,3.06.52,4.58.81a76,76,0,0,1,9.74,2.49C47.24,33.12,50,34,52,35.49c.65.48,1.36-.56.71-1a25.52,25.52,0,0,0-7.1-3.19A75.71,75.71,0,0,0,36,28.74c-1.56-.31-3.14-.61-4.73-.87.3-.37.61-.73.89-1.06q1.63-2,3.32-3.94,3.56-4.08,7.34-8,3.6-3.69,7.39-7.17c1.26-1.16,2.54-2.31,3.83-3.43A25.85,25.85,0,0,1,57,2a.57.57,0,0,0,.32,0A2,2,0,0,0,58.76,1,.64.64,0,0,0,58,.06a16.77,16.77,0,0,0-4.35,3C52.2,4.27,50.8,5.52,49.43,6.79c-2.88,2.63-5.66,5.36-8.37,8.17s-5.18,5.56-7.64,8.44C32.25,24.78,31,26.14,30,27.6l0,0A59.7,59.7,0,0,0,23.69,27Z"/><path class="cls-1" d="M53.48,22.49c-.6.24-2,1.06-2.54.69-.71-.52,1-1.79,1.51-2.14s2.71-2,2.47-.14c-.07.5.39.71.78.61-.73.36-1.47.68-2.22,1Zm10.68,2.2a29.24,29.24,0,0,1-6.08,1c-.87,0-3.43.21-3.47-1.07s1.55-1.95,2.38-2.27.19-1.43-.56-1.13l-.53.23h-.07a.6.6,0,0,0,.34-.49c.19-1.45-.6-2.71-2.2-2.22a8.1,8.1,0,0,0-4.25,3.33c-.55,1-.66,2.85,1,2.72a10.49,10.49,0,0,0,2.58-.88l.25-.1a1.52,1.52,0,0,0-.09.28c-.38,1.54.8,2.42,2.18,2.7,2.81.57,6.06-.16,8.79-.88.78-.21.54-1.44-.24-1.23Z"/><path class="cls-1" d="M61.25,40.94a18.53,18.53,0,0,1-4.79,2.64,4.12,4.12,0,0,1-2.76.25c-1.77-.72.5-2.63,1.24-3.26a45,45,0,0,1,10.3-6.35c1.33-.61,2.71-1.19,4.13-1.7a33,33,0,0,1-8.12,8.42ZM78.53,29.6a22.54,22.54,0,0,0-6.46.77c.65-1.36,1.07-2.91,0-3.65s-3,.28-4,.62L62.87,29c.17-1.65,1.74-2.89,3-3.86.64-.49-.18-1.44-.82-.95-1.86,1.43-3.76,3.24-3.39,5.78a.63.63,0,0,0,.74.49L70.1,28c.71-.22,1.39-.28,1.21.7a6.15,6.15,0,0,1-.38,1c-.17.39-.36.77-.56,1.14a48.86,48.86,0,0,0-6.2,2.48,52.73,52.73,0,0,0-6.75,3.82c-1.78,1.19-4.19,2.65-5.26,4.56-1.18,2.1.69,3.6,2.71,3.49a12.56,12.56,0,0,0,5.81-2.36A32.81,32.81,0,0,0,71,32.37c.08-.13.18-.29.28-.47a22.64,22.64,0,0,1,7.22-1c.81,0,.89-1.23.08-1.25Z"/><path class="cls-1" d="M87.19,33.13a4.23,4.23,0,0,0-5.09-4.78l-.14,0-.19,0c-.8-.08-.88,1.18-.08,1.25s-.72,2.44-.89,2.66a4,4,0,0,1-2.5,1.58c-.74.11-1.22-.32-1-1.08a3.87,3.87,0,0,1,.7-1.17A5.81,5.81,0,0,1,80.15,30a.63.63,0,0,0-.55-1.13A6.63,6.63,0,0,0,76,32.73c-.56,1.74.76,2.56,2.39,2.38a5.64,5.64,0,0,0,4.19-3.28,4.29,4.29,0,0,0,.55-2.31,3,3,0,0,1,2.83,3.53c-.11.8,1.14.88,1.26.08Z"/><path class="cls-1" d="M111.24,25.69h0l.06-.05Zm12,4.14c-.19-.63-.88-.81-1.43-1-2.33-.88-4.73-1.59-7.13-2.25l-2-.52,2.63-2.6c1.36-1.32,2.72-2.68,4.19-3.87a.61.61,0,0,0-.13-1,.55.55,0,0,0-.79-.24,33.12,33.12,0,0,0-3.93,3c-1.68,1.34-3.35,2.7-5,4q-4.5-1-9.08-1.56c-.69-.09-.94,1.07-.24,1.22l.63.14a.76.76,0,0,0,.3,0c2.39.32,4.78.72,7.14,1.22l-.57.46C103.42,30.4,99,34.26,94.2,37.32a3.79,3.79,0,0,1-2.11.89c-2-.17.32-2.9.85-3.57a34.19,34.19,0,0,1,2.82-3.07.63.63,0,0,0-.69-1c-2.21,1-4.41,2.06-6.65,3a7.73,7.73,0,0,1-1.58.65c-.4.06-.23.22-.23-.12s.4-.7.53-.89a16.3,16.3,0,0,1,2.71-3c.6-.55-.22-1.51-.82-.95a16.07,16.07,0,0,0-3.46,4.11c-.42.78-.82,2.34.59,2.34A6,6,0,0,0,88.08,35c.86-.35,1.72-.72,2.57-1.1l1.94-.88a15.21,15.21,0,0,0-2.27,3.25c-1,2,.17,3.47,2.36,3.1,1.75-.29,3.44-1.85,4.82-2.86,4.28-3.14,8.39-6.5,12.5-9.86l.24,0-2,2.08A136.68,136.68,0,0,0,94.45,45.11a38.18,38.18,0,0,0-2.52,4.1c-.63,1.22-1.63,3-.36,4.15.6.54,1.55-.28,1-.82-.93-.84.71-3.15,1.2-4,.69-1.16,1.44-2.29,2.23-3.39,1.89-2.67,4-5.21,6.1-7.69,3.08-3.57,6.3-7,9.62-10.39h0c1.72.43,3.43.89,5.12,1.41.92.28,1.84.57,2.76.88l1.37.46.45.17a.57.57,0,0,0,.38.17.67.67,0,0,0,.87.85,1,1,0,0,0,.59-1.2Z"/><path class="cls-1" d="M137.52,36.68c-.19-.63-.88-.81-1.43-1-2.33-.87-4.73-1.59-7.13-2.25-.89-.24-1.78-.46-2.67-.68L128.14,31c1.76-1.64,3.54-3.28,5.42-4.79.63-.51-.19-1.47-.82-1-2.75,2.23-5.4,4.63-8,7.12-3.28-.75-6.6-1.33-9.94-1.76-.69-.09-.94,1.07-.24,1.22l.63.14a.61.61,0,0,0,.3,0q4.13.56,8.18,1.44c-1.58,1.58-3.14,3.18-4.66,4.8a65.32,65.32,0,0,0-7.33,8.86c-1,1.53-2.46,3.72-2.37,5.63.07,1.46,1.33,1.92,2.58,1.48a38.94,38.94,0,0,0,6.57-3.4,72,72,0,0,0,6.31-4.2c.65-.48-.18-1.43-.82-1a69.13,69.13,0,0,1-10.18,6.28c-.62.31-1.86,1.21-2.54,1.17-1.4-.07-.11-2.41.16-3a27.41,27.41,0,0,1,3.5-5.29,110.72,110.72,0,0,1,10.27-11.07L126,34c1.71.42,3.42.88,5.11,1.4.92.28,1.84.57,2.76.88l1.37.47.45.16a.57.57,0,0,0,.38.17.67.67,0,0,0,.87.85,1,1,0,0,0,.59-1.2Z"/><path class="cls-1" d="M136.74,49.73l-5,.48c-.83.08-1.65.17-2.48.24-.65,0-.64.19-.33-.29a8.89,8.89,0,0,1,1-1.1c.6-.63,1.9-1.55,1.92-2.53a1.39,1.39,0,0,0-1.33-1.33,7.28,7.28,0,0,0-3,.76,21.27,21.27,0,0,0-3.54,1.69h0l.9-.9q2.94-2.94,5.95-5.82,5.73-5.46,11.77-10.58a.69.69,0,0,0,.34-.21l.41-.46c.49-.54-.4-1.28-.93-.83q-6.74,5.67-13.1,11.78-3.09,3-6.11,6c-1.79,1.8-4.43,3.75-5.13,6.29-.22.78,1,1.2,1.19.41,0-.05,0-.1,0-.15a.53.53,0,0,0,.12-.1,20.86,20.86,0,0,1,5.63-4.61A21.13,21.13,0,0,1,128.32,47c.21-.07,1.7-.7,1.87-.55.47.42-1,1.6-1.17,1.82-.55.58-1.77,1.45-1.74,2.35a1.27,1.27,0,0,0,1.3,1.11,21,21,0,0,0,3.7-.33L137,51c.8-.08.55-1.31-.25-1.23Z"/><path class="cls-1" d="M139.26,50.12c.6,0,2.14.32.9.89a1.72,1.72,0,0,1-2-.58,3.06,3.06,0,0,1,1.12-.31ZM145,52.64a22.92,22.92,0,0,1-3.76.73,19.73,19.73,0,0,1-2.17.12c-.53,0-2.18.11-2.47-.33a1.68,1.68,0,0,1,0-1.57,2.39,2.39,0,0,1,.44-.46.61.61,0,0,0,.07.1c1.1,1.4,4.07,1.75,4.74-.32.33-1-.53-1.66-1.4-1.93a4.21,4.21,0,0,0-3.43.6c-1.65,1.06-3.31,3.67-.76,4.82a9.36,9.36,0,0,0,4.28.29,23.88,23.88,0,0,0,4.68-.81c.78-.22.54-1.45-.24-1.24Z"/><path class="cls-1" d="M171.41,56.23c-1.44-.47-2.74.32-4,.93q-2.39,1.16-4.68,2.44c-2.46,1.37-4.84,2.87-7.16,4.46.74-.86,1.82-1.82,2.1-2.12l3.18-3.42a.63.63,0,0,0-.68-1l-6.24,2.6c-.35.15-.7.29-1.06.42l.13-.11c0-.23,1.13-1.3,1.32-1.51l1-1.14c.09-.11.69-.92.95-1.24a.6.6,0,0,0,.52-.13l.08-.07a.61.61,0,0,0,.2-.6l0-.08a.63.63,0,0,0-.57-.51,1.32,1.32,0,0,0-1.05.59c-.68.74-1.32,1.52-2,2.28s-2.51,2.17-1.74,3.33,2.41,0,3.22-.29l3.1-1.29-2.67,2.87c-.82.88-2.3,2-1.6,3.38a.63.63,0,0,0,1,.2,91.5,91.5,0,0,1,7.76-5c1.26-.72,2.54-1.42,3.83-2.07S169.64,57,171,57.42a.63.63,0,0,0,.41-1.19Z"/><path class="cls-1" d="M171.75,63.21c-.6.24-2,1.06-2.55.69-.71-.52,1-1.79,1.52-2.13s2.7-2,2.46-.15a.58.58,0,0,0,.78.62c-.72.35-1.46.67-2.21,1Zm10.67,2.2a29.13,29.13,0,0,1-6.08,1c-.87,0-3.43.21-3.47-1.07s1.56-2,2.38-2.27.2-1.42-.55-1.13l-.53.23-.08,0a.62.62,0,0,0,.35-.49c.19-1.46-.61-2.72-2.2-2.23A8.12,8.12,0,0,0,168,62.8c-.54,1-.65,2.85,1,2.72a10.35,10.35,0,0,0,2.58-.88l.25-.1c0,.09-.06.19-.08.28-.39,1.54.8,2.43,2.17,2.7,2.82.57,6.06-.15,8.8-.88.78-.2.54-1.44-.25-1.23Z"/><path class="cls-1" d="M179.51,81.66a18.21,18.21,0,0,1-4.79,2.64,4.12,4.12,0,0,1-2.76.25c-1.77-.72.51-2.63,1.25-3.26a44.52,44.52,0,0,1,10.3-6.35c1.33-.61,2.71-1.19,4.13-1.7a32.87,32.87,0,0,1-8.13,8.42ZM196.8,70.32a22.86,22.86,0,0,0-6.46.77c.64-1.36,1.06-2.91,0-3.65s-3,.28-4,.62l-5.17,1.63c.17-1.65,1.74-2.89,3-3.85.65-.5-.18-1.45-.82-1-1.85,1.43-3.75,3.24-3.38,5.78a.64.64,0,0,0,.74.5c2.57-.81,5.13-1.64,7.7-2.44.71-.22,1.4-.28,1.21.71a4.67,4.67,0,0,1-.38,1,12,12,0,0,1-.55,1.14,49.77,49.77,0,0,0-6.2,2.48,52.85,52.85,0,0,0-6.76,3.82c-1.77,1.19-4.19,2.65-5.26,4.56-1.18,2.1.7,3.6,2.72,3.5A12.76,12.76,0,0,0,179,83.57,33,33,0,0,0,189.22,73.1c.08-.14.17-.3.28-.47a22.61,22.61,0,0,1,7.22-1.06.63.63,0,0,0,.08-1.25Z"/><path class="cls-1" d="M188.12,85.05c-.8.14-1.67.07-2-.81-.27-.68.49-1.54.91-2a16.31,16.31,0,0,1,1.83-1.49A34.13,34.13,0,0,1,193.55,78l.3-.14c-.9,3.11-2.34,6.57-5.73,7.16Zm15.62-12.26a66.54,66.54,0,0,0-8,2.84c.07-.27.15-.55.23-.82.48-1.69,1.5-5.62,3.75-5.71.8,0,.88-1.29.07-1.26-3.5.14-4.68,5.23-5.37,7.9-.05.18-.1.36-.14.55a29.4,29.4,0,0,0-7.95,4.9,3.75,3.75,0,0,0-1.47,3.3,2.47,2.47,0,0,0,2.72,1.89c3-.13,5.25-2.64,6.43-5.18a24.59,24.59,0,0,0,1.33-4A62.86,62.86,0,0,1,204,74c.77-.22.53-1.46-.25-1.23Z"/><path class="cls-1" d="M230,76.41c-1.43-.47-2.73.32-4,.94-1.59.76-3.14,1.57-4.68,2.43-2.46,1.38-4.84,2.87-7.16,4.47.74-.86,1.82-1.82,2.11-2.13q1.57-1.71,3.17-3.41a.63.63,0,0,0-.68-1c-2.08.87-4.16,1.75-6.24,2.6l-1.06.43.13-.11c0-.24,1.14-1.31,1.32-1.52l1-1.13c.09-.11.69-.92,1-1.24a.59.59,0,0,0,.51-.14l.08-.06a.62.62,0,0,0,.2-.6V75.8a.64.64,0,0,0-.58-.5c-.52,0-.7.22-1,.59-.69.73-1.33,1.52-2,2.27s-2.51,2.18-1.74,3.34,2.41,0,3.22-.29l3.1-1.29L214,82.79c-.82.88-2.29,2-1.6,3.38a.63.63,0,0,0,1,.2,90.74,90.74,0,0,1,7.76-5q1.89-1.08,3.84-2.07c1.18-.6,3.32-2.13,4.68-1.69a.63.63,0,0,0,.41-1.19Z"/><path class="cls-1" d="M230.6,81.57c.59,0,2.14.32.9.89a1.73,1.73,0,0,1-2-.58,3.17,3.17,0,0,1,1.13-.31Zm5.77,2.52a22.8,22.8,0,0,1-3.75.73,19.73,19.73,0,0,1-2.17.12c-.53,0-2.18.11-2.48-.33A1.68,1.68,0,0,1,228,83a1.91,1.91,0,0,1,.44-.46.61.61,0,0,0,.07.1c1.1,1.4,4.07,1.75,4.74-.32.33-1-.53-1.66-1.41-1.93a4.2,4.2,0,0,0-3.42.6c-1.65,1.06-3.31,3.67-.76,4.82a9.36,9.36,0,0,0,4.28.29,23.88,23.88,0,0,0,4.68-.81c.78-.22.54-1.45-.25-1.24Z"/><path class="cls-1" d="M11.28,56.13a17.64,17.64,0,0,1-2.6,3.42A30.86,30.86,0,0,1,5.17,62.8a19,19,0,0,1-1.86,1.33c-.31.2-1.31,1-1.71.9-.72-.14.32-1.45.53-1.75.43-.63.89-1.24,1.36-1.84,1.07-1.36,2.23-2.66,3.41-3.93q1.46-1.55,3-3a3.61,3.61,0,0,1,1.13.19c.67.29.6.87.28,1.46ZM24,40.69A120.54,120.54,0,0,0,11.69,51l-1.62,1.54c-1,.23-2,.51-3,.83l-.82.18a.56.56,0,0,0-.43.36.67.67,0,0,0,.82.94l.64-.23.76-.1C6.34,56.23,4.67,58,3.12,59.9c-1.05,1.27-2.53,2.82-3,4.43s.62,2.39,2,1.83c3.35-1.33,6.33-4.32,8.57-7,.91-1.11,2.93-3.36,1.87-4.87a2.36,2.36,0,0,0-1-.76,30.37,30.37,0,0,1,8.14-.35c.8.07.88-1.18.08-1.26a31.08,31.08,0,0,0-7.47.22l1.37-1.27a122.75,122.75,0,0,1,10.06-8.44.65.65,0,0,0,.9-.32l.3-.69c.27-.62-.55-1-1-.68Z"/><path class="cls-1" d="M24.41,49.61a.64.64,0,0,0,.8-.39,2.67,2.67,0,0,1,1.52-1.3c.76-.28.2-1.41-.55-1.13a3.89,3.89,0,0,0-2.16,2,.63.63,0,0,0,.39.8Zm4,5.24a33.54,33.54,0,0,1-7.83,2.25c-.59.07-1.69.26-2.11-.31s.33-1.73.67-2.23a8.07,8.07,0,0,1,3.12-2.64.63.63,0,0,0-.55-1.13c-1.81.89-6.7,5-3.85,7.14,1.35,1,3.66.35,5.11,0a48.73,48.73,0,0,0,6-2c.75-.29.2-1.42-.55-1.13Z"/><path class="cls-1" d="M39.53,58.62l-3.48.43-1.49.19a11,11,0,0,1-1.78.24c.17-.71,1.16-1.63,1.48-2.1a4.89,4.89,0,0,0,.83-1.93c.1-.52-.52-.74-.9-.61a36.87,36.87,0,0,0-7.51,3.62c.27-.26.53-.5.74-.73.75-.8,1.51-1.6,2.28-2.38,1.32-1.34,2.66-2.65,4-3.93a.59.59,0,0,0,.4-.24l.41-.54a.63.63,0,0,0-.92-.84c-2,1.82-3.88,3.68-5.74,5.61-.87.91-1.72,1.83-2.57,2.76a4.37,4.37,0,0,0-1.41,2.49.64.64,0,0,0,1,.52,35.4,35.4,0,0,1,8.22-4.62c-.94,1.32-2.44,3-1.36,3.95.7.58,2.23.06,3,0l5-.62c.8-.1.56-1.33-.25-1.23Z"/><path class="cls-1" d="M41.78,60.48,40,61c-.36.09-1.25.5-1.6.41-.34.14-.35,0,0-.34a7.19,7.19,0,0,1,.59-.51,6,6,0,0,1,1.51-.81c1-.36,2.58-.7,3.34.24l-2,.54ZM63.86,43.19c-4.8,3.94-9.37,8.15-13.84,12.47-1.47,1.43-2.92,2.86-4.36,4.31A.53.53,0,0,0,45,59.6h0c-1.59-2.82-6.49-1.3-7.94.95a1.29,1.29,0,0,0,1.27,2.1A53.35,53.35,0,0,0,44.62,61l-1.15,1.16C41.4,64.3,39.1,66.38,37.6,69c-.4.69.63,1.41,1,.71,1.54-2.67,4-4.82,6.1-7S49,58.4,51.17,56.3c4.14-4,8.39-7.9,12.81-11.58a.44.44,0,0,0,.15-.1l.55-.48a.63.63,0,0,0-.82-1Z"/><path class="cls-1" d="M64,72.89a64.72,64.72,0,0,1-8.68,9A14.6,14.6,0,0,1,51,84.63a2,2,0,0,1-2.8-2c.11-2.48,2.62-4.17,4.59-5.25a45.94,45.94,0,0,1,5.76-2.61c1.77-.69,3.58-1.31,5.41-1.84ZM62.2,68.3a51.09,51.09,0,0,0-6,2.75l-.07,0a17.29,17.29,0,0,0,1.36-1.66A9,9,0,0,1,59.25,68a16.1,16.1,0,0,1,1.58-.86c.3-.15.6-.3.91-.42s2-.75,1.68.27a.57.57,0,0,0,.34.75c-.58.18-1.12.4-1.56.57Zm11,1.92a18.86,18.86,0,0,0-6,.55c.66-1.09,1-2.23,0-3a3.23,3.23,0,0,0-2.68-.3.54.54,0,0,0,.07-.13,1.69,1.69,0,0,0-1.33-2.22c-1.4-.28-3.08.81-4.24,1.48s-5.74,4.12-3.43,5.46a.56.56,0,0,0,.8.27q2.18-1.2,4.46-2.18c.69-.3,1.38-.59,2.09-.85s2.23-1,3-.66c1.15.46-.11,1.8-.52,2.35l-.14.19a62.4,62.4,0,0,0-7.42,2.42C54,75.14,46.53,77.85,47,83.09a3.1,3.1,0,0,0,3.27,3c1.75-.15,3.38-1.33,4.73-2.35A60.33,60.33,0,0,0,65.32,73.24l.76-.92.42-.1a20.29,20.29,0,0,1,6.66-.75c.81.09.89-1.17.08-1.25Z"/><path class="cls-1" d="M83.22,73.55a14.48,14.48,0,0,1-3.27.52c-.6,0-1.34.28-1.37-.46,0-.29.65-1,.84-1.24.54-.81,1.46-2.52-.31-2.6a5.36,5.36,0,0,0-2.32.88c-.93.46-1.84.95-2.73,1.48s-1.53,1-2.27,1.46a35.51,35.51,0,0,1,5.44-5.24.63.63,0,0,0-.69-1l-.4.2a.57.57,0,0,0-.3.35,36.89,36.89,0,0,0-6.91,7.37.55.55,0,0,0-.05.6.64.64,0,0,0,1,.76,39.69,39.69,0,0,1,5.33-3.67c.76-.44,1.55-.85,2.35-1.24l.8-.37c.39-.27.5-.29.32-.07.06.15-.76,1.12-.84,1.24-.57.87-1.24,2.24.17,2.75s4,0,5.48-.44c.78-.21.54-1.44-.25-1.24Z"/><path class="cls-1" d="M92.21,77.16a4.24,4.24,0,0,0-5.09-4.78l-.14,0-.19,0a.63.63,0,0,0-.08,1.25c.73.07-.72,2.45-.89,2.66a4,4,0,0,1-2.5,1.58c-.74.11-1.22-.32-1-1.08a4,4,0,0,1,.7-1.17A5.81,5.81,0,0,1,85.17,74c.74-.33.19-1.46-.55-1.13A6.65,6.65,0,0,0,81,76.76c-.55,1.74.77,2.57,2.4,2.38a5.63,5.63,0,0,0,4.19-3.27,4.33,4.33,0,0,0,.55-2.32A3,3,0,0,1,91,77.08c-.11.8,1.14.88,1.26.08Z"/><path class="cls-1" d="M107.74,76.61c-1.43-.47-2.73.32-4,.93q-2.37,1.15-4.67,2.44c-2.46,1.37-4.85,2.87-7.17,4.47.74-.87,1.82-1.82,2.11-2.13l3.18-3.42a.63.63,0,0,0-.69-1c-2.08.87-4.15,1.75-6.24,2.6q-.53.23-1.05.42l.12-.1c0-.24,1.14-1.31,1.32-1.52l1-1.14c.1-.1.69-.91,1-1.24a.55.55,0,0,0,.51-.13l.08-.06a.65.65,0,0,0,.21-.6l0-.09a.65.65,0,0,0-.58-.51,1.31,1.31,0,0,0-1,.6c-.68.73-1.32,1.52-2,2.27S87.26,80.54,88,81.69s2.41,0,3.22-.28l3.09-1.29L91.68,83c-.82.88-2.29,2-1.6,3.38a.65.65,0,0,0,1,.2,89.2,89.2,0,0,1,7.76-5c1.26-.72,2.54-1.41,3.83-2.07s3.33-2.13,4.68-1.69a.63.63,0,0,0,.41-1.19Z"/><path class="cls-1" d="M128.17,75.77c-.2-.63-.89-.81-1.43-1-2.33-.87-4.73-1.58-7.13-2.24q-1.33-.36-2.67-.69l1.84-1.73c1.77-1.64,3.55-3.27,5.43-4.79.63-.51-.19-1.46-.82-1-2.76,2.22-5.4,4.63-8,7.11-3.28-.74-6.59-1.33-9.93-1.75-.69-.09-.94,1.06-.24,1.22l.62.14a.65.65,0,0,0,.31,0q4.11.56,8.18,1.45c-1.59,1.57-3.14,3.18-4.66,4.79a66.14,66.14,0,0,0-7.34,8.86c-1,1.53-2.45,3.72-2.36,5.63.07,1.46,1.32,1.92,2.58,1.48a37.53,37.53,0,0,0,6.57-3.4,73.24,73.24,0,0,0,6.3-4.19c.66-.49-.17-1.44-.82-1A68.61,68.61,0,0,1,104.46,91c-.61.31-1.85,1.21-2.54,1.18-1.39-.08-.1-2.42.16-3a28.2,28.2,0,0,1,3.5-5.29,109.63,109.63,0,0,1,10.28-11.06l.77.18q2.58.63,5.12,1.4c.92.28,1.84.57,2.75.88l1.37.47.46.16a.57.57,0,0,0,.38.18.67.67,0,0,0,.86.84,1,1,0,0,0,.6-1.19Z"/><path class="cls-1" d="M127.39,88.81l-5,.48c-.82.08-1.65.18-2.47.24-.66.06-.64.2-.34-.29a9.63,9.63,0,0,1,1-1.09c.61-.64,1.91-1.55,1.93-2.53a1.38,1.38,0,0,0-1.33-1.33,7.2,7.2,0,0,0-3,.75,22.88,22.88,0,0,0-3.53,1.69l0,0,.89-.91q2.94-2.94,6-5.81,5.73-5.46,11.77-10.59a.7.7,0,0,0,.35-.2c.13-.16.27-.31.41-.47.48-.54-.4-1.27-.93-.83q-6.75,5.67-13.1,11.79-3.1,3-6.11,6c-1.79,1.8-4.43,3.75-5.14,6.29-.21.78,1,1.19,1.19.41a.88.88,0,0,0,.05-.15.38.38,0,0,0,.11-.11A21,21,0,0,1,119,86.11c.21-.08,1.7-.7,1.86-.56.48.43-1,1.61-1.17,1.83-.54.57-1.76,1.44-1.73,2.34,0,.71.66,1,1.29,1.11a19.39,19.39,0,0,0,3.71-.33l4.7-.45c.81-.08.56-1.31-.24-1.24Z"/><path class="cls-2" d="M38.3,80.15c67.33,16.41,84.64,28.44,63.36,22.43s-65-28.86-56.14-22.43c2.68,2,3.74-1.61,16.83,2.41,29.36,9,78.46,26.33,48.09,16.83C66.8,85.74,34.7,76.55,34.7,76.55"/></g></g></svg>