<svg xmlns="http://www.w3.org/2000/svg" xmlns:xlink="http://www.w3.org/1999/xlink" viewBox="0 0 129.47 41.44"><defs><style>.cls-1{fill:none;}.cls-2{clip-path:url(#clip-path);}.cls-3{isolation:isolate;}.cls-4{clip-path:url(#clip-path-2);}.cls-5{fill:#fff;}</style><clipPath id="clip-path" transform="translate(0 -0.03)"><rect class="cls-1" y="0.03" width="129.47" height="41.44"/></clipPath><clipPath id="clip-path-2" transform="translate(0 -0.03)"><rect class="cls-1" width="129.5" height="41.5"/></clipPath></defs><title>Asset 3mdpii</title><g id="Layer_2" data-name="Layer 2"><g id="Layer_1-2" data-name="Layer 1"><g class="cls-2"><g class="cls-3"><g class="cls-4"><path class="cls-5" d="M44.49,0,38.43,23.15,32,.16H23.49C27,10.42,30.59,20.65,34.13,30.94h8l5.38-19.38,5.39,19.38h8L70.72,0H63.08L56.67,23.15,50.56,0Z" transform="translate(0 -0.03)"/><path class="cls-5" d="M80.58,30.94,86.64,7.82l6.43,23h8.51C98.06,20.56,94.48,10.33,91,0h-8L80,9.14l-2.5,10.27L72.28.51l-3,10.77,5.2,19.66Z" transform="translate(0 -0.03)"/><path class="cls-5" d="M129.47,16.81c0,9.32-6.4,15.34-14.32,15.34-8.85,0-15.54-7.26-15.54-16S106.32,0,115,0a15.29,15.29,0,0,1,9.94,4.05l-4.09,6.18A8.55,8.55,0,0,0,115,7.64c-4.15,0-7.79,3.75-7.79,8.49a8.25,8.25,0,0,0,8.28,8.48c3.37,0,5.77-1.79,5.88-4.72h-4.25L115,13.82h14.29a22.23,22.23,0,0,1,.23,3" transform="translate(0 -0.03)"/><polygon class="cls-5" points="4.32 36.52 2.85 36.52 2.85 41.31 1.65 41.31 1.65 36.52 0.17 36.52 0.17 35.32 4.32 35.32 4.32 36.52"/><polygon class="cls-5" points="9.55 35.32 9.55 41.31 8.35 41.31 8.35 38.91 6.2 38.91 6.2 41.31 5 41.31 5 35.32 6.2 35.32 6.2 37.72 8.35 37.72 8.35 35.32 9.55 35.32"/><polygon class="cls-5" points="11.79 36.51 11.79 37.68 13.85 37.68 13.85 38.88 11.79 38.88 11.79 40.11 14.2 40.11 14.2 41.31 10.59 41.31 10.59 35.32 14.2 35.32 14.2 36.51 11.79 36.51"/><polygon class="cls-5" points="16.86 35.32 18.16 35.32 19.08 38.34 20.36 35.34 20.39 35.34 21.67 38.34 22.59 35.32 23.88 35.32 21.93 41.38 21.86 41.38 20.36 38.13 18.88 41.38 18.81 41.38 16.86 35.32"/><polygon class="cls-5" points="25.68 36.51 25.68 37.68 27.75 37.68 27.75 38.88 25.68 38.88 25.68 40.11 28.09 40.11 28.09 41.31 24.48 41.31 24.48 35.32 28.09 35.32 28.09 36.51 25.68 36.51"/><path class="cls-5" d="M31.93,39.44c0-.35-.24-.69-.81-.69h-.95v1.41h.95a.76.76,0,0,0,.81-.72m-1.76-2.92v1.17h.49a.58.58,0,0,0,.56-.59.56.56,0,0,0-.54-.58Zm2.93,3a1.79,1.79,0,0,1-1.87,1.82H29v-6h1.64a1.64,1.64,0,0,1,1.73,1.59,1.07,1.07,0,0,1-.56,1,1.49,1.49,0,0,1,1.32,1.55" transform="translate(0 -0.03)"/><path class="cls-5" d="M33.47,40.31l1-.68a1.26,1.26,0,0,0,1.16.62c.56,0,.94-.23.94-.55s-.71-.79-1.34-1.1-1.41-.7-1.41-1.65a1.79,1.79,0,0,1,2-1.72,1.75,1.75,0,0,1,1.77,1.06l-.89.62a.92.92,0,0,0-.86-.5c-.45,0-.78.26-.78.57s.45.48,1.14.8c1,.47,1.61,1,1.61,1.89,0,1.09-.89,1.79-2.17,1.79a2.23,2.23,0,0,1-2.1-1.15" transform="translate(0 -0.03)"/><rect class="cls-5" x="38.47" y="35.32" width="1.2" height="5.98"/><polygon class="cls-5" points="44.5 36.52 43.03 36.52 43.03 41.31 41.82 41.31 41.82 36.52 40.35 36.52 40.35 35.32 44.5 35.32 44.5 36.52"/><polygon class="cls-5" points="46.38 36.51 46.38 37.68 48.44 37.68 48.44 38.88 46.38 38.88 46.38 40.11 48.78 40.11 48.78 41.31 45.17 41.31 45.17 35.32 48.78 35.32 48.78 36.51 46.38 36.51"/><polygon class="cls-5" points="57.76 35.17 57.76 41.31 56.55 41.31 56.55 38.7 54.83 41.21 54.82 41.21 53.1 38.7 53.1 41.31 51.89 41.31 51.89 35.17 51.96 35.17 54.83 39.13 57.69 35.17 57.76 35.17"/><path class="cls-5" d="M62,39.48l-.73-1.6-.73,1.6Zm.47,1H60l-.38.84h-1.3l2.86-6.13h0l2.86,6.13h-1.3Z" transform="translate(0 -0.03)"/><path class="cls-5" d="M65.91,38.05h.77a.76.76,0,0,0,.78-.75.78.78,0,0,0-.78-.76h-.77Zm1.91,3.29-1.91-2.83v2.83h-1.2v-6h2a2,2,0,0,1,2,1.94A1.77,1.77,0,0,1,67.59,39l1.7,2.38Z" transform="translate(0 -0.03)"/><polygon class="cls-5" points="72.88 41.31 71.06 38.69 71.06 41.31 69.86 41.31 69.86 35.32 71.06 35.32 71.06 37.91 72.74 35.32 74.13 35.32 72.21 38.25 74.34 41.31 72.88 41.31"/><polygon class="cls-5" points="76.12 36.51 76.12 37.68 78.18 37.68 78.18 38.88 76.12 38.88 76.12 40.11 78.52 40.11 78.52 41.31 74.91 41.31 74.91 35.32 78.52 35.32 78.52 36.51 76.12 36.51"/><polygon class="cls-5" points="83.19 36.52 81.72 36.52 81.72 41.31 80.52 41.31 80.52 36.52 79.04 36.52 79.04 35.32 83.19 35.32 83.19 36.52"/><rect class="cls-5" x="83.87" y="35.32" width="1.2" height="5.98"/><polygon class="cls-5" points="90.92 35.31 90.92 41.42 90.86 41.42 87.31 37.96 87.31 41.31 86.11 41.31 86.11 35.21 86.17 35.21 89.71 38.66 89.71 35.31 90.92 35.31"/><path class="cls-5" d="M97.71,38.48a2.79,2.79,0,0,1-2.86,3,3.12,3.12,0,1,1,0-6.23,3.34,3.34,0,0,1,2.19.94l-.67,1a2.24,2.24,0,0,0-1.54-.72,1.9,1.9,0,1,0,.11,3.8c.86,0,1.47-.44,1.51-1.16H94.86V38h2.82a4.32,4.32,0,0,1,0,.5" transform="translate(0 -0.03)"/><path class="cls-5" d="M106.46,38.48a2.79,2.79,0,0,1-2.85,3,3.12,3.12,0,1,1,0-6.23,3.3,3.3,0,0,1,2.19.94l-.67,1a2.21,2.21,0,0,0-1.53-.72,1.9,1.9,0,1,0,.11,3.8c.85,0,1.46-.44,1.51-1.16h-1.55V38h2.81a4.32,4.32,0,0,1,0,.5" transform="translate(0 -0.03)"/><path class="cls-5" d="M108.44,38.05h.78a.76.76,0,0,0,.77-.75.77.77,0,0,0-.77-.76h-.78Zm1.91,3.29-1.9-2.83v2.83h-1.2v-6h2a2,2,0,0,1,2,1.94A1.77,1.77,0,0,1,110.12,39l1.7,2.38Z" transform="translate(0 -0.03)"/><path class="cls-5" d="M117.14,38.35a1.9,1.9,0,1,0-1.9,1.89,1.9,1.9,0,0,0,1.9-1.89m-5,0a3.12,3.12,0,1,1,3.11,3.1,3.13,3.13,0,0,1-3.11-3.1" transform="translate(0 -0.03)"/><path class="cls-5" d="M119.09,39.13V35.35h1.21v3.77a1.1,1.1,0,0,0,1.09,1.13,1.12,1.12,0,0,0,1.11-1.13V35.35h1.21v3.78a2.31,2.31,0,1,1-4.62,0" transform="translate(0 -0.03)"/><path class="cls-5" d="M127.7,37.37a.87.87,0,0,0-.91-.82h-.9V38.2h.9a.88.88,0,0,0,.91-.84m-3-2h2.1a2,2,0,1,1,0,4h-.9v2h-1.2Z" transform="translate(0 -0.03)"/></g></g><polygon class="cls-5" points="0 0 0 7.67 6.75 7.67 6.75 30.91 14.22 30.91 14.22 7.67 23.54 7.67 20.95 0 0 0"/></g></g></g></svg>