<svg xmlns="http://www.w3.org/2000/svg" xmlns:xlink="http://www.w3.org/1999/xlink" version="1.1" id="layer" x="0px" y="0px" style="enable-background:new 0 0 652 652;" xml:space="preserve" viewBox="20 257 600 129.4">
<path d="M539.4,384.2H525l65.4-95.3h25.1l-64.4,95.3H539.4z M529.5,288.9h25.1l12.9,19l-12.7,18.7  C554.8,326.5,529.5,288.9,529.5,288.9z M494,371.8c-9.1,10.3-18.2,14.6-31.7,14.6c-27.9,0-48.1-20.8-48.1-49.5  c0-29.1,20.4-50.3,48.5-50.3c13.8,0,23.2,4.5,31.2,14.9v-12.7h21v95.3h-21C494,384.2,494,371.8,494,371.8z M465.2,307.6  c-16.4,0-27.9,12.4-27.9,29.8c0,16.7,11.5,28,28.2,28c17.4,0,27.7-12.4,27.7-28.2C493.3,319.8,481.6,307.6,465.2,307.6z M384,333.3  l-0.2,7.5v43.4h-22.9v-95.3h21v15.7c0.2,0,0.6-3.1,1.5-4.6c0.9-1.9,2.6-4.3,4.8-6c5.5-4.5,11.3-5.1,18.7-5.1h1.7v21.7  C394.8,310.8,384,318.6,384,333.3z M311.5,384.2h-22.9v-73.7H271v-21.6h17.5V257h22.9v31.9h41.1v21.6h-41.1V384.2z M238.3,333.3  l-0.1,7.5v43.4h-22.9v-95.3h21v15.7c0.2,0,0.7-3.1,1.5-4.6c1-1.9,2.6-4.3,4.8-6c5.6-4.5,11.3-5.2,18.7-5.2h1.8v21.7  C249,310.7,238.3,318.5,238.3,333.3z M150.4,386.4c-27.9,0-50.6-22.4-50.6-49.9c0-27.4,22.7-49.9,50.4-49.9c28.8,0,51,22.2,51,50.6  C201.1,364.1,178.1,386.4,150.4,386.4z M150.4,307.6c-14.9,0-27.5,12.9-27.5,28.5c0,16.4,12.2,29.2,27.7,29.2  c15.2,0,27.5-12.9,27.5-28.9C178.1,320.7,165.7,307.6,150.4,307.6z M57.6,363.7h35.1v20.5H41.8L57.6,363.7z M20,384.2v-20.5  l57.7-74.8h11.7v20.5l-57.6,74.8C31.8,384.2,20,384.2,20,384.2z M22.4,309.3v-20.5h45.2l-15.9,20.5H22.4z M620,384.2h-26.2  l-16.7-24.4l12.9-19.2L620,384.2z"/>
</svg>