<svg id="Group_890" data-name="Group 890" xmlns="http://www.w3.org/2000/svg" xmlns:xlink="http://www.w3.org/1999/xlink" width="508.686" height="523.206" viewBox="0 0 508.686 523.206">
  <defs>
    <clipPath id="clip-path">
      <rect id="Rectangle_878" data-name="Rectangle 878" width="508.686" height="523.206" fill="none"/>
    </clipPath>
    <clipPath id="clip-path-3">
      <rect id="Rectangle_875" data-name="Rectangle 875" width="80.56" height="25.504" fill="none"/>
    </clipPath>
    <clipPath id="clip-path-4">
      <rect id="Rectangle_876" data-name="Rectangle 876" width="151.427" height="167.758" fill="none"/>
    </clipPath>
  </defs>
  <g id="Group_889" data-name="Group 889" clip-path="url(#clip-path)">
    <path id="Path_7669" data-name="Path 7669" d="M183.058,651.273,220.1,624.337,88.251,592.788,81.8,642.618,165.649,662.7Z" transform="translate(-20.261 -146.837)" fill="#e4e6f2"/>
    <g id="Group_888" data-name="Group 888">
      <g id="Group_887" data-name="Group 887" clip-path="url(#clip-path)">
        <path id="Path_7670" data-name="Path 7670" d="M45.509,305.526S-37.5,241.332,20.7,159.9c55.345-77.445,132.365-30.879,218.4-71.648C271.4,72.948,305.166-29,410.091,8.058S488.16,149.594,484.735,179.82c-10.208,90.082,58.489,123.051.238,199.954C448.256,428.249,252.28,497.28,45.509,305.526" transform="translate(0 0)" fill="#f3f4fa"/>
        <path id="Path_7671" data-name="Path 7671" d="M410.44,104.417c-8.848,18.673-1.1,34.274-32.75,64.228-12.046,11.4-19.988,33.549-25.211,56.609l28.2,67.8c30.035-21.734,62.771-66.705,59.416-89.764-3.372-23.174,5.153-39.188,22.217-58.446,31.04-35.031,6.656-95.046,6.656-95.046S424.86,73.988,410.44,104.417" transform="translate(-87.311 -12.336)" fill="#bbcaf2"/>
        <path id="Path_7672" data-name="Path 7672" d="M451.666,108.847a1.113,1.113,0,0,0-1.628.34c-30.331,54.705-56.846,104.625-79.159,163.916l1.4,3.361c22.443-60.162,49.2-110.569,79.863-165.876a1.355,1.355,0,0,0-.473-1.741" transform="translate(-91.869 -26.909)" fill="#738bc9"/>
        <path id="Path_7673" data-name="Path 7673" d="M409.256,276c-8.832,9.963-19.125,28.345-28.347,47.159l23.985,57.657c48.436-22.06,86.855-102.6,86.855-102.6,53.007,27.981,73.842-16.229,73.842-16.229C460.466,199.6,409.256,276,409.256,276" transform="translate(-94.354 -58.825)" fill="#9bb3f0"/>
        <path id="Path_7674" data-name="Path 7674" d="M509.815,261.3a195.09,195.09,0,0,0-67.785,27.229c-19.482,12.706-34.758,28.389-45.406,46.615a126.164,126.164,0,0,0-5.963,11.544l1.388,3.337c12.313-28.339,32.786-47.2,51.315-59.293a192.857,192.857,0,0,1,67.014-26.951,1.132,1.132,0,0,0,.884-1.424,1.332,1.332,0,0,0-1.446-1.058" transform="translate(-96.769 -64.723)" fill="#7f9be3"/>
        <path id="Path_7675" data-name="Path 7675" d="M100.142,189.735a8.212,8.212,0,1,1-8.211-8.211A8.211,8.211,0,0,1,100.142,189.735Z" transform="translate(-20.738 -44.965)" fill="none" stroke="#272b47" stroke-linecap="round" stroke-linejoin="round" stroke-width="2.13"/>
        <path id="Path_7676" data-name="Path 7676" d="M614.428,420.768a8.212,8.212,0,1,1-8.211-8.211A8.211,8.211,0,0,1,614.428,420.768Z" transform="translate(-148.13 -102.193)" fill="none" stroke="#272b47" stroke-linecap="round" stroke-linejoin="round" stroke-width="2.13"/>
        <path id="Path_7677" data-name="Path 7677" d="M317.461,634.647,162.823,599.71c-4.395-.993-4.259-4.39.3-7.549l50.854-35.221c4.561-3.159,11.888-4.931,16.283-3.938L384.9,587.938c4.395.993,4.259,4.39-.3,7.549l-50.854,35.221c-4.561,3.159-11.888,4.931-16.283,3.938" transform="translate(-39.537 -136.914)" fill="#e4e6f2"/>
        <path id="Path_7678" data-name="Path 7678" d="M381.434,207.574a23.847,23.847,0,0,0-3.876-14.825l-.047-.07c-2.554-3.923-6.082-6.824-10.276-7.824L223.87,150.679a12.387,12.387,0,0,0-9.9,1.717l-9.339,6.622L186.7,436.962a.692.692,0,0,0,.041.366c-.716,10.321,5.6,20.313,14.157,22.353L348.032,495l4.514-3.2c5.11-3.824,8.25-7.467,8.758-14.285Z" transform="translate(-46.242 -37.233)" fill="#89a1de"/>
        <path id="Path_7679" data-name="Path 7679" d="M269.721,273.058s-89.035,177.1-87.975,166.477l23.3-283,7.519-4.727a12.477,12.477,0,0,1,10.022-1.791L366.071,184.6a17.079,17.079,0,0,1,10.267,8Z" transform="translate(-45.017 -37.07)" fill="#a2b6eb"/>
        <path id="Path_7680" data-name="Path 7680" d="M336.536,499.43l-143-31.744c-8.587-1.9-14.557-11.949-13.784-22.326l20.225-271.584c.773-10.376,8.172-17.2,16.76-15.3l142.918,31.769c8.588,1.895,14.475,11.973,13.7,22.35L353.13,484.176c-.773,10.376-8.007,17.149-16.595,15.254" transform="translate(-44.509 -39.177)" fill="#fff"/>
        <path id="Path_7681" data-name="Path 7681" d="M334.317,498.839l-143-34.275c-8.587-2.048-14.557-12.207-13.784-22.57l20.225-271.226c.773-10.363,8.172-17.052,16.76-15.005l142.918,34.3c8.588,2.047,14.475,12.23,13.7,22.592L350.911,483.88c-.773,10.362-8.007,17.006-16.595,14.959" transform="translate(-43.959 -38.492)" fill="#36518a"/>
        <path id="Path_7682" data-name="Path 7682" d="M362.56,213.437a2.78,2.78,0,0,0-2.218-3.087L217.21,176.23c-3.207-.764-7.529,2.469-7.779,5.821L191.9,417.164h0l-2.027,27.184a2.78,2.78,0,0,0,2.218,3.087l143.132,34.12c3.208.765,7.53-2.469,7.779-5.821l17.532-235.113h0Z" transform="translate(-47.03 -43.625)" fill="#c2d0f5"/>
        <path id="Path_7683" data-name="Path 7683" d="M345.291,45.4,327.109,58.448,324.044,33.32Z" transform="translate(-80.268 -8.254)" fill="none" stroke="#272b47" stroke-linecap="round" stroke-linejoin="round" stroke-width="2.221"/>
        <path id="Path_7684" data-name="Path 7684" d="M411.371,421.424h0a2.5,2.5,0,0,0,.928,3.333l4.434.639c1.081.45.366.029.936-1.359s1.669-1.131-.2-2.457l-3.084-1.2a3.77,3.77,0,0,0-1.256-.27c-.8-.022-1.307.22-1.754,1.309" transform="translate(-101.836 -104.065)" fill="#de5840"/>
        <path id="Path_7685" data-name="Path 7685" d="M464.768,426.611l-21.978,6.1-22.351-9.944-2.2,4.351s15.875,16.64,21.7,18.1c.859.214,19.375-2.69,19.375-2.69Z" transform="translate(-103.599 -104.723)" fill="#7588ff"/>
        <g id="Group_883" data-name="Group 883" transform="translate(328.469 477.135)" opacity="0.3" style="mix-blend-mode: multiply;isolation: isolate">
          <g id="Group_882" data-name="Group 882">
            <g id="Group_881" data-name="Group 881" clip-path="url(#clip-path-3)">
              <path id="Path_7686" data-name="Path 7686" d="M510.43,638.819c-9.956-5.406-27.286-6.129-38.708-1.615a23.909,23.909,0,0,0-4.942,2.59c-7.075-2.323-16.779-2.274-23.545.4-8.026,3.172-8.861,8.822-1.866,12.62,6.722,3.65,18.221,4.252,26.232,1.479.46.3.943.588,1.465.872,9.956,5.405,27.286,6.129,38.708,1.615s12.612-12.555,2.656-17.961" transform="translate(-436.624 -634.24)" fill="#8288d4"/>
            </g>
          </g>
        </g>
        <path id="Path_7687" data-name="Path 7687" d="M455.45,640.559l7.266-7.1a7.151,7.151,0,0,1,5.213-2.073,11.479,11.479,0,0,1,2.03.243,1.5,1.5,0,0,1,1.293,1.576l.116,1.531c.111,2.563.393,3.419-1.347,4.167l-10.337,4.439c-2.155,1.4-7.924.347-4.235-2.78" transform="translate(-112.52 -156.397)" fill="#4e3f5e"/>
        <path id="Path_7688" data-name="Path 7688" d="M473.451,601.707a3.408,3.408,0,0,1-3.522,2.894c-.833-.092-1.407-.583-1.523-2.153.287-17.607-1.4-32.288-1.14-48.746.29-18.479.778-13.03,1.265-41.357l16.912-3.458c-3.652,20.419-5.419,46.169-5.419,46.169,4.414,18.938-2.61,24.565-6.573,46.651" transform="translate(-115.738 -126.055)" fill="#de5840"/>
        <path id="Path_7689" data-name="Path 7689" d="M486.514,496.928,480.729,540.2a36.707,36.707,0,0,0,.1,12.971c1.222,6.838.333,20.558-5.7,40.422-2.707,2.1-5.517,2.039-8.411.127,0,0-2.228-44.3-2.13-52.836s2.449-54.514,2.449-54.514Z" transform="translate(-115.08 -120.476)" fill="#24386b"/>
        <path id="Path_7690" data-name="Path 7690" d="M514.038,641l.141,5.571a27.831,27.831,0,0,0,.937,4.187,3.762,3.762,0,0,0,3.264,2.186c1.621.081,4.874-2.648,3.7-5.96-1.019-2.886-3.052-7.486-3.052-7.486-2.285,1.015-3.343,1.478-4.994,1.5" transform="translate(-127.33 -158.408)" fill="#4e3f5e"/>
        <path id="Path_7691" data-name="Path 7691" d="M514.858,610.656c.315,2.184-3.233,3.164-4.706.964-1.714-17.468-4.838-33.287-6.451-49.615-1.811-18.333-3.463-17.231-6.2-45.338l18.509.873c-1.323,20.542-.16,46.2-.16,46.2,6.811,19.1.075,22.484-1,46.911" transform="translate(-123.235 -127.982)" fill="#de5840"/>
        <path id="Path_7692" data-name="Path 7692" d="M513.722,494.834s-2.218,37.016-1.169,45.155c.815,6.325,2.961,16.7,3.877,21.012a22.224,22.224,0,0,1,.482,4.266c.1,6.312-.648,23.653-3.013,34.275-2,2.911-6.364,2.3-9.65.591l-7.138-42.438c-.108-.5-5.9-37.467-5.9-37.467L480.85,519l6.442-24.835s27.687,3.01,26.43.672" transform="translate(-119.11 -122.407)" fill="#24386b"/>
        <path id="Path_7693" data-name="Path 7693" d="M480.319,426.324c2.319-.028,4.46-.323,5.107-.741a8.738,8.738,0,0,1,8.161-.436l11.542,3.725c10.647,3.713,9.341,14.95,9.405,21.3,0,0-3.906,7.16-4.412,13.146-.438,5.176-3.955,16.809-3.166,18.491.59,1.258.32,8.982-6.139,10.95-5.708,1.738-14.91,5.568-19.736,5.439-25.385-.68-17.976-12.535-17.175-21.1.5-5.386,2.34-21.284,2.5-25.558s2.03-24.273,10.61-24.824Z" transform="translate(-114.512 -105.11)" fill="#7588ff"/>
        <path id="Path_7694" data-name="Path 7694" d="M498.543,426.7l-.466-.494c-1.256.314-2.357.145-2.559-1.092l-1.14-6.974a2.57,2.57,0,0,1,1.918-2.82l.372-.093c1.256-.314,4.717-.142,4.919,1.095l.63,7.36c.2,1.237-2.418,2.7-3.674,3.018" transform="translate(-122.453 -102.82)" fill="#de5840"/>
        <path id="Path_7695" data-name="Path 7695" d="M495.244,423.012a7.028,7.028,0,0,0,5.013-3.3s-1.98,4.557-4.752,5.192Z" transform="translate(-122.675 -103.964)" fill="#a13844"/>
        <path id="Path_7696" data-name="Path 7696" d="M500.094,404.192c-1.086-1.879-2.778-2.219-4.365-1.152-1.534-.667-3.409.287-4.815,2.727-1.958,3.4-2.952,8.806-1.368,11.547a4.526,4.526,0,0,0,3.432,1.936,8.1,8.1,0,0,0,2.845-.98c3.464-1.286,3.517-.776,4.821-3.039,1.958-3.4,1.034-8.3-.551-11.039" transform="translate(-121.069 -99.687)" fill="#de5840"/>
        <path id="Path_7697" data-name="Path 7697" d="M500.882,405.62a73.668,73.668,0,0,1,2.532,10.225s5.344-3.631,5.08-6.563c-.879-9.772-6.717-4.6-6.717-4.6Z" transform="translate(-124.072 -99.903)" fill="#24386b"/>
        <path id="Path_7698" data-name="Path 7698" d="M499.847,400.272c2.03.506,3.247,2.048,3.857,4.732.077.342.779,1.893.8,2.182l-1.3-.393c.193,2.313-.716-1.114-3.05-.713-3.582-1.357-6.668,3.81-10.724,1.809a1.878,1.878,0,0,1-1.025-1.409,2.534,2.534,0,0,1,.893-2.431c2.553-1.974,3.846-3.038,6.622-3.743l.673-.1a8.5,8.5,0,0,1,3.255.064" transform="translate(-120.973 -99.104)" fill="#24386b"/>
        <path id="Path_7699" data-name="Path 7699" d="M492.66,420.628h0a1.811,1.811,0,0,1-1.137-2.155l2.892.637a1.605,1.605,0,0,1-1.754,1.517" transform="translate(-121.745 -103.658)" fill="#fff"/>
        <path id="Path_7700" data-name="Path 7700" d="M505,416.425a2.056,2.056,0,0,1-1.849,2.164,1.913,1.913,0,0,1-2.106-1.789,2.057,2.057,0,0,1,1.849-2.164A1.913,1.913,0,0,1,505,416.425" transform="translate(-124.111 -102.706)" fill="#de5840"/>
        <path id="Path_7701" data-name="Path 7701" d="M494.527,424.816l-2.069.6s-1.174,3.6.445,5.03l3.115-1.9s-1.8-1.824-1.491-3.733" transform="translate(-121.883 -105.23)" fill="#fff"/>
        <path id="Path_7702" data-name="Path 7702" d="M497.326,428.492l1.742,3.038s6.279-2.012,6.516-5.511l-2.755-1.435s-3.078,4.222-5.5,3.907" transform="translate(-123.191 -105.172)" fill="#fff"/>
        <path id="Path_7703" data-name="Path 7703" d="M517.679,493.372c-.293-2.926.193-17.962.63-23.138.287-3.388,1.064-13.26,1.7-18.276-2.672,4.755-4.522,6.564-4.827,7.733-2.393,9.2-3.056,14.226-7.718,19.533-8.943,10.18-11.372,15.427-20.2,25.821,17.595,1.27,23.083.141,26.862-1.989,4.694-2.645,3.7-8.185,3.55-9.683" transform="translate(-120.699 -111.953)" fill="#6778e0"/>
        <line id="Line_60" data-name="Line 60" x1="0.867" y2="3.463" transform="translate(353.627 335.341)" fill="none" stroke="#4355c2" stroke-linecap="round" stroke-linejoin="round" stroke-width="1.468"/>
        <path id="Path_7704" data-name="Path 7704" d="M519.946,439.876s9.022,23.2,4.758,36.607-32.378,5.748-32.378,5.748l-1.975-6.34s20.548-.314,20.721-3.668c.24-4.65-3.533-28.7-3.533-28.7Z" transform="translate(-121.463 -108.96)" fill="#7588ff"/>
        <path id="Path_7705" data-name="Path 7705" d="M514.355,459.372c1.45,14.811,1.481,14.618,1.005,16.567-.44,1.805-15.384,4.457-15.384,4.457" transform="translate(-123.847 -113.789)" fill="none" stroke="#4355c2" stroke-linecap="round" stroke-linejoin="round" stroke-width="1.468"/>
        <path id="Path_7706" data-name="Path 7706" d="M465.975,491.251l13.272,2.281c2.595.446,4.211-1.048,3.593-3.319l-5.593-20.538a7.8,7.8,0,0,0-5.842-4.941l-13.272-2.281c-2.595-.445-4.211,1.048-3.593,3.319l5.593,20.538a7.8,7.8,0,0,0,5.842,4.94" transform="translate(-112.56 -114.533)" fill="#27427a"/>
        <path id="Path_7707" data-name="Path 7707" d="M483.419,492.834h0a2.372,2.372,0,0,0,2.4,2.388l4.257-1.692c1.177-.16.34-.16.193-1.637s.955-1.812-1.344-2l-3.316.533a4.016,4.016,0,0,0-1.248.4,1.694,1.694,0,0,0-.946,2.008" transform="translate(-119.74 -121.349)" fill="#de5840"/>
        <path id="Path_7708" data-name="Path 7708" d="M329.221,470.146,212.626,442.87c-5.638-1.319-9.838-7.594-9.38-14.017l15.7-220.33c.458-6.422,5.4-10.559,11.038-9.24l116.595,27.277c5.638,1.319,9.838,7.594,9.38,14.017l-15.7,220.33c-.457,6.422-5.4,10.559-11.038,9.24" transform="translate(-50.337 -49.303)" fill="#859ffa"/>
        <path id="Path_7709" data-name="Path 7709" d="M223.065,219.806l.8-11.283c.458-6.422,5.4-10.559,11.038-9.24L351.5,226.559c5.638,1.319,9.838,7.594,9.38,14.017l-.787,11.044Z" transform="translate(-55.255 -49.303)" fill="#5576eb"/>
        <path id="Path_7710" data-name="Path 7710" d="M332.244,359.662,234.21,336.023c-5.09-1.227-8.921-6.653-8.514-12.056l3.961-52.583c.407-5.4,4.9-8.822,9.994-7.594l98.034,23.638c5.09,1.228,8.921,6.653,8.514,12.057l-3.961,52.583c-.407,5.4-4.9,8.821-9.994,7.594" transform="translate(-55.899 -65.281)" fill="#d1deff"/>
        <path id="Path_7711" data-name="Path 7711" d="M321.366,494.1l-98.034-23.638c-5.09-1.228-8.921-6.653-8.514-12.058l3.96-52.582c.407-5.4,4.9-8.822,9.994-7.594l98.034,23.638c5.09,1.228,8.921,6.653,8.514,12.057l-3.961,52.583c-.407,5.4-4.9,8.821-9.994,7.594" transform="translate(-53.204 -98.583)" fill="#d1deff"/>
        <path id="Path_7712" data-name="Path 7712" d="M246.65,215.965a2.962,2.962,0,0,1-3.476,3.045,4.221,4.221,0,0,1-3.476-4.071,2.963,2.963,0,0,1,3.476-3.046,4.223,4.223,0,0,1,3.476,4.072" transform="translate(-59.374 -52.478)" fill="#f3f4fa"/>
        <path id="Path_7713" data-name="Path 7713" d="M260.513,219.035a2.962,2.962,0,0,1-3.476,3.045,4.221,4.221,0,0,1-3.476-4.071,2.963,2.963,0,0,1,3.476-3.046,4.222,4.222,0,0,1,3.476,4.072" transform="translate(-62.808 -53.238)" fill="#f3f4fa"/>
        <path id="Path_7714" data-name="Path 7714" d="M274.668,222.4a2.963,2.963,0,0,1-3.476,3.046,4.222,4.222,0,0,1-3.476-4.072,2.963,2.963,0,0,1,3.476-3.046,4.222,4.222,0,0,1,3.476,4.072" transform="translate(-66.315 -54.072)" fill="#f3f4fa"/>
        <path id="Path_7715" data-name="Path 7715" d="M268.05,339.911l-22.87-5.784,2.187-33.09,22.87,5.784Z" transform="translate(-60.732 -74.569)" fill="#fff"/>
        <path id="Path_7716" data-name="Path 7716" d="M309.926,347.624l-22.87-5.784,2.765-41.834,22.87,5.784Z" transform="translate(-71.105 -74.313)" fill="#fff"/>
        <path id="Path_7717" data-name="Path 7717" d="M351.546,356.256l-22.87-5.784,3.145-47.588,22.87,5.784Z" transform="translate(-81.415 -75.026)" fill="#fff"/>
        <path id="Path_7718" data-name="Path 7718" d="M346.26,461.135l5.415.87-2.348,4.865" transform="translate(-85.771 -114.226)" fill="none" stroke="#fff" stroke-linecap="round" stroke-linejoin="round" stroke-width="2.908"/>
        <path id="Path_7719" data-name="Path 7719" d="M255.407,472.508l26.438-15.186,14.894,23.537,31.671-19.492" transform="translate(-63.266 -113.282)" fill="none" stroke="#fff" stroke-linecap="round" stroke-linejoin="round" stroke-width="2.908"/>
        <g id="Group_886" data-name="Group 886" transform="translate(55.665 214.736)" opacity="0.8">
          <g id="Group_885" data-name="Group 885">
            <g id="Group_884" data-name="Group 884" clip-path="url(#clip-path-4)">
              <path id="Path_7720" data-name="Path 7720" d="M221.941,358.639c15,52.506-20.9,87.978-61.478,93.87s-78.855-26.582-85.484-72.532,20.9-87.978,61.479-93.87,72.8,28.139,85.483,72.533" transform="translate(-73.994 -285.442)" fill="#fff"/>
            </g>
          </g>
        </g>
        <path id="Path_7721" data-name="Path 7721" d="M280.438,532.272,266.685,552.83l-38.3-60.367,17.225-15.085Z" transform="translate(-56.573 -118.249)" fill="#24386b"/>
        <path id="Path_7722" data-name="Path 7722" d="M357.289,626.047l.22-.144L346.447,609.2l.023-.016-47.219-71.312,0,0c-1.383-3.094-5.435-4.485-11.542-3.329-10.637,2.013-23.433,10.963-28.581,19.99-2.665,4.672-2.74,8.436-.735,10.713l-.005,0,11.046,16.718-.006,0,46.855,70.916.434-.284c.4,2.692,3.557,3.687,9.1,2.27,9.486-2.425,22.352-10.99,28.737-19.132,3.536-4.509,4.338-7.938,2.744-9.693" transform="translate(-63.659 -132.309)" fill="#8197d1"/>
        <path id="Path_7723" data-name="Path 7723" d="M170.088,285.076c-41.783-15.987-83.4,8.874-92.948,55.529S93.716,438.04,135.5,454.027s83.4-8.875,92.948-55.53-16.577-97.435-58.359-113.421m53.255,109.366c-8.113,39.629-49.749,60.441-85.239,46.862s-57.684-56.711-49.57-96.339,46.186-66.374,81.676-52.8,61.247,62.644,53.134,102.273" transform="translate(-18.62 -69.415)" fill="#24386b"/>
        <path id="Path_7724" data-name="Path 7724" d="M258.541,365.2c.016-1,.025-2,.011-3,0-.178-.014-.356-.017-.534-.009-.475-.029-.949-.046-1.424-.019-.577-.026-1.155-.056-1.732-.016-.32-.047-.639-.065-.959-.031-.514-.067-1.026-.105-1.539-.03-.395-.047-.791-.081-1.186-.041-.474-.1-.945-.148-1.418-.051-.512-.1-1.024-.161-1.535-.029-.252-.048-.506-.079-.758-.082-.671-.187-1.338-.282-2.007-.062-.433-.116-.867-.183-1.3-.019-.122-.032-.245-.051-.367q-.284-1.793-.63-3.575c0-.014-.006-.028-.009-.042-.021-.108-.047-.215-.068-.323-.208-1.05-.425-2.1-.664-3.14-.038-.164-.082-.327-.12-.491-.092-.394-.193-.785-.29-1.179-.138-.56-.267-1.122-.414-1.679-.093-.357-.2-.709-.3-1.064q-.177-.648-.362-1.294c-.091-.315-.172-.633-.266-.947-.187-.628-.391-1.25-.59-1.874-.1-.333-.2-.667-.313-1-.039-.118-.073-.237-.111-.355q-.543-1.635-1.136-3.251c-.017-.046-.036-.091-.053-.137-.114-.309-.24-.614-.357-.922-.314-.828-.625-1.657-.959-2.475-.053-.129-.112-.254-.165-.383-.278-.673-.573-1.337-.864-2-.232-.534-.451-1.076-.692-1.606-.044-.1-.1-.188-.14-.284q-1.183-2.576-2.5-5.078c-.074-.141-.136-.289-.211-.43-.223-.422-.467-.831-.7-1.25-.374-.682-.747-1.364-1.134-2.037-.344-.6-.7-1.183-1.053-1.772-.4-.661-.8-1.321-1.21-1.973-.136-.214-.262-.436-.4-.649-.329-.512-.675-1.012-1.013-1.517-.231-.346-.458-.7-.694-1.04q-1.107-1.616-2.269-3.188l-.02-.029h0c-.007-.009-.014-.017-.02-.026q-1.33-1.787-2.737-3.507c-.041-.05-.08-.1-.121-.155-.683-.834-1.386-1.649-2.094-2.459-.142-.163-.278-.332-.421-.495l-.025-.029q-1.266-1.427-2.584-2.8c-.044-.045-.09-.088-.133-.133-.269-.278-.547-.545-.819-.821-.558-.566-1.113-1.137-1.684-1.689-.108-.1-.221-.2-.329-.3-.387-.37-.785-.727-1.179-1.09-.435-.4-.861-.813-1.3-1.206-.163-.145-.335-.28-.5-.424-.431-.378-.87-.744-1.307-1.113-.377-.317-.745-.647-1.126-.958-.216-.176-.44-.339-.657-.512-.475-.38-.956-.751-1.438-1.12-.334-.257-.661-.527-1-.778-.265-.2-.539-.378-.806-.572q-.73-.53-1.47-1.044c-.3-.208-.591-.43-.893-.633-.325-.22-.662-.424-.99-.639q-.729-.48-1.464-.945c-.254-.159-.5-.33-.755-.487-.414-.254-.84-.487-1.258-.734-.46-.272-.92-.546-1.386-.809-.187-.106-.369-.221-.557-.326-.566-.314-1.146-.6-1.72-.9-.394-.207-.783-.421-1.18-.621-.1-.051-.2-.108-.3-.16q-1.564-.779-3.161-1.49l-.028-.012c-.077-.034-.158-.064-.236-.1-.963-.425-1.934-.837-2.916-1.223q-.37-.147-.743-.289-1.207-.462-2.414-.878c-.306-.106-.612-.194-.918-.3q-.625-.207-1.25-.4c-.323-.1-.645-.215-.968-.311-.518-.154-1.036-.284-1.554-.425-.372-.1-.744-.21-1.115-.305-.153-.039-.305-.087-.458-.126q-1.558-.391-3.111-.706l-.017,0q-1.585-.323-3.164-.57c-.138-.021-.274-.034-.411-.055-.382-.057-.762-.1-1.144-.152-.541-.072-1.083-.156-1.623-.216-.269-.029-.537-.042-.806-.068-.472-.046-.942-.084-1.413-.12-.363-.028-.729-.071-1.091-.092-.381-.023-.758-.024-1.139-.04-.475-.021-.951-.041-1.425-.05-.251-.006-.5-.024-.753-.027-.448,0-.89.018-1.336.023-.554.005-1.108.008-1.659.028-.194.007-.39,0-.585.01-.46.02-.913.069-1.37.1-.6.039-1.191.075-1.783.129-.175.016-.351.02-.526.038-.406.041-.8.111-1.209.159-.711.086-1.421.172-2.126.281-.2.031-.4.047-.6.079q-1.177.193-2.34.43c-.1.02-.2.044-.3.065-.591.122-1.18.246-1.765.384-.372.088-.74.192-1.111.287-.279.071-.559.141-.837.215-1.016.275-2.028.566-3.028.889-.032.01-.062.023-.093.033-.272.089-.539.193-.81.285-.835.284-1.668.576-2.49.894-.4.156-.8.328-1.193.491-.527.217-1.061.421-1.583.651-.132.059-.26.129-.391.189-.8.362-1.6.752-2.386,1.147-.385.193-.776.372-1.157.573-1.162.61-2.31,1.251-3.436,1.933l-18.432,11.156c1.127-.682,2.275-1.323,3.437-1.933.381-.2.771-.379,1.156-.571.79-.4,1.583-.787,2.389-1.15.651-.293,1.31-.566,1.97-.838.4-.163.794-.336,1.2-.492.822-.318,1.654-.609,2.49-.894.271-.093.537-.2.809-.286,1.03-.335,2.072-.638,3.12-.921.28-.076.561-.146.843-.217.951-.243,1.907-.471,2.872-.67.1-.02.2-.045.3-.065.971-.2,1.952-.357,2.936-.508.706-.108,1.417-.2,2.129-.281.576-.068,1.151-.143,1.73-.2s1.189-.09,1.785-.129c.65-.042,1.3-.086,1.955-.109.549-.019,1.1-.022,1.653-.027.7-.008,1.4-.011,2.1,0,.472.011.946.03,1.42.05q1.113.049,2.232.133c.471.035.943.074,1.415.12.806.078,1.614.175,2.424.284.383.051.765.095,1.149.153,1.189.179,2.38.381,3.574.624l.01,0h.008c1.188.242,2.378.525,3.57.832.37.095.741.2,1.111.3.842.231,1.684.475,2.527.738q.622.194,1.245.4c1.111.368,2.222.749,3.334,1.174,1.239.474,2.462.983,3.673,1.517.073.032.148.06.22.092,1.18.525,2.343,1.083,3.5,1.663.394.2.781.412,1.172.617.767.4,1.532.809,2.285,1.235.464.262.922.535,1.38.806.678.4,1.352.8,2.018,1.224.49.308.976.624,1.461.943q.95.624,1.884,1.274.739.515,1.47,1.044.912.662,1.805,1.35c.481.369.961.74,1.436,1.119.6.481,1.193.973,1.783,1.469.439.37.879.739,1.313,1.117.606.53,1.2,1.076,1.794,1.623.395.364.794.724,1.184,1.1.682.651,1.35,1.32,2.013,1.992.272.275.551.542.819.822q1.4,1.452,2.743,2.965c.138.156.269.321.408.479.755.864,1.5,1.736,2.228,2.628q1.389,1.705,2.711,3.475c.016.02.032.04.047.061l.006.008c.782,1.051,1.539,2.123,2.282,3.206.236.344.463.694.7,1.042q.718,1.073,1.41,2.165c.412.651.811,1.31,1.21,1.971.355.591.711,1.18,1.055,1.777.386.671.758,1.35,1.131,2.03.306.56.614,1.119.91,1.684q1.311,2.5,2.5,5.077c.287.625.557,1.259.833,1.891.29.667.587,1.332.864,2,.387.941.756,1.89,1.118,2.843.119.314.247.624.363.939q.684,1.855,1.3,3.74c.108.331.208.665.314,1q.446,1.4.855,2.822c.124.43.244.861.363,1.294q.373,1.365.711,2.743c.1.393.2.785.29,1.179q.425,1.818.789,3.652c.02.1.044.2.063.3.257,1.323.484,2.653.691,3.986.067.434.121.87.183,1.305.131.917.254,1.835.36,2.756.059.515.11,1.03.162,1.545q.13,1.3.229,2.594c.038.514.074,1.028.105,1.543.053.9.092,1.8.122,2.7.016.472.037.943.046,1.415q.034,1.767.006,3.537c0,.172,0,.345,0,.518-.028,1.351-.088,2.7-.171,4.054-.024.385-.059.77-.087,1.154-.071.97-.154,1.941-.254,2.911-.048.468-.1.936-.157,1.4-.108.921-.232,1.841-.367,2.76-.066.446-.128.891-.2,1.337-.211,1.312-.442,2.622-.709,3.929-.281,1.371-.594,2.721-.93,4.054-.1.379-.2.749-.3,1.125-.243.917-.493,1.829-.763,2.727-.155.521-.322,1.034-.486,1.548-.244.764-.493,1.523-.755,2.273-.193.553-.393,1.1-.6,1.645q-.387,1.04-.8,2.061-.369.919-.758,1.821-.4.925-.815,1.831-.49,1.066-1.006,2.108c-.269.543-.54,1.085-.82,1.619-.438.838-.894,1.66-1.357,2.474-.29.51-.573,1.028-.873,1.529-.151.252-.305.5-.459.75q-.785,1.277-1.611,2.512c-.108.161-.211.325-.32.484q-1.051,1.541-2.162,3.015l-.017.022q-1.112,1.467-2.285,2.859c-.158.188-.321.367-.481.553q-.889,1.038-1.81,2.035c-.247.266-.5.529-.746.791q-.868.908-1.763,1.779c-.227.222-.451.448-.682.667-.814.772-1.64,1.526-2.485,2.252-.119.1-.242.2-.362.3q-1.1.935-2.238,1.818c-.275.214-.554.423-.832.632q-.966.728-1.954,1.417c-.273.19-.544.384-.819.569-.915.618-1.838,1.219-2.778,1.788L222.53,434.33c.941-.569,1.864-1.171,2.778-1.789.275-.186.546-.378.818-.569q.989-.691,1.954-1.417c.278-.209.557-.418.833-.632q1.135-.882,2.238-1.818c.12-.1.242-.2.361-.3.845-.727,1.672-1.481,2.486-2.253.229-.218.454-.444.682-.666q.894-.872,1.762-1.78c.251-.262.5-.524.746-.791q.922-1,1.811-2.034c.159-.186.323-.366.48-.553.047-.056.1-.109.144-.165q1.1-1.316,2.143-2.7l.017-.021q1.043-1.378,2.031-2.818c.044-.064.086-.132.13-.2.108-.16.213-.326.321-.487q.826-1.232,1.61-2.51c.153-.25.308-.5.459-.751.112-.187.23-.368.341-.556.186-.317.351-.652.533-.973.463-.814.919-1.635,1.357-2.474.117-.223.246-.433.36-.657.16-.314.3-.645.459-.962q.516-1.043,1.007-2.108c.133-.291.281-.569.411-.861.141-.317.266-.648.4-.968q.389-.9.759-1.823c.127-.315.266-.619.39-.937.144-.369.269-.752.408-1.124.2-.545.4-1.092.6-1.645.1-.281.208-.554.3-.838.16-.471.3-.958.451-1.435.164-.515.33-1.028.486-1.549.062-.209.135-.411.2-.621.2-.692.381-1.4.567-2.1.1-.377.208-.747.3-1.126.023-.093.051-.183.074-.275q.438-1.762.812-3.567c.014-.071.029-.141.044-.211q.339-1.651.616-3.306c.035-.208.06-.416.093-.624.072-.444.134-.888.2-1.333.077-.522.165-1.044.234-1.567.052-.4.087-.8.134-1.2.056-.467.109-.934.157-1.4.032-.307.074-.614.1-.922.062-.664.1-1.329.151-1.994.028-.383.063-.765.087-1.147.008-.128.022-.257.029-.384q.1-1.8.142-3.595c0-.026,0-.052,0-.077,0-.174,0-.347,0-.52" transform="translate(-29.952 -65.643)" fill="#24386b"/>
        <path id="Path_7725" data-name="Path 7725" d="M166.454,281c-20.339-7.782-41.542-6.532-59.7,3.509-19.6,10.841-33.145,30.278-38.15,54.732-9.756,47.649,17.07,99.714,59.8,116.063a72.37,72.37,0,0,0,37.439,4.193,68.111,68.111,0,0,0,22.257-7.7c19.6-10.842,33.145-30.279,38.153-54.732,9.754-47.649-17.072-99.715-59.8-116.062m50.076,114.125c-4.406,21.517-16.328,38.619-33.57,48.159a59.943,59.943,0,0,1-19.584,6.776,63.663,63.663,0,0,1-32.941-3.689c-37.6-14.385-61.2-60.2-52.616-102.122,4.4-21.516,16.326-38.619,33.568-48.158,15.973-8.835,34.63-9.935,52.526-3.087,37.6,14.384,61.2,60.2,52.618,102.122" transform="translate(-16.498 -68.355)" fill="#7184ff"/>
        <path id="Path_7726" data-name="Path 7726" d="M160.668,326.592c-24.781-5.624-46.968,11.592-49.557,38.453l44.869,10.182Z" transform="translate(-27.523 -80.635)" fill="#e85848"/>
        <path id="Path_7727" data-name="Path 7727" d="M170.118,335.608c-.718-.163-1.433-.3-2.146-.421l-5.158,49.384L120.8,375.035c-1.921,26.258,15.767,51.713,40.01,57.214,24.62,5.587,46.663-11.517,49.235-38.2s-15.3-52.85-39.921-58.437" transform="translate(-29.886 -83.028)" fill="#7390f5"/>
        <path id="Path_7728" data-name="Path 7728" d="M353.424,646.454a56.514,56.514,0,0,0,11.763-10.715c3.536-4.508,4.338-7.939,2.744-9.693l.22-.144-11.062-16.707.023-.015-47.22-71.312,0,0c-1.383-3.095-5.435-4.485-11.542-3.33,32.887,47.646,65.4,95.023,55.078,111.914" transform="translate(-73.902 -132.309)" fill="#6d84c2"/>
        <path id="Path_7729" data-name="Path 7729" d="M72.8,529.987l18.1-10.846-25.5-6.112L47.476,523.547Z" transform="translate(-11.76 -127.08)" fill="#ff614f"/>
        <path id="Path_7730" data-name="Path 7730" d="M99.233,521.154,81.107,532l.518,92.871,17.409-11.432Z" transform="translate(-20.091 -129.093)" fill="#d95243"/>
        <path id="Path_7731" data-name="Path 7731" d="M72.87,533.438l-25.393-6.428L48,619.877l25.393,6.432Z" transform="translate(-11.76 -130.544)" fill="#f25c4b"/>
        <path id="Path_7732" data-name="Path 7732" d="M128.294,562.72l18.1-10.846-25.5-6.112L102.973,556.28Z" transform="translate(-25.507 -135.189)" fill="#a1bafc"/>
        <path id="Path_7733" data-name="Path 7733" d="M154.728,553.887,136.6,564.736l.518,78.26,17.409-11.432Z" transform="translate(-33.837 -137.201)" fill="#5068ad"/>
        <path id="Path_7734" data-name="Path 7734" d="M128.366,566.171l-25.393-6.428.261,26.218L103.491,638l25.393,6.433Z" transform="translate(-25.507 -138.652)" fill="#6484db"/>
        <path id="Path_7735" data-name="Path 7735" d="M184.261,610.872l18.1-10.846-25.5-6.112L158.94,604.432Z" transform="translate(-39.37 -147.116)" fill="#d6e1ff"/>
        <path id="Path_7736" data-name="Path 7736" d="M193.088,665,210.5,653.564l.2-51.525-18.126,10.85Z" transform="translate(-47.701 -149.129)" fill="#96a8d9"/>
        <path id="Path_7737" data-name="Path 7737" d="M184.851,666.431,159.459,660l-.518-52.1,25.393,6.428Z" transform="translate(-39.371 -150.58)" fill="#b9c5ed"/>
      </g>
    </g>
  </g>
</svg>
