<svg id="Group_906" data-name="Group 906" xmlns="http://www.w3.org/2000/svg" xmlns:xlink="http://www.w3.org/1999/xlink" width="515.351" height="516.556" viewBox="0 0 515.351 516.556">
  <defs>
    <clipPath id="clip-path">
      <rect id="Rectangle_884" data-name="Rectangle 884" width="515.351" height="516.556" fill="none"/>
    </clipPath>
    <clipPath id="clip-path-3">
      <rect id="Rectangle_879" data-name="Rectangle 879" width="167.691" height="177.95" fill="none"/>
    </clipPath>
    <clipPath id="clip-path-4">
      <rect id="Rectangle_880" data-name="Rectangle 880" width="74.714" height="23.653" fill="none"/>
    </clipPath>
    <clipPath id="clip-path-5">
      <rect id="Rectangle_881" data-name="Rectangle 881" width="124.022" height="57.825" fill="none"/>
    </clipPath>
    <clipPath id="clip-path-6">
      <rect id="Rectangle_882" data-name="Rectangle 882" width="27.244" height="88.699" fill="none"/>
    </clipPath>
  </defs>
  <g id="Group_905" data-name="Group 905" clip-path="url(#clip-path)">
    <g id="Group_904" data-name="Group 904">
      <g id="Group_903" data-name="Group 903" clip-path="url(#clip-path)">
        <path id="Path_7738" data-name="Path 7738" d="M110.565,117.425c-24.842-78.074,96.068-181.9,206.719-64.766,75.459,79.88,98.48,50.571,185.427,111.789,91.42,64.367,5.733,220.089-79.645,236.14s-310.866-.731-340-107.5c-23.559-86.324,55.341-88.177,27.5-175.667" transform="translate(-26.617 0)" fill="#e4e6f2"/>
        <path id="Path_7739" data-name="Path 7739" d="M408.482,717.249l35.432-4.685L555.4,624.437a6.764,6.764,0,0,0-2.208-11.771l-51.542-15.838Z" transform="translate(-138.315 -202.091)" fill="#dee0ec"/>
        <path id="Path_7740" data-name="Path 7740" d="M379.868,224.983c22.475,17.833,27.7,38.048,28.211,51.6,5.595-16.448,11.754-31.837,17.888-45.733C382.513,199.11,405,166.32,405,166.32c21.454,17.674,26.674,37.285,27.221,50.819.028-.062.058-.125.087-.187,8.744-18.532,17.66-35.075,25.606-48.823-39.342-40.463-10.086-69.264-10.086-69.264,19.319,23.425,19.183,45.425,16.374,58.614,8.646-14.337,15.51-24.475,18.718-29.085,16.6-44.137,54.358-45.313,54.358-45.313-10.352,42.836-35.71,47.9-48.02,47.69-2.523,3.574-9.957,14.341-19.639,30.417,34.3-17.545,60.8-.257,60.8-.257-33.662,29.8-57.645,18.427-67.255,11.211-7.772,13.486-16.46,29.648-24.987,47.729-.884,1.876-1.776,3.8-2.669,5.747,31.276-26.788,62.413-14.143,62.413-14.143-29.589,38.594-57.26,27.735-66.222,22.61-6.423,14.6-12.865,30.854-18.631,48.231,30.253-25.544,60.533-13.89,60.533-13.89-27.166,36.813-53.438,29.833-63.994,24.746-11.549,37.722-19.4,79.987-16.838,121.778a3.278,3.278,0,1,1-6.544.4c-2.639-43.045,5.511-86.485,17.428-125.112-46.194-31.251-23.788-65.258-23.788-65.258" transform="translate(-126.787 -28.132)" fill="#bbcaf2"/>
        <path id="Path_7741" data-name="Path 7741" d="M478.959,267c16.052,23.779,14.936,44.628,11.342,57.7,10.293-14,20.806-26.812,30.843-38.211-31.861-43.363-.535-67.847-.535-67.847,15.127,23.319,14.192,43.592,10.632,56.661l.139-.151c13.924-15.033,27.413-28.118,39.135-38.83-25.31-50.442,11.268-69.082,11.268-69.082,11.357,28.16,4.595,49.1-2.06,60.824,12.567-11.063,22.167-18.66,26.616-22.089,29.14-37.076,65.491-26.815,65.491-26.815-22.786,37.721-48.491,34.907-60.164,30.993-3.483,2.648-13.817,10.672-27.9,23.08,37.989-6.388,58.048,18.087,58.048,18.087-41.079,18.264-60.518.189-67.5-9.588C562.836,252.25,549.68,265.04,536.1,279.709c-1.409,1.523-2.839,3.089-4.277,4.675,37.9-16.112,63.772,5.333,63.772,5.333-39.848,27.877-62.957,9.181-69.957,1.591-10.525,11.98-21.569,25.54-32.306,40.369,36.547-15.234,61.9,5.007,61.9,5.007-37,26.909-59.945,12.332-68.477,4.3-22.385,32.484-27.8,28.644-4.793-4.592-34.621-43.724-3-69.393-3-69.393" transform="translate(-157.709 -56.63)" fill="#9bb3f0"/>
        <path id="Path_7742" data-name="Path 7742" d="M616.959,351.662c0-.019,0-.037,0-.055,0-.079,0-.157,0-.235,0-.062-.006-.123-.011-.185v-.047c-.006-.074-.013-.147-.022-.221s-.019-.147-.031-.22c0-.011,0-.021-.005-.03l-.006-.03c-.009-.051-.017-.1-.028-.152q-.022-.106-.048-.212c-.008-.033-.017-.066-.026-.1l-.012-.043c-.006-.022-.011-.045-.018-.067-.02-.07-.041-.14-.063-.209s-.044-.13-.068-.2l0-.007,0-.005c-.025-.069-.052-.138-.08-.206s-.057-.135-.087-.2c-.008-.018-.017-.035-.025-.053l-.019-.038c-.016-.036-.033-.071-.051-.107-.031-.063-.064-.126-.1-.189-.026-.047-.053-.094-.079-.141l-.011-.02-.012-.022c-.034-.059-.069-.117-.105-.175s-.071-.111-.107-.166c-.015-.024-.032-.046-.048-.069l-.021-.03-.044-.064c-.04-.057-.081-.113-.122-.169s-.085-.11-.128-.165l-.013-.015-.02-.024c-.047-.058-.094-.115-.143-.171s-.095-.1-.141-.155c-.032-.034-.062-.069-.095-.1l-.044-.049c-.08-.082-.165-.161-.249-.24-.027-.026-.053-.053-.081-.078l-.013-.013c-.108-.1-.221-.194-.336-.287l-.05-.039-.046-.035c-.04-.031-.079-.063-.121-.094-.068-.051-.137-.1-.207-.15l-.081-.055-.042-.028-.077-.052c-.068-.044-.138-.088-.208-.13-.053-.032-.107-.063-.161-.094l-.029-.017-.026-.015c-.075-.042-.151-.083-.228-.123s-.159-.081-.24-.12l-.005,0-.005,0c-.078-.037-.156-.073-.235-.107s-.167-.07-.251-.1l-.032-.012-.036-.013c-.061-.023-.122-.046-.185-.068-.083-.029-.168-.058-.253-.084l-.071-.021-.023-.008h-.007l-.151-.044c-.084-.023-.169-.045-.255-.065l-6.07-1.38-6.868,5.335s6.372,1.177,6.456,1.2.169.048.253.074.17.054.253.084.169.061.251.093l.1.042c.133.054.265.111.394.173h0c.131.062.258.129.384.2l.048.026q.18.1.352.209l.053.033c.112.072.222.146.33.224l.057.042c.107.077.211.157.312.24.052.042.1.087.153.131s.124.106.185.161.136.13.2.2c.044.043.089.085.131.128s.071.079.108.118c.063.069.128.138.188.21l.048.058c.083.1.163.2.239.3.007.008.013.017.018.025.08.108.157.218.229.329l.022.034c.07.108.137.22.2.331l.024.043q.092.166.173.335c.009.017.017.034.024.052q.079.169.148.341l.021.053q.067.174.123.35c.006.017.011.034.016.051.036.119.069.238.1.358,0,.016.007.032.011.048.027.121.051.243.07.366.01.061.019.123.026.185s.016.147.021.22.011.155.013.233,0,.156,0,.234,0,.17-.01.255q-.007.1-.018.2s-.014.132-.038.359l-2.028,18.957c-.382-.086-4.756,5.8-4.63,5.867.016.009-10.856,141.4-10.856,141.4-.068.641-2.6,5.255-1.983,4.786l6.465-6.5a7.972,7.972,0,0,0,2.392-4.666l17.243-163.693c.069-.641.172-1.605.172-1.605.007-.066.013-.132.017-.2s0-.112.007-.167l0-.01v-.022" transform="translate(-199.97 -116.425)" fill="#7b90c7"/>
        <path id="Path_7743" data-name="Path 7743" d="M486.44,316.4,238.013,259.951l-.017,0-.37-.084h0c-.281-.063-.616-.139-.655-.146-.085-.017-.171-.032-.255-.046s-.173-.026-.259-.037-.172-.02-.257-.027-.179-.014-.267-.018-.178-.007-.266-.008-.188,0-.282,0h-.044c-.081,0-.162.008-.242.015l-.122.013-.1.011-.077.008c-.1.013-.2.029-.293.046l-.024,0h0c-.116.021-.229.046-.341.073l-.038.011c-.052.013-.1.029-.153.044s-.121.032-.181.051l-.05.018c-.082.027-.162.058-.242.089-.043.017-.089.03-.131.048l-.028.014q-.238.1-.462.222l-.032.015c-.017.009-.031.022-.048.031a4.963,4.963,0,0,0-.554.358l-6.736,5.091a4.929,4.929,0,0,1,.544-.352c.073-.041.148-.079.224-.117s.18-.09.273-.131q.166-.071.337-.133c.044-.015.085-.033.13-.048q.239-.078.489-.136l.093-.02c.169-.036.341-.067.517-.09l.038,0q.278-.034.565-.042h.046c.187,0,.378,0,.57.013l.057,0c.2.015.409.038.616.071q.126.021.254.046c.065.013.131.027.2.042l1.376.312L480.619,321.7ZM235.683,260.88Z" transform="translate(-76.349 -87.896)" fill="#89a1de"/>
        <path id="Path_7744" data-name="Path 7744" d="M470.868,324.084l-250.65-56.956c-3.4-.773-6.418,1.045-6.741,4.063l-14.643,136.89c-.017.151-.021.3-.022.454L195.4,439.612c-.323,3.018,2.571,6.009,5.974,6.782l250.646,56.955c3.4.773,6.422-1.044,6.742-4.064l16.047-152.766a5.124,5.124,0,0,0,.027-.541l1.609-15.033c.323-3.019-2.172-6.089-5.574-6.862" transform="translate(-66.155 -90.391)" fill="#3a4f7a"/>
        <path id="Path_7745" data-name="Path 7745" d="M468.011,343.515,230.526,289c-3.223-.74-6.082.717-6.39,3.255l-1.957,16.157a3.52,3.52,0,0,0-.134.6l-12.8,115.838c-.308,2.538,2.6,4.887,5.822,5.626l235.62,59.1c3.223.739,6.085-.716,6.39-3.255l2.123-21.132a3.545,3.545,0,0,0,.134-.605l13.952-115.14c.308-2.538-2.054-5.193-5.277-5.933" transform="translate(-70.845 -97.794)" fill="#d1deff"/>
        <g id="Group_893" data-name="Group 893" transform="translate(190.698 204.145)" opacity="0.3" style="mix-blend-mode: multiply;isolation: isolate">
          <g id="Group_892" data-name="Group 892">
            <g id="Group_891" data-name="Group 891" clip-path="url(#clip-path-3)">
              <path id="Path_7746" data-name="Path 7746" d="M380.062,310.807c-46.1-10.681-87,19.534-91.357,67.488s29.481,95.487,75.579,106.169,87-19.535,91.356-67.488-29.481-95.488-75.579-106.169" transform="translate(-288.328 -308.66)" fill="#7d7fa6"/>
            </g>
          </g>
        </g>
        <path id="Path_7747" data-name="Path 7747" d="M389.57,597.286l-8.9,6.72-2.372-3.54-248.931-60.22c-3-.725-8.714.839-11.914,3.286L17.766,619.439l-.114-1.415L2.418,628.37l-2.276-.23.8,6.138c.351,1.3,1.446-.256,2.462-.01l258.632,64.953c3,.725,8.086-.522,11.285-2.969l112.107-85.661c1.746-1.336,3.054-3.671,2.972-4.767Z" transform="translate(-0.048 -182.871)" fill="#7b90c7"/>
        <path id="Path_7748" data-name="Path 7748" d="M129.315,540.246c-3-.725-8.714.839-11.914,3.286L17.718,619.439l-.114-1.415L2.37,628.37,0,626.231l.351,7.517c.005,1.24,1,1.708,2.02,1.953l259.614,63.521a11.063,11.063,0,0,0,4.483-.052l-6.322-62.631c1.746-1.335-130.831-96.292-130.831-96.292" transform="translate(0 -182.871)" fill="#89a1de"/>
        <path id="Path_7749" data-name="Path 7749" d="M261.189,686.894,2.148,624.228c-3-.725-2.833-3.321.366-5.767l116.814-87.622a16.247,16.247,0,0,1,11.7-2.629l256.5,62.051c3,.726,2.833,3.321-.366,5.768L272.457,683.764c-3.2,2.447-8.27,3.856-11.268,3.13" transform="translate(-0.001 -178.774)" fill="#d0dbf7"/>
        <path id="Path_7750" data-name="Path 7750" d="M206.844,556.735a2.331,2.331,0,0,1-1.667.243l-15.406-3.636c-.556-.131-.712-.453-.347-.718l10.088-7.326a2.327,2.327,0,0,1,1.669-.243l15.406,3.636c.555.131.711.452.346.718Z" transform="translate(-64.073 -184.541)" fill="#b8c4e6"/>
        <path id="Path_7751" data-name="Path 7751" d="M234.114,583.386a2.32,2.32,0,0,1-1.673.244l-15.405-3.636c-.555-.131-.706-.452-.338-.719l10.092-7.329a2.324,2.324,0,0,1,1.658-.239l15.405,3.636c.563.133.712.454.353.714Z" transform="translate(-73.307 -193.566)" fill="#b8c4e6"/>
        <path id="Path_7752" data-name="Path 7752" d="M220.7,600.438a2.318,2.318,0,0,1-1.664.239l-15.408-3.636c-.547-.129-.716-.449-.35-.715L213.369,589a2.353,2.353,0,0,1,1.661-.238l15.408,3.637c.554.13.71.454.352.713Z" transform="translate(-68.765 -199.34)" fill="#b8c4e6"/>
        <path id="Path_7753" data-name="Path 7753" d="M183.987,611.989a2.332,2.332,0,0,1-1.661.242l-15.408-3.636c-.549-.13-.7-.454-.345-.715l10.092-7.329a2.344,2.344,0,0,1,1.665-.243l15.407,3.636c.552.13.7.454.341.718Z" transform="translate(-56.337 -203.25)" fill="#b8c4e6"/>
        <path id="Path_7754" data-name="Path 7754" d="M120.154,619.041a2.328,2.328,0,0,1-1.666.241l-15.406-3.636c-.556-.131-.712-.452-.349-.716l11.848-8.6a2.352,2.352,0,0,1,1.667-.24l15.406,3.636c.555.131.7.458.348.716Z" transform="translate(-34.72 -205.206)" fill="#b8c4e6"/>
        <path id="Path_7755" data-name="Path 7755" d="M157.573,627.883a2.874,2.874,0,0,1-1.982.167l-20.185-4.763c-.722-.171-1.023-.526-.659-.79l11.848-8.6a2.9,2.9,0,0,1,1.977-.167l20.185,4.764c.732.173,1.02.532.664.79Z" transform="translate(-45.574 -207.781)" fill="#b8c4e6"/>
        <path id="Path_7756" data-name="Path 7756" d="M360.846,678.787a2.222,2.222,0,0,1-1.556.161L343.9,675.314c-.562-.133-.773-.419-.47-.639l4.381-3.181a2.25,2.25,0,0,1,1.567-.158l15.4,3.633c.554.131.757.419.458.636Z" transform="translate(-116.24 -227.297)" fill="#b8c4e6"/>
        <path id="Path_7757" data-name="Path 7757" d="M391.974,686.518a2.221,2.221,0,0,1-1.556.161l-15.395-3.633c-.562-.133-.773-.419-.47-.639l4.38-3.181a2.252,2.252,0,0,1,1.568-.158L395.9,682.7c.555.13.758.418.458.636Z" transform="translate(-126.78 -229.915)" fill="#b8c4e6"/>
        <path id="Path_7758" data-name="Path 7758" d="M424.969,694.015a2.213,2.213,0,0,1-1.538.146l-15.4-3.634c-.552-.13-.777-.411-.485-.623l4.219-3.064a2.242,2.242,0,0,1,1.542-.145l15.4,3.634c.555.131.769.412.48.622Z" transform="translate(-137.955 -232.497)" fill="#b8c4e6"/>
        <path id="Path_7759" data-name="Path 7759" d="M404.536,677.658A2.217,2.217,0,0,1,403,677.8l-15.4-3.634c-.552-.13-.778-.411-.486-.623l4.219-3.064a2.247,2.247,0,0,1,1.542-.145l15.4,3.634c.555.131.769.412.481.622Z" transform="translate(-131.036 -226.959)" fill="#b8c4e6"/>
        <path id="Path_7760" data-name="Path 7760" d="M277.11,656.07a2.344,2.344,0,0,1-1.674.239L175.181,632.649c-.547-.129-.714-.453-.35-.718l11.848-8.6a2.373,2.373,0,0,1,1.668-.24L288.6,646.748c.557.132.712.46.356.718Z" transform="translate(-59.133 -210.964)" fill="#b8c4e6"/>
        <path id="Path_7761" data-name="Path 7761" d="M158.991,629.675a.261.261,0,0,1-.16,0l-11.777-2.78c-.064-.015-.1-.042-.077-.058l.736-.534a.266.266,0,0,1,.159,0l11.777,2.779c.065.016.1.042.079.058Z" transform="translate(-49.765 -212.068)" fill="#b8c4e6"/>
        <path id="Path_7762" data-name="Path 7762" d="M116.852,618.107a.126.126,0,0,1-.091.018l-5-1.181c-.027-.006-.032-.025-.009-.042l.736-.534a.129.129,0,0,1,.091-.018l5,1.181c.028.007.032.026.01.042Z" transform="translate(-37.835 -208.701)" fill="#b8c4e6"/>
        <path id="Path_7763" data-name="Path 7763" d="M215.916,619.512a2.336,2.336,0,0,1-1.668.24l-15.405-3.636c-.546-.129-.71-.454-.35-.716l10.091-7.329a2.365,2.365,0,0,1,1.671-.242l15.405,3.636c.558.132.709.456.347.719Z" transform="translate(-67.146 -205.797)" fill="#b8c4e6"/>
        <path id="Path_7764" data-name="Path 7764" d="M247.99,627.082a2.34,2.34,0,0,1-1.661.242l-15.4-3.636c-.553-.13-.712-.455-.352-.717l10.091-7.328a2.353,2.353,0,0,1,1.672-.242l15.4,3.635c.547.13.7.454.341.718Z" transform="translate(-78.009 -208.361)" fill="#b8c4e6"/>
        <path id="Path_7765" data-name="Path 7765" d="M280.066,634.651a2.333,2.333,0,0,1-1.661.242L263,631.257c-.55-.13-.7-.453-.343-.715l10.091-7.328a2.334,2.334,0,0,1,1.664-.244l15.408,3.636c.55.13.7.454.34.718Z" transform="translate(-88.871 -210.924)" fill="#b8c4e6"/>
        <path id="Path_7766" data-name="Path 7766" d="M312.138,642.221a2.328,2.328,0,0,1-1.662.241l-15.408-3.636c-.557-.131-.71-.454-.35-.716l10.091-7.328a2.339,2.339,0,0,1,1.671-.243l15.408,3.636c.554.131.7.454.341.717Z" transform="translate(-99.728 -213.487)" fill="#b8c4e6"/>
        <path id="Path_7767" data-name="Path 7767" d="M344.217,649.791a2.352,2.352,0,0,1-1.673.239l-15.4-3.635c-.55-.13-.7-.453-.343-.714l10.091-7.329a2.338,2.338,0,0,1,1.663-.244l15.4,3.635c.557.132.715.457.353.72Z" transform="translate(-110.59 -216.05)" fill="#b8c4e6"/>
        <path id="Path_7768" data-name="Path 7768" d="M376.294,657.349a2.341,2.341,0,0,1-1.665.241l-15.4-3.635c-.555-.131-.71-.455-.35-.716l10.091-7.329a2.348,2.348,0,0,1,1.671-.243l15.4,3.636c.553.13.707.455.345.718Z" transform="translate(-121.452 -218.609)" fill="#b8c4e6"/>
        <path id="Path_7769" data-name="Path 7769" d="M434.937,671.189a2.336,2.336,0,0,1-1.665.241L391.3,661.524c-.555-.131-.708-.454-.349-.716l10.092-7.328a2.337,2.337,0,0,1,1.668-.243l41.974,9.906c.554.131.706.455.345.718Z" transform="translate(-132.313 -221.172)" fill="#b8c4e6"/>
        <path id="Path_7770" data-name="Path 7770" d="M252.621,607.959a2.292,2.292,0,0,1-1.657.241l-15.408-3.636c-.554-.131-.712-.448-.347-.714l10.093-7.33a2.327,2.327,0,0,1,1.658-.239l15.408,3.636c.558.132.7.452.345.712Z" transform="translate(-79.577 -201.887)" fill="#b8c4e6"/>
        <path id="Path_7771" data-name="Path 7771" d="M284.7,615.529a2.32,2.32,0,0,1-1.66.241l-15.414-3.638c-.548-.13-.707-.448-.341-.713l10.093-7.33a2.332,2.332,0,0,1,1.653-.24l15.414,3.638c.549.13.706.453.348.712Z" transform="translate(-90.438 -204.45)" fill="#b8c4e6"/>
        <path id="Path_7772" data-name="Path 7772" d="M316.773,623.1a2.324,2.324,0,0,1-1.664.239L299.7,619.7c-.546-.128-.719-.45-.353-.716l10.094-7.33a2.364,2.364,0,0,1,1.665-.237l15.405,3.636c.55.13.71.454.353.713Z" transform="translate(-101.297 -207.013)" fill="#b8c4e6"/>
        <path id="Path_7773" data-name="Path 7773" d="M348.845,630.669a2.315,2.315,0,0,1-1.661.24l-15.4-3.635c-.555-.131-.715-.449-.349-.715l10.093-7.33a2.335,2.335,0,0,1,1.661-.238l15.4,3.636c.553.13.707.453.349.712Z" transform="translate(-112.159 -209.577)" fill="#b8c4e6"/>
        <path id="Path_7774" data-name="Path 7774" d="M380.93,638.228a2.316,2.316,0,0,1-1.661.24l-15.412-3.637c-.555-.131-.71-.448-.345-.714l10.093-7.33a2.32,2.32,0,0,1,1.657-.239l15.412,3.638c.55.13.707.453.35.712Z" transform="translate(-123.021 -212.135)" fill="#b8c4e6"/>
        <path id="Path_7775" data-name="Path 7775" d="M413,645.8a2.309,2.309,0,0,1-1.659.241l-15.4-3.634c-.56-.132-.72-.45-.354-.716l10.093-7.33a2.338,2.338,0,0,1,1.667-.237l15.4,3.634c.552.131.7.453.347.712Z" transform="translate(-133.881 -214.699)" fill="#b8c4e6"/>
        <path id="Path_7776" data-name="Path 7776" d="M445.072,653.366a2.314,2.314,0,0,1-1.659.241L428,649.969c-.55-.13-.706-.446-.341-.712l10.094-7.33a2.321,2.321,0,0,1,1.652-.24l15.412,3.637c.55.13.705.453.347.712Z" transform="translate(-144.742 -217.262)" fill="#b8c4e6"/>
        <path id="Path_7777" data-name="Path 7777" d="M266.042,590.908a2.329,2.329,0,0,1-1.671.245l-15.406-3.636c-.548-.129-.7-.45-.335-.718l10.092-7.329a2.332,2.332,0,0,1,1.655-.241l15.406,3.636c.556.131.71.453.351.714Z" transform="translate(-84.121 -196.113)" fill="#b8c4e6"/>
        <path id="Path_7778" data-name="Path 7778" d="M298.109,598.476a2.327,2.327,0,0,1-1.665.246l-15.406-3.636c-.554-.13-.711-.452-.343-.72l10.092-7.329a2.339,2.339,0,0,1,1.662-.239l15.407,3.636c.548.129.7.452.345.712Z" transform="translate(-94.978 -198.676)" fill="#b8c4e6"/>
        <path id="Path_7779" data-name="Path 7779" d="M330.186,606.046a2.327,2.327,0,0,1-1.673.245l-15.4-3.636c-.55-.13-.705-.452-.337-.718l10.092-7.33a2.333,2.333,0,0,1,1.656-.239l15.4,3.636c.558.132.712.454.353.714Z" transform="translate(-105.839 -201.239)" fill="#b8c4e6"/>
        <path id="Path_7780" data-name="Path 7780" d="M362.254,613.615a2.309,2.309,0,0,1-1.665.246l-15.408-3.636c-.555-.131-.711-.452-.343-.72l10.091-7.329a2.333,2.333,0,0,1,1.663-.239L372,605.574c.556.131.7.452.345.712Z" transform="translate(-116.697 -203.802)" fill="#b8c4e6"/>
        <path id="Path_7781" data-name="Path 7781" d="M394.338,621.174a2.323,2.323,0,0,1-1.661.247l-15.408-3.636c-.557-.132-.708-.452-.34-.719l10.091-7.329a2.32,2.32,0,0,1,1.66-.239l15.407,3.636c.546.129.7.451.342.712Z" transform="translate(-127.563 -206.362)" fill="#b8c4e6"/>
        <path id="Path_7782" data-name="Path 7782" d="M426.417,628.745a2.331,2.331,0,0,1-1.675.243l-15.405-3.636c-.546-.128-.706-.451-.338-.718l10.092-7.33a2.341,2.341,0,0,1,1.657-.239l15.405,3.636c.56.132.714.455.356.715Z" transform="translate(-138.423 -208.925)" fill="#b8c4e6"/>
        <path id="Path_7783" data-name="Path 7783" d="M458.485,636.313a2.327,2.327,0,0,1-1.666.246l-15.408-3.636c-.555-.131-.708-.452-.34-.72l10.091-7.329a2.33,2.33,0,0,1,1.66-.239l15.407,3.636c.55.13.705.452.347.713Z" transform="translate(-149.282 -211.488)" fill="#b8c4e6"/>
        <path id="Path_7784" data-name="Path 7784" d="M196.552,574.522a2.329,2.329,0,0,1-1.672.244L168.758,568.6c-.556-.131-.712-.452-.344-.72l10.092-7.33a2.339,2.339,0,0,1,1.664-.238l26.122,6.165c.556.131.711.454.353.714Z" transform="translate(-56.959 -189.708)" fill="#b8c4e6"/>
        <path id="Path_7785" data-name="Path 7785" d="M506.081,627.331a2.331,2.331,0,0,1-1.667.243l-26.124-6.166c-.546-.129-.708-.452-.343-.717l10.088-7.326a2.341,2.341,0,0,1,1.665-.243l26.124,6.166c.555.131.711.452.345.718Z" transform="translate(-161.77 -207.589)" fill="#b8c4e6"/>
        <path id="Path_7786" data-name="Path 7786" d="M180.561,590.965a2.3,2.3,0,0,1-1.664.24l-31.142-7.349c-.556-.131-.716-.45-.351-.715l10.093-7.33a2.338,2.338,0,0,1,1.663-.238l31.142,7.35c.561.132.71.454.353.713Z" transform="translate(-49.846 -194.874)" fill="#b8c4e6"/>
        <path id="Path_7787" data-name="Path 7787" d="M149.175,603.773a2.339,2.339,0,0,1-1.667.241l-20.764-4.9c-.556-.131-.709-.454-.349-.716l10.091-7.328a2.345,2.345,0,0,1,1.67-.243l20.764,4.9c.555.131.708.456.346.719Z" transform="translate(-42.732 -200.04)" fill="#b8c4e6"/>
        <path id="Path_7788" data-name="Path 7788" d="M238.915,564.3a2.326,2.326,0,0,1-1.671.242l-15.4-3.633c-.555-.131-.711-.454-.347-.718l10.088-7.326a2.329,2.329,0,0,1,1.669-.242l15.4,3.634c.562.132.716.452.35.718Z" transform="translate(-74.935 -187.105)" fill="#b8c4e6"/>
        <path id="Path_7789" data-name="Path 7789" d="M270.844,571.827a2.338,2.338,0,0,1-1.67.242l-15.406-3.636c-.552-.13-.71-.453-.346-.718l10.088-7.326a2.336,2.336,0,0,1,1.667-.243l15.406,3.636c.555.131.714.452.348.718Z" transform="translate(-85.744 -189.651)" fill="#b8c4e6"/>
        <path id="Path_7790" data-name="Path 7790" d="M302.909,579.394a2.314,2.314,0,0,1-1.662.244L285.841,576c-.551-.13-.706-.452-.342-.717l10.088-7.326a2.332,2.332,0,0,1,1.665-.243l15.406,3.636c.557.132.705.45.34.716Z" transform="translate(-96.605 -192.214)" fill="#b8c4e6"/>
        <path id="Path_7791" data-name="Path 7791" d="M334.994,586.966a2.336,2.336,0,0,1-1.669.242l-15.4-3.634c-.558-.132-.712-.454-.348-.718l10.088-7.326a2.327,2.327,0,0,1,1.67-.242l15.4,3.634c.554.131.712.452.347.718Z" transform="translate(-107.468 -194.778)" fill="#b8c4e6"/>
        <path id="Path_7792" data-name="Path 7792" d="M367.057,594.533a2.307,2.307,0,0,1-1.661.244l-15.4-3.635c-.559-.132-.712-.454-.349-.718l10.088-7.326a2.326,2.326,0,0,1,1.67-.242l15.4,3.635c.559.132.705.45.339.716Z" transform="translate(-118.326 -197.341)" fill="#b8c4e6"/>
        <path id="Path_7793" data-name="Path 7793" d="M399.147,602.093a2.332,2.332,0,0,1-1.663.243L382.071,598.7c-.55-.13-.7-.452-.338-.716l10.087-7.326a2.32,2.32,0,0,1,1.661-.244l15.412,3.638c.547.129.706.45.34.716Z" transform="translate(-129.191 -199.9)" fill="#b8c4e6"/>
        <path id="Path_7794" data-name="Path 7794" d="M431.217,609.663a2.336,2.336,0,0,1-1.668.243l-15.405-3.636c-.557-.132-.714-.454-.35-.719l10.088-7.326a2.333,2.333,0,0,1,1.673-.241l15.405,3.636c.555.131.712.452.346.718Z" transform="translate(-140.048 -202.463)" fill="#b8c4e6"/>
        <path id="Path_7795" data-name="Path 7795" d="M463.286,617.23a2.317,2.317,0,0,1-1.658.245l-15.417-3.638c-.548-.13-.7-.451-.337-.716l10.088-7.326a2.317,2.317,0,0,1,1.658-.245l15.417,3.638c.55.13.7.45.336.716Z" transform="translate(-150.91 -205.026)" fill="#b8c4e6"/>
        <path id="Path_7796" data-name="Path 7796" d="M480.352,632.2a2.425,2.425,0,0,0-.9-.026,1.706,1.706,0,0,0-.753.267l-10.092,7.329c-.169.123-.246.269-.179.41a.759.759,0,0,0,.513.308l4.022.949L459.73,651.05c-.171.124-.237.272-.169.409a.746.746,0,0,0,.519.306l10.379,2.45a2.5,2.5,0,0,0,.9.03,1.726,1.726,0,0,0,.763-.269l23.989-17.422c.17-.123.237-.266.165-.406a.732.732,0,0,0-.521-.309Z" transform="translate(-155.602 -214.05)" fill="#b8c4e6"/>
        <path id="Path_7797" data-name="Path 7797" d="M150.558,603.489a.257.257,0,0,1-.16,0l-11.777-2.779c-.064-.015-.1-.042-.077-.058l.736-.534a.265.265,0,0,1,.159,0l11.777,2.78c.065.016.1.042.079.058Z" transform="translate(-46.91 -203.201)" fill="#b8c4e6"/>
        <path id="Path_7798" data-name="Path 7798" d="M222.008,692.394l-56.471-12.981c-.653-.151-.647-.663.014-1.14L189.257,661.2a3.442,3.442,0,0,1,2.39-.593l56.471,12.982c.654.15.647.663-.013,1.139L224.4,691.8a3.441,3.441,0,0,1-2.39.593" transform="translate(-55.888 -223.673)" fill="#b8c4e6"/>
        <path id="Path_7799" data-name="Path 7799" d="M451,735.5a.864.864,0,0,1-.53-1.548l10.479-8.108a.865.865,0,0,1,1.059,1.368l-10.48,8.108a.866.866,0,0,1-.528.18" transform="translate(-152.42 -245.717)" fill="#372d4f"/>
        <path id="Path_7800" data-name="Path 7800" d="M431.2,751.112a.864.864,0,0,1-.53-1.548l10.479-8.107a.865.865,0,1,1,1.058,1.368l-10.479,8.107a.862.862,0,0,1-.528.181" transform="translate(-145.716 -251.002)" fill="#372d4f"/>
        <path id="Path_7801" data-name="Path 7801" d="M101.84,272.008a7.219,7.219,0,1,1-7.219-7.219A7.219,7.219,0,0,1,101.84,272.008Z" transform="translate(-29.595 -89.66)" fill="none" stroke="#272b47" stroke-linecap="round" stroke-linejoin="round" stroke-width="2.13"/>
        <path id="Path_7802" data-name="Path 7802" d="M711.233,416.242a7.219,7.219,0,1,1-7.219-7.219A7.219,7.219,0,0,1,711.233,416.242Z" transform="translate(-235.94 -138.498)" fill="none" stroke="#272b47" stroke-linecap="round" stroke-linejoin="round" stroke-width="2.13"/>
        <path id="Path_7803" data-name="Path 7803" d="M186.483,436.021h0a2.318,2.318,0,0,1-1.387,2.894l-4.153-.134c-1.06.235-.339-.034-.634-1.392s-1.341-1.3.583-2.211l3.01-.593a3.479,3.479,0,0,1,1.191-.043c.737.11,1.157.411,1.39,1.479" transform="translate(-60.868 -147.128)" fill="#de5840"/>
        <path id="Path_7804" data-name="Path 7804" d="M112.14,428.413l22.643,10.454L156.8,433.4l1.31,4.33s-17.191,12.627-22.747,13.014c-.819.058-17.258-5.592-17.258-5.592Z" transform="translate(-37.972 -145.064)" fill="#a9bdf2"/>
        <g id="Group_896" data-name="Group 896" transform="translate(28.357 426.499)" opacity="0.3" style="mix-blend-mode: multiply;isolation: isolate">
          <g id="Group_895" data-name="Group 895">
            <g id="Group_894" data-name="Group 894" clip-path="url(#clip-path-4)">
              <path id="Path_7805" data-name="Path 7805" d="M49.138,649.1c9.233-5.013,25.306-5.684,35.9-1.5a22.158,22.158,0,0,1,4.583,2.4c6.562-2.154,15.562-2.109,21.837.371,7.443,2.941,8.218,8.181,1.73,11.7-6.235,3.385-16.9,3.943-24.327,1.371-.427.275-.876.546-1.359.808-9.233,5.013-25.306,5.684-35.9,1.5S39.9,654.11,49.138,649.1" transform="translate(-42.875 -644.851)" fill="#9fa3d4"/>
            </g>
          </g>
        </g>
        <path id="Path_7806" data-name="Path 7806" d="M127.963,650.347l-6.739-6.588a6.633,6.633,0,0,0-4.835-1.922,10.682,10.682,0,0,0-1.883.226,1.391,1.391,0,0,0-1.2,1.462l-.108,1.42c-.1,2.376-.364,3.171,1.25,3.865l9.586,4.116c2,1.3,7.349.321,3.927-2.578" transform="translate(-38.303 -217.33)" fill="#1b2d54"/>
        <path id="Path_7807" data-name="Path 7807" d="M109.139,598.7a3.162,3.162,0,0,0,3.267,2.685c.772-.087,1.3-.541,1.412-2-.267-16.328,1.3-29.944,1.058-45.209-.269-17.138-.721-12.083-1.173-38.355l-15.686-3.208c3.387,18.937,5.027,42.818,5.027,42.818C98.95,573,105.464,578.218,109.139,598.7" transform="translate(-33.19 -173.576)" fill="#de5840"/>
        <path id="Path_7808" data-name="Path 7808" d="M95.6,498.654l5.364,40.129a34.046,34.046,0,0,1-.094,12.029c-1.134,6.343-.309,19.067,5.29,37.489,2.511,1.95,5.116,1.891,7.8.118,0,0,2.066-41.084,1.976-49s-2.271-50.559-2.271-50.559Z" transform="translate(-32.37 -165.532)" fill="#2e488a"/>
        <path id="Path_7809" data-name="Path 7809" d="M70.238,651.79l-.13,5.167a25.755,25.755,0,0,1-.869,3.883,3.487,3.487,0,0,1-3.027,2.027c-1.5.075-4.52-2.456-3.436-5.527.946-2.677,2.831-6.943,2.831-6.943,2.119.941,3.1,1.371,4.631,1.393" transform="translate(-21.178 -220.23)" fill="#1b2d54"/>
        <path id="Path_7810" data-name="Path 7810" d="M65.383,607.991c-.292,2.025,3,2.935,4.365.894,1.59-16.2,4.487-30.871,5.983-46.014,1.68-17,3.212-15.98,5.746-42.047l-17.166.809c1.226,19.052.147,42.852.147,42.852-6.316,17.713-.07,20.852.925,43.507" transform="translate(-20.882 -176.355)" fill="#de5840"/>
        <path id="Path_7811" data-name="Path 7811" d="M61.574,497.705s2.056,34.33,1.083,41.878c-.756,5.867-2.747,15.49-3.6,19.488a20.561,20.561,0,0,0-.447,3.956c-.092,5.854.6,21.936,2.794,31.788,1.853,2.7,5.9,2.134,8.949.548L76.978,556c.1-.46,4.864-31.589,4.864-31.589l10.67-.952-6.425-26.38s-25.679,2.79-24.513.622" transform="translate(-19.844 -168.316)" fill="#2e488a"/>
        <path id="Path_7812" data-name="Path 7812" d="M87.23,425.267a12.549,12.549,0,0,1-4.736-.687,8.1,8.1,0,0,0-7.569-.4l-10.7,3.454c-9.875,3.443-8.664,13.865-8.723,19.758,0,0,3.622,6.64,4.092,12.192.405,4.8,3.667,15.589,2.937,17.148-.547,1.167-.3,8.331,5.694,10.155,5.293,1.612,13.827,5.165,18.3,5.045,23.542-.63,16.672-11.625,15.928-19.564-.468-5-2.17-19.74-2.315-23.7s-1.882-22.511-9.84-23.023Z" transform="translate(-18.786 -143.373)" fill="#a9bdf2"/>
        <path id="Path_7813" data-name="Path 7813" d="M87.319,424.436l.432-.458c1.165.291,2.186.135,2.373-1.013l1.058-6.468a2.384,2.384,0,0,0-1.778-2.615l-.345-.086c-1.166-.291-4.375-.132-4.563,1.015l-.584,6.826c-.187,1.148,2.242,2.508,3.407,2.8" transform="translate(-28.41 -140.072)" fill="#de5840"/>
        <path id="Path_7814" data-name="Path 7814" d="M93.192,423.93l1.918.555s1.089,3.343-.412,4.665l-2.889-1.758s1.671-1.691,1.383-3.462" transform="translate(-31.087 -143.546)" fill="#fff"/>
        <path id="Path_7815" data-name="Path 7815" d="M87.889,427.308l-1.618,2.818s-5.822-1.866-6.042-5.11l2.554-1.331s2.855,3.915,5.106,3.623" transform="translate(-27.166 -143.463)" fill="#fff"/>
        <path id="Path_7816" data-name="Path 7816" d="M58.666,490.969c.272-2.713-.179-16.658-.585-21.458-.265-3.143-.985-12.3-1.579-16.951,2.479,4.411,4.195,6.088,4.476,7.172,2.22,8.529,2.835,13.193,7.158,18.116,8.294,9.441,10.547,14.307,18.735,23.948-16.317,1.177-21.407.13-24.913-1.846-4.353-2.452-3.431-7.591-3.292-8.98" transform="translate(-19.132 -153.24)" fill="#9dafe0"/>
        <line id="Line_61" data-name="Line 61" x2="0.804" y2="3.212" transform="translate(78.401 294.995)" fill="none" stroke="#4355c2" stroke-linecap="round" stroke-linejoin="round" stroke-width="1.092"/>
        <line id="Line_62" data-name="Line 62" x1="0.445" y2="3.281" transform="translate(42.807 301.937)" fill="none" stroke="#4355c2" stroke-linecap="round" stroke-linejoin="round" stroke-width="1.092"/>
        <path id="Path_7817" data-name="Path 7817" d="M50.665,434.531s-17.844,14.645-20.5,27.423,23.555,19.373,23.555,19.373L58.2,477.1s-16.465-9.6-15.079-12.39c1.308-2.634,4.886-7.1,7.035-9.678a6.638,6.638,0,0,0,1.527-4.677Z" transform="translate(-10.151 -147.136)" fill="#a9bdf2"/>
        <path id="Path_7818" data-name="Path 7818" d="M72.757,505.343h0a2.2,2.2,0,0,1-3.029.836l-2.671-3.3c-.878-.665-.2-.285.589-1.411s.053-1.9,2-1.008L72.08,502.4a3.729,3.729,0,0,1,.825.894,1.57,1.57,0,0,1-.149,2.053" transform="translate(-22.566 -169.328)" fill="#de5840"/>
        <path id="Path_7819" data-name="Path 7819" d="M87.451,410.031c-.046,4.38-1.567,5.673-4.623,3.767s-4.815-6.59-4.992-10.963c-.085-2.1,1.108-6.092,4.164-4.186s5.5,7,5.451,11.383" transform="translate(-26.354 -134.816)" fill="#de5840"/>
        <path id="Path_7820" data-name="Path 7820" d="M94.411,407.642c-.483,4.355-4.4,6.632-7.245,4.381s-4.759-7.606-4.275-11.961,3.181-6.061,6.025-3.81,5.978,7.035,5.495,11.39" transform="translate(-28.042 -133.838)" fill="#de5840"/>
        <path id="Path_7821" data-name="Path 7821" d="M78.061,410s1.081,2.882,3.51,2.692c3.787-.3,2.988-7.718,6.574-9.145,4.849-1.929,4.156-6.436,2.234-8.211s-5.586-.868-8.9.018c-3.509.938-7.411,3.178-3.415,14.647" transform="translate(-25.861 -133.519)" fill="#24386b"/>
        <path id="Path_7822" data-name="Path 7822" d="M89.944,411.512a1.856,1.856,0,0,1-1.993,1.712,1.874,1.874,0,0,1-1.568-2.122,1.8,1.8,0,1,1,3.562.41" transform="translate(-29.245 -138.619)" fill="#de5840"/>
        <path id="Path_7823" data-name="Path 7823" d="M91.016,412.545h0a.61.61,0,0,1-.623-.607l-.711-4.167c-.014-.353.815-.075,1.144-.094s1.284-.258,1.3.1l-.535,4.1a.639.639,0,0,1-.573.677" transform="translate(-30.367 -138.01)" fill="#24386b"/>
        <path id="Path_7824" data-name="Path 7824" d="M302.272,133.64l2.278,19.545-20.625-8.363Z" transform="translate(-96.139 -45.252)" fill="none" stroke="#272b47" stroke-linecap="round" stroke-linejoin="round" stroke-width="2.221"/>
        <path id="Path_7825" data-name="Path 7825" d="M619.661,685.37c-7.91-5.076-21.964-6.361-31.391-2.871a18.836,18.836,0,0,0-4.1,2.064c-5.671-2.287-13.556-2.613-19.139-.545-6.624,2.452-7.488,7.332-1.93,10.9,5.341,3.427,14.662,4.386,21.26,2.28.364.275.747.547,1.161.813,7.91,5.076,21.964,6.362,31.391,2.871s10.657-10.435,2.747-15.511" transform="translate(-189.43 -230.434)" fill="#e4e6f2"/>
        <path id="Path_7826" data-name="Path 7826" d="M564.011,685.411l7.234-7.548a8.2,8.2,0,0,1,4.616-.229,1.293,1.293,0,0,1,1.062,1.373l.1,1.334c.1,2.232.329,2.978-1.093,3.629l-8.446,3.863c-1.76,1.218-6.483.3-3.472-2.423" transform="translate(-190.647 -229.378)" fill="#313363"/>
        <path id="Path_7827" data-name="Path 7827" d="M573.895,679.329s-4.144,4.506-3.663,4.869c1.993,1.5,7.082-2.382,7.082-2.382s-2.509-2.675-3.419-2.486" transform="translate(-193.072 -230.023)" fill="#de5840"/>
        <path id="Path_7828" data-name="Path 7828" d="M580.254,638.263c-1.534,2.5-5.315.6-5.363-2.135,1.023-15.237-1.466-27.414-.519-41.658,1.064-15.992,2.253-16.192,3.919-40.705l14.717,3.319c-3.878,17.456-6.467,39.653-6.467,39.653,2.839,17.345-2.076,20.7-6.287,41.527" transform="translate(-194.413 -187.509)" fill="#de5840"/>
        <path id="Path_7829" data-name="Path 7829" d="M632.193,692.823l.524-9.056a7.109,7.109,0,0,1,2.918-2.751,1.122,1.122,0,0,1,1.474.308l.816.825c1.321,1.419,1.895,1.78,1.323,3.011l-3.4,7.308c-.476,1.794-4.11,3.849-3.655.356" transform="translate(-214.052 -230.545)" fill="#313363"/>
        <path id="Path_7830" data-name="Path 7830" d="M633.909,685.766s-.2,5.308.324,5.277c2.162-.13,3.374-5,3.374-5s-3.2-.912-3.7-.275" transform="translate(-214.634 -232.13)" fill="#de5840"/>
        <path id="Path_7831" data-name="Path 7831" d="M627.982,644.475c-.815,2.818-3.17,1.95-3.942-.675-3.06-14.961-8.693-26.041-11.562-40.025-3.222-15.7-2.128-16.209-7.031-40.285l15.07-.708c.9,17.859,4.294,39.946,4.294,39.946,7.343,15.969,1.7,20.55,3.171,41.747" transform="translate(-205.009 -190.562)" fill="#de5840"/>
        <path id="Path_7832" data-name="Path 7832" d="M614.5,532.972s2.912,6.941,1.3,13.455-.071,43.915-.071,43.915,5.822,14.176,1.247,36.78c0,0-2.524,5.286-6.8,3.806,0,0-8.47-27.964-9.126-30.389s-7.3-43.762-7.3-43.762l-2.078.263-4.556,31.545s2.345,18.926-6.51,37.06c0,0-5.668,1.66-7.947.056,0,0-1.222-32.155-1.107-33.915s5.367-57.15,5.367-57.15Z" transform="translate(-193.529 -180.469)" fill="#36518a"/>
        <path id="Path_7833" data-name="Path 7833" d="M524.931,444.236h0a2.221,2.221,0,0,0-.443,3.074l3.458,2.2c.737.776.295.161,1.275-.757h0c.978-.916,1.8-.293.726-2.085l-2.132-2.142a3.537,3.537,0,0,0-.947-.7,1.482,1.482,0,0,0-1.938.407" transform="translate(-177.446 -150.215)" fill="#de5840"/>
        <path id="Path_7834" data-name="Path 7834" d="M606.806,446.754s1.98,8.29,13.084,9.529c6.687.747,8.818,6.7,11.107,14.04,3.662,11.745,15.393,7.027,15.865,24.1.29,10.466-9.15,18.713-25.423,8.959s-42.423,3.045-43.741-32.476c-.228-6.14,10.52-5.88,10.364-11.531-.171-6.2,4.932-14.836,4.932-14.836Z" transform="translate(-195.612 -150.524)" fill="#24386b" fill-rule="evenodd"/>
        <path id="Path_7835" data-name="Path 7835" d="M570.948,476.979c6.617.114,5.368-5.975,5.368-5.975l-5.67-11.588c-4.146-1.235-14.258,3.032-22.442,4.521a6.826,6.826,0,0,1-4.967-2.768l-11.123-12.393-3.2,2.118,7.442,16.74c2.521,6.5,12.18,7.433,13.78,7.734,0,0,12.943,1.477,20.816,1.611" transform="translate(-179.093 -151.959)" fill="#fff"/>
        <path id="Path_7836" data-name="Path 7836" d="M589.43,476.277s.5-13.221,7.728-12.785c1.007.061,2.729-.821,3.891-.726,6.033.492,5.175.5,9.506,2.33,1.631.69,2.52,5.5,2.2,7.279l2.5,5.451Z" transform="translate(-199.586 -156.694)" fill="#de5840"/>
        <path id="Path_7837" data-name="Path 7837" d="M590.936,463.1c1.189-.126,2.755-.374,2.573.308-.8,3-.624,5.07.384,6,6.08,5.6,9.524-1.716,10.285-4.331.13-.445.749-1.075,1.185-.786l2.35,1.032c16.256,1.408,11.554,8.711,8.176,15.51,0,0-6.244,11.027-6.531,16.009-.249,4.307,3.428,11.077,4.124,12.478.9,1.817-5.193,12.855-21.756,10.486-13.044-1.865-13.741-7.067-13.266-14.19.3-4.482,3.356-16.93,3.39-20.487s-2.648-5.932-.591-11.59,3.386-9.5,3.386-9.5Z" transform="translate(-195.837 -156.76)" fill="#fff"/>
        <path id="Path_7838" data-name="Path 7838" d="M608.422,460.715l-.3.026a1.724,1.724,0,0,1-1.907-1.654l-.18-5.625a1.968,1.968,0,0,1,1.792-1.974l.3-.026c1.018-.088,2.508.393,2.54,1.391l.44,5.977c.032,1-1.667,1.8-2.684,1.885" transform="translate(-205.207 -152.865)" fill="#de5840"/>
        <path id="Path_7839" data-name="Path 7839" d="M606.112,458.32a5.385,5.385,0,0,0,4.269-1.964s-1.962,3.386-4.2,3.536Z" transform="translate(-205.234 -154.526)" fill="#de5840"/>
        <path id="Path_7840" data-name="Path 7840" d="M600.031,444.471s-1.88,5.753,1.345,7.48,5.691-10.206,5.691-10.206Z" transform="translate(-202.991 -149.578)" fill="#313363"/>
        <path id="Path_7841" data-name="Path 7841" d="M611.18,442.091a2.292,2.292,0,0,0-3.3-1.456c-1.134-.717-2.7-.205-4.054,1.536-1.884,2.424-2.891,6.595-1.929,8.949a2.568,2.568,0,0,0,2.11,1.535,6.25,6.25,0,0,0,2.389-.038c2.848-.573,2.837-.166,4.091-1.78,1.883-2.424,1.66-6.391.7-8.746" transform="translate(-203.68 -149.096)" fill="#de5840"/>
        <path id="Path_7842" data-name="Path 7842" d="M613.311,443.331c.644,2.745.014,8.763.056,9.578,0,0,5.487.525,5.539-5.738.065-7.8-4.8-4.464-4.8-4.464Z" transform="translate(-207.672 -149.664)" fill="#24386b"/>
        <path id="Path_7843" data-name="Path 7843" d="M610.647,443.365c-2.825-1.607-5.167-2.89-10.274.4-.265-.7.914-2.783,1.969-3.371,2.2-1.229,3.326-1.9,5.576-2.106l.538.009c3.249.052,4.791,1.5,5.086,4.667.026.278.417,1.585.405,1.816l-.982-.473c-.085,1.842-.448-.966-2.318-.946" transform="translate(-203.278 -148.41)" fill="#24386b"/>
        <path id="Path_7844" data-name="Path 7844" d="M604.435,455.037h0a2.314,2.314,0,0,1-.949-2.189l2.122.927c-.062.953-.587,1.518-1.173,1.262" transform="translate(-204.343 -153.338)" fill="#fff"/>
        <path id="Path_7845" data-name="Path 7845" d="M648.837,551.611h0a2.17,2.17,0,0,0,2.4-1.865l-.941-3.9c.008-1.048-.1-.314-1.41-.334h0c-1.31-.02-1.466-1.019-1.925.975l.046,2.959a3.455,3.455,0,0,0,.2,1.134c.247.676.608,1.016,1.639,1.031" transform="translate(-219.065 -184.624)" fill="#de5840"/>
        <path id="Path_7846" data-name="Path 7846" d="M638.168,473.006c-4.283-5.533-8.972-6.042-8.972-6.042l1.02,21.295,12.722,9.431c1.333,1.745,2.212,2.876,1.789,4.87l-3.539,16.682,3.954,1.1,8.791-15.6c3.665-5.782-2.179-13.506-3.026-14.873,0,0-7.922-10.644-12.738-16.866" transform="translate(-213.051 -158.118)" fill="#fff"/>
        <path id="Path_7847" data-name="Path 7847" d="M638.168,473.006c-4.283-5.533-8.972-6.042-8.972-6.042l4.051,7.85,15.345,17.251c1.333,1.745,5.139,9.58,4.716,11.574l.624,1.106c3.665-5.782-2.179-13.506-3.026-14.873,0,0-7.922-10.644-12.738-16.866" transform="translate(-213.051 -158.118)" fill="#e4e6f2"/>
        <path id="Path_7848" data-name="Path 7848" d="M615.3,453.444a1.573,1.573,0,1,1-1.468-1.671,1.573,1.573,0,0,1,1.468,1.671" transform="translate(-207.281 -152.973)" fill="#de5840"/>
        <path id="Path_7849" data-name="Path 7849" d="M627.172,517.843c-.7-1.4-4.23-8.847-3.982-13.154.163-2.82-.331-12.359.875-16.233-2.291,4.267-4.019,8.624-5.9,11.863a19.855,19.855,0,0,0-2.221,13.4,12.951,12.951,0,0,1-9.132,15.18c12.536-.387,21.159-9.449,20.362-11.055" transform="translate(-205.471 -165.395)" fill="#e4e6f2"/>
        <path id="Path_7850" data-name="Path 7850" d="M590.3,600.7l4.581-31.941-3.931.86-3.7,32.491s-2.717,28.077-6.31,36.241l2.847-.591s9.1-15.067,6.511-37.06" transform="translate(-196.71 -192.587)" fill="#213361"/>
        <g id="Group_899" data-name="Group 899" transform="translate(192.711 365.658)" opacity="0.3" style="mix-blend-mode: multiply;isolation: isolate">
          <g id="Group_898" data-name="Group 898">
            <g id="Group_897" data-name="Group 897" clip-path="url(#clip-path-5)">
              <path id="Path_7851" data-name="Path 7851" d="M291.372,585.568l34.8,25.118,69.861-17.53,19.362-11.513L312.043,552.861Z" transform="translate(-291.372 -552.861)" fill="#7d7fa6"/>
            </g>
          </g>
        </g>
        <path id="Path_7852" data-name="Path 7852" d="M432.294,579.212h0a5.248,5.248,0,0,1-6.83-2.849l-33.445-81.3a5.233,5.233,0,1,1,9.679-3.982l33.445,81.3a5.248,5.248,0,0,1-2.849,6.83" transform="translate(-132.609 -165.187)" fill="#24386b"/>
        <path id="Path_7853" data-name="Path 7853" d="M343.544,590.552h0a5.249,5.249,0,0,1-4.623-5.779l9.71-87.377a5.249,5.249,0,0,1,5.779-4.623h0a5.248,5.248,0,0,1,4.623,5.779l-9.71,87.377a5.249,5.249,0,0,1-5.779,4.623" transform="translate(-114.75 -166.846)" fill="#24386b"/>
        <path id="Path_7854" data-name="Path 7854" d="M284.217,562.488h0a5.248,5.248,0,0,1-1.445-7.258l48.827-73.11a5.249,5.249,0,0,1,7.258-1.445h0a5.249,5.249,0,0,1,1.445,7.258l-48.827,73.11a5.248,5.248,0,0,1-7.258,1.445" transform="translate(-95.452 -162.464)" fill="#24386b"/>
        <path id="Path_7855" data-name="Path 7855" d="M345.561,305.173c-50.2-11.633-94.749,21.274-99.494,73.5S278.174,482.665,328.378,494.3s94.748-21.274,99.494-73.5-32.107-103.992-82.311-115.625" transform="translate(-83.181 -102.542)" fill="#c74c3e"/>
        <path id="Path_7856" data-name="Path 7856" d="M411.2,431.933c-4.745,52.225-49.29,85.132-99.494,73.5s-87.056-63.4-82.311-115.625,49.29-85.132,99.494-73.5,87.056,63.4,82.311,115.625" transform="translate(-77.537 -106.313)" fill="#f25c4b"/>
        <path id="Path_7857" data-name="Path 7857" d="M394.645,443.043c-3.249,35.76-33.75,58.293-68.126,50.327S266.91,449.959,270.159,414.2s33.75-58.292,68.126-50.327,59.609,43.411,56.361,79.171" transform="translate(-91.383 -122.668)" fill="#fff"/>
        <path id="Path_7858" data-name="Path 7858" d="M380.169,452.2c-1.693,18.637-17.589,30.38-35.5,26.229s-31.066-22.624-29.373-41.262,17.589-30.38,35.5-26.229,31.066,22.625,29.373,41.262" transform="translate(-106.71 -138.866)" fill="#f25c4b"/>
        <path id="Path_7859" data-name="Path 7859" d="M369.72,459.752c-.812,8.929-8.427,14.555-17.011,12.566s-14.885-10.84-14.073-19.769,8.427-14.555,17.011-12.566,14.885,10.84,14.073,19.769" transform="translate(-114.641 -148.847)" fill="#fff"/>
        <g id="Group_902" data-name="Group 902" transform="translate(215.181 307.834)" opacity="0.12" style="mix-blend-mode: multiply;isolation: isolate">
          <g id="Group_901" data-name="Group 901">
            <g id="Group_900" data-name="Group 900" clip-path="url(#clip-path-6)">
              <path id="Path_7860" data-name="Path 7860" d="M334.535,554.132l-9.191-3.663,17.3-83.728,9.943-1.308Z" transform="translate(-325.345 -465.433)" fill="#7d7fa6"/>
            </g>
          </g>
        </g>
        <path id="Path_7861" data-name="Path 7861" d="M238.6,553.016,226.74,549.86a7.771,7.771,0,0,0-7.031,1.589L206.036,563.07a3.584,3.584,0,0,0,1.528,6.226l10.11,2.293Z" transform="translate(-69.337 -186.099)" fill="#fff"/>
        <path id="Path_7862" data-name="Path 7862" d="M217.637,545.667h0c1.737,1.823,4.394,2.208,5.9.856l92.891-83.186c1.511-1.353,1.325-3.951-.412-5.775s-4.394-2.208-5.9-.856l-92.891,83.187c-1.51,1.352-1.324,3.951.413,5.774" transform="translate(-73.208 -154.371)" fill="#3a4f7a"/>
        <path id="Path_7863" data-name="Path 7863" d="M250.59,557.051l1.562,12.937a6.328,6.328,0,0,1-2.078,5.486l-12.154,10.8a4.805,4.805,0,0,1-7.981-3.193l-.658-7.9Z" transform="translate(-77.636 -188.622)" fill="#fff"/>
      </g>
    </g>
  </g>
</svg>
