<svg id="Group_880" data-name="Group 880" xmlns="http://www.w3.org/2000/svg" xmlns:xlink="http://www.w3.org/1999/xlink" width="551.469" height="471.804" viewBox="0 0 551.469 471.804">
  <defs>
    <clipPath id="clip-path">
      <rect id="Rectangle_874" data-name="Rectangle 874" width="551.469" height="471.804" fill="none"/>
    </clipPath>
    <clipPath id="clip-path-3">
      <rect id="Rectangle_870" data-name="Rectangle 870" width="154.598" height="160.348" fill="none"/>
    </clipPath>
    <clipPath id="clip-path-4">
      <rect id="Rectangle_872" data-name="Rectangle 872" width="44.672" height="32.558" fill="none"/>
    </clipPath>
  </defs>
  <g id="Group_879" data-name="Group 879" clip-path="url(#clip-path)">
    <g id="Group_878" data-name="Group 878">
      <g id="Group_877" data-name="Group 877" clip-path="url(#clip-path)">
        <path id="Path_7608" data-name="Path 7608" d="M134.971,100.568c-10.731-50.419,58.167-153.7,184.765-67.235C376.489,72.1,464.624,45.207,527.148,87.146c88.343,59.259,82.833,199.65-10.62,260.182-69.374,44.936-347.288,35.452-388.874-61.282-33.625-78.215,29.726-80.19,7.317-185.477" transform="translate(-38.677 0)" fill="#e4e6f2"/>
        <path id="Path_7609" data-name="Path 7609" d="M335.159,493.793l-118.513,37.69c-15.251,1.974-30.185,6.6-42.918,13.876-35.238,20.148-40.277,53.018-11.253,73.416s81.119,20.6,116.357.452c12.962-7.411,21.822-16.545,26.419-26.146l72.639-73.054c2.248-15.82-19.663-26.675-42.731-26.234" transform="translate(-47.235 -162.403)" fill="#e4e6f2"/>
        <path id="Path_7610" data-name="Path 7610" d="M334.111,239.671c-23.57-23.944-56.1-77.981-19.4-176.752,0,0,.991.809,2.73,2.353a150.02,150.02,0,0,1,45.417,74.118l19.675,74.935Z" transform="translate(-98.072 -20.694)" fill="#bbcaf2"/>
        <path id="Path_7611" data-name="Path 7611" d="M283.729,287.76c-42.355-20.054-118.5-77.29-114.94-229.7,0,0,93.727,34.4,133.814,109.262Z" transform="translate(-55.475 -19.094)" fill="#9bb3f0"/>
        <line id="Line_52" data-name="Line 52" x1="101.879" y1="166.162" transform="translate(132.659 74.592)" fill="none" stroke="#fffcfa" stroke-linecap="round" stroke-linejoin="round" stroke-width="2.205"/>
        <line id="Line_53" data-name="Line 53" x1="33.302" y1="12.701" transform="translate(123.746 102.678)" fill="none" stroke="#fffcfa" stroke-linecap="round" stroke-linejoin="round" stroke-width="2.205"/>
        <line id="Line_54" data-name="Line 54" x1="49.567" y1="11.546" transform="translate(132.481 141.451)" fill="none" stroke="#fffcfa" stroke-linecap="round" stroke-linejoin="round" stroke-width="2.205"/>
        <line id="Line_55" data-name="Line 55" x1="10.112" y2="37.911" transform="translate(157.049 77.468)" fill="none" stroke="#fffcfa" stroke-linecap="round" stroke-linejoin="round" stroke-width="2.205"/>
        <line id="Line_56" data-name="Line 56" x1="15.63" y2="49.254" transform="translate(182.048 103.743)" fill="none" stroke="#fffcfa" stroke-linecap="round" stroke-linejoin="round" stroke-width="2.205"/>
        <line id="Line_57" data-name="Line 57" x1="15.63" y2="49.254" transform="translate(208.193 144.575)" fill="none" stroke="#fffcfa" stroke-linecap="round" stroke-linejoin="round" stroke-width="2.205"/>
        <line id="Line_58" data-name="Line 58" x1="49.568" y1="11.546" transform="translate(155.992 183.622)" fill="none" stroke="#fffcfa" stroke-linecap="round" stroke-linejoin="round" stroke-width="2.205"/>
        <path id="Path_7612" data-name="Path 7612" d="M567.979,138.925a7.325,7.325,0,1,1-7.325-7.325A7.325,7.325,0,0,1,567.979,138.925Z" transform="translate(-181.988 -43.283)" fill="none" stroke="#272b47" stroke-linecap="round" stroke-linejoin="round" stroke-width="2.13"/>
        <path id="Path_7613" data-name="Path 7613" d="M15.716,327.233a7.325,7.325,0,1,1-7.325-7.325A7.325,7.325,0,0,1,15.716,327.233Z" transform="translate(-0.35 -105.217)" fill="none" stroke="#272b47" stroke-linecap="round" stroke-linejoin="round" stroke-width="2.13"/>
        <path id="Path_7614" data-name="Path 7614" d="M461.145,589.753,218.753,550.46c-6.888-1.117-7.566-5.981-1.505-10.809l67.573-53.836c6.061-4.828,16.655-7.865,23.544-6.748L550.756,518.36c6.888,1.117,7.566,5.981,1.505,10.809L484.689,583c-6.061,4.829-16.655,7.865-23.544,6.749" transform="translate(-70.091 -157.488)" fill="#e4e6f2"/>
        <path id="Path_7615" data-name="Path 7615" d="M531.723,245.488l-236.51-48.8a10,10,0,0,0-8.448,2.339l-8.751,6.216,4.676,6.653-9.2,169.429a8.306,8.306,0,0,0,6.611,8.821l234.508,53.879s7.4-5.233,9.585-6.751a10.683,10.683,0,0,0,4.644-8.111l9.493-174.857a8.307,8.307,0,0,0-6.611-8.822" transform="translate(-89.947 -64.63)" fill="#8ea6e6"/>
        <path id="Path_7616" data-name="Path 7616" d="M502.681,448.772l-236.51-48.8a8.308,8.308,0,0,1-6.611-8.822L269.053,216.3c.335-6.173,6.358-10.992,12.227-9.781l236.51,48.8a8.309,8.309,0,0,1,6.611,8.822l-9.493,174.857c-.335,6.173-6.358,10.991-12.227,9.781" transform="translate(-85.364 -67.861)" fill="#fff"/>
        <path id="Path_7617" data-name="Path 7617" d="M527.526,284.681l1.115-20.546a8.306,8.306,0,0,0-6.611-8.821l-236.51-48.8c-5.869-1.211-11.893,3.607-12.227,9.781l-.852,15.7Z" transform="translate(-89.605 -67.861)" fill="#3f5a9e"/>
        <path id="Path_7618" data-name="Path 7618" d="M321.619,540.222l1.831.015c8.31.069,15.778-8.957,16.68-20.161l7.732-96.044c.9-11.2-5.1-20.34-13.413-20.409l-1.831-.015c-8.31-.068-15.778,8.958-16.68,20.161l-7.733,96.044c-.9,11.2,5.1,20.34,13.413,20.409" transform="translate(-101.339 -132.745)" fill="#3d4bad"/>
        <path id="Path_7619" data-name="Path 7619" d="M318.99,339.988l15.717-4.8a31.28,31.28,0,0,1,35.056,12.421h0a31.279,31.279,0,0,1-6.915,42.333l-10.082,7.718Z" transform="translate(-104.915 -109.795)" fill="#2e4f91"/>
        <path id="Path_7620" data-name="Path 7620" d="M109.429,352.373l138.389-9.367c19.794,9.043,37.39,34.689,33.777,57.679L189.945,505.4c-2.225,2.841-7.478,3.964-8.6,1.838L102.783,357.917c-1.119-2.126,2.943-5.514,6.646-5.545" transform="translate(-33.743 -112.814)" fill="#4e62e0"/>
        <path id="Path_7621" data-name="Path 7621" d="M109.429,355.1l50.99-3.81c26.886,3.912,77.879,56.421,66.267,115.24l-36.742,41.594c-2.225,2.841-7.478,3.964-8.6,1.838L102.783,360.641c-1.119-2.126,2.943-5.514,6.646-5.545" transform="translate(-33.743 -115.537)" fill="#fff"/>
        <path id="Path_7622" data-name="Path 7622" d="M313.119,343.006s34.662,11.979,33.777,57.679l-8.269,9.348s6.437-43.357-37.488-66.077Z" transform="translate(-99.043 -112.814)" fill="#fff"/>
        <g id="Group_873" data-name="Group 873" transform="translate(114.72 234.42)" opacity="0.23" style="mix-blend-mode: multiply;isolation: isolate">
          <g id="Group_872" data-name="Group 872">
            <g id="Group_871" data-name="Group 871" clip-path="url(#clip-path-3)">
              <path id="Path_7623" data-name="Path 7623" d="M313.273,394.282a31.087,31.087,0,0,0,4.894-44.975L170.944,447.73l32,60.821c1.119,2.126,6.372,1,8.6-1.838L303.191,402Z" transform="translate(-170.943 -349.306)" fill="#2e4f91"/>
            </g>
          </g>
        </g>
        <path id="Path_7624" data-name="Path 7624" d="M75.81,462.9c21.307,42.759,65.176,64.829,97.986,49.294s42.135-62.791,20.828-105.55-65.176-64.829-97.986-49.294S54.5,420.142,75.81,462.9" transform="translate(-21.173 -115.896)" fill="#7184ff"/>
        <path id="Path_7625" data-name="Path 7625" d="M89.151,466.714c19.557,39.247,58.528,60.116,87.046,46.613s35.784-56.265,16.227-95.511S133.9,357.7,105.379,371.2s-35.784,56.264-16.227,95.511" transform="translate(-25.71 -120.736)" fill="#4a5dd4"/>
        <path id="Path_7626" data-name="Path 7626" d="M200.164,405.155c-5.851.559-13.186,2.611-22.59,6.592-19.911,8.431-27.721,29.969-20.12,47.312s27.519,23.2,47.644,15.492c10.821-4.147,17.81-8.491,22.107-13a103.116,103.116,0,0,0-11.364-34.167,109.334,109.334,0,0,0-15.678-22.228" transform="translate(-50.845 -133.254)" fill="#27427a"/>
        <path id="Path_7627" data-name="Path 7627" d="M192.342,460.671c5.131,9,3.45,18.849-3.756,22s-17.207-1.6-22.339-10.6-3.45-18.849,3.756-22,17.207,1.6,22.339,10.6" transform="translate(-53.701 -147.708)" fill="#2e4f91"/>
        <path id="Path_7628" data-name="Path 7628" d="M105.38,371.2C82.1,382.225,72.986,412.746,81.06,444.934c9.857-19.44,34.222-41.61,91.514-54.923-20.292-20.3-46.5-28.608-67.194-18.808" transform="translate(-25.712 -120.737)" fill="#3f50b8"/>
        <path id="Path_7629" data-name="Path 7629" d="M563.147,496.478,484.966,480.1c-5.145-1.078-9.078-6.368-8.785-11.817l3.2-59.544c.293-5.448,4.7-8.991,9.845-7.914L567.4,417.2c5.145,1.078,9.078,6.369,8.785,11.817l-3.2,59.544c-.293,5.449-4.7,8.991-9.845,7.914" transform="translate(-156.609 -131.766)" fill="#e4e6f2"/>
        <path id="Path_7630" data-name="Path 7630" d="M563.147,512.886l-78.181-16.38c-5.145-1.078-9.078-6.368-8.785-11.817l.813-15.15,19.075-16.86c4.439-3.924,11.618-2.337,15.439,3.411l17.6,26.482,10.362-8.406c5.049-4.1,12.675-3.078,17.853,2.38L573.6,493.7l-.605,11.274c-.293,5.449-4.7,8.991-9.845,7.914" transform="translate(-156.609 -148.174)" fill="#4e62e0"/>
        <path id="Path_7631" data-name="Path 7631" d="M577.189,444.671c-.284,5.3-4.574,8.75-9.581,7.7s-8.834-6.2-8.55-11.5,4.574-8.751,9.581-7.7,8.834,6.2,8.55,11.5" transform="translate(-183.868 -142.407)" fill="#fff"/>
        <line id="Line_59" data-name="Line 59" x1="8.082" y1="12.383" transform="translate(371.837 334.283)" fill="none" stroke="#24386b" stroke-linecap="round" stroke-linejoin="round" stroke-width="2"/>
        <path id="Path_7632" data-name="Path 7632" d="M703.365,394.413s6.581-3.98,13.15,3.4,15.415,13.488,14.231,19.4-25.7,13.809-25.7,13.809-5.37-18.262-6.595-24.94,4.917-11.665,4.917-11.665" transform="translate(-229.665 -129.369)" fill="#24386b"/>
        <path id="Path_7633" data-name="Path 7633" d="M723.6,629.208c-8.261-4.585-22.442-4.974-31.676-.868a18.964,18.964,0,0,0-3.98,2.333c-5.835-1.931-13.766-1.752-19.235.681-6.488,2.885-7.042,7.836-1.237,11.058,5.578,3.1,14.99,3.461,21.474.925.383.252.784.5,1.217.741,8.261,4.585,22.442,4.974,31.676.868s10.022-11.151,1.761-15.737" transform="translate(-218.208 -205.724)" fill="#e4e6f2"/>
        <path id="Path_7634" data-name="Path 7634" d="M679.463,426.382c6.574-1.023,4.291-6.84,4.291-6.84l-6.882-7.256c-4.319-.512-13.263,3.418-21.114,6.3a8.168,8.168,0,0,1-5.967-1.882l-13.634-11.59-2.811,2.65,10.244,15.3c3.613,6.005,13.341,5.272,14.977,5.294,0,0,13.074-.759,20.895-1.976" transform="translate(-208.306 -133.24)" fill="#de5840"/>
        <path id="Path_7635" data-name="Path 7635" d="M727.468,633.124l.1,4.872a25.908,25.908,0,0,0,.754,3.672,3.124,3.124,0,0,0,2.663,1.954c1.325.092,3.993-2.25,3.046-5.16-.825-2.537-2.476-6.585-2.476-6.585-1.871.857-2.737,1.248-4.087,1.247" transform="translate(-239.262 -207.823)" fill="#24386b"/>
        <path id="Path_7636" data-name="Path 7636" d="M683.8,636,690.55,628a8.21,8.21,0,0,1,4.6-.523,1.3,1.3,0,0,1,1.149,1.3l.183,1.327c.24,2.225.52,2.956-.86,3.7l-8.195,4.4c-1.681,1.329-6.461.713-3.625-2.2" transform="translate(-224.611 -206.339)" fill="#24386b"/>
        <path id="Path_7637" data-name="Path 7637" d="M693.036,629.5s-3.853,4.768-3.35,5.1c2.087,1.376,6.956-3.151,6.956-3.151s-2.709-2.2-3.606-1.948" transform="translate(-226.821 -207.035)" fill="#de5840"/>
        <path id="Path_7638" data-name="Path 7638" d="M696.578,590.516c-1.882.013-3.558,1.011-3.78-1.73.048-15.351-3.388-28.321-3.352-42.672.042-16.113,1.223-16.389,1.322-41.088l14.976,2.386c-2.771,17.76-3.945,40.194-3.945,40.194,3.96,17.219-2.331,21.746-5.221,42.909" transform="translate(-226.757 -166.102)" fill="#de5840"/>
        <path id="Path_7639" data-name="Path 7639" d="M726.627,593.563c-1.135,2.722-3.378,3.49-3.85.78-1.354-15.292-6.37-27.837-7.645-42.13-1.432-16.049-.281-16.432-2.439-41.036l15.132,1.007c-1.137,17.939-.256,40.386-.256,40.386,5.516,16.785,0,19.655-.943,40.993" transform="translate(-234.403 -168.124)" fill="#de5840"/>
        <path id="Path_7640" data-name="Path 7640" d="M686.649,474.864s-10.218-2.354-8.708,54.337a182.881,182.881,0,0,0,20.5,6.976c9.312,2.422,15.36-8.548,22.894-5.939,0,0-4.658-10.84-4.033-15.914s3.736-34.732-4.6-35.7-26.052-3.762-26.052-3.762" transform="translate(-222.923 -156.177)" fill="#6f92f2"/>
        <path id="Path_7641" data-name="Path 7641" d="M732.953,529.94s-.625-11.823,0-16.9-.754-38.162-9.095-39.128c-1.9-.221-3.838,3.877-6.395,3.521.581,4.936,1.748,13.027,4.046,26.258,3.062,17.64-2.723,27.374-8.4,32.526,7.653-.239,13.637,0,19.846-6.278" transform="translate(-234.539 -155.866)" fill="#5b78c7"/>
        <path id="Path_7642" data-name="Path 7642" d="M628.388,403.224h0a2.325,2.325,0,0,0,.573,3.2l4.163,1.046c.988.529.346.063,1.019-1.172s1.7-.885.035-2.312l-2.825-1.427a3.691,3.691,0,0,0-1.172-.379c-.763-.1-1.264.072-1.793,1.042" transform="translate(-206.552 -132.268)" fill="#de5840"/>
        <path id="Path_7643" data-name="Path 7643" d="M695.471,414.19a7.864,7.864,0,0,1,2.3-.211c3.565.2,8.516-1.15,8.883-.9l6.663,3.3c12.777,4.465,12.929,8.183,9.452,14.977,0,0-7.827,11.72-8.175,16.725-.3,4.326,3.315,11.175,4,12.592.885,1.837-5.372,12.859-21.994,10.281-13.089-2.03-11.382-7.39-10.819-14.545.354-4.5,3.583-16.42,3.659-19.995s-2.552-6.362-.417-12.025,3.68-9.524,3.68-9.524Z" transform="translate(-225.42 -135.851)" fill="#6f92f2"/>
        <path id="Path_7644" data-name="Path 7644" d="M710.92,413.577l-.411-.4c-1.04.284-1.97.162-2.192-.869l-1.25-5.811a2.078,2.078,0,0,1,1.49-2.39l.308-.084c1.04-.284,2.68-.064,2.9.966l1.586,6.127c.221,1.031-1.392,2.182-2.433,2.466" transform="translate(-232.539 -132.843)" fill="#de5840"/>
        <path id="Path_7645" data-name="Path 7645" d="M708.127,410.993a5.686,5.686,0,0,0,4.065-2.847s-1.469,3.843-3.766,4.421Z" transform="translate(-232.901 -134.238)" fill="#ba4141"/>
        <path id="Path_7646" data-name="Path 7646" d="M699.578,397.954s-.866,6.333,2.811,7.518,3.986-11.68,3.986-11.68Z" transform="translate(-230.06 -129.517)" fill="#24386b"/>
        <path id="Path_7647" data-name="Path 7647" d="M710.92,393.414c-.99-1.553-2.423-1.808-3.709-.889-1.314-.531-2.847.3-3.923,2.362-1.5,2.874-1.758,7.4-.314,9.663a2.714,2.714,0,0,0,2.482,1.2,6.609,6.609,0,0,0,2.476-.49c2.85-1.134,2.917-.709,3.915-2.623,1.5-2.874.518-6.954-.926-9.219" transform="translate(-230.891 -128.925)" fill="#de5840"/>
        <path id="Path_7648" data-name="Path 7648" d="M712.591,394.7c1.188,2.731,1.67,9.1,1.867,9.942,0,0,5.8-.491,4.671-7.009-1.405-8.114-5.827-3.733-5.827-3.733Z" transform="translate(-234.369 -129.165)" fill="#24386b"/>
        <path id="Path_7649" data-name="Path 7649" d="M710.386,394.744c-3.239-1.136-5.914-2.027-10.6,2.361-.407-.676.424-3.064,1.409-3.874,2.058-1.694,3.1-2.6,5.4-3.241l.56-.093c3.386-.56,5.261.65,6.166,3.888.08.285.733,1.569.765,1.811l-1.111-.307c.26,1.931-.647-.919-2.587-.544" transform="translate(-230.123 -128.192)" fill="#24386b"/>
        <path id="Path_7650" data-name="Path 7650" d="M705.577,408.646h0a2.446,2.446,0,0,1-1.4-2.1l2.38.562c.115,1-.323,1.689-.98,1.533" transform="translate(-231.602 -133.714)" fill="#fff"/>
        <path id="Path_7651" data-name="Path 7651" d="M716.567,404.82a1.662,1.662,0,1,1-1.841-1.46,1.661,1.661,0,0,1,1.841,1.46" transform="translate(-234.588 -132.661)" fill="#de5840"/>
        <path id="Path_7652" data-name="Path 7652" d="M729.842,472.275c-.682-1.417-4.3-8.265-4-12.592.2-2.833,1.689-7.917,2.948-11.8-4.361,7.9-4.537,10.73-9.52,11.514,7.571,12.369,1.689,17.313,1.956,21.818,12.606-.24,9.394-7.318,8.612-8.942" transform="translate(-236.567 -147.309)" fill="#5b78c7"/>
        <path id="Path_7653" data-name="Path 7653" d="M676.035,468.937l13.864,4.11c2.711.8,4.355-.536,3.654-2.977L687.219,448a9.971,9.971,0,0,0-6.2-5.9l-13.864-4.11c-2.711-.8-4.355.536-3.654,2.976l6.333,22.069a9.97,9.97,0,0,0,6.2,5.9" transform="translate(-218.17 -143.978)" fill="#24386b"/>
        <path id="Path_7654" data-name="Path 7654" d="M699.034,473.925h0a1.722,1.722,0,0,0,1.705,1.573l2.987-.076a1.479,1.479,0,0,0,1.419-1.65,1.723,1.723,0,0,0-1.705-1.574l-2.986.077a1.478,1.478,0,0,0-1.419,1.65" transform="translate(-229.908 -155.304)" fill="#de5840"/>
        <path id="Path_7655" data-name="Path 7655" d="M730.772,430.148s7.1,23.049,2.356,31.556-27.7-.092-27.7-.092l.226-2.945,18.182-3.232-1.727-21.751Z" transform="translate(-232.015 -141.475)" fill="#de5840"/>
        <path id="Path_7656" data-name="Path 7656" d="M707.3,413.058l-1.709.536s-.833,3.033.585,4.2l2.532-1.637s-1.588-1.494-1.407-3.1" transform="translate(-231.986 -135.854)" fill="#fff"/>
        <path id="Path_7657" data-name="Path 7657" d="M710.351,416.25l1.59,2.511s4.5-1.5,4.555-4.433l-1.864-.974s-2.233,3.12-4.281,2.9" transform="translate(-233.633 -135.951)" fill="#fff"/>
        <path id="Path_7658" data-name="Path 7658" d="M727.719,634.72s.885,5.243,3.082,4.8.768-5.579.768-5.579Z" transform="translate(-239.345 -208.501)" fill="#de5840"/>
        <path id="Path_7659" data-name="Path 7659" d="M737.446,427.565s3.63,9.795,5.183,15.835-10.646,9.443-14.19-.3-1.8-12.808-1.8-12.808Z" transform="translate(-238.848 -140.625)" fill="#6f92f2"/>
        <path id="Path_7660" data-name="Path 7660" d="M690.061,415.349a47.849,47.849,0,0,0-16.1,4.772s4.253,9.448,2.755,11.438l10.087.172Z" transform="translate(-221.666 -136.607)" fill="#6f92f2"/>
        <path id="Path_7661" data-name="Path 7661" d="M513.913,337.019,302.388,290.354a5.664,5.664,0,0,1-4.151-5.341,3.346,3.346,0,0,1,4.151-3.509l211.525,46.665a5.665,5.665,0,0,1,4.151,5.341,3.346,3.346,0,0,1-4.151,3.509" transform="translate(-98.089 -92.555)" fill="#e4e6f2"/>
        <path id="Path_7662" data-name="Path 7662" d="M558.519,386.117,438.087,360.973c-1.3-.271-2.242-2.407-2.093-4.746s1.333-4.031,2.633-3.76L559.06,377.611c1.3.272,2.242,2.407,2.093,4.747s-1.333,4.031-2.633,3.759" transform="translate(-143.392 -115.916)" fill="#e4e6f2"/>
        <path id="Path_7663" data-name="Path 7663" d="M410.588,473.914l.531-22.036L430.5,463.559l-13.539-.265Z" transform="translate(-135.041 -148.621)" fill="#e4e6f2"/>
        <rect id="Rectangle_871" data-name="Rectangle 871" width="8.23" height="20.708" transform="translate(277.452 314.312) rotate(-27.643)" fill="#e4e6f2"/>
        <path id="Path_7664" data-name="Path 7664" d="M509.016,618.15c-15.043-7.7-42.975-7.874-62.388-.387s-22.955,19.8-7.912,27.5,42.975,7.875,62.388.387,22.955-19.8,7.912-27.5" transform="translate(-141.227 -201.37)" fill="#e4e6f2"/>
        <path id="Path_7665" data-name="Path 7665" d="M488.661,611.631c.376,1.387-.023,11.856-.688,13.37-1.207,4.811-5.706,9.449-13.409,12.961-16.9,7.7-42.77,7.071-57.78-1.415-7-3.956-10.842-8.046-11.053-13.253-.29-2.812-.572-10.673-.572-10.673.5-1.73,2.748.013,4.1-1.62,2.229-3.212,6.027-6.2,11.385-8.642,16.9-7.7,42.77-7.071,57.78,1.415,6.322,3.574,9.693,3.388,10.234,7.857" transform="translate(-133.255 -196.342)" fill="#c74c3e"/>
        <path id="Path_7666" data-name="Path 7666" d="M478.768,593.615c-14.928-8.771-41.29-9.471-58.881-1.564s-19.749,21.428-4.821,30.2,41.29,9.471,58.881,1.564,19.749-21.428,4.821-30.2" transform="translate(-133.25 -192.914)" fill="#f25c4b"/>
        <g id="Group_876" data-name="Group 876" transform="translate(311.036 414.457)" opacity="0.29" style="mix-blend-mode: multiply;isolation: isolate">
          <g id="Group_875" data-name="Group 875">
            <g id="Group_874" data-name="Group 874" clip-path="url(#clip-path-4)">
              <path id="Path_7667" data-name="Path 7667" d="M463.47,650.084s16.723-6.042,20.279-12.841c0,0,24.154-5.469,24.235-19.667,0,0,.575,1.1-.471,12.369,0,0-.24,7.317-10.181,12.945,0,0-12.5,7.952-33.862,7.194" transform="translate(-463.47 -617.576)" fill="#bf865a"/>
            </g>
          </g>
        </g>
        <path id="Path_7668" data-name="Path 7668" d="M448.348,604.358l1.191,13.9,34.54-9.474" transform="translate(-147.46 -198.772)" fill="none" stroke="#fff" stroke-linecap="round" stroke-linejoin="round" stroke-width="5.335"/>
      </g>
    </g>
  </g>
</svg>
