<svg xmlns="http://www.w3.org/2000/svg" viewBox="0 0 55.2 53.69"><defs><style>.cls-1{fill:#fff;}</style></defs><title>Asset 1mdpii</title><g id="Layer_2" data-name="Layer 2"><g id="Layer_1-2" data-name="Layer 1"><path class="cls-1" d="M48.7,8.43a1.37,1.37,0,0,0-.39,1.2l.5,2.87-2.59-1.35a1.32,1.32,0,0,0-1.25,0L42.39,12.5l.49-2.87a1.34,1.34,0,0,0-.39-1.2l-2.09-2L43.29,6a1.35,1.35,0,0,0,1-.74L45.6,2.63l1.29,2.61a1.32,1.32,0,0,0,1,.74l2.89.42Zm2.86-3.55L48.27,4.4l-1.46-3a1.35,1.35,0,0,0-2.42,0l-1.47,3-3.29.48a1.35,1.35,0,0,0-.74,2.3l2.37,2.31-.56,3.27a1.35,1.35,0,0,0,2,1.43l2.94-1.55,2.93,1.55a1.35,1.35,0,0,0,2-1.43l-.56-3.27,2.38-2.31A1.35,1.35,0,0,0,51.56,4.88Z"/><path class="cls-1" d="M12.7,8.43a1.37,1.37,0,0,0-.39,1.2l.5,2.87-2.58-1.35a1.34,1.34,0,0,0-1.26,0L6.39,12.5l.49-2.87a1.34,1.34,0,0,0-.39-1.2l-2.08-2L7.29,6a1.35,1.35,0,0,0,1-.74L9.6,2.63l1.29,2.61a1.35,1.35,0,0,0,1,.74l2.89.42Zm3.61-1.25a1.35,1.35,0,0,0-.75-2.3L12.28,4.4l-1.47-3a1.35,1.35,0,0,0-2.42,0l-1.47,3-3.28.48a1.35,1.35,0,0,0-.75,2.3L5.26,9.49,4.7,12.77a1.35,1.35,0,0,0,2,1.42L9.6,12.64l2.94,1.55a1.35,1.35,0,0,0,2-1.42l-.56-3.28Z"/><path class="cls-1" d="M36.44,6.27l-5.11-.74L29.05.9a1.62,1.62,0,0,0-2.9,0L23.86,5.53l-5.11.74A1.62,1.62,0,0,0,17.86,9l3.7,3.6-.88,5.1A1.62,1.62,0,0,0,23,19.43l3.06-1.61a.81.81,0,0,0,.34-1.09.8.8,0,0,0-1.09-.34L22.28,18l.87-5.09a1.59,1.59,0,0,0-.47-1.43L19,7.87l5.12-.74a1.58,1.58,0,0,0,1.21-.88L27.6,1.62l2.28,4.63a1.62,1.62,0,0,0,1.22.88l5.11.74-3.7,3.61a1.61,1.61,0,0,0-.46,1.43L32.92,18l-3.06-1.61a.81.81,0,1,0-.75,1.43l3.06,1.61a1.61,1.61,0,0,0,2.34-1.7l-.87-5.09L37.34,9a1.62,1.62,0,0,0-.9-2.76Z"/><path class="cls-1" d="M43.8,34.49h0a4,4,0,0,0-1.15,3.15,3.16,3.16,0,0,1-1,2.68l-3.78,3.77L27.34,33.57a.83.83,0,0,0-.68-.23l-3.67.5h0c-1.56.26-1.82-1.54-.74-1.94h0c10-3.93,8.55-3.61,11.88-3.59h0c1.42,0,2.56-1.2,3.54-2.21l7.26,7.27L43.8,34.49ZM36.49,46.42a1,1,0,0,1-1.39,0L27,38.23a.81.81,0,0,0-1.15,1.14c1.58,1.6,7.45,7.57,9,9.16a1,1,0,0,1,0,1.43,1,1,0,0,1-1.42,0c-1.69-1.69.23.25-9.17-9.31a.81.81,0,0,0-1.14,0,.8.8,0,0,0,0,1.14l8.2,8.35a1,1,0,0,1,0,1.42,1,1,0,0,1-1.42,0c-1.42-1.42,0,0-8.13-8.34a.82.82,0,0,0-1.15,0,.81.81,0,0,0,0,1.14l5.69,5.86c.11.2.42.38.42.88a1,1,0,0,1-.29.71,1,1,0,0,1-1.42,0L13.59,40.32a3.2,3.2,0,0,1-1-2.68c0-2.3-.64-2.65-2.29-4.29l7.27-7.26c.8.82,2,2.22,3.55,2.22h1.65a7.07,7.07,0,0,1,1.95.35l.7.27-3.74,1.47a2.65,2.65,0,0,0,1.56,5L26.48,35l10,10a1,1,0,0,1,0,1.41Zm-29-12.53L1.67,28.11,12.35,17.44l5.78,5.77C17.87,23.48,8,33.39,7.45,33.89Zm43.13-11A.81.81,0,0,0,49.44,24l4.08,4.08-5.78,5.78L37.06,23.21l5.78-5.77,3.93,3.92a.81.81,0,0,0,1.15-1.14l-4-4a1.48,1.48,0,0,0-2.1,0l-6,6a1.47,1.47,0,0,0,0,2.09l.69.7c-.47.49-1.58,1.73-2.39,1.73h0c-3,0-2.65-.15-6.52,1.37l-2.33-.92h0a8.59,8.59,0,0,0-2.51-.45H21.1c-.8,0-1.88-1.21-2.41-1.75.66-.66,1.11-1,1.11-1.73a1.46,1.46,0,0,0-.43-1l-6-6a1.48,1.48,0,0,0-2.1,0L.43,27.07a1.49,1.49,0,0,0,0,2.09l6,6a1.48,1.48,0,0,0,2.1,0l.64-.64c1.64,1.64,1.79,1.59,1.82,3.18a4.76,4.76,0,0,0,1.49,3.79L23.91,52.92a2.62,2.62,0,0,0,4.27-.85l.62.62a2.62,2.62,0,0,0,4.35-1A2.63,2.63,0,0,0,36.6,48.2a2.54,2.54,0,0,0,1-.64h0a2.6,2.6,0,0,0,.75-1.72s4.35-4.33,4.39-4.38a4.76,4.76,0,0,0,1.49-3.79c0-1.64.23-1.58,1.8-3.16.61.61.93,1.06,1.67,1.06a1.48,1.48,0,0,0,1-.44l6-6a1.47,1.47,0,0,0,0-2.09Z"/></g></g></svg>