<svg xmlns="http://www.w3.org/2000/svg" width="42.947" height="42.947" viewBox="0 0 42.947 42.947">
  <path id="Icon_awesome-plus" data-name="Icon awesome-plus" d="M39.879,19.122h-13.8V5.318A3.068,3.068,0,0,0,23.007,2.25H19.94a3.068,3.068,0,0,0-3.068,3.068v13.8H3.068A3.068,3.068,0,0,0,0,22.19v3.068a3.068,3.068,0,0,0,3.068,3.068h13.8v13.8A3.068,3.068,0,0,0,19.94,45.2h3.068a3.068,3.068,0,0,0,3.068-3.068v-13.8h13.8a3.068,3.068,0,0,0,3.068-3.068V22.19A3.068,3.068,0,0,0,39.879,19.122Z" transform="translate(0 -2.25)" fill="#fff"/>
</svg>
