<svg xmlns="http://www.w3.org/2000/svg" width="85.172" height="85.171" viewBox="0 0 85.172 85.171">
  <g id="_002-trade" data-name="002-trade" transform="translate(0 -0.004)">
    <g id="Group_938" data-name="Group 938" transform="translate(5.678 70.98)">
      <g id="Group_937" data-name="Group 937">
        <path id="Path_7870" data-name="Path 7870" d="M36.259,400a4.259,4.259,0,1,0,4.259,4.259A4.259,4.259,0,0,0,36.259,400Zm0,5.678a1.42,1.42,0,1,1,1.42-1.42A1.42,1.42,0,0,1,36.259,405.682Z" transform="translate(-32 -400.004)" fill="#fff"/>
      </g>
    </g>
    <g id="Group_940" data-name="Group 940" transform="translate(0 0.004)">
      <g id="Group_939" data-name="Group 939" transform="translate(0 0)">
        <path id="Path_7871" data-name="Path 7871" d="M84.194,60.115a6.858,6.858,0,0,0-5.881-3.331h-.3a6.876,6.876,0,0,0-3.227.806L63.878,63.409v-19.4h4.968a7.807,7.807,0,1,0,0-15.615H38.327a7.1,7.1,0,1,1,0-14.2H43.3l8.091,10.788a1.42,1.42,0,0,0,1.136.568H83.751a1.42,1.42,0,0,0,1.42-1.42V1.424A1.42,1.42,0,0,0,83.751,0H52.522a1.42,1.42,0,0,0-1.136.568L43.3,11.36H38.327a9.937,9.937,0,1,0,0,19.873h30.52a4.968,4.968,0,1,1,0,9.937H63.878V35.492a1.42,1.42,0,0,0-1.42-1.42H22.712a1.42,1.42,0,0,0-1.42,1.42V56.784A21.12,21.12,0,0,0,18.1,58.2H0v2.839H17.034V82.336H0v2.839H53.788a7.1,7.1,0,0,0,3.652-1.012l24.4-14.639A6.858,6.858,0,0,0,84.194,60.115ZM55.379,16.795a4.258,4.258,0,1,0-5.434-5.434h-3.1l6.388-8.517h29.1V22.716h-29.1L46.844,14.2h3.1A4.258,4.258,0,0,0,55.379,16.795ZM52.522,12.78a1.42,1.42,0,1,1,1.42,1.42A1.42,1.42,0,0,1,52.522,12.78ZM39.746,36.911h5.678v5.678H39.746Zm-15.615,0H36.907v7.1a1.42,1.42,0,0,0,1.42,1.42h8.517a1.42,1.42,0,0,0,1.42-1.42v-7.1H61.039V64.923l-2.325,1.239A6.388,6.388,0,0,0,52.522,58.2H38.7A21.541,21.541,0,0,0,24.132,56ZM80.38,67.089,55.98,81.728a4.258,4.258,0,0,1-2.192.608H19.873V60.475a18.7,18.7,0,0,1,17.744.388,1.409,1.409,0,0,0,.71.18h14.2a3.549,3.549,0,1,1,0,7.1H39.746a1.42,1.42,0,1,0,0,2.839H55.361a1.419,1.419,0,0,0,.669-.166L76.123,60.1a4.032,4.032,0,0,1,1.891-.473h.3a4.019,4.019,0,0,1,2.067,7.465Z" transform="translate(0 -0.004)" fill="#fff"/>
      </g>
    </g>
    <g id="Group_942" data-name="Group 942" transform="translate(68.135 5.682)">
      <g id="Group_941" data-name="Group 941">
        <path id="Path_7872" data-name="Path 7872" d="M392.493,41.277a3.163,3.163,0,0,0-1.74-2.511L387.017,36.9a.335.335,0,0,1,.142-.636h5.349V33.424h-2.839V32H386.83v1.454a3.163,3.163,0,0,0-1.085,5.979l3.736,1.868a.335.335,0,0,1-.142.636h-5.349V44.78h2.839V46.2h2.839V44.746A3.163,3.163,0,0,0,392.493,41.277Z" transform="translate(-383.989 -32.004)" fill="#fff"/>
      </g>
    </g>
  </g>
</svg>
