<svg xmlns="http://www.w3.org/2000/svg" width="80.593" height="62.68" viewBox="0 0 80.593 62.68">
  <g id="_003-web-visibility" data-name="003-web-visibility" transform="translate(-4.997 -11)">
    <path id="path4" d="M25.891,11c-4.6,0-8.871,2.018-12.322,4.48a40.388,40.388,0,0,0-8.286,8.073,1.491,1.491,0,0,0,0,1.756,40.388,40.388,0,0,0,8.286,8.073c3.451,2.462,7.719,4.48,12.322,4.48s8.871-2.018,12.322-4.48A40.388,40.388,0,0,0,46.5,25.31a1.491,1.491,0,0,0,0-1.756,40.388,40.388,0,0,0-8.286-8.073C34.762,13.018,30.494,11,25.891,11Zm17.5,13.431A37.679,37.679,0,0,0,36.48,17.91c-2.973-2.122-6.624-3.925-10.589-3.925s-7.616,1.8-10.589,3.925A37.68,37.68,0,0,0,8.39,24.431,37.68,37.68,0,0,0,15.3,30.953c2.973,2.122,6.624,3.925,10.589,3.925s7.616-1.8,10.589-3.925A37.679,37.679,0,0,0,43.393,24.431Z" transform="translate(0)" fill="#152c5a" fill-rule="evenodd"/>
    <path id="path8" d="M21.462,15a7.462,7.462,0,1,0,7.462,7.462A7.465,7.465,0,0,0,21.462,15Zm0,2.985a4.477,4.477,0,1,1-4.477,4.477A4.48,4.48,0,0,1,21.462,17.984Z" transform="translate(4.433 1.969)" fill="#152c5a" fill-rule="evenodd"/>
    <path id="path12" d="M78.665,26.94V19.476a1.493,1.493,0,0,0-1.492-1.492H44.34a1.492,1.492,0,1,1,0-2.985H77.172a4.477,4.477,0,0,1,4.477,4.477V67.234a4.477,4.477,0,0,1-4.477,4.477h-59.7A4.477,4.477,0,0,1,13,67.234V38.879a1.492,1.492,0,0,1,2.985,0V67.234a1.493,1.493,0,0,0,1.492,1.492h59.7a1.493,1.493,0,0,0,1.492-1.492V29.924H44.34a1.492,1.492,0,1,1,0-2.985Z" transform="translate(3.94 1.969)" fill="#152c5a" fill-rule="evenodd"/>
    <path id="path14" d="M44.431,52.923a1.492,1.492,0,0,0,1.492-1.492V39.492A1.492,1.492,0,0,0,44.431,38H32.492A1.492,1.492,0,0,0,31,39.492V51.431a1.492,1.492,0,0,0,1.492,1.492ZM33.984,40.984v8.954h8.954V40.984Z" transform="translate(12.803 13.294)" fill="#152c5a" fill-rule="evenodd"/>
    <path id="path18" d="M56.431,55.877a1.492,1.492,0,0,0,1.492-1.492V33.492A1.492,1.492,0,0,0,56.431,32H44.492A1.492,1.492,0,0,0,43,33.492V54.385a1.492,1.492,0,0,0,1.492,1.492ZM45.984,34.984v17.91h8.954V34.984Z" transform="translate(18.712 10.34)" fill="#152c5a" fill-rule="evenodd"/>
    <path id="path22" d="M32.431,50.955a1.492,1.492,0,0,0,1.492-1.492v-5.97A1.492,1.492,0,0,0,32.431,42H20.492A1.492,1.492,0,0,0,19,43.493v5.97a1.492,1.492,0,0,0,1.492,1.492Zm-10.447-5.97V47.97h8.954V44.985Z" transform="translate(6.894 15.264)" fill="#152c5a" fill-rule="evenodd"/>
    <g id="Group_943" data-name="Group 943" transform="translate(61.712 22.939)">
      <path id="circle26" d="M55.985,20.492A1.492,1.492,0,1,1,54.492,19,1.492,1.492,0,0,1,55.985,20.492Z" transform="translate(-38.076 -19)" fill="#152c5a" fill-rule="evenodd"/>
      <path id="circle30" d="M51.985,20.492A1.492,1.492,0,1,1,50.492,19,1.492,1.492,0,0,1,51.985,20.492Z" transform="translate(-40.046 -19)" fill="#152c5a" fill-rule="evenodd"/>
      <path id="circle34" d="M47.985,20.492A1.492,1.492,0,1,1,46.492,19,1.492,1.492,0,0,1,47.985,20.492Z" transform="translate(-42.015 -19)" fill="#152c5a" fill-rule="evenodd"/>
      <path id="circle38" d="M2.985,1.492A1.492,1.492,0,1,1,1.492,0,1.492,1.492,0,0,1,2.985,1.492Z" transform="translate(2.985 16.416) rotate(180)" fill="#152c5a" fill-rule="evenodd"/>
    </g>
    <path id="path42" d="M54.462,28h-5.97a1.492,1.492,0,0,0,0,2.985h5.97a1.492,1.492,0,0,0,0-2.985Z" transform="translate(20.682 8.371)" fill="#152c5a" fill-rule="evenodd"/>
  </g>
</svg>
