<svg xmlns="http://www.w3.org/2000/svg" width="71.094" height="79.15" viewBox="0 0 71.094 79.15">
  <g id="Page-1" transform="translate(0 0.004)">
    <g id="_022---Tape-Measure" data-name="022---Tape-Measure" transform="translate(0 -0.004)">
      <path id="Shape" d="M46.516,1.8A116.753,116.753,0,0,0,31.658,1C13.906,1,0,7.954,0,16.83V37.935c0,7.1,8.947,13.081,22.127,15.1Q16.6,57.021,10.446,61.254a2.63,2.63,0,0,0-.146,4.229L27.9,79.567a2.654,2.654,0,0,0,3.215.073c2.947-2.146,5.824-4.389,8.625-6.69q4.089-3.365,7.914-6.905c.013-.015.032-.018.044-.033l.009-.016q3.746-3.463,7.181-7.039c.028-.026.065-.037.09-.067s.021-.044.036-.063c1.681-1.753,3.319-3.517,4.866-5.291,4.4-5.042,9.864-11.314,10.906-19.04,1.063-7.88-.4-19.558-8.038-26.536C57.98,3.585,51.869,2.489,46.516,1.8ZM31.658,3.639c15.73,0,29.02,6.041,29.02,13.191,0,8.549-17.016,13.191-29.02,13.191-15.73,0-29.02-6.041-29.02-13.191S15.928,3.639,31.658,3.639Zm-29.02,34.3V23.259c4.841,5.584,15.872,9.4,29.02,9.4a54.185,54.185,0,0,0,20.3-3.594A271.648,271.648,0,0,1,26.382,49.93V43.212a1.319,1.319,0,1,0-2.638,0V50.6a50.733,50.733,0,0,1-6.6-1.311V41.893a1.319,1.319,0,1,0-2.638,0v6.6a32.086,32.086,0,0,1-5.276-2.312v-8.24a1.319,1.319,0,1,0-2.638,0v6.5c-2.506-1.955-3.957-4.189-3.957-6.5ZM29.547,77.508,11.939,63.429c2.012-1.382,4.164-2.878,6.4-4.452a5.672,5.672,0,0,0,3.914.832,3.089,3.089,0,0,1,3.716,2.676,5.722,5.722,0,0,0,6.481,4.683,3.114,3.114,0,0,1,3.717,2.688,7.18,7.18,0,0,0,.744,2c-2.4,1.935-4.856,3.828-7.362,5.652ZM68.184,34.137a20.23,20.23,0,0,1-1.865,6L64.443,37.5a1.319,1.319,0,1,0-2.15,1.53l2.626,3.693a49.839,49.839,0,0,1-4.242,5.836l-3.671-4.2A1.319,1.319,0,1,0,55.02,46.1l3.927,4.5c-.352.408-.7.81-1.043,1.2-1.285,1.475-2.638,2.942-4.018,4.4l-5.54-4.749a1.319,1.319,0,1,0-1.715,2l5.431,4.66c-1.735,1.774-3.542,3.529-5.4,5.263l-6.233-5.34a1.319,1.319,0,0,0-1.715,2l6,5.136C42.87,66.859,40.948,68.5,39,70.126a7.684,7.684,0,0,1-.276-.915,5.709,5.709,0,0,0-6.471-4.672,3.128,3.128,0,0,1-3.728-2.7,5.683,5.683,0,0,0-6.471-4.66,5.845,5.845,0,0,1-1.187.007C35.878,46.5,53.808,32.7,60.571,23.379a10.066,10.066,0,0,0,2.745-6.405C63.384,12.827,60.472,9.537,57,7.23A16.953,16.953,0,0,1,60.986,9.9c6.434,5.886,8.252,16.412,7.2,24.234Z" transform="translate(0 -0.996)" fill="#152c5a"/>
      <path id="Shape-2" data-name="Shape" d="M28.107,23.666c5.4,0,14.4-1.549,16.723-6.437,1.575-3.319-1.159-6.727-4.241-8.809a30.137,30.137,0,0,0-9.467-3.933,3.576,3.576,0,0,0-2.975.569,3.638,3.638,0,0,0-1.2,1.483C17.785,6.837,11,10.433,11,15.092c0,6.219,10.389,8.574,17.107,8.574Zm9.686-4.221.472-9.373q.441.264.851.54c4.954,3.34,4.85,6.519-1.323,8.834Zm-8.516-11.5V7.921a.989.989,0,0,1,.409-.727.923.923,0,0,1,.784-.153,35.678,35.678,0,0,1,5.22,1.732l-.578,11.484a29.8,29.8,0,0,1-6.775.77ZM26.544,9.194,25.7,20.934c-7.269-.525-12.063-3.348-12.063-5.842,0-2.608,5.23-5.527,12.906-5.9Z" transform="translate(3.51 0.083)" fill="#152c5a"/>
      <path id="Shape-3" data-name="Shape" d="M27.319,11A1.319,1.319,0,0,0,26,12.319v1.319a1.319,1.319,0,1,0,2.638,0V12.319A1.319,1.319,0,0,0,27.319,11Z" transform="translate(8.296 2.196)" fill="#152c5a"/>
      <path id="Shape-4" data-name="Shape" d="M17.144,49.289a1.319,1.319,0,1,0-1.649,2.06l6.6,5.276a1.319,1.319,0,1,0,1.649-2.06Z" transform="translate(4.786 14.321)" fill="#152c5a"/>
    </g>
  </g>
</svg>
